<svg width="155" height="157" viewBox="0 0 155 157" fill="none" xmlns="http://www.w3.org/2000/svg">
<path d="M134.2 54.719C139.612 54.0741 145.386 52.7253 149.957 48.3601C152.329 46.0947 152.974 42.8541 151.703 40.4709C150.427 38.0833 147.108 36.6954 144.027 37.2203C141.425 37.6624 139.293 38.9931 137.437 40.7743C134.312 43.7712 132.284 47.4326 131.24 51.6214C130.67 53.9108 131.203 54.5563 134.2 54.7148L134.2 54.719Z" fill="#454553"/>
<path d="M55.7597 15.1541C55.57 10.5913 54.728 6.4381 51.1554 3.37005C49.9293 2.31736 48.5696 1.47885 46.9339 2.3881C45.2198 3.34021 45.1247 5.03311 45.4906 6.67204C46.4104 10.7951 48.4866 14.2656 51.7991 16.9221C52.6609 17.6133 53.6626 18.5702 54.8119 18.0617C56.0609 17.5114 55.52 16.0676 55.7597 15.1541Z" fill="#454553"/>
<path d="M120.09 22.7732C119.881 26.3618 121.836 27.7979 125.117 26.383C127.696 25.2693 129.719 23.5683 130.11 20.5785C130.526 17.4286 128.14 15.4453 125.076 16.319C122.356 17.0949 120.26 19.8065 120.09 22.7732Z" fill="#454553"/>
<path d="M140.687 87.5554C140.607 89.805 142.963 92.0712 145.406 92.0966C147.501 92.1179 149.188 90.5194 149.286 88.4108C149.398 85.9294 147.698 84.1534 145.138 84.0756C142.528 83.9995 140.763 85.3778 140.683 87.551L140.687 87.5554Z" fill="#454553"/>
<path d="M8.01276 85.5702C10.5863 85.7081 12.4025 84.3154 12.4825 82.1465C12.5626 79.9775 10.7645 78.3793 8.10106 78.2582C5.39123 78.1306 3.37844 79.552 3.30211 81.6447C3.22825 83.6867 5.32048 85.4308 8.01255 85.5745L8.01276 85.5702Z" fill="#454553"/>
<path d="M102.141 150.11C101.994 152.513 103.637 154.524 105.866 154.679C108.103 154.83 110.004 153.179 110.172 150.938C110.344 148.637 108.271 146.402 105.898 146.325C103.903 146.257 102.278 147.901 102.145 150.11L102.141 150.11Z" fill="#454553"/>
<path d="M18.2901 41.1712C18.9123 38.1502 20.8988 36.2225 23.7922 35.2811C27.5222 34.0663 31.1675 35.6398 33.5101 39.3907C35.7978 43.0498 38.5523 43.6549 41.734 40.8856C50.1365 33.5621 60.0272 29.931 70.9435 28.6838C75.2538 28.189 76.3177 27.0822 76.4329 22.7931C76.5452 18.4783 78.4672 15.3465 82.4372 13.6469C85.9261 12.153 89.2907 12.6053 92.0978 15.182C95.2911 18.1085 96.2842 21.7725 94.9849 25.9744C93.7963 29.8209 94.2549 30.8617 97.941 32.2929C109.687 36.8534 118.813 44.5797 125.275 55.3253C130.407 63.8546 133.446 73.1053 133.687 83.1579C134.014 86.9805 133.804 90.777 133.137 94.5512C133.06 95.2477 133.017 95.9543 132.899 96.6446C132.248 100.347 130.924 103.839 129.595 107.335C128.242 110.898 129.269 113.685 132.486 115.688C133.561 116.355 134.708 116.95 135.679 117.753C139.893 121.238 140.094 127.669 136.172 131.446C132.565 134.916 127.099 134.828 123.573 130.799C120.707 127.524 117.063 127.236 113.625 130.375C112.635 131.277 111.604 132.148 110.514 132.922C93.6119 144.938 75.3419 146.256 56.1134 139.795C50.9191 138.049 46.31 135.176 41.8358 132.06C38.6054 129.811 36.0236 130.19 33.4812 133.165C33.1124 133.592 32.7801 134.056 32.3871 134.457C29.9188 136.955 25.9382 137.564 22.8045 135.943C19.7163 134.345 18.0655 130.942 18.7175 127.396C19.2445 124.502 21.2033 122.794 23.6308 121.397C27.3113 119.28 28.2597 116.36 26.6894 112.434C26.2693 111.387 25.8232 110.351 25.3944 109.307C20.6043 97.6797 19.4925 85.726 22.1116 73.4105C23.146 68.5465 24.9011 63.9595 26.9451 59.4544C28.5615 55.8876 27.4574 52.9354 24.0103 51.1253C23.1372 50.667 22.238 50.2201 21.4697 49.614C18.7313 47.4565 17.593 44.596 18.3026 41.1761L18.2901 41.1712Z" fill="#454553"/>
<path d="M107.902 77.6426C108.063 71.1956 106.158 65.7685 100.809 62.0496C91.4215 55.5201 78.7658 61.6394 77.4057 73.2862C76.9463 77.236 77.441 81.0243 79.2313 84.6126C82.3167 90.8058 88.4665 94.2836 94.7533 93.3756C101.382 92.4164 106.354 87.4002 107.54 80.4556C107.706 79.4834 107.793 78.4945 107.902 77.6426Z" fill="white"/>
<path d="M38.7587 73.2653C38.5729 75.3399 38.9162 77.3555 39.491 79.3228C41.3636 85.7584 46.3301 89.6581 52.7447 89.7877C59.3798 89.9194 65.594 85.5323 67.6488 79.0586C69.1818 74.2401 68.8475 69.5089 66.615 64.8892C62.3388 56.045 49.8401 55.0127 43.6686 61.6639C40.6142 64.957 39.009 68.8172 38.7587 73.2653Z" fill="white"/>
<path d="M62.6481 105.7C62.5973 109.449 63.3152 113.011 65.5152 116.118C68.8347 120.812 74.8441 120.459 77.6676 115.457C80.4774 110.476 79.4943 102.594 75.5415 98.4421C71.6089 94.3126 66.249 95.185 63.854 100.365C63.0762 102.046 62.7004 103.839 62.6481 105.7Z" fill="white"/>
<path d="M141.24 47.7417C141.388 47.9271 141.695 47.8996 141.81 47.9009C143.023 47.9132 147.674 44.3243 147.839 43.2162C147.863 43.0604 147.868 42.6192 147.61 42.4284C147.388 42.2649 147.057 42.3591 146.854 42.4256C145.241 42.9668 141.958 45.2855 141.287 46.9461C141.22 47.1168 141.065 47.5124 141.24 47.7374L141.24 47.7417Z" fill="white"/>
<path d="M80.528 74.859C80.4048 77.917 82.724 80.4912 85.7501 80.6596C88.7974 80.8291 91.3422 78.5042 91.4877 75.426C91.638 72.3353 89.3766 69.7936 86.3136 69.598C83.3817 69.4129 80.6466 71.8983 80.5325 74.8549L80.528 74.859Z" fill="#454553"/>
<path d="M54.0853 72.4057C53.9573 75.124 56.2552 77.7014 58.9097 77.8305C61.8268 77.9724 64.3612 75.6003 64.4588 72.6344C64.5513 69.8592 62.2924 67.4407 59.5212 67.3526C56.6483 67.2638 54.2215 69.518 54.0853 72.4057Z" fill="#454553"/>
</svg>
