<svg width="175" height="172" viewBox="0 0 175 172" fill="none" xmlns="http://www.w3.org/2000/svg">
<g clip-path="url(#clip0_4092_3181)">
<path d="M26.5971 35.0508C29.3733 34.9107 31.5994 36.1413 33.6703 37.777C37.9823 41.1836 41.0637 40.9935 45.1706 37.3719C55.7204 28.0626 67.831 22.345 82.0575 21.5846C85.8542 21.3795 88.0052 19.5187 88.8456 15.812C89.9011 11.1598 93.5027 8.40858 98.0198 8.81376C102.792 9.23896 106.444 12.7456 106.359 17.4477C106.289 21.3745 108.029 23.4855 111.571 24.571C123.486 28.2127 132.981 35.4109 141.145 44.6202C144.406 48.2969 146.817 48.3969 151.96 45.4355C156.241 42.9694 161.584 43.7848 164.69 47.3814C167.847 51.0381 167.912 56.8158 164.835 60.5025C163.745 61.8131 162.334 62.6384 160.799 63.3488C156.186 65.4847 154.761 68.4911 155.711 73.4234C158.878 89.8659 156.792 105.543 148.738 120.33C145.972 125.407 146.727 128.424 151.519 131.685C154.566 133.756 155.981 136.637 155.396 140.264C154.836 143.731 152.825 146.177 149.408 147.272C145.797 148.433 142.69 147.447 140.024 144.881C139.549 144.426 139.179 143.856 138.758 143.335C135.842 139.739 132.631 139.133 128.669 141.58C120.795 146.437 112.336 149.768 103.222 151.374C96.6392 152.535 90.0361 153.155 83.3431 152.265C77.9906 151.549 75.1593 153.685 73.8987 159.098C72.6732 164.345 68.7764 167.266 63.8141 166.666C59.3071 166.121 55.9455 162.324 55.9505 157.792C55.9505 155.891 56.6759 154.25 57.6563 152.665C60.0224 148.828 59.3321 145.686 55.4153 143.41C50.7731 140.719 46.5862 137.483 42.6494 133.856C38.7726 130.279 33.6253 130.62 30.0336 134.536C28.8531 135.822 27.7426 137.203 26.422 138.328C21.2546 142.735 14.4965 142.03 10.3696 136.727C6.3728 131.6 7.36325 124.482 12.5806 120.58C14.4865 119.154 16.6775 118.409 18.8985 117.704C25.7317 115.533 27.0523 112.751 25.0814 105.893C21.1096 92.0569 21.4147 78.2656 26.1168 64.6394C27.9877 59.2319 27.1273 56.5556 22.13 53.7193C15.2269 49.7975 14.9367 40.2082 21.5998 36.2864C23.1505 35.3709 24.8263 34.9758 26.5971 35.0608V35.0508Z" fill="#454553"/>
<path d="M52.4142 18.1937C52.4293 21.5553 51.3488 22.6108 48.1823 22.3106C42.5347 21.7754 34.5761 14.8822 33.2805 9.3997C32.5151 6.16322 33.5606 3.00177 36.1368 1.25097C38.853 -0.594879 41.6843 -0.26973 44.3405 1.34101C47.8472 3.47699 49.718 6.89856 51.0336 10.6403C51.889 13.0714 52.4393 15.5825 52.4092 18.1837L52.4142 18.1937Z" fill="#454553"/>
<path d="M133.001 18.0936C133.341 14.8371 133.782 11.2004 135.537 7.89393C137.078 4.9976 139.249 2.80159 142.531 1.91118C146.157 0.925732 149.289 3.19177 149.439 6.9535C149.529 9.11449 148.833 11.0404 147.608 12.7962C144.787 16.848 140.85 19.3992 136.288 21.0199C133.767 21.9154 132.951 21.205 133.001 18.0936Z" fill="#454553"/>
<path d="M5.53766 89.3155C2.46625 89.3005 -0.0949219 87.0545 0.000121622 84.4533C0.0901629 82.0372 2.76639 79.8262 5.61269 79.8262C8.52403 79.8262 11.1902 81.8471 11.2153 84.0731C11.2503 87.1996 8.93922 89.3305 5.53766 89.3155Z" fill="#454553"/>
<path d="M101.417 166.591C101.391 163.87 103.302 161.639 105.633 161.669C108.17 161.699 110.856 164.536 110.821 167.142C110.786 169.508 108.755 171.484 106.269 171.554C103.638 171.634 101.447 169.393 101.422 166.591H101.417Z" fill="#454553"/>
<path d="M174.43 91.2471C174.42 93.6682 172.434 95.6941 170.058 95.7091C167.697 95.7241 165.551 93.8333 165.506 91.7023C165.466 89.6313 168.222 87.1902 170.623 87.1652C172.704 87.1452 174.435 89.001 174.43 91.2471Z" fill="#454553"/>
<path d="M98.8993 108.71C98.8681 108.08 98.8681 108.08 98.4541 107.645C104.302 106.994 109.944 105.569 115.362 103.248C116.462 102.777 117.713 101.977 118.518 103.708C119.339 105.469 118.083 106.029 116.833 106.649C111.095 109.485 105.077 109.765 98.8993 108.71Z" fill="white"/>
<path d="M92.4424 69.6822C92.1473 76.9655 89.411 83.0833 83.4283 87.4553C77.9108 91.4872 71.863 92.4226 65.5401 89.5613C58.4819 86.3648 54.9152 80.5271 54.5951 73.0087C54.2599 65.06 57.3263 58.377 63.8843 53.5998C76.33 44.5356 89.416 53.4247 91.8621 64.4748C92.2373 66.1756 92.6575 67.8913 92.4424 69.6822Z" fill="white"/>
<path d="M98.9304 108.71C98.4752 112.591 98.15 116.513 96.5093 120.125C93.9431 125.772 90.2264 130.079 83.6134 130.99C76.4851 131.97 68.6915 126.748 67.2559 120.055C66.8657 118.229 67.2759 116.588 67.8611 114.943C69.3268 110.791 71.823 107.294 74.7693 104.073C75.5847 103.182 76.32 103.187 77.4055 103.527C80.0217 104.343 82.6729 105.058 85.3492 105.628C86.7198 105.918 86.9049 106.189 86.2296 107.499C84.2687 111.316 82.3678 115.178 81.3373 119.425C83.3282 115.673 85.3842 111.951 87.275 108.149C87.9253 106.844 88.5756 106.319 90.1063 106.584C92.8776 107.069 95.6889 107.304 98.4852 107.644C98.7553 107.949 99.0054 108.264 98.9304 108.71Z" fill="#F7A4BC"/>
<path d="M116.294 75.6842C121.546 75.7443 126.308 76.2645 130.83 78.1353C132.926 79.0007 134.867 80.1062 136.308 81.9121C137.208 83.0426 137.263 84.2181 136.208 85.2736C135.267 86.209 134.107 86.4141 133.056 85.5437C127.159 80.6615 120.26 80.5765 113.187 81.3618C111.706 81.5269 110.131 82.1572 109.075 80.6115C108.07 79.1358 108.87 77.6701 109.635 76.4146C113.922 69.3713 119.385 63.9839 128.279 63.6437C129.124 63.6137 129.945 63.6587 130.65 64.219C131.486 64.8843 132.036 65.6946 131.746 66.8001C131.405 68.1007 130.43 68.716 129.154 68.731C123.817 68.7911 119.975 71.6023 116.299 75.6892L116.294 75.6842Z" fill="white"/>
<path d="M15.5021 125.012C15.397 127.559 13.8363 129.645 12.2456 129.449C10.915 129.289 10.8199 128.304 10.87 127.238C10.97 125.057 12.6208 122.756 14.1215 122.796C15.7972 122.841 15.4521 124.132 15.5071 125.012H15.5021Z" fill="white"/>
<path d="M39.728 2.8867C43.1196 2.62158 48.297 7.32874 48.362 10.6853C48.367 10.9804 48.2669 11.4606 48.0869 11.5407C47.3165 11.8608 46.6262 11.5407 46.0559 11.0104C43.4998 8.66435 41.1887 6.12819 39.733 2.8867H39.728Z" fill="#454553"/>
<path d="M143.081 8.09353C142.72 6.37274 143.096 5.07714 144.431 4.21675C144.906 3.91161 145.497 4.23176 145.597 4.78701C145.947 6.75291 144.311 7.1731 143.081 8.09353Z" fill="white"/>
<path d="M80.0368 72.8584C80.0368 77.9957 76.18 81.8875 71.0927 81.8775C66.1304 81.8675 62.2136 77.8507 62.1886 72.7383C62.1636 67.9461 66.2354 63.8292 71.0627 63.7692C75.9299 63.7092 80.0368 67.8661 80.0368 72.8634V72.8584Z" fill="#454553"/>
</g>
<defs>
<clipPath id="clip0_4092_3181">
<rect width="174.43" height="171.554" fill="white"/>
</clipPath>
</defs>
</svg>
