<svg width="190" height="191" viewBox="0 0 190 191" fill="none" xmlns="http://www.w3.org/2000/svg">
<g clip-path="url(#clip0_1954_2308)">
<path d="M113.193 179.488C113.666 183.195 112.543 186.72 108.9 189.047C105.831 191.003 102.613 190.836 99.4856 189.1C96.5626 187.478 95.2891 184.877 95.1386 181.589C94.87 175.495 92.6562 173.024 86.665 172.304C73.6457 170.735 61.6043 166.823 51.2285 158.425C47.5049 155.41 43.4105 156.27 39.9232 160.241C36.0868 164.615 30.9016 165.614 25.9098 162.938C18.6721 159.059 18.038 149.209 24.717 144.47C25.2973 144.057 25.9206 143.697 26.5116 143.294C31.8311 139.672 32.5727 136.808 29.7893 131.08C26.2967 123.885 23.4811 116.492 23.2984 108.346C23.2823 107.642 23.0513 106.944 22.9008 106.245C21.5897 100.093 19.7252 98.2443 13.6105 97.3201C9.29578 96.6646 6.69513 94.1499 5.62048 90.0662C3.92254 83.613 8.30173 77.7078 14.986 77.2994C16.512 77.2081 18.0058 77.4015 19.5157 77.6916C24.1205 78.5836 27.2585 76.8373 29.1929 72.5387C35.7966 57.8698 46.3711 47.0051 60.7338 39.8264C63.7697 38.3058 66.9775 37.2043 70.3143 36.4682C76.4505 35.1087 78.041 32.4221 76.284 26.4686C74.9138 21.8261 75.7842 17.7263 79.4757 14.54C82.9898 11.5095 87.1003 11.0097 91.2538 13.014C95.6061 15.1095 97.7124 18.7633 97.5835 23.6369C97.562 24.4428 97.5082 25.2488 97.5082 26.0548C97.5082 30.0579 99.2814 32.3522 103.284 32.7552C110.173 33.4538 116.863 34.8024 123.246 37.5643C129.533 40.2885 135.266 43.8564 140.344 48.4666C145.475 53.1198 149.344 52.5932 152.971 46.7794C155.195 43.2116 159.677 41.2718 163.599 42.1692C168.242 43.2331 171.503 46.8493 171.987 51.4756C172.438 55.7957 169.848 60.5295 166.001 62.3081C165.195 62.6842 164.33 62.9314 163.486 63.2108C158.312 64.9409 156.603 68.7398 158.951 73.7154C161.858 79.8839 164.163 86.2243 165.345 92.9624C167.688 106.347 166.253 119.307 161.133 131.875C160.794 132.703 160.429 133.514 160.096 134.342C157.877 139.822 159.489 144.03 164.926 146.362C168.929 148.076 171.686 150.698 172.169 155.174C172.632 159.424 170.912 162.777 167.269 164.872C163.508 167.032 159.703 166.511 156.136 164.147C154.701 163.196 153.659 161.831 152.525 160.563C148.887 156.501 145.335 156.141 141.042 159.445C134.449 164.518 127.233 168.284 119.125 170.326C113.934 171.632 112.757 173.491 113.187 179.498L113.193 179.488Z" fill="#454553"/>
<path d="M21.1974 61.2926C14.3412 60.363 8.07599 58.0471 3.12723 53.0017C-0.096709 49.7132 -0.693139 45.7371 1.24123 42.5292C3.25619 39.1924 7.51717 37.747 11.848 38.9077C16.6839 40.2026 20.0583 43.4158 22.9008 47.3222C25.0124 50.2237 26.5922 53.3832 27.7474 56.7952C28.3707 58.6382 27.8549 59.5946 26.1838 60.3093C24.5879 60.9917 22.9652 61.3356 21.2028 61.298L21.1974 61.2926Z" fill="#454553"/>
<path d="M142.246 7.47383C142.24 9.30073 141.816 11.0255 140.988 12.6375C138.409 17.6615 134.761 21.729 130.091 24.9207C128.829 25.7805 128.205 25.7267 127.432 24.3297C124.143 18.3654 125.782 7.12457 130.768 2.57344C132.971 0.55847 135.518 -0.843945 138.549 0.59071C141.375 1.92865 142.246 4.52392 142.246 7.4792V7.47383Z" fill="#454553"/>
<path d="M14.6205 119.968C14.47 125.438 7.07644 129.479 2.55754 126.717C-0.48371 124.858 -0.91357 121.113 1.79992 118.808C4.44355 116.567 7.62451 115.68 11.058 116.132C13.2772 116.422 14.5506 117.803 14.6205 119.968Z" fill="#454553"/>
<path d="M182.744 94.4079C186.564 94.4294 189.251 96.6485 189.165 99.7059C189.09 102.489 186.296 104.725 182.948 104.676C179.208 104.622 176.377 102.36 176.404 99.4319C176.43 96.4443 179.031 94.381 182.739 94.4025L182.744 94.4079Z" fill="#454553"/>
<path d="M45.9948 19.5694C45.9519 22.5623 43.9476 24.7492 41.3362 24.6578C38.5905 24.5611 35.1785 20.5688 35.2161 17.5114C35.243 15.0827 37.258 12.9764 39.5738 12.9495C42.8354 12.9119 46.0432 16.2218 45.9948 19.5747V19.5694Z" fill="#454553"/>
<path d="M63.2591 175.635C65.3385 175.662 66.9827 177.591 66.9881 180.02C66.9988 182.803 65.0054 185.318 62.7916 185.312C60.3468 185.312 58.2727 183.324 58.2673 180.997C58.2673 178.451 60.911 175.608 63.2591 175.635Z" fill="#454553"/>
<path d="M99.0987 97.7074C99.0127 106.138 94.2467 113.048 86.88 115.407C78.9867 117.938 69.9167 115.235 65.1613 108.427C59.3529 100.12 58.9821 91.195 63.2485 82.0552C63.9255 80.6098 64.5649 79.8521 66.6229 80.8569C76.6171 85.7412 86.52 90.9103 97.3094 93.93C99.6414 94.5856 99.002 96.2137 99.0987 97.6967V97.7074Z" fill="white"/>
<path d="M118.878 94.6494C117.964 99.8078 120.103 103.354 124.589 104.38C128.399 105.251 132.203 102.94 133.267 99.1092C134.439 94.8912 131.956 91.3664 126.454 89.6308C131.188 86.3424 135.841 83.1185 140.478 79.873C141.069 79.4593 141.51 79.2605 141.993 80.002C147.066 87.7502 147.877 99.6197 140.183 105.933C132.671 112.102 119.608 108.652 117.061 99.8239C116.487 97.8412 115.928 95.6865 118.878 94.6441V94.6494Z" fill="white"/>
<path d="M116.744 121.962C122.075 122.176 127.292 124.487 131.376 129.221C132.622 130.666 133.213 132.294 131.601 133.691C129.984 135.099 128.646 134.266 127.314 132.767C121.833 126.604 113.655 125.76 106.508 130.526C102.027 133.514 98.7064 137.544 96.1971 142.278C95.4663 143.659 94.483 144.701 92.7958 143.992C91.0495 143.261 90.9528 141.837 91.4525 140.182C94.1982 131.123 106.498 121.919 116.744 121.956V121.962Z" fill="white"/>
<path d="M10.6821 41.3957C13.9006 41.8847 16.8881 43.9534 19.0536 47.2579C19.2739 47.5965 19.4404 48.2144 19.2792 48.4992C18.9783 49.0311 18.3228 48.8538 17.8177 48.7033C14.7389 47.7845 11.6277 46.9517 8.74769 45.4794C7.69453 44.9421 7.00676 44.1415 7.42587 42.8895C7.81274 41.7181 8.73694 41.2507 10.6928 41.3957H10.6821Z" fill="white"/>
<path d="M136.733 10.0159C137.12 8.6296 136.98 6.85106 138.71 6.59851C139.645 6.46418 139.527 7.76451 139.479 8.51676C139.393 9.8332 139.355 11.4129 137.781 11.73C136.674 11.9503 137.045 10.6177 136.728 10.0159H136.733Z" fill="#454553"/>
<path d="M87.6697 109.7C82.6027 109.625 78.5782 105.557 78.7179 100.651C78.8522 95.8745 82.7586 92.1777 87.6321 92.2261C92.7582 92.2744 96.5248 95.9766 96.4979 100.941C96.4711 105.955 92.6185 109.775 87.6697 109.705V109.7Z" fill="#454553"/>
</g>
<defs>
<clipPath id="clip0_1954_2308">
<rect width="189.17" height="190.46" fill="white"/>
</clipPath>
</defs>
</svg>
