<svg width="264" height="342" viewBox="0 0 264 342" fill="none" xmlns="http://www.w3.org/2000/svg">
<path d="M34.7028 96.9502C34.7028 96.9502 34.6442 97.1366 34.598 97.2087C34.6061 97.1325 34.6565 97.0223 34.7028 96.9502Z" stroke="#221E1F" stroke-width="1.02989" stroke-miterlimit="10"/>
<path d="M34.0728 98.8896C34.0728 98.8896 34.0728 98.8896 34.0688 98.9261C34.0688 98.9261 34.0688 98.9261 34.0728 98.8896Z" stroke="#221E1F" stroke-width="1.02989" stroke-miterlimit="10"/>
<path d="M34.0737 98.8914C34.1815 98.2461 34.3535 97.7235 34.5977 97.2473C34.6059 97.1709 34.6564 97.0604 34.7028 96.9881C36.9011 92.7024 43.4926 95.3797 48.9638 100.217C50.0239 101.142 51.0377 102.14 51.9327 103.163C52.9342 104.275 53.7746 105.447 54.5346 106.649C54.6628 106.895 54.8716 107.11 54.9998 107.356L56.0752 102.37C54.4271 99.7205 54.6364 85.87 60.0973 74.9397C63.6465 67.7847 62.6876 61.2285 61.5744 57.554C80.904 66.8521 104.977 65.0657 116.732 55.6215C118.702 59.2333 120.545 62.9473 122.185 66.7556C122.309 67.0394 122.472 67.3273 122.596 67.6111C122.626 67.6916 122.694 67.7762 122.724 67.8567C122.818 68.06 122.874 68.2592 122.968 68.4625C123.118 68.865 123.269 69.2676 123.423 69.6319C117.376 68.3654 107.277 67.399 93.0434 70.0468C93.0256 69.8517 92.8428 69.7548 92.6477 69.7725C91.3542 69.943 90.0948 70.1558 88.8013 70.3263C86.0533 70.7274 83.293 71.243 80.5627 71.8392C79.1 72.1461 77.6756 72.4571 76.2429 72.8446C72.945 73.689 69.6607 74.7668 66.5306 76.2089C64.6968 77.0944 62.923 78.1408 61.3415 79.5557C61.2569 79.6239 61.2105 79.6962 61.1259 79.7644C60.3987 80.4207 59.8051 81.6323 59.7832 82.5574C59.6767 83.5507 59.528 84.5781 59.4597 85.5755C59.1444 89.5992 59.2834 93.7103 60.2451 97.7164C61.211 101.684 63.076 105.555 66.1295 108.433C66.8622 109.168 67.6836 109.797 68.5473 110.392L69.8871 111.232C70.4356 111.522 71.0387 111.664 71.654 111.691C72.2694 111.719 72.8629 111.589 73.4306 111.341L74.7773 110.674C75.6751 110.229 76.5647 109.861 77.4585 109.454C81.5887 107.694 85.7749 106.133 90.0293 104.657C91.6352 104.095 93.1989 103.567 94.8008 103.043C96.3522 102.63 97.8995 102.255 99.4809 101.922C99.8752 101.848 100.103 101.525 100.22 101.151C100.241 100.96 100.372 100.819 100.316 100.62C100.316 100.62 100.282 100.578 100.248 100.536C100.47 99.9025 100.769 99.2776 101.106 98.6567C101.536 97.8913 102.042 97.1341 102.613 96.4996C103.005 96.078 103.437 95.6605 103.898 95.3235C105.399 93.9387 107.531 94.5923 108.59 96.2515C109.691 97.8766 109.415 100.088 108.123 101.689C106.827 103.327 104.812 104.464 102.749 105.325C102.465 105.449 102.317 105.742 102.442 106.026C102.528 106.306 102.863 106.419 103.101 106.367C105.338 105.68 107.651 104.652 109.366 102.711C110.106 101.94 110.568 100.869 110.802 99.7733C111.039 99.7214 111.315 99.6737 111.709 99.6C112.299 99.5086 113.007 99.3913 113.872 99.2522C114.618 99.1389 115.479 99.038 116.378 98.9412C120.285 98.5484 125.478 98.4094 130.124 99.4097C130.113 99.8723 130.14 100.339 130.129 100.801C130.1 101.069 130.148 101.345 130.119 101.612C130.091 101.879 130.062 102.147 130.033 102.414C129.967 103.76 129.861 105.101 129.68 106.434C129.033 111.388 127.363 116.155 124.744 120.396C122.498 123.324 119.558 126.603 117.926 128.128C116.59 129.415 115.083 130.49 113.547 131.484C113.17 131.753 112.764 131.941 112.353 132.168C111.777 132.493 111.193 132.894 110.579 133.214C105.73 135.554 100.192 136.39 94.8445 136.165C89.1534 135.903 83.4747 134.444 78.1575 132.135C76.0154 131.21 73.9237 130.174 71.9249 128.994C71.3805 128.665 70.832 128.374 70.3258 128.05C69.2411 127.354 68.1564 126.658 67.1181 125.89C61.5909 121.935 56.7118 116.621 53.7813 110.433C53.0882 108.967 52.4415 107.43 51.994 105.836C51.7921 105.196 50.8302 105.518 50.9939 106.154C51.1576 106.79 51.3636 107.391 51.5314 107.989C51.8834 109.031 52.2353 110.074 52.706 111.09C52.8002 111.294 52.8561 111.493 52.9544 111.658C50.8816 114.411 47.0311 117.167 41.3728 114.435C37.955 112.794 35.7311 109.387 34.6397 105.869C34.4323 104.92 34.2932 104.055 34.2222 103.274C34.0204 101.552 33.9509 100.038 34.1501 98.8996C34.1501 98.8996 34.1501 98.8996 34.1542 98.8614L34.0737 98.8914ZM69.4657 72.6205C70.7988 70.6381 78.9597 66.6051 78.9597 66.6051C68.5109 63.8621 68.1285 74.6412 69.4657 72.6205ZM108.227 65.0276C110.511 64.2677 119.399 66.0705 119.399 66.0705C112.819 57.5206 105.943 65.7875 108.227 65.0276ZM115.596 117.058C115.882 116.548 116.135 115.995 116.425 115.447C116.429 115.409 116.434 115.37 116.476 115.336C116.728 114.784 116.943 114.227 117.161 113.632C117.169 113.556 117.215 113.483 117.266 113.373C117.48 112.816 117.66 112.217 117.802 111.614C117.819 111.461 117.869 111.351 117.924 111.202C118.066 110.599 118.208 109.996 118.354 109.355C118.374 109.164 118.429 109.015 118.487 108.828C118.591 108.221 118.703 107.537 118.811 106.892C118.835 106.663 118.856 106.472 118.88 106.242C118.946 105.631 119.015 104.982 119.081 104.37C119.212 104.23 119.335 104.166 119.428 104.021C119.605 103.808 119.561 103.494 119.387 103.321C119.212 103.148 118.941 103.157 118.729 103.328L118.691 103.324C117.748 104.189 116.669 104.885 115.593 105.542L109.927 108.297C107.546 109.24 105.105 110.021 102.604 110.642C99.7043 111.375 96.7066 111.942 93.7471 112.514C92.2503 112.778 90.7958 113.009 89.3071 113.197C87.899 113.355 86.1812 113.519 85.0815 113.324L84.814 113.295C84.5507 113.228 84.2628 113.391 84.1918 113.692C84.1632 113.96 84.3255 114.248 84.5888 114.314C86.0924 114.707 87.476 114.778 88.8677 114.773C88.9878 115.095 89.1078 115.417 89.232 115.701C89.262 115.781 89.292 115.862 89.3562 115.985C89.6126 116.476 89.8691 116.967 90.202 117.467C90.2703 117.551 90.3003 117.632 90.3685 117.716C91.0684 118.757 91.9716 119.704 92.9977 120.587C92.9977 120.587 93.0318 120.629 93.07 120.633C93.6021 121.077 94.1383 121.482 94.755 121.857C94.755 121.857 94.7932 121.862 94.8273 121.904C98.005 123.983 102.019 125.109 105.836 124.475L105.912 124.483C106.425 124.384 106.938 124.284 107.459 124.108C107.459 124.108 107.497 124.112 107.536 124.116C108.616 123.768 109.671 123.302 110.67 122.636C110.67 122.636 110.712 122.602 110.754 122.568C111.212 122.269 111.673 121.932 112.1 121.553C112.146 121.48 112.227 121.45 112.273 121.378C113.474 120.27 114.585 118.921 115.583 117.173L115.596 117.058ZM45.8023 103.395C45.0068 102.884 44.0804 102.514 43.1294 102.374C42.2507 102.28 41.0923 102.271 40.3391 102.809C40.0048 103.044 40.1044 103.557 40.4782 103.674C40.8521 103.791 41.2041 103.752 41.5779 103.869C41.9559 103.948 42.3297 104.066 42.7077 104.145C43.1579 104.27 43.3831 104.333 43.7528 104.489C44.1226 104.644 44.4924 104.8 44.858 104.994C45.4406 105.327 46.0491 105.778 46.4967 106.29C46.9742 106.882 47.2866 107.573 47.3998 108.319C47.4967 109.218 48.7779 109.162 48.7998 108.237C48.7835 106.226 47.5801 104.474 45.8787 103.403L45.8023 103.395Z" fill="#FBC3AE"/>
<path d="M101.026 121.022C111.152 119.209 113.048 118.099 113.481 119.111C113.567 119.391 113.618 119.628 113.628 119.9C113.189 120.394 112.753 120.849 112.322 121.267C112.276 121.339 112.195 121.369 112.149 121.441C111.722 121.821 111.261 122.158 110.803 122.457C110.803 122.457 110.761 122.491 110.719 122.525C109.72 123.191 108.665 123.657 107.585 124.005C107.585 124.005 107.547 124.001 107.508 123.997C106.991 124.135 106.474 124.272 105.961 124.372L105.885 124.364C104.231 124.65 102.538 124.585 100.911 124.256C94.6267 121.959 97.6762 121.629 101.102 121.03L101.026 121.022Z" fill="#ED1B23"/>
<path d="M124.891 231.126C127.268 231.304 133.447 231.696 141.158 231.865C141.968 231.875 142.779 231.884 143.627 231.898C143.704 231.906 143.742 231.91 143.818 231.918C145.084 239.937 146.332 248.843 147.65 258.181C147.737 258.809 147.829 259.398 147.916 260.026C147.856 259.865 147.758 259.7 147.659 259.535C146.77 257.739 145.672 255.728 144.422 254.048C142.43 251.362 140.195 249.499 138.113 250.899C134.693 253.237 131.765 266.14 130.214 274.475C130.174 274.857 130.052 275.269 130.015 275.613C129.974 275.995 129.899 276.335 129.824 276.674C129.625 277.812 129.438 278.836 129.314 279.634C129.31 279.672 129.306 279.71 129.301 279.748C129.301 279.748 129.297 279.787 129.293 279.825C129.293 279.825 129.297 279.787 129.263 279.744C128.69 278.601 128.075 277.492 127.502 276.348C127.31 275.98 127.117 275.611 126.929 275.205C126.741 274.798 126.514 274.387 126.322 274.019C122.294 266.168 118.361 258.52 114.838 251.728C114.838 251.728 114.885 251.655 114.923 251.659C119.749 245.569 122.933 238.22 124.963 231.173L124.891 231.126Z" fill="#294190"/>
<path d="M144.939 192.622C144.939 192.622 144.626 192.666 144.47 192.687C144.592 192.623 144.757 192.526 144.884 192.423C144.875 192.5 144.948 192.546 144.944 192.584L144.939 192.622Z" fill="#294190"/>
<path d="M58.4124 137.865C64.4871 133.106 70.2642 130.402 70.2642 130.402C70.2642 130.402 70.2642 130.402 70.3024 130.406C70.3024 130.406 70.3788 130.414 70.3748 130.452C72.5141 131.764 74.7081 132.926 76.999 133.906C86.8555 138.209 98.2677 139.896 108.444 135.808C108.965 135.632 109.456 135.376 109.982 135.161C110.998 134.691 111.985 134.14 112.933 133.584C113.305 133.354 113.712 133.165 114.085 132.935C114.377 132.734 114.63 132.53 114.922 132.329C115.063 132.46 115.203 132.591 115.348 132.684C115.701 132.992 116.055 133.301 116.404 133.647C117.179 134.348 117.954 135.05 118.729 135.751C119.853 136.799 120.935 137.881 121.975 138.997C122.111 139.167 122.319 139.034 122.446 138.932C122.534 138.825 122.551 138.673 122.482 138.588C121.319 137.188 120.113 135.822 118.864 134.49C118.067 133.632 117.228 132.808 116.385 132.022C116.245 131.891 116.108 131.722 115.968 131.591C116.137 131.454 116.344 131.322 116.513 131.186C116.513 131.186 116.552 131.19 116.628 131.198C117.025 130.738 117.745 130.506 118.729 130.341C124.777 129.444 141.223 133.911 154.808 133.358C155.037 133.383 155.308 133.373 155.58 133.364C156.16 134.083 156.872 135.009 157.737 135.952C161.223 139.842 166.967 145.018 173.646 146.159C174.784 146.358 175.934 146.443 177.139 146.378C171.912 149.721 163.153 153.922 148.826 157.796C147.839 158 146.49 158.319 145.028 158.626C144.591 158.734 144.159 158.803 143.722 158.911C143.285 159.019 142.891 159.092 142.454 159.2C141.03 159.511 139.686 159.792 138.622 159.987C138.507 159.975 138.427 160.005 138.346 160.035C138.346 160.035 138.308 160.031 138.27 160.027C138.27 160.027 138.193 160.019 138.155 160.014C138.155 160.014 138.159 159.976 138.163 159.938C138.167 159.9 138.099 159.815 138.103 159.777C138.103 159.777 138.111 159.701 138.073 159.697C137.945 159.451 137.859 159.171 137.731 158.926C137.572 158.6 137.456 158.239 137.298 157.913C137.302 157.875 137.272 157.795 137.238 157.752C133.759 150.192 129.452 143.508 124.37 137.206C124.097 136.868 123.623 137.319 123.896 137.658C125.406 139.79 126.87 141.995 128.254 144.23C128.356 144.357 128.416 144.518 128.519 144.645C129.573 146.342 130.586 148.074 131.517 149.835C131.808 150.369 132.094 150.941 132.385 151.474C133.219 153.071 134.014 154.663 134.767 156.289C134.827 156.45 134.93 156.577 134.99 156.738C135.246 157.23 135.46 157.755 135.674 158.28C135.833 158.606 135.949 158.967 136.107 159.293C136.103 159.331 136.137 159.373 136.171 159.415C136.295 159.699 136.415 160.021 136.539 160.305C136.822 160.915 137.066 161.521 137.31 162.127C137.31 162.127 137.31 162.127 137.306 162.165C137.464 162.491 137.619 162.855 137.739 163.177C137.833 163.381 137.923 163.622 138.017 163.825C138.043 163.944 138.111 164.029 138.137 164.147C138.137 164.147 138.133 164.186 138.129 164.224C139.976 168.982 141.505 173.821 142.713 178.781C142.713 178.781 141.825 179.498 140.296 180.416C140.004 180.616 139.674 180.813 139.306 181.005C138.976 181.202 138.649 181.36 138.319 181.556C136.105 182.749 133.148 184.016 129.739 184.81L131.072 166.25L131.195 165.104L131.233 164.026C131.233 164.026 131.237 163.987 131.241 163.949C131.247 163.177 131.214 162.401 131.181 161.624C131.146 161.234 131.106 160.882 131.067 160.53C131.027 160.178 130.992 159.788 130.952 159.436C130.672 157.358 130.194 155.335 129.503 153.484C129.263 152.84 129.019 152.234 128.732 151.662C128.514 151.175 128.254 150.722 128.031 150.273C127.382 149.122 126.69 148.004 125.867 147.027C125.42 146.516 125.011 146.008 124.521 145.53C121.445 142.496 117.633 140.928 113.713 141.087C93.5439 141.785 72.9804 142.557 52.3322 143.396C54.2548 141.322 56.3097 139.456 58.3783 137.823L58.4124 137.865Z" fill="#294190"/>
<path d="M118.368 93.6678C118.368 93.6678 118.368 93.6678 118.326 93.7019C118.212 93.6896 118.059 93.6733 117.944 93.661C117.677 93.6323 117.409 93.6036 117.142 93.575C116.874 93.5463 116.645 93.5218 116.382 93.4549C116.076 93.4221 115.779 93.313 115.52 93.2079C115.294 93.1451 115.112 93.0482 114.886 92.9855C114.551 92.8722 114.257 92.7248 113.926 92.5734C113.781 92.4806 113.594 92.4219 113.45 92.3291C113.122 92.1394 112.795 91.9498 112.51 91.726C112.471 91.7219 112.399 91.6755 112.327 91.6291C112.518 91.6496 112.709 91.67 112.9 91.6905C116.371 91.7534 119.22 88.9673 119.283 85.4962C119.294 83.9517 118.745 82.579 117.859 81.4792C118.048 81.1518 118.2 80.8202 118.203 80.4341C118.207 79.3139 117.303 78.3669 116.183 78.3628C115.449 78.3614 114.827 78.7584 114.456 79.3369C114.006 79.2114 113.547 79.1622 113.08 79.1895C111.112 79.1717 109.358 80.0271 108.163 81.4447C108.163 81.4447 108.167 81.4065 108.171 81.3683C108.192 81.1773 108.288 80.9945 108.347 80.8075C108.519 80.285 108.687 79.8006 108.931 79.3244C109.036 79.0652 109.175 78.8482 109.315 78.6313C109.551 78.2315 109.825 77.8358 110.133 77.4825C110.307 77.3078 110.446 77.0909 110.619 76.9162C111.097 76.4264 111.608 75.9789 112.192 75.5778C112.735 75.5587 113.274 75.5778 113.847 75.6392C114.917 75.7539 115.97 76.0214 116.977 76.3612C118.023 76.705 119.017 77.1594 119.911 77.8349C123.885 80.7727 124.537 86.9482 121.57 90.8422C120.67 92.021 119.524 92.9802 118.28 93.7742L118.368 93.6678Z" fill="#294190"/>
<path d="M84.9281 99.2042C84.9281 99.2042 84.9281 99.2042 84.8858 99.2383C84.733 99.2219 84.6184 99.2096 84.4656 99.1933C84.16 99.1605 83.8925 99.1318 83.5869 99.0991C83.3195 99.0704 83.052 99.0418 82.7928 98.9367C82.4872 98.9039 82.1515 98.7907 81.8541 98.6815C81.6289 98.6187 81.4079 98.5177 81.1828 98.455C80.8471 98.3417 80.5156 98.1902 80.1881 98.0006C80.0053 97.9037 79.8606 97.8109 79.6778 97.714C79.3122 97.5203 78.9888 97.2924 78.6613 97.1027C78.5849 97.0945 78.5508 97.0522 78.4785 97.0058C78.6695 97.0263 78.8605 97.0468 79.0898 97.0713C82.7942 97.1206 85.8548 94.164 85.9041 90.4595C85.9232 88.8386 85.3489 87.3472 84.3938 86.1628C84.6217 85.8395 84.7772 85.4697 84.7841 85.0454C84.7964 83.8488 83.8209 82.8554 82.6284 82.8049C81.8561 82.7994 81.1916 83.2305 80.7781 83.8431C80.2897 83.7135 79.8312 83.6644 79.3264 83.6875C77.2429 83.6574 75.3244 84.6111 74.0827 86.101C74.0827 86.101 74.0868 86.0628 74.0909 86.0246C74.1114 85.8336 74.2083 85.6508 74.271 85.4256C74.443 84.9031 74.619 84.3423 74.8633 83.8661C75.0065 83.611 75.1498 83.3558 75.2931 83.1007C75.5714 82.6668 75.8457 82.2711 76.1623 81.8413C76.3397 81.6285 76.4789 81.4115 76.6904 81.241C77.2102 80.7171 77.7642 80.2354 78.3864 79.8384C78.9677 79.8234 79.5489 79.8084 80.1602 79.8739C81.3063 79.9968 82.4361 80.2725 83.5153 80.6586C84.6328 81.0489 85.7038 81.5115 86.6316 82.2292C90.8913 85.3908 91.5787 91.9566 88.4294 96.1016C87.4838 97.3528 86.253 98.3801 84.924 99.2424L84.9281 99.2042Z" fill="#294190"/>
<path d="M145.435 227.646C145.053 227.605 144.663 227.64 144.315 227.641C143.933 227.6 143.543 227.636 143.157 227.633C143.08 227.625 143.042 227.621 142.966 227.613C142.117 227.599 141.268 227.585 140.458 227.576C133.791 227.402 128.456 227.062 125.999 226.915C126.007 226.838 126.019 226.724 126.028 226.647L126.036 226.571C126.036 226.571 126.036 226.571 126.04 226.533C126.415 224.834 126.782 223.212 127.065 221.658L127.814 211.42L128.659 199.57L128.803 198.233L128.785 198.038L128.854 197.388L131.783 196.388L133.223 195.924C133.002 196.47 133.88 196.729 134.168 196.644L134.661 196.432C138.462 195.216 142.245 194.225 146.248 193.65C155.12 192.359 164.56 192.958 173.086 195.611C178.77 197.38 184.468 200.876 188.823 204.589C188.692 204.73 188.128 205.365 187.993 205.543C187.774 205.79 187.546 206.114 187.356 206.441C187.17 206.73 186.943 207.054 186.749 207.419C181.77 215.658 174.672 237.89 170.703 248.246C170.438 246.749 170.177 245.214 169.875 243.713C169.083 239.918 168.254 236.12 167.068 232.399C165.921 228.682 164.502 224.975 162.258 221.759C162.091 221.509 161.786 221.476 161.536 221.643C161.329 221.775 161.68 221.949 161.774 222.152C162.379 223.838 163.184 225.928 163.545 227.577C163.193 227.617 162.466 227.384 162.114 227.424C161.724 227.459 161.338 227.457 160.909 227.488C155.7 227.78 150.362 227.826 145.461 227.764L145.435 227.646Z" fill="#294190"/>
<path d="M169.592 265.476C168.934 265.483 168.307 265.57 167.637 265.691C165.686 265.869 164.19 266.481 163.223 267.575C161.681 269.342 161.809 271.752 162.147 273.643C158.882 274.182 155.595 274.564 152.32 274.831C151.501 269.14 150.681 263.449 149.891 257.838C148.599 248.619 147.373 239.87 146.137 231.931C151.467 231.962 157.237 231.846 162.803 231.476C167.887 243.885 169.267 260.572 169.554 265.472L169.592 265.476Z" fill="white"/>
<path d="M108.312 258.214C109.408 257.366 110.397 256.428 111.348 255.487C111.953 254.895 112.561 254.264 113.17 253.634C116.3 259.766 119.784 266.554 123.405 273.512C123.405 273.512 123.405 273.512 123.367 273.507C122.344 273.321 121.354 273.176 120.331 272.989C111.855 271.308 103.596 268.683 95.6267 265.163C99.7296 262.936 103.875 260.675 107.978 258.449L108.308 258.252L108.312 258.214Z" fill="white"/>
<path d="M141.845 163.46C143.232 163.145 144.618 162.83 145.928 162.506C169.536 184.165 202.408 195.108 223.151 200.229C232.261 202.481 239.059 203.596 241.649 203.951C241.474 204.86 241.265 205.726 241.09 206.635C239.782 212.716 237.759 218.605 234.959 224.179C226.155 241.784 210.287 256.429 189.603 265.534C189.661 264.999 189.722 264.426 189.818 263.896C191.417 250.774 192.444 237.591 193.089 224.367L193.491 214.478C193.477 212.815 193.725 211.219 193.425 209.332C193.117 207.521 192.338 205.776 191.178 204.338C185.974 199.529 180.089 196.387 173.627 194.303C164.727 191.533 155.34 191.145 146.193 192.483C146.644 190.792 146.429 188.837 146.193 187.073C145.905 185.071 145.464 183.053 145.024 181.035C143.793 175.571 142.168 170.18 140.217 164.947C140.097 164.625 139.977 164.303 139.857 163.981C140.095 163.929 140.332 163.877 140.57 163.825C141.044 163.722 141.443 163.61 141.879 163.502L141.845 163.46Z" fill="white"/>
<path d="M87.4991 38.1118C87.4991 38.1118 78.974 37.9709 70.2702 38.7769C61.5664 39.5829 58.1307 40.9923 58.1307 40.9923C58.1307 40.9923 62.5612 35.7093 72.0222 36.4915C72.0222 36.4915 66.9507 34.0544 61.366 34.9629C61.366 34.9629 63.6079 33.1551 68.7014 32.5031C68.7014 32.5031 78.5855 29.6982 94.5834 35.4705L79.0737 35.2379L87.5414 38.0777L87.4991 38.1118Z" fill="white"/>
<path d="M42.6526 55.6395C43.4073 52.2039 46.4569 50.7918 46.4569 50.7918C39.3413 53.0047 37.0828 60.3753 37.0828 60.3753C37.0828 60.3753 37.1211 57.1334 40.19 51.9363C43.2165 46.7734 46.1992 47.7887 48.2431 48.5488C48.8379 48.7671 50.2488 49.3047 51.1411 49.6322C51.5491 49.7919 51.8465 49.9011 51.8465 49.9011C51.6937 49.8847 51.5327 49.9447 51.3376 49.9624C45.6874 50.4002 42.6526 55.6395 42.6526 55.6395Z" fill="white"/>
<path d="M111.139 107.806C110.775 107.96 110.376 108.072 109.97 108.26L115.636 105.506C114.189 106.394 112.673 107.198 111.135 107.844L111.139 107.806Z" fill="white"/>
<path d="M116.179 106.918C115.885 108.934 114.909 112.269 111.505 114.107C106.416 116.885 101.678 117.459 98.9276 116.082C97.5714 115.396 96.694 114.567 96.2247 113.899C98.5443 113.529 100.83 113.117 103.127 112.591C106.107 111.828 109.074 110.832 111.886 109.472C113.36 108.702 114.837 107.895 116.217 106.922L116.179 106.918Z" fill="white"/>
<path d="M120.806 93.3466C120.009 93.5704 119.19 93.6372 118.375 93.6658C119.62 92.8718 120.766 91.9126 121.665 90.7338C124.633 86.8398 123.977 80.7025 120.007 77.7265C119.109 77.0892 118.114 76.6348 117.073 76.2528C116.066 75.913 115.013 75.6455 113.943 75.5308C113.408 75.4735 112.831 75.4503 112.288 75.4694C113.702 74.5389 115.426 73.9509 117.327 73.8841C121.557 73.7192 125.615 76.2408 127.089 80.1473C127.145 80.3465 127.282 80.5157 127.334 80.7531C127.389 80.9523 127.407 81.1474 127.463 81.3466C128.568 86.1795 126.116 91.7518 120.848 93.3125L120.806 93.3466Z" fill="white"/>
<path d="M116.192 78.3218C117.313 78.3259 118.216 79.2729 118.212 80.3931C118.171 80.7751 118.053 81.149 117.868 81.4382C117.497 82.0168 116.875 82.4138 116.14 82.4124C115.02 82.4083 114.117 81.4613 114.121 80.3411C114.162 79.959 114.279 79.5852 114.465 79.2959C114.836 78.7174 115.458 78.3204 116.192 78.3218Z" fill="white"/>
<path d="M87.5145 98.899C86.6754 99.1569 85.8185 99.2196 84.9275 99.24C86.2565 98.3778 87.4873 97.3504 88.4329 96.0992C91.5822 91.9542 90.8989 85.3503 86.6351 82.2269C85.7032 81.5474 84.5981 81.0425 83.5188 80.6563C82.4396 80.2701 81.3098 79.9944 80.1637 79.8716C79.5906 79.8102 78.9753 79.7829 78.3899 79.836C79.8881 78.8373 81.7315 78.2234 83.7891 78.1348C88.5237 77.9467 93.1095 80.95 94.4424 85.4596C96.0031 90.7277 93.3844 97.1323 87.4763 98.8949L87.5145 98.899Z" fill="white"/>
<path d="M80.39 84.9978C80.3968 84.5735 80.5524 84.2037 80.7803 83.8804C81.1937 83.2677 81.8582 82.8366 82.6305 82.8421C83.8271 82.8544 84.8027 83.8478 84.7862 85.0826C84.7412 85.5029 84.6238 85.8767 84.396 86.2001C83.9825 86.8127 83.318 87.2438 82.5457 87.2383C81.3491 87.226 80.3736 86.2327 80.39 84.9978Z" fill="white"/>
<path d="M29.0624 147.081C30.2017 146.546 31.4775 146.18 32.9156 146.103C37.4169 145.928 41.9182 145.754 46.4195 145.579C46.9244 145.556 47.4674 145.537 47.9723 145.514C48.5153 145.495 49.0202 145.472 49.5632 145.453C49.9112 145.451 50.3014 145.416 50.6493 145.414C71.026 144.584 91.3944 143.831 111.483 143.163C112.064 143.148 112.642 143.171 113.215 143.232C113.902 143.306 114.62 143.46 115.257 143.645C117.203 144.24 118.981 145.319 120.514 146.874C122.503 148.865 123.842 151.521 124.609 154.462C125.13 156.45 125.439 158.609 125.316 160.837L125.304 160.952L125.22 162.102L125.097 163.248L124.967 165.9L124.844 167.047L124.798 168.201L123.61 185.772L122.687 199.43L122.586 200.733L122.447 202.032L122.422 203.343L121.957 210.211L121.495 217.04C120.897 220.453 120.133 223.618 119.237 226.574C119.237 226.574 119.237 226.574 119.232 226.613C119.228 226.651 119.22 226.727 119.216 226.765C117.214 233.545 114.444 239.199 110.864 243.762C110.864 243.762 110.817 243.834 110.779 243.83C110.513 244.149 110.247 244.469 109.981 244.788C109.715 245.107 109.449 245.426 109.183 245.746C108.612 246.38 108.004 247.01 107.361 247.599C105.425 249.439 103.352 251.11 101.041 252.486C96.2691 255.182 91.4894 257.954 86.7137 260.688C86.3412 260.919 85.9305 261.145 85.5621 261.338C85.1896 261.568 84.8212 261.761 84.4487 261.991C83.2125 262.709 82.0185 263.392 80.7823 264.11C80.4098 264.341 80.0414 264.533 79.6689 264.763C79.3005 264.956 78.928 265.186 78.5978 265.383C76.3328 266.686 74.1059 267.993 71.8409 269.296C66.1186 266.441 60.358 263.582 54.6397 260.69C51.7786 259.262 48.9556 257.839 46.0944 256.412C32.6685 249.717 27.2288 242.062 24.6207 226.016L24.5211 225.503C23.6753 220.776 17.1261 183.092 19.4273 165.949C20.2353 159.853 22.5825 150.212 29.0965 147.123L29.0624 147.081ZM93.3252 241.186C95.4511 240.1 97.5128 238.892 99.4681 237.594C100.175 237.129 100.809 236.617 101.444 236.106C102.121 235.56 102.759 235.01 103.36 234.456C103.66 234.179 103.96 233.902 104.222 233.621C104.438 233.412 104.691 233.208 104.911 232.961C104.957 232.888 105.004 232.816 105.088 232.748C105.088 232.748 105.097 232.671 105.177 232.641C106.681 230.87 107.475 228.869 107.59 226.717C107.59 226.717 107.59 226.717 107.594 226.679C107.622 226.411 107.651 226.144 107.603 225.868C107.62 225.716 107.636 225.563 107.614 225.406C107.53 224.392 107.374 223.68 107.092 223.07L106.831 222.617C104.782 219.383 102.503 216.125 100.132 213.011C98.9807 211.496 97.8032 209.863 96.6681 208.196C95.8699 206.989 95.0418 205.703 94.2518 204.42C93.953 203.963 93.6501 203.544 93.3936 203.053L93.159 202.719L92.5491 201.919C92.5491 201.919 92.8493 201.642 92.9844 201.463C93.4155 201.046 93.8044 200.662 94.1974 200.241C98.3946 196.054 101.855 192.251 104.284 189.42C106.713 186.589 108.148 184.733 108.279 184.593C108.773 183.95 109.122 183.215 109.395 182.471C109.836 181.243 109.975 179.944 109.805 178.651C109.509 176.725 108.895 174.882 108.12 173.099C108 172.777 107.88 172.455 107.756 172.171C107.756 172.171 107.76 172.133 107.726 172.09C107.567 171.764 107.371 171.434 107.174 171.104C106.661 170.121 106.114 169.097 105.555 168.186C105.358 167.856 105.12 167.56 104.923 167.23C104.727 166.9 104.492 166.565 104.292 166.273C104.057 165.939 103.83 165.528 103.558 165.19C102.005 163.092 100.428 161.222 98.8982 159.628C96.6701 157.342 93.6793 156.403 90.7744 156.826C89.2285 156.467 87.583 156.677 86.1189 157.718C82.8141 160.068 79.6499 162.55 76.6644 165.167C73.3446 168.019 70.183 171.196 67.1238 174.501C66.458 173.502 65.694 172.338 64.7676 170.886L58.3087 160.843C57.9198 160.144 57.2458 159.222 56.3085 158.232C54.1692 155.839 51.8441 155.899 50.7035 156.086C50.466 156.138 50.2245 156.228 49.9871 156.279C49.485 155.917 49.0047 155.71 48.4917 155.81C47.7031 155.957 46.5555 156.569 45.0955 157.571C44.723 157.802 44.3847 158.075 43.9699 158.34C43.2549 158.881 42.5358 159.461 41.8126 160.079C41.3896 160.42 40.9666 160.761 40.5818 161.106C40.2011 161.413 39.8545 161.763 39.508 162.112C39.0345 162.564 38.5269 162.973 38.0493 163.463C36.1049 165.38 34.4661 167.329 33.1712 169.316C32.0618 171.013 31.5583 172.466 31.6183 173.709C30.8869 175.486 30.6644 177.201 31.0014 178.744L31.3029 179.897C32.4639 182.765 37.7521 190.752 45.6492 199.636C37.2862 207.357 34.0494 216.284 33.4517 217.534C33.3043 217.827 33.1569 218.121 33.0096 218.414L32.8076 218.856C28.4956 227.359 42.0441 238.318 47.1893 241.149C48.903 242.106 50.3261 242.529 51.5104 242.656C53.9173 242.914 55.2327 241.818 55.9627 240.776C56.2711 240.422 56.634 239.92 57.0775 239.388C57.3477 239.031 57.6602 238.639 57.9767 238.209C58.2469 237.852 58.5594 237.46 58.8759 237.03C58.8841 236.954 58.9646 236.924 59.011 236.852C59.2812 236.494 59.5514 236.137 59.8256 235.741C60.0958 235.383 60.366 235.026 60.6361 234.669C61.5395 233.451 62.4892 232.162 63.4812 230.839C64.8784 228.979 66.5118 226.72 67.8626 224.932C68.4984 225.85 69.2625 227.014 70.193 228.428C70.4959 228.847 72.4278 231.373 74.2533 233.809C75.7118 235.705 77.1021 237.515 77.5756 238.146C78.7571 239.741 80.0014 241.111 81.3085 242.256C85.0169 245.513 93.4276 241.313 93.5081 241.283L93.3252 241.186Z" fill="white"/>
<path d="M43.1284 102.372C44.0835 102.474 45.0058 102.882 45.8013 103.393C47.4645 104.46 48.7061 106.216 48.7223 108.227C48.7428 109.118 47.4234 109.17 47.3224 108.309C47.2474 107.566 46.935 106.876 46.4192 106.28C46.0099 105.772 45.3673 105.278 44.7806 104.983C44.4149 104.79 44.0452 104.634 43.6754 104.479C43.3057 104.323 43.0805 104.26 42.6303 104.135C42.2564 104.017 41.8785 103.938 41.5005 103.859C41.1226 103.78 40.7746 103.781 40.4008 103.664C40.0269 103.546 39.9233 103.072 40.2617 102.799C41.0149 102.261 42.1774 102.231 43.052 102.364L43.1284 102.372Z" fill="#221E1F"/>
<path d="M78.9584 66.6067C78.9584 66.6067 70.7975 70.6396 69.4643 72.6221C68.1312 74.6046 68.5096 63.8637 78.9584 66.6067Z" fill="#221E1F"/>
<path d="M119.398 66.0708C119.398 66.0708 110.472 64.264 108.226 65.028C105.942 65.7879 112.821 57.4828 119.398 66.0708Z" fill="#221E1F"/>
<path d="M103.121 124.532C104.046 124.554 104.937 124.533 105.84 124.398C104.937 124.533 104.041 124.592 103.121 124.532Z" fill="#221E1F"/>
<path d="M84.8257 113.181L85.0931 113.21C86.2269 113.447 87.9066 113.28 89.3147 113.121C90.8033 112.933 92.2919 112.745 93.7546 112.438C96.7141 111.866 99.7077 111.337 102.611 110.566C105.112 109.946 107.549 109.202 109.934 108.221C110.337 108.071 110.735 107.959 111.104 107.767C112.68 107.124 114.157 106.317 115.605 105.428C116.68 104.771 117.76 104.075 118.694 103.286L118.732 103.29C118.91 103.078 119.181 103.068 119.394 103.245C119.607 103.423 119.613 103.732 119.435 103.945C119.342 104.09 119.177 104.188 119.089 104.295C119.019 104.944 118.949 105.594 118.888 106.167C118.863 106.396 118.843 106.587 118.818 106.816C118.745 107.504 118.599 108.145 118.495 108.752C118.474 108.943 118.42 109.092 118.361 109.279C118.215 109.92 118.073 110.523 117.931 111.126C117.915 111.279 117.864 111.39 117.81 111.538C117.63 112.137 117.45 112.736 117.273 113.297C117.265 113.374 117.219 113.446 117.168 113.556C116.95 114.151 116.736 114.708 116.483 115.261C116.479 115.299 116.475 115.337 116.433 115.371C116.18 115.924 115.89 116.472 115.603 116.982C115.034 117.965 114.443 118.79 113.818 119.573C113.772 119.646 113.722 119.756 113.637 119.824C113.198 120.318 112.762 120.774 112.331 121.192C112.801 120.778 113.202 120.28 113.641 119.786C113.636 119.477 113.584 119.239 113.528 119.04C113.095 118.027 111.237 119.142 101.073 120.951C97.6852 121.554 94.7121 121.892 100.661 124.076C101.192 124.171 101.722 124.267 102.257 124.324C101.799 124.275 101.34 124.226 100.882 124.177C100.767 124.164 100.657 124.114 100.546 124.063C99.8286 123.909 99.1573 123.683 98.4901 123.418C98.1927 123.309 97.8912 123.238 97.5937 123.129C96.6332 122.716 95.719 122.232 94.8512 121.675C94.8512 121.675 94.813 121.671 94.7789 121.629C94.2004 121.258 93.626 120.848 93.0939 120.405C93.0939 120.405 93.0598 120.363 93.0216 120.358C91.9956 119.476 91.1305 118.533 90.3924 117.488C90.3242 117.403 90.2942 117.323 90.226 117.238C89.8931 116.739 89.6366 116.247 89.3801 115.756C89.3501 115.676 89.2818 115.591 89.2559 115.472C89.1359 115.15 89.0117 114.866 88.8916 114.544C87.5381 114.554 86.1164 114.479 84.6128 114.086C84.3494 114.019 84.183 113.769 84.2157 113.464C84.2444 113.196 84.5364 112.996 84.8379 113.067L84.8257 113.181ZM98.9284 116.084C101.679 117.461 106.416 116.887 111.506 114.109C114.91 112.271 115.886 108.936 116.179 106.92C114.8 107.892 113.322 108.7 111.849 109.47C109.036 110.83 106.108 111.83 103.09 112.588C100.792 113.115 98.5069 113.527 96.1873 113.897C96.6949 114.569 97.534 115.393 98.8902 116.08L98.9284 116.084Z" fill="#221E1F"/>
<path d="M113.093 79.1135C113.555 79.1244 114.01 79.2118 114.468 79.2609C114.278 79.5884 114.127 79.9199 114.124 80.3061C114.12 81.4263 115.023 82.3732 116.143 82.3774C116.878 82.3788 117.5 81.9817 117.871 81.4032C118.758 82.503 119.302 83.9139 119.295 85.4202C119.232 88.8914 116.387 91.6392 112.912 91.6145C112.721 91.5941 112.53 91.5736 112.339 91.5531C112.263 91.5449 112.233 91.4644 112.198 91.4221C111.769 91.1055 111.347 90.7126 110.964 90.3237C110.857 90.235 110.755 90.1081 110.649 90.0194C110.197 89.5459 109.788 89.0383 109.463 88.4625C109.036 87.7598 108.728 87.0312 108.5 86.2726C108.448 86.0351 108.392 85.8359 108.34 85.5985C108.206 85.0432 108.111 84.4919 108.092 83.9489C108.116 83.7197 108.06 83.5205 108.047 83.2871C108.044 82.5913 108.118 81.9036 108.264 81.2623C109.417 79.8788 111.212 78.9893 113.181 79.0071L113.093 79.1135Z" fill="#221E1F"/>
<path d="M79.0936 97.0712C78.9026 97.0507 78.7116 97.0303 78.4824 97.0057C78.4059 96.9975 78.3759 96.917 78.3036 96.8706C77.8397 96.5117 77.3799 96.1147 76.9583 95.7217C76.856 95.5948 76.7496 95.5061 76.6472 95.3792C76.1615 94.8634 75.7181 94.3135 75.3934 93.7377C74.9322 92.9927 74.5939 92.1836 74.3701 91.3867C74.2801 91.1452 74.2283 90.9078 74.1764 90.6704C74.0468 90.0769 73.9554 89.4874 73.9022 88.9021C73.8886 88.6688 73.875 88.4354 73.8613 88.2021C73.8627 87.468 73.9405 86.7422 74.0947 86.0245C75.3364 84.5346 77.2167 83.5768 79.3384 83.611C79.8391 83.626 80.3317 83.7175 80.7902 83.7666C80.5623 84.09 80.4067 84.4597 80.3999 84.8841C80.3876 86.0807 81.3631 87.074 82.5556 87.1246C83.3279 87.13 83.9924 86.6989 84.4058 86.0863C85.3609 87.2707 85.9353 88.762 85.9161 90.383C85.8668 94.0874 82.8063 97.0441 79.1018 96.9948L79.0936 97.0712Z" fill="#221E1F"/>
<path d="M32.6239 218.762L32.8259 218.32C32.9732 218.027 33.1206 217.734 33.268 217.44C33.268 217.44 33.2639 217.478 33.2598 217.517C31.681 220.709 35.0523 225.669 39.1796 229.705C43.8008 234.181 49.3976 237.486 50.3419 235.887C51.2288 234.823 53.0818 232.316 55.205 229.452C55.5639 228.988 55.9268 228.486 56.2898 227.984C56.3403 227.874 56.4249 227.805 56.4754 227.695C56.7497 227.299 57.0621 226.908 57.3364 226.512C57.3446 226.436 57.4251 226.406 57.4715 226.333C57.7921 225.865 58.1087 225.435 58.4676 224.972C59.2358 223.933 60.004 222.895 60.6877 221.925C61.2744 221.138 61.8188 220.384 62.3551 219.708C62.7181 219.206 63.0769 218.742 63.3894 218.35C64.204 217.24 64.829 216.456 65.1332 216.141C65.2178 216.073 65.2601 216.039 65.3447 215.971C65.3447 215.971 65.4171 216.017 65.4553 216.021C65.5699 216.033 65.6845 216.046 65.7827 216.211C65.9151 216.418 66.1838 216.795 66.5931 217.302C66.7637 217.514 66.9261 217.802 67.1266 218.094C67.2931 218.343 67.4936 218.635 67.7324 218.932C67.9029 219.143 68.0353 219.35 68.2017 219.6C68.7734 220.396 69.4651 221.513 70.2974 222.762C70.4598 223.05 70.6303 223.261 70.8309 223.553C71.2961 224.26 77.1684 231.845 78.2176 233.233C78.9257 234.197 79.6843 235.052 80.4511 235.829C80.7621 236.172 81.1114 236.518 81.4266 236.823C82.5549 237.832 87.5857 236.324 89.5505 235.298C91.5536 234.276 93.4502 233.165 95.325 231.898C96.4084 231.164 97.339 230.413 98.1972 229.616C98.8399 229.028 99.4826 228.44 100.015 227.802C100.319 227.487 100.551 227.125 100.779 226.802C100.964 226.512 101.116 226.181 101.267 225.849C101.322 225.701 101.415 225.556 101.469 225.407C101.746 224.625 101.832 223.823 101.727 223C101.67 222.453 101.596 222.059 101.502 221.856C99.453 218.622 97.2768 215.49 94.9055 212.377C94.1933 211.45 93.5275 210.451 92.8194 209.487C91.1426 207.104 89.474 204.645 87.7959 201.915C87.6594 201.746 87.523 201.577 87.3906 201.369C86.9172 200.739 86.482 200.113 86.0044 199.52C85.7698 199.186 85.4969 198.848 85.2622 198.513L85.194 198.429C85.1599 198.386 85.2063 198.314 85.2104 198.276C85.295 198.208 85.3796 198.14 85.4301 198.029C85.8612 197.612 86.2924 197.194 86.7236 196.777C94.6159 189.121 100.351 182.123 102.314 179.667C102.581 179.348 102.804 179.063 102.901 178.88C103.573 178.024 103.852 176.856 103.661 175.754C103.596 175.283 103.45 174.842 103.346 174.368C103.268 174.011 103.191 173.655 103.075 173.295C102.959 172.935 102.839 172.613 102.723 172.253C102.453 171.528 102.217 170.846 101.866 170.151C101.674 169.783 101.477 169.453 101.285 169.084C101.126 168.758 100.93 168.428 100.734 168.098C100.537 167.768 100.383 167.403 100.182 167.111C100.148 167.069 100.118 166.989 100.084 166.946C99.3964 165.791 98.6665 164.669 97.8902 163.62C96.4058 161.606 94.9309 159.863 93.5078 158.358C92.6346 157.492 91.644 156.999 90.5525 156.728C93.4574 156.305 96.4482 157.244 98.6763 159.53C100.206 161.124 101.783 162.994 103.336 165.092C103.57 165.426 103.801 165.799 104.07 166.176C104.304 166.51 104.505 166.802 104.701 167.132C104.898 167.462 105.137 167.758 105.333 168.089C105.927 169.041 106.44 170.023 106.953 171.006C107.111 171.332 107.307 171.662 107.504 171.992C107.504 171.992 107.5 172.03 107.534 172.073C107.692 172.399 107.774 172.717 107.898 173.001C108.673 174.784 109.283 176.666 109.583 178.553C109.792 179.85 109.652 181.149 109.173 182.373C108.9 183.117 108.551 183.852 108.057 184.495C107.922 184.673 106.487 186.529 104.062 189.322C101.633 192.153 98.1727 195.956 93.9755 200.143C93.5825 200.564 93.1936 200.948 92.7625 201.365C92.5933 201.502 92.4623 201.642 92.3272 201.821L92.937 202.621L93.1717 202.955C93.4705 203.412 93.7693 203.869 94.0299 204.322C94.8199 205.605 95.6098 206.887 96.4462 208.098C97.5772 209.803 98.7588 211.398 99.9103 212.913C102.32 216.031 104.56 219.285 106.609 222.519L106.87 222.972C107.152 223.582 107.312 224.256 107.392 225.308C107.376 225.461 107.36 225.613 107.381 225.77C107.391 226.042 107.362 226.309 107.372 226.581C107.372 226.581 107.372 226.581 107.368 226.619C107.257 228.733 106.459 230.772 104.955 232.543C104.955 232.543 104.947 232.62 104.867 232.65C104.82 232.722 104.774 232.794 104.689 232.863C104.474 233.071 104.216 233.314 104 233.523C103.738 233.804 103.438 234.081 103.138 234.358C102.537 234.912 101.899 235.462 101.222 236.008C100.587 236.519 99.953 237.031 99.2462 237.496C97.2909 238.794 95.2251 240.041 93.1033 241.088C93.1033 241.088 84.6122 245.318 80.9038 242.061C79.5967 240.916 78.3565 239.508 77.1708 237.951C76.7356 237.325 75.3071 235.51 73.8486 233.615C71.9849 231.174 70.0488 228.686 69.7882 228.233C68.8577 226.819 68.0937 225.656 67.4579 224.737C66.1029 226.563 64.4355 228.78 63.0764 230.644C62.0844 231.967 61.1347 233.257 60.2314 234.474C59.9613 234.831 59.6911 235.189 59.4209 235.546C59.1466 235.942 58.8383 236.295 58.6063 236.657C58.5981 236.733 58.5176 236.763 58.4712 236.835C58.1546 237.265 57.8845 237.623 57.572 238.014C57.2554 238.444 56.9429 238.836 56.6728 239.193C56.2675 239.729 55.8663 240.227 55.558 240.581C54.832 241.585 53.5126 242.719 51.1057 242.461C49.9214 242.334 48.5024 241.873 46.7846 240.954C41.6394 238.123 28.0909 227.164 32.4029 218.661L32.6239 218.762Z" fill="#221E1F"/>
<path d="M64.4447 177.114C64.4447 177.114 64.3042 176.983 64.2701 176.941C64.1978 176.895 64.1295 176.81 64.0231 176.721C63.9508 176.675 63.9508 176.675 63.8826 176.59C63.6015 176.328 63.0599 175.613 62.2576 174.445C61.4554 173.277 60.2943 171.491 58.7703 169.125C57.4128 167.009 55.5259 164.063 53.1396 160.368C52.8067 159.869 52.5079 159.411 52.1791 158.874C51.8203 158.256 51.2787 157.541 50.5542 156.729C50.3113 156.471 50.0944 156.332 49.8392 156.189C50.0807 156.099 50.3222 156.008 50.5556 155.995C51.7385 155.774 54.0212 155.748 56.1606 158.141C57.0597 159.126 57.7337 160.049 58.1608 160.752L64.6196 170.796C65.546 172.247 66.3101 173.411 66.9759 174.41C66.6252 174.798 66.2363 175.181 65.8815 175.607C65.3999 176.135 64.8841 176.62 64.4365 177.191L64.4447 177.114Z" fill="#221E1F"/>
<path d="M47.9693 196.718C48.0511 197.036 48.0184 197.342 47.7646 197.547C46.9609 198.195 46.1954 198.847 45.464 199.541C37.5288 190.653 32.2787 182.671 31.1177 179.803L30.8162 178.65C30.4834 177.068 30.7017 175.391 31.4332 173.615C31.4127 173.806 31.4263 174.039 31.4823 174.238C31.5382 174.438 31.56 174.595 31.6159 174.794C32.5027 176.976 36.8523 183.625 43.5487 191.453C44.8871 193.026 46.2979 194.646 47.8615 196.282C47.9638 196.409 47.9856 196.566 48.0116 196.684L47.9693 196.718Z" fill="#221E1F"/>
<path d="M139.374 181.088C139.742 180.896 140.072 180.699 140.364 180.499C141.897 179.542 142.781 178.864 142.781 178.864C143.35 181.128 143.876 183.426 144.288 185.711C144.7 187.997 144.738 190.165 144.917 192.464C144.794 192.528 144.629 192.626 144.502 192.728C142.064 193.124 139.609 193.672 137.219 194.344C136.104 194.649 135.032 194.921 133.951 195.269C133.633 195.35 133.413 195.597 133.308 195.857L131.867 196.321L128.901 197.316L128.95 196.858L129.803 184.931C133.254 184.103 136.173 182.832 138.383 181.678C138.752 181.485 139.078 181.327 139.37 181.126L139.374 181.088Z" fill="#F7A4BC"/>
<path d="M111.284 98.1258C111.284 98.1258 111.009 98.1735 110.928 98.2035C110.886 97.1556 110.683 96.1678 110.085 95.2536C109.389 94.1743 108.321 93.3255 107.047 92.9571C106.97 92.9489 106.898 92.9025 106.783 92.8902C105.386 92.5859 103.784 93.1098 102.841 93.9748C102.334 94.3841 101.894 94.878 101.493 95.376C100.471 96.619 99.8067 98.1321 99.4096 99.6739C99.4055 99.7121 99.4014 99.7503 99.3932 99.8268C99.2786 99.8145 99.2104 99.7299 99.0876 99.794C91.2747 101.662 83.6856 104.326 76.3788 107.6L73.6635 108.778C72.8585 109.078 71.9634 109.137 71.1311 108.97C70.8637 108.941 70.6468 108.802 70.3875 108.697C69.869 108.487 69.3587 108.2 68.8689 107.723C68.1199 107.14 67.4213 106.447 66.8414 105.728C64.2887 102.865 62.8316 99.154 62.2355 95.3417C62.2355 95.3417 62.2437 95.2653 62.2478 95.2271C61.6094 91.4489 61.7596 87.5234 62.3642 83.6853C62.5854 81.6222 63.1994 80.2196 64.8545 79.1991C66.4414 78.0939 68.1606 77.1962 69.944 76.4213C75.1249 74.2329 80.6141 72.7732 86.1852 71.6314C87.4486 71.3804 88.7503 71.1334 90.0138 70.8824C90.0138 70.8824 90.0138 70.8824 90.052 70.8865C90.9976 70.7174 91.905 70.5441 92.8505 70.375C93.0456 70.3572 93.1425 70.1744 93.1248 69.9793C107.359 67.3315 117.457 68.2979 123.504 69.5644C123.958 69.6517 124.489 69.7473 124.901 69.8687C125.203 69.9397 125.428 70.0024 125.73 70.0734C125.882 70.0898 126.031 70.1444 126.218 70.2031C127.42 70.5251 128.427 70.8649 129.098 71.0914C129.804 71.3602 130.374 71.8078 130.767 72.4682C136.937 82.3266 137.116 90.3836 136.396 96.0255C136.124 98.1991 135.42 99.3602 133.364 98.7147C133.105 98.6097 132.803 98.5387 132.506 98.4295C132.204 98.3586 131.945 98.2535 131.643 98.1825C131.231 98.0611 130.815 97.9778 130.399 97.8946C130.322 97.8864 130.246 97.8782 130.17 97.87C123.401 96.4876 115.847 97.3782 112.188 97.9907C111.874 98.0344 111.598 98.0821 111.361 98.134L111.284 98.1258ZM83.7876 78.1369C81.73 78.2255 79.9248 78.8436 78.3884 79.8382C77.7662 80.2352 77.2122 80.7168 76.6923 81.2408C76.515 81.4536 76.3376 81.6664 76.1643 81.8411C75.8518 82.2327 75.5352 82.6625 75.2951 83.1004C75.1518 83.3556 75.0085 83.6107 74.8652 83.8659C74.6169 84.3803 74.4068 84.8987 74.273 85.4254C74.2526 85.6164 74.1175 85.7952 74.0929 86.0244C74.0929 86.0244 74.0888 86.0626 74.0847 86.1008C73.9305 86.8185 73.8527 87.5444 73.8513 88.2784C73.8267 88.5077 73.8786 88.7451 73.8922 88.9784C73.9454 89.5637 73.9986 90.1491 74.1664 90.7467C74.2182 90.9841 74.2701 91.2216 74.3601 91.4631C74.622 92.264 74.9263 93.0308 75.3833 93.814C75.7463 94.3939 76.1897 94.9438 76.6372 95.4555C76.7395 95.5824 76.846 95.6711 76.9483 95.798C77.3658 96.2292 77.7915 96.584 78.2936 96.9469C78.3659 96.9933 78.4 97.0356 78.4723 97.082C78.5487 97.0902 78.5828 97.1325 78.6551 97.1789C78.9785 97.4068 79.306 97.5964 79.6716 97.7902C79.8544 97.8871 79.9991 97.9799 80.1819 98.0768C80.5135 98.2282 80.845 98.3797 81.1766 98.5312C81.3976 98.6321 81.6227 98.6949 81.8479 98.7577C82.1453 98.8669 82.4468 98.9378 82.7866 99.0129C83.054 99.0415 83.3174 99.1084 83.5807 99.1753C83.8863 99.208 84.1538 99.2367 84.4594 99.2695C84.6122 99.2858 84.765 99.3022 84.8796 99.3145C84.8796 99.3145 84.8796 99.3145 84.9219 99.2804C85.7706 99.2941 86.6698 99.1972 87.5089 98.9394C93.3788 97.1727 95.9934 90.8063 94.475 85.504C93.1462 80.9563 88.5563 77.9911 83.8217 78.1792L83.7876 78.1369ZM113.451 92.3297C113.451 92.3297 113.779 92.5194 113.928 92.574C114.221 92.7213 114.552 92.8728 114.888 92.9861C115.109 93.087 115.296 93.1457 115.521 93.2085C115.819 93.3177 116.082 93.3845 116.383 93.4555C116.651 93.4842 116.876 93.5469 117.143 93.5756C117.411 93.6043 117.678 93.6329 117.946 93.6616C118.06 93.6739 118.213 93.6902 118.328 93.7025C118.328 93.7025 118.328 93.7025 118.37 93.6684C119.181 93.678 119.999 93.6112 120.8 93.3492C126.068 91.7885 128.521 86.2163 127.416 81.3833C127.36 81.1841 127.342 80.989 127.286 80.7898C127.23 80.5906 127.136 80.3873 127.042 80.184C125.567 76.2775 121.509 73.7559 117.279 73.9208C115.34 73.9835 113.654 74.5756 112.24 75.5061C111.656 75.9072 111.145 76.3547 110.667 76.8445C110.494 77.0192 110.355 77.2361 110.181 77.4108C109.873 77.7641 109.599 78.1598 109.363 78.5596C109.223 78.7765 109.08 79.0317 108.979 79.2527C108.735 79.7289 108.567 80.2133 108.395 80.7358C108.375 80.9268 108.24 81.1056 108.219 81.2966C108.219 81.2966 108.215 81.3348 108.211 81.373C108.065 82.0143 107.991 82.702 107.994 83.3978C107.969 83.6271 108.025 83.8263 108.039 84.0596C108.058 84.6026 108.154 85.1539 108.287 85.7092C108.339 85.9466 108.395 86.1458 108.447 86.3833C108.675 87.1419 108.983 87.8705 109.41 88.5732C109.739 89.1108 110.148 89.6184 110.596 90.1301C110.702 90.2188 110.804 90.3457 110.911 90.4344C111.294 90.8233 111.72 91.178 112.146 91.5328C112.222 91.541 112.252 91.6215 112.286 91.6638C112.324 91.6679 112.397 91.7143 112.469 91.7607C112.792 91.9886 113.082 92.1741 113.409 92.3638L113.451 92.3297Z" fill="#F7A4BC"/>
<path d="M146.923 106.352C147.145 106.8 147.376 107.173 147.589 107.35C147.87 107.612 148.151 107.874 148.482 108.026C148.665 108.123 148.852 108.181 149.077 108.244C149.154 108.252 149.23 108.26 149.307 108.269C149.282 108.498 149.257 108.727 149.233 108.956C149.215 109.843 149.427 110.755 150.006 111.474C150.45 112.024 151.062 112.437 151.73 112.702C152.138 112.861 152.741 113.003 153.284 112.984C153.165 114.092 153.428 115.241 154.06 116.198C154.431 116.701 154.963 117.145 155.542 117.516C155.297 117.992 154.795 118.711 153.52 119.077C151.485 119.67 147.76 116.566 145.374 112.871C144.909 112.164 144.787 111.494 144.738 110.87C144.621 109.08 145.752 107.54 146.619 106.667C146.707 106.56 146.796 106.454 146.881 106.386L146.923 106.352Z" fill="#F7A4BC"/>
<path d="M173.65 146.12C166.971 144.979 161.189 139.799 157.741 135.913C156.88 134.932 156.126 134.04 155.584 133.325C155.38 133.071 155.247 132.863 155.077 132.652C154.539 131.899 154.202 131.438 154.202 131.438C154.202 131.438 162.185 134.109 163.818 125.01C164.108 123.38 164.295 122.356 164.373 121.63C164.435 121.057 164.476 120.675 164.496 120.484C165.012 119.999 165.489 119.509 165.959 119.095C165.959 119.095 166.043 119.027 166.086 118.993C167.063 118.17 168.176 117.517 169.349 117.024C169.917 116.776 170.477 116.604 171.036 116.432C171.672 116.268 172.304 116.143 172.845 115.776C173.302 115.477 172.952 114.783 172.489 114.772C171.61 114.677 170.59 115.186 169.747 115.482C168.899 115.817 168.086 116.193 167.337 116.693C166.461 117.294 165.653 117.981 164.88 118.709C164.279 119.263 163.683 119.779 163.014 120.248C162.303 120.752 161.422 121.044 160.564 120.758C159.71 120.435 159.257 119.614 159.156 118.753C159.107 118.129 159.168 117.556 159.348 116.957C159.838 115.271 161.194 113.793 162.433 112.689C163.245 111.965 164.125 111.325 165.001 110.723C165.873 110.16 166.647 109.431 167.515 108.906C167.764 108.739 167.741 108.234 167.351 108.27C165.132 108.419 163.364 109.775 161.706 111.181C160.052 112.55 158.549 114.321 157.899 116.415C157.836 116.64 157.769 116.904 157.745 117.133C157.132 116.719 156.511 116.382 155.988 115.863C155.813 115.689 155.604 115.474 155.476 115.228C154.925 114.242 154.852 113.113 155.239 112.034C155.827 110.513 156.873 109.04 157.899 107.759C159.103 106.265 160.417 104.822 162.038 103.759C162.453 103.494 162.132 102.88 161.683 103.102C159.761 104.094 158.047 105.302 156.636 106.928C155.441 108.346 154.098 110.057 153.515 111.888C153.146 111.732 152.738 111.573 152.402 111.459C151.883 111.249 151.411 110.967 151.074 110.506C150.366 109.541 150.544 108.246 150.892 107.163C151.408 105.595 152.217 104.175 153.098 102.801C154.03 101.316 155.103 99.9626 156.529 98.9175C156.99 98.5805 156.368 97.8956 155.906 98.2326C154.384 99.4605 153.096 101.023 151.96 102.601C151.006 103.929 150.189 105.426 149.635 106.989C149.576 107.176 149.441 107.355 149.421 107.546C149.421 107.546 149.417 107.584 149.413 107.622C149.051 107.39 148.736 107.086 148.501 106.752C148.126 106.287 147.835 105.753 147.621 105.228C147.411 104.664 147.205 104.062 147.152 103.477C147.134 103.282 147.078 103.083 147.065 102.849C147.013 102.612 146.999 102.379 147.024 102.15C147.309 100.209 148.39 97.6974 150.518 95.1432C153.526 91.6013 160.298 86.1056 165.826 91.4899C183.114 108.298 186.806 121.446 186.545 130.731C186.347 137.627 183.943 142.393 183.206 144.941C181.126 145.955 179.104 146.434 177.119 146.569C175.914 146.633 174.764 146.548 173.626 146.349L173.65 146.12Z" fill="#F7A4BC"/>
<path d="M129.283 279.592C129.407 278.794 129.59 277.809 129.794 276.633C129.83 276.289 129.905 275.949 129.985 275.571C130.026 275.189 130.143 274.815 130.184 274.433C131.738 266.06 134.663 253.196 138.082 250.858C140.169 249.419 142.399 251.32 144.391 254.007C145.637 255.725 146.735 257.736 147.629 259.493C147.727 259.659 147.787 259.82 147.885 259.985C148.588 264.968 149.286 269.989 150.023 275.014C150.062 275.366 150.14 275.722 150.18 276.074C150.219 276.426 150.293 276.821 150.332 277.173C150.472 278.038 150.573 278.899 150.712 279.764C150.751 280.116 150.829 280.472 150.869 280.824C150.904 281.214 150.982 281.57 151.055 281.965C151.866 287.384 152.718 292.77 153.63 297.968C153.781 298.719 156.842 316.668 157.102 323.613C157.27 328.539 156.459 329.611 156.129 329.808C156.087 329.842 156.045 329.876 156.006 329.872C154.018 330.393 147.457 322.386 139.223 306.549C139.065 306.223 139.086 306.032 139.952 305.158C140.341 304.775 140.823 304.247 141.049 303.576C141.112 303.35 141.098 303.117 141.089 302.846C141.071 302.651 140.981 302.409 140.891 302.167C137.552 295.82 134 288.947 130.413 282.032C130.22 281.664 130.028 281.295 129.836 280.927C129.643 280.558 129.451 280.19 129.259 279.822C129.259 279.822 129.263 279.783 129.267 279.745C129.267 279.745 129.275 279.669 129.279 279.631L129.283 279.592Z" fill="#F7A4BC"/>
<path d="M167.63 267.933C168.826 267.598 170.294 267.601 171.703 267.79C171.78 267.798 171.826 267.726 171.902 267.734C172.407 267.711 172.869 267.374 172.926 266.839C172.934 266.763 172.942 266.687 172.95 266.61C172.455 260.413 171.765 254.233 170.719 248.131C174.727 237.78 181.79 215.505 186.765 207.305C186.997 206.944 187.187 206.616 187.372 206.327C187.6 206.004 187.824 205.718 188.01 205.429C188.145 205.25 188.692 204.731 188.823 204.59C189.143 204.856 189.131 205.058 189.446 205.363C189.924 205.955 190.537 206.939 190.85 207.63C191.128 208.278 191.104 209.007 191.225 209.677C191.225 209.677 191.221 209.715 191.217 209.753C191.265 210.029 191.232 210.334 191.276 210.648C191.261 211.149 191.251 211.959 191.272 212.85C191.252 213.389 191.276 213.894 191.261 214.395L191.244 214.548L190.862 224.245C190.225 237.393 189.241 250.542 187.607 263.621C187.501 264.615 187.322 265.561 187.216 266.555C187.171 266.975 187.126 267.395 187.085 267.777C187.04 268.198 186.99 268.656 186.907 269.072C186.854 269.569 186.805 270.027 186.713 270.52C186.668 270.94 186.623 271.36 186.578 271.781C186.533 272.201 186.488 272.621 186.443 273.041C186.386 273.576 186.248 274.141 186.191 274.676C184.733 283.949 182.859 293.138 179.902 301.979C178.902 303.379 177.8 303.57 176.572 302.048C175.365 300.682 174.569 298.741 173.768 296.839C172.174 292.959 170.7 289.052 169.309 285.078C168.661 283.192 167.979 281.264 167.335 279.34C167.219 278.98 167.099 278.658 167.021 278.302C166.905 277.942 166.785 277.62 166.708 277.263C166.506 276.624 166.308 275.945 166.144 275.31C166.028 274.949 165.951 274.593 165.877 274.199C165.795 273.881 165.713 273.563 165.631 273.245L165.639 273.169C165.263 271.273 165.387 269.393 166.598 268.557C166.97 268.326 167.377 268.138 167.856 267.996L167.63 267.933Z" fill="#F7A4BC"/>
<path d="M32.9513 169.18C34.2503 167.155 35.8891 165.206 37.8294 163.327C38.307 162.837 38.8146 162.428 39.2881 161.976C39.6347 161.627 40.0195 161.282 40.3619 160.971C40.789 160.591 41.2079 160.288 41.5927 159.943C42.3118 159.363 43.035 158.745 43.75 158.204C44.1307 157.897 44.5032 157.666 44.8757 157.435C46.3357 156.433 47.4791 155.86 48.2718 155.674C48.7849 155.575 49.2651 155.781 49.7672 156.144C49.9801 156.321 50.2393 156.426 50.4822 156.684C51.2067 157.496 51.7483 158.211 52.1072 158.829C52.436 159.366 52.7348 159.824 53.0677 160.323C55.4539 164.018 57.3408 166.964 58.6984 169.08C60.2223 171.446 61.3834 173.232 62.1857 174.4C62.9879 175.568 63.5296 176.283 63.8106 176.545C63.8789 176.63 63.917 176.634 63.9512 176.676C64.0576 176.765 64.1299 176.811 64.1981 176.896C64.2363 176.9 64.3387 177.027 64.3728 177.069C64.8544 176.541 65.332 176.051 65.8178 175.485C66.1684 175.098 66.5573 174.714 66.9121 174.289C69.9713 170.984 73.1329 167.806 76.4527 164.955C79.4764 162.342 82.6024 159.856 85.9072 157.505C87.3713 156.464 88.9786 156.25 90.5627 156.613C91.616 156.881 92.6489 157.339 93.518 158.244C94.9793 159.753 96.4542 161.495 97.9004 163.505C98.6767 164.555 99.4067 165.676 100.094 166.832C100.128 166.874 100.158 166.955 100.193 166.997C100.389 167.327 100.547 167.653 100.744 167.984C100.94 168.314 101.098 168.64 101.295 168.97C101.487 169.338 101.684 169.669 101.876 170.037C102.227 170.732 102.459 171.452 102.733 172.138C102.849 172.499 102.969 172.821 103.085 173.181C103.201 173.541 103.24 173.893 103.356 174.253C103.46 174.728 103.606 175.169 103.671 175.64C103.862 176.742 103.583 177.91 102.911 178.765C102.78 178.906 102.595 179.195 102.325 179.553C100.399 182.013 94.6643 189.011 86.7338 196.662C86.3026 197.08 85.8715 197.497 85.4403 197.915C85.3557 197.983 85.2711 198.051 85.2206 198.162C85.1783 198.196 85.1701 198.272 85.2042 198.314L85.2724 198.399C85.5071 198.733 85.78 199.072 86.0146 199.406C86.4881 200.036 86.9233 200.663 87.4008 201.255C87.5373 201.424 87.6737 201.593 87.8061 201.801C89.446 204.527 91.1146 206.986 92.8296 209.372C93.5377 210.337 94.2035 211.336 94.9157 212.262C97.287 215.376 99.5014 218.512 101.512 221.741C101.607 221.945 101.68 222.339 101.738 222.886C101.804 223.705 101.714 224.545 101.48 225.293C101.463 225.446 101.37 225.59 101.278 225.735C101.126 226.067 101.017 226.364 100.789 226.687C100.561 227.011 100.329 227.372 100.025 227.687C99.4546 228.322 98.8501 228.914 98.2075 229.502C97.311 230.295 96.3804 231.045 95.3352 231.783C93.4604 233.051 91.5597 234.2 89.5607 235.183C87.5959 236.209 82.5651 237.718 81.4368 236.708C81.0834 236.4 80.7723 236.058 80.4613 235.715C79.6945 234.937 78.9359 234.083 78.2278 233.118C77.1786 231.731 71.3445 224.15 70.8411 223.439C70.6405 223.147 70.5123 222.901 70.3076 222.647C69.4753 221.399 68.7795 220.32 68.2119 219.486C68.0455 219.236 67.9131 219.029 67.7426 218.817C67.542 218.525 67.3415 218.233 67.1368 217.979C66.9363 217.687 66.7316 217.434 66.6034 217.188C66.2363 216.646 65.9635 216.308 65.7929 216.096C65.6947 215.931 65.5801 215.919 65.4655 215.907C65.4655 215.907 65.3972 215.822 65.3549 215.856C65.2703 215.925 65.2281 215.959 65.1435 216.027C64.8392 216.342 64.2142 217.125 63.3996 218.236C63.083 218.666 62.7242 219.13 62.3653 219.593C61.8673 220.274 61.2846 221.023 60.6979 221.811C59.976 222.777 59.246 223.819 58.4778 224.857C58.1612 225.287 57.8406 225.755 57.4817 226.219C57.4735 226.295 57.393 226.325 57.3466 226.398C57.0723 226.793 56.7599 227.185 56.4856 227.581C56.4351 227.691 56.3505 227.759 56.3 227.87C55.9371 228.372 55.5741 228.874 55.2152 229.338C53.092 232.202 51.239 234.708 50.3521 235.772C49.4078 237.372 43.811 234.067 39.1898 229.591C35.0243 225.551 31.653 220.591 33.27 217.402C33.27 217.402 33.2741 217.364 33.2782 217.326C33.88 216.038 37.1127 207.149 45.4757 199.428C46.203 198.771 46.9725 198.081 47.7762 197.433C48.03 197.228 48.0246 196.919 47.9809 196.605C47.9591 196.448 47.9373 196.291 47.8308 196.202C46.3096 194.532 44.8947 192.951 43.518 191.373C36.8258 183.507 32.4762 176.858 31.5853 174.714C31.5294 174.515 31.5075 174.358 31.4516 174.159C31.3957 173.96 31.4202 173.73 31.4025 173.535C31.3425 172.292 31.846 170.839 32.9554 169.142L32.9513 169.18Z" fill="#F7A4BC"/>
<path d="M16.6863 167.358C18.5304 147.268 26.5658 143.685 32.6908 144.226C37.892 144.01 43.0933 143.795 48.2564 143.576C55.0775 136.539 63.9766 131.388 68.3211 129.071C66.9894 128.155 65.6619 127.202 64.4189 126.18C60.1279 122.59 56.2366 118.154 53.6076 113.119C52.5569 114.629 49.888 115.734 48.604 116.176C45.7946 117.15 43.1026 116.669 40.6016 115.125C37.0883 112.932 34.421 108.976 33.2804 104.834C32.2886 101.83 31.8917 97.9616 34.6125 94.9299C35.449 93.9762 36.3891 93.4974 38.0169 93.0922C38.0169 93.0922 32.6002 90.2703 33.4129 68.9877C34.1791 48.8595 41.385 42.5602 49.9631 46.5324C49.6712 44.569 48.2855 30.8181 69.3962 28.9073C92.1443 26.8629 103.114 35.9219 108.103 29.0372C113.323 21.7908 103.94 23.5287 99.8262 25.1359C99.3432 25.316 98.8997 24.7661 99.1781 24.3322C100.667 21.98 103.324 17.7435 105.036 15.1061C118.166 -5.35868 132.05 33.111 121.505 50.3748C120.662 51.7529 119.563 52.9877 118.354 54.172C119.735 56.7931 121.039 59.4061 122.255 62.1255C123.092 63.6837 123.952 65.3988 124.761 67.2245C128.014 67.8823 130.211 68.6587 131.362 69.0913C132.029 69.356 132.561 69.7995 132.958 70.4217C138.509 79.2089 140.447 88.8843 138.773 99.0998C138.449 101.036 136.787 102.481 134.848 102.544C134.11 102.58 133.338 102.575 132.566 102.569C132.596 103.732 132.672 104.822 132.621 106.015C132.52 112.728 128.379 121.442 121.496 127.969C124.525 127.83 128.631 128.464 133.985 129.347C139.53 130.25 145.682 131.257 151.534 131.459C151.635 131.238 151.779 130.983 151.918 130.766C152.64 129.8 153.919 129.397 155.079 129.753C155.079 129.753 157.288 130.415 158.897 129.466C159.807 128.907 160.461 127.856 160.862 126.276C159.279 126.261 157.919 125.613 156.837 124.531C156.241 123.965 155.775 123.258 155.433 122.487C155.107 122.645 154.747 122.761 154.425 122.881C150.038 124.15 145.239 118.805 143.088 115.445C141.329 112.744 141.639 109.493 143.754 106.705C143.607 105.917 143.544 105.06 143.6 104.177C143.6 104.177 143.739 102.878 144.401 101.751C144.938 99.2583 146.345 96.5882 148.423 94.1445C149.75 92.5864 154.47 87.489 160.218 87.2164C163.052 87.0951 165.725 88.1158 167.889 90.2799C196.306 117.903 189.59 136.582 186.685 144.579C186.412 145.322 186.185 145.994 186.009 146.554C185.808 147.344 185.238 147.979 184.539 148.368C182.498 149.385 180.307 150.001 178.118 150.23C173.276 153.227 165.25 157.082 152.607 160.75C151.331 161.116 149.941 161.469 148.584 161.865C184.756 194.299 242.335 201.862 242.985 201.931L244.131 202.054L243.97 203.196C242.777 210.72 240.458 217.929 237.099 224.757C228.652 244.796 211.575 261.707 188.711 272.048C188.377 274.446 188.004 276.841 187.593 279.231C186.115 288.695 184.155 297.605 181.612 304.752C181.523 304.858 179.591 307.743 176.722 307.474C174.506 307.236 172.529 305.131 170.935 301.25C167.864 293.849 165.358 285.504 163.89 280.091C160.413 280.801 156.957 281.319 153.475 281.719C154.29 287.1 155.108 292.443 156.023 297.604C156.358 299.533 159.28 316.617 159.502 323.558C159.573 325.421 159.53 327.619 158.998 329.339C158.518 331.297 157.539 332.854 155.67 333.349C155.314 333.427 154.835 333.569 154.185 333.499C151.549 333.217 145.969 329.759 134.755 308.192C133.443 305.656 134.997 303.774 135.91 302.829C132.349 296.032 128.57 288.749 124.795 281.427C111.723 279.717 98.9196 275.871 86.9605 269.914C83.1031 272.012 79.2499 274.072 75.3502 276.205L74.1986 276.854L73.0293 276.226C65.8688 272.367 58.7125 268.47 51.522 264.531C29.5154 252.086 24.6597 242.948 22.0611 227.174L22.1375 227.182C21.2835 224.695 20.3327 219.144 18.6413 206.442C17.1818 195.543 15.7252 179.93 16.8691 167.455L16.6863 167.358ZM223.112 200.226C202.402 195.147 169.492 184.2 145.888 162.503C144.578 162.826 143.192 163.141 141.806 163.457C141.369 163.564 140.933 163.672 140.496 163.78C140.259 163.832 140.021 163.884 139.784 163.935C139.904 164.257 140.024 164.579 140.144 164.901C142.133 170.138 143.758 175.529 144.95 180.99C145.395 182.97 145.836 184.988 146.119 187.028C146.351 188.83 146.571 190.747 146.119 192.438C155.266 191.099 164.65 191.525 173.554 194.257C180.016 196.341 185.939 199.488 191.104 204.292C192.264 205.73 193.047 207.437 193.351 209.286C193.651 211.173 193.399 212.808 193.418 214.433L193.015 224.321C192.375 237.507 191.386 250.694 189.744 263.85C189.687 264.385 189.625 264.958 189.53 265.489C210.214 256.383 226.082 241.738 234.886 224.133C237.686 218.559 239.708 212.671 241.017 206.589C241.192 205.681 241.439 204.818 241.575 203.905C238.989 203.512 232.23 202.401 223.077 200.184L223.112 200.226ZM156.008 329.831C156.008 329.831 156.047 329.835 156.131 329.766C156.427 329.528 157.272 328.498 157.104 323.572C156.878 316.669 153.779 298.716 153.631 297.927C152.72 292.728 151.906 287.347 151.057 281.923C151.022 281.533 150.944 281.177 150.871 280.783C150.831 280.431 150.753 280.075 150.714 279.722C150.575 278.857 150.474 277.996 150.334 277.131C150.295 276.779 150.221 276.385 150.182 276.033C150.142 275.681 150.064 275.325 150.025 274.973C149.288 269.948 148.59 264.926 147.887 259.943C147.8 259.316 147.709 258.726 147.621 258.099C146.304 248.76 145.056 239.855 143.79 231.836C143.713 231.828 143.675 231.823 143.599 231.815C142.75 231.802 141.94 231.792 141.129 231.782C133.457 231.617 127.277 231.225 124.862 231.044C122.836 238.053 119.648 245.44 114.822 251.53C114.822 251.53 114.775 251.603 114.737 251.598C118.218 258.425 122.151 266.073 126.221 273.89C126.409 274.296 126.636 274.707 126.828 275.076C127.02 275.444 127.213 275.812 127.401 276.219C127.974 277.362 128.551 278.468 129.162 279.615C129.162 279.615 129.158 279.653 129.192 279.696C129.385 280.064 129.577 280.432 129.769 280.801C129.962 281.169 130.154 281.538 130.347 281.906C133.929 288.859 137.516 295.775 140.889 302.164C140.983 302.368 141.005 302.525 141.022 302.72C141.036 302.953 141.046 303.225 140.983 303.45C140.795 304.125 140.275 304.649 139.886 305.032C138.981 305.902 138.961 306.093 139.157 306.423C147.391 322.26 153.952 330.267 155.94 329.746L156.008 329.831ZM120.332 272.95C121.355 273.137 122.34 273.319 123.368 273.468C123.368 273.468 123.368 273.468 123.406 273.472C119.823 266.519 116.339 259.731 113.171 253.595C112.6 254.229 111.996 254.821 111.349 255.447C110.36 256.385 109.409 257.326 108.313 258.175L107.983 258.371C103.884 260.56 99.7347 262.859 95.6317 265.085C103.601 268.606 111.86 271.23 120.336 272.911L120.332 272.95ZM169.591 265.477C169.305 260.577 167.925 243.89 162.84 231.482C157.275 231.851 151.504 231.967 146.175 231.937C147.411 239.875 148.675 248.628 149.929 257.844C150.718 263.454 151.534 269.184 152.358 274.836C155.633 274.569 158.92 274.187 162.185 273.648C161.847 271.757 161.718 269.348 163.26 267.581C164.228 266.487 165.723 265.874 167.674 265.697C168.344 265.575 168.972 265.488 169.63 265.481L169.591 265.477ZM46.0591 256.371C48.9203 257.799 51.7815 259.226 54.6045 260.649C60.3268 263.504 66.0833 266.401 71.8056 269.255C74.0325 267.948 76.2975 266.645 78.5625 265.342C78.9309 265.15 79.3034 264.92 79.6336 264.723C80.0061 264.492 80.3745 264.3 80.747 264.069C81.9833 263.352 83.1772 262.668 84.4134 261.951C84.7859 261.72 85.1543 261.528 85.5268 261.297C85.8993 261.067 86.31 260.84 86.6784 260.648C91.4582 257.875 96.272 255.145 101.005 252.445C103.317 251.07 105.385 249.437 107.326 247.558C107.93 246.966 108.539 246.336 109.147 245.705C109.413 245.386 109.679 245.067 109.946 244.747C110.212 244.428 110.516 244.113 110.744 243.79C110.744 243.79 110.79 243.717 110.828 243.721C114.409 239.159 117.179 233.505 119.181 226.725C119.185 226.687 119.193 226.61 119.197 226.572C119.197 226.572 119.197 226.572 119.201 226.534C120.064 223.535 120.862 220.413 121.46 216.999L121.921 210.17L122.387 203.303L122.526 202.004L122.551 200.693L122.69 199.394L122.652 199.39L123.575 185.732L124.762 168.16L124.885 167.014L124.932 165.86L125.1 163.212L125.222 162.066L125.269 160.911L125.281 160.797C125.404 158.569 125.09 156.448 124.573 154.422C123.807 151.48 122.464 148.863 120.479 146.834C118.945 145.279 117.129 144.195 115.222 143.604C114.546 143.416 113.867 143.266 113.179 143.192C112.606 143.131 112.029 143.107 111.448 143.122C91.3591 143.79 70.9484 144.578 50.614 145.374C50.2661 145.375 49.8759 145.411 49.528 145.412C48.9849 145.431 48.4801 145.454 47.937 145.474C47.4322 145.497 46.8891 145.516 46.3843 145.539C41.883 145.713 37.3816 145.888 32.8803 146.062C31.4422 146.14 30.1665 146.506 29.0271 147.041C22.5172 150.091 20.2041 159.774 19.3579 165.867C17.0527 183.048 23.6018 220.731 24.4517 225.421L24.5513 225.934C27.1594 241.98 32.5992 249.634 46.025 256.329L46.0591 256.371ZM34.5961 97.2468C34.3859 97.7652 34.214 98.2878 34.0721 98.8909C34.0721 98.8909 34.0721 98.8909 34.068 98.9291C33.8687 100.067 33.9382 101.582 34.1401 103.304C34.2451 104.126 34.3842 104.991 34.5575 105.899C35.6448 109.454 37.8728 112.823 41.2907 114.465C46.9489 117.197 50.7995 114.441 52.8722 111.687C52.7781 111.484 52.7221 111.285 52.6239 111.12C52.1914 110.107 51.8012 109.061 51.4492 108.018C51.2432 107.417 51.0372 106.815 50.9117 106.183C50.748 105.547 51.7099 105.225 51.9119 105.865C52.3593 107.459 53.0101 108.959 53.6991 110.462C56.6679 116.654 61.5087 121.965 67.0359 125.919C68.0783 126.649 69.1589 127.383 70.2436 128.079C70.7498 128.404 71.2983 128.695 71.8427 129.023C73.8416 130.204 75.9332 131.239 78.0754 132.165C83.3966 134.435 89.0713 135.932 94.7623 136.194C100.11 136.42 105.648 135.584 110.497 133.244C111.107 132.961 111.691 132.56 112.271 132.197C112.682 131.971 113.092 131.744 113.465 131.514C115.001 130.519 116.508 129.444 117.844 128.157C119.476 126.632 122.416 123.353 124.662 120.425C127.281 116.185 128.951 111.418 129.598 106.463C129.779 105.13 129.884 103.789 129.951 102.444C129.98 102.176 130.009 101.909 130.037 101.641C130.066 101.374 130.018 101.098 130.047 100.831C130.058 100.368 130.031 99.9017 130.041 99.4392C125.357 98.4348 120.203 98.5778 116.296 98.9706C115.397 99.0675 114.536 99.1684 113.79 99.2816C112.967 99.3867 112.22 99.4999 111.627 99.6295C111.271 99.7072 110.957 99.7509 110.72 99.8027C110.486 100.898 110.024 101.969 109.284 102.74C107.603 104.724 105.256 105.709 103.018 106.397C102.739 106.483 102.445 106.335 102.359 106.056C102.235 105.772 102.425 105.444 102.666 105.354C104.73 104.493 106.745 103.357 108.041 101.718C109.333 100.118 109.609 97.9061 108.508 96.281C107.449 94.6218 105.313 94.0063 103.816 95.353C103.355 95.69 102.923 96.1075 102.53 96.5291C101.96 97.1635 101.454 97.9208 101.024 98.6862C100.687 99.307 100.388 99.9319 100.166 100.565C100.166 100.565 100.238 100.611 100.234 100.65C100.29 100.849 100.197 100.993 100.138 101.18C100.021 101.554 99.7971 101.839 99.3987 101.951C97.8173 102.284 96.27 102.659 94.7186 103.073C93.1168 103.597 91.5108 104.159 89.9471 104.687C85.6927 106.163 81.5066 107.723 77.3763 109.483C76.4826 109.89 75.5507 110.292 74.6951 110.703L73.3484 111.37C72.7808 111.619 72.1873 111.748 71.5719 111.721C70.9565 111.694 70.3534 111.552 69.805 111.261L68.4651 110.422C67.6014 109.827 66.7801 109.198 66.0474 108.462C62.9939 105.585 61.1288 101.714 60.163 97.7458C59.2012 93.7398 59.0581 89.6669 59.3775 85.605C59.484 84.6117 59.5946 83.5801 59.701 82.5868C59.7229 81.6617 60.3165 80.4502 61.0438 79.7939C61.1284 79.7257 61.1789 79.6151 61.2594 79.5851C62.8067 78.128 64.6146 77.1238 66.4485 76.2384C69.5827 74.7581 72.8628 73.7185 76.1607 72.874C77.5934 72.4866 79.0179 72.1756 80.4806 71.8686C83.215 71.2343 85.9712 70.7568 88.7192 70.3558C90.0167 70.1471 91.2721 69.9725 92.5655 69.802C92.7607 69.7842 92.9012 69.9152 92.9612 70.0762C92.979 70.2714 92.8821 70.4542 92.687 70.4719C91.7414 70.6411 90.834 70.8143 89.8885 70.9835C89.8885 70.9835 89.8885 70.9835 89.8502 70.9794C88.5868 71.2304 87.2892 71.4391 86.0216 71.7283C80.4505 72.8701 74.9654 74.2917 69.7805 76.5182C67.9971 77.2931 66.2396 78.1868 64.6909 79.296C63.0317 80.3547 62.4177 81.7574 62.2007 83.7822C61.6001 87.5821 61.4499 91.5076 62.0842 95.324C62.0842 95.324 62.076 95.4004 62.0719 95.4386C62.668 99.2509 64.1633 102.966 66.6779 105.825C67.2959 106.548 67.9604 107.199 68.7054 107.82C69.1952 108.297 69.7055 108.584 70.2239 108.794C70.4832 108.899 70.7042 109 70.9676 109.067C71.7999 109.234 72.6949 109.175 73.5 108.875L76.2153 107.697C83.4838 104.419 91.1111 101.759 98.924 99.8909C99.0386 99.9032 99.115 99.9114 99.2296 99.9237C99.2337 99.8855 99.2378 99.8473 99.246 99.7709C99.609 98.1868 100.308 96.7159 101.33 95.473C101.731 94.975 102.208 94.4851 102.678 94.0717C103.625 93.1685 105.227 92.6446 106.62 92.9872C106.696 92.9954 106.768 93.0418 106.883 93.054C108.2 93.3884 109.264 94.2753 109.922 95.3505C110.523 96.2265 110.722 97.2526 110.765 98.3005C110.879 98.3128 111.002 98.2486 111.121 98.2227C111.358 98.1709 111.634 98.1231 111.948 98.0795C115.607 97.467 123.123 96.5722 129.93 97.9588C130.006 97.967 130.082 97.9752 130.159 97.9833C130.575 98.0666 130.987 98.188 131.403 98.2713C131.705 98.3423 132.002 98.4514 132.266 98.5183C132.567 98.5893 132.826 98.6943 133.124 98.8035C135.18 99.449 135.884 98.2878 136.156 96.1143C136.876 90.4724 136.692 82.4535 130.527 72.557C130.13 71.9348 129.526 71.4449 128.858 71.1802C128.229 70.9195 127.18 70.6139 125.978 70.2918C125.825 70.2754 125.676 70.2208 125.49 70.1622C125.188 70.0912 125.001 70.0325 124.661 69.9575C124.245 69.8742 123.714 69.7787 123.264 69.6531C123.114 69.2506 122.964 68.8481 122.81 68.4838C122.716 68.2805 122.66 68.0813 122.566 67.878C122.536 67.7975 122.467 67.7129 122.437 67.6324C122.313 67.3485 122.151 67.0606 122.027 66.7768C120.387 62.9686 118.54 59.2927 116.573 55.6428C104.776 65.1211 80.7455 66.8734 61.4158 57.5753C62.4908 61.2457 63.4921 67.7678 59.9388 74.961C54.5201 85.8572 54.3067 99.7459 55.9166 102.392L54.8413 107.377C54.713 107.132 54.5425 106.92 54.376 106.67C53.6161 105.468 52.7756 104.296 51.7742 103.184C50.845 102.118 49.8272 101.159 48.8053 100.238C43.3722 95.4051 36.7807 92.7278 34.5442 97.0093C34.536 97.0857 34.4856 97.1963 34.4392 97.2686L34.5961 97.2468ZM48.2397 48.5504C46.1958 47.7903 43.2514 46.7791 40.1867 51.9379C37.1601 57.1009 37.0795 60.3769 37.0795 60.3769C37.0795 60.3769 39.2997 53.0022 46.4536 50.7934C46.4536 50.7934 43.404 52.2055 42.6493 55.6411C42.6493 55.6411 45.6841 50.4018 51.3342 49.964C51.4871 49.9804 51.6481 49.9204 51.8432 49.9027C51.8432 49.9027 51.5457 49.7935 51.1378 49.6338C50.2837 49.3104 48.8728 48.7728 48.2397 48.5504ZM68.6634 32.4999C63.5699 33.1519 61.328 34.9597 61.328 34.9597C66.9168 34.013 71.9843 36.4883 71.9843 36.4883C62.5192 35.7443 58.0927 40.989 58.0927 40.989C58.0927 40.989 61.5284 39.5797 70.2322 38.7736C78.936 37.9676 87.4611 38.1085 87.4611 38.1085L78.9935 35.2687L94.5031 35.5013C78.5093 29.6909 68.6211 32.534 68.6211 32.534L68.6634 32.4999ZM144.78 110.834C144.825 111.496 144.946 112.166 145.415 112.835C147.802 116.53 151.527 119.634 153.561 119.04C154.837 118.675 155.335 117.994 155.583 117.48C155.001 117.147 154.473 116.665 154.101 116.161C153.47 115.205 153.206 114.056 153.325 112.948C152.782 112.967 152.179 112.825 151.771 112.666C151.104 112.401 150.491 111.987 150.048 111.438C149.43 110.714 149.257 109.807 149.274 108.92C149.299 108.691 149.323 108.462 149.348 108.232C149.272 108.224 149.195 108.216 149.119 108.208C148.928 108.187 148.707 108.086 148.524 107.99C148.196 107.8 147.911 107.576 147.63 107.314C147.456 107.141 147.187 106.764 146.964 106.315C146.88 106.384 146.791 106.49 146.702 106.596C145.836 107.47 144.743 109.014 144.822 110.8L144.78 110.834ZM165.809 91.2936C160.281 85.9093 153.509 91.4049 150.501 94.9469C148.373 97.5011 147.292 100.013 147.007 101.953C146.982 102.182 146.996 102.416 147.048 102.653C147.066 102.848 147.117 103.086 147.135 103.281C147.222 103.908 147.394 104.468 147.604 105.031C147.814 105.595 148.109 106.09 148.484 106.556C148.757 106.894 149.072 107.198 149.396 107.426C149.396 107.426 149.4 107.388 149.404 107.35C149.424 107.159 149.56 106.98 149.618 106.793C150.134 105.225 150.99 103.733 151.943 102.405C153.079 100.826 154.367 99.2642 155.89 98.0362C156.355 97.661 156.977 98.346 156.512 98.7212C155.12 99.8086 154.052 101.124 153.081 102.604C152.2 103.978 151.387 105.437 150.875 106.966C150.527 108.05 150.349 109.345 151.058 110.309C151.395 110.77 151.867 111.053 152.385 111.263C152.717 111.414 153.129 111.536 153.499 111.691C154.077 109.899 155.424 108.149 156.619 106.732C158.034 105.067 159.748 103.86 161.666 102.906C162.115 102.684 162.394 103.332 162.021 103.562C160.4 104.625 159.086 106.069 157.883 107.563C156.857 108.844 155.81 110.316 155.222 111.838C154.801 112.875 154.908 114.045 155.459 115.032C155.587 115.277 155.796 115.493 155.971 115.666C156.495 116.186 157.111 116.561 157.728 116.937C157.753 116.707 157.819 116.444 157.882 116.219C158.528 114.163 160.07 112.396 161.689 110.985C163.343 109.617 165.116 108.222 167.334 108.074C167.724 108.038 167.743 108.581 167.498 108.709C166.63 109.235 165.818 109.959 164.984 110.527C164.07 111.124 163.228 111.768 162.416 112.493C161.178 113.597 159.821 115.074 159.331 116.761C159.155 117.321 159.09 117.933 159.139 118.556C159.24 119.417 159.689 120.277 160.547 120.562C161.401 120.885 162.282 120.593 162.997 120.052C163.666 119.582 164.266 119.029 164.863 118.513C165.636 117.784 166.444 117.098 167.32 116.496C168.069 115.997 168.887 115.582 169.73 115.286C170.573 114.99 171.59 114.519 172.472 114.575C172.931 114.624 173.286 115.281 172.828 115.58C172.287 115.947 171.655 116.072 171.019 116.236C170.422 116.404 169.862 116.575 169.333 116.828C168.159 117.32 167.042 118.012 166.069 118.797C166.069 118.797 165.984 118.865 165.942 118.899C165.473 119.312 164.957 119.798 164.479 120.288C164.459 120.479 164.418 120.861 164.356 121.434C164.279 122.16 164.092 123.183 163.801 124.814C162.13 133.909 154.185 131.241 154.185 131.241C154.185 131.241 154.518 131.741 155.06 132.456C155.231 132.667 155.363 132.875 155.567 133.128C155.334 133.142 155.063 133.152 154.795 133.123C141.211 133.676 124.764 129.208 118.717 130.106C117.775 130.237 117.013 130.503 116.615 130.963C116.577 130.959 116.539 130.955 116.501 130.95C116.332 131.087 116.124 131.219 115.955 131.356C116.096 131.487 116.232 131.656 116.373 131.787C117.212 132.611 118.051 133.435 118.852 134.255C120.1 135.587 121.268 136.949 122.47 138.353C122.572 138.48 122.522 138.59 122.433 138.697C122.302 138.837 122.099 138.931 121.962 138.762C120.923 137.646 119.841 136.564 118.717 135.516C117.984 134.781 117.167 134.113 116.392 133.412C116.038 133.104 115.689 132.757 115.336 132.449C115.195 132.318 115.054 132.187 114.91 132.094C114.618 132.294 114.36 132.537 114.072 132.7C113.7 132.93 113.293 133.118 112.92 133.349C111.803 134.041 110.651 134.69 109.474 135.221C109.148 135.379 108.792 135.457 108.47 135.577C98.2934 139.664 86.8812 137.977 77.0247 133.675C74.7379 132.657 72.5016 131.529 70.4004 130.221C70.4004 130.221 70.324 130.213 70.3281 130.175C70.3281 130.175 70.3281 130.175 70.2899 130.171C70.2899 130.171 64.5128 132.875 58.4381 137.634C56.3695 139.267 54.3146 141.133 52.392 143.207C73.0402 142.368 93.6037 141.596 113.773 140.898C117.693 140.739 121.501 142.345 124.581 145.342C125.07 145.819 125.48 146.327 125.927 146.838L128.091 150.084C128.352 150.538 128.574 150.986 128.792 151.474C129.075 152.083 129.319 152.689 129.563 153.295C130.253 155.147 130.732 157.169 131.012 159.247C131.051 159.599 131.087 159.989 131.126 160.341C131.166 160.693 131.202 161.083 131.241 161.435C131.274 162.212 131.306 162.988 131.301 163.76C131.301 163.76 131.297 163.799 131.293 163.837L131.178 164.907L131.132 166.061L129.799 184.621L128.946 196.548L128.897 197.006L128.865 197.66L128.845 197.851L128.74 199.192L127.895 211.042L127.145 221.28C126.863 222.834 126.53 224.498 126.12 226.155C126.12 226.155 126.12 226.155 126.116 226.193L126.108 226.269C126.1 226.346 126.088 226.46 126.079 226.537C128.533 226.723 133.872 227.024 140.538 227.198C141.349 227.207 142.198 227.221 143.046 227.235C143.123 227.243 143.161 227.247 143.237 227.255C143.619 227.296 144.01 227.261 144.396 227.263C144.778 227.304 145.168 227.269 145.516 227.268C150.417 227.329 155.759 227.245 160.964 226.991C161.354 226.956 161.741 226.959 162.169 226.927C162.517 226.926 162.831 226.882 163.183 226.843C163.157 226.724 163.089 226.639 163.063 226.521C162.973 226.279 162.883 226.038 162.797 225.758C162.325 224.393 161.887 223.071 161.411 221.745C161.316 221.542 161.383 221.278 161.591 221.146C161.84 220.98 162.142 221.051 162.312 221.262C164.557 224.478 166.014 228.189 167.123 231.902C168.27 235.619 169.138 239.422 169.929 243.216C170.232 244.717 170.493 246.252 170.757 247.749C171.804 253.851 172.494 260.03 172.989 266.228C172.981 266.304 172.972 266.381 172.964 266.457C172.907 266.992 172.45 267.291 171.941 267.352C171.864 267.344 171.818 267.416 171.742 267.408C170.328 267.256 168.864 267.215 167.669 267.551C167.19 267.693 166.787 267.843 166.411 268.112C165.2 268.948 165.072 270.866 165.453 272.724L165.444 272.8C165.526 273.118 165.608 273.436 165.69 273.754C165.768 274.11 165.884 274.47 165.957 274.864C166.121 275.5 166.319 276.178 166.521 276.818C166.637 277.178 166.719 277.496 166.835 277.857C166.951 278.217 167.032 278.535 167.148 278.895C167.792 280.819 168.475 282.747 169.123 284.633C170.517 288.569 172.026 292.518 173.581 296.394C174.382 298.296 175.14 300.232 176.385 301.602C177.613 303.125 178.753 302.938 179.715 301.534C182.673 292.693 184.584 283.507 186.004 274.231C186.061 273.696 186.199 273.131 186.256 272.596C186.301 272.176 186.346 271.756 186.391 271.335C186.437 270.915 186.482 270.495 186.527 270.075C186.58 269.578 186.629 269.119 186.72 268.627C186.765 268.207 186.815 267.748 186.898 267.332C186.943 266.912 186.988 266.492 187.029 266.11C187.135 265.116 187.314 264.169 187.421 263.176C189.012 250.131 190.035 236.986 190.675 223.8L191.057 214.103L191.074 213.95C191.06 212.634 191.157 211.37 191.093 210.165C191.088 209.855 191.082 209.545 191.034 209.27C191.034 209.27 191.039 209.232 191.043 209.193C190.925 208.485 190.728 207.807 190.445 207.197C190.133 206.507 189.74 205.846 189.262 205.254C188.943 204.988 188.585 204.718 188.266 204.452C183.911 200.739 178.366 197.671 172.72 195.907C164.194 193.254 155.078 192.857 146.168 194.143C142.165 194.719 138.247 195.574 134.446 196.79L134.37 196.781L134.366 196.82C133.887 196.962 133.41 196.717 133.146 196.302C133.15 196.264 133.073 196.256 133.043 196.176C133.043 196.176 132.971 196.129 132.975 196.091C132.889 195.811 132.918 195.544 133.057 195.327C133.162 195.068 133.382 194.821 133.7 194.739C134.78 194.391 135.891 194.124 136.968 193.814C139.358 193.143 141.809 192.632 144.251 192.199C144.408 192.177 144.565 192.155 144.722 192.133C144.73 192.057 144.658 192.01 144.662 191.972C144.479 189.711 144.483 187.509 144.033 185.22C143.621 182.934 143.095 180.636 142.526 178.373C141.314 173.451 139.789 168.573 137.942 163.815C137.942 163.815 137.946 163.777 137.95 163.739C137.924 163.62 137.856 163.536 137.83 163.417C137.736 163.214 137.646 162.972 137.552 162.769C137.431 162.447 137.277 162.082 137.119 161.756C137.119 161.756 137.119 161.756 137.123 161.718C136.879 161.112 136.597 160.502 136.352 159.897C136.228 159.613 136.108 159.291 135.984 159.007C135.988 158.969 135.954 158.926 135.92 158.884C135.762 158.558 135.646 158.198 135.487 157.872C135.273 157.346 135.055 156.859 134.802 156.33C134.742 156.169 134.64 156.042 134.58 155.881C133.827 154.254 133.032 152.662 132.198 151.066C131.907 150.532 131.621 149.96 131.33 149.427C130.36 147.661 129.348 145.93 128.331 144.237C128.229 144.11 128.169 143.949 128.067 143.822C126.687 141.548 125.223 139.343 123.709 137.249C123.436 136.911 123.91 136.459 124.182 136.797C129.265 143.1 133.534 149.779 137.051 157.344C137.047 157.382 137.077 157.462 137.111 157.505C137.269 157.831 137.385 158.191 137.544 158.517C137.672 158.763 137.758 159.042 137.886 159.288C137.886 159.288 137.878 159.364 137.916 159.369C137.912 159.407 137.98 159.491 137.976 159.53C137.976 159.53 137.972 159.568 137.968 159.606C137.968 159.606 138.044 159.614 138.082 159.618C138.082 159.618 138.121 159.622 138.159 159.626C138.235 159.635 138.354 159.609 138.434 159.579C139.499 159.384 140.843 159.103 142.267 158.792C142.7 158.722 143.098 158.61 143.535 158.502C143.971 158.395 144.404 158.325 144.841 158.217C146.303 157.91 147.651 157.591 148.639 157.388C162.966 153.513 171.725 149.313 176.952 145.97C178.933 145.873 180.955 145.394 183.039 144.342C183.737 141.79 186.142 137.024 186.378 130.132C186.677 120.851 182.947 107.699 165.659 90.891L165.809 91.2936Z" fill="#221E1F"/>
</svg>
