<svg width="195" height="195" viewBox="0 0 195 195" fill="none" xmlns="http://www.w3.org/2000/svg">
<circle cx="97.5" cy="97.5" r="97.5" fill="#B2E9FF"/>
<path d="M82.0495 113.959L70.2471 84.1387H61.213L49.337 113.959L37.4609 84.1387H23.3999L44.1646 136.571H53.1987L65.6575 105.338L78.1887 136.571H87.2227L107.914 84.1387H93.9257L82.0495 113.959Z" fill="white"/>
<path fill-rule="evenodd" clip-rule="evenodd" d="M142.53 81.3952C136.483 81.3952 131.018 83.1618 126.356 86.2003V58.5H113.46V109.59C113.46 125.136 126.501 137.644 142.457 137.644C158.413 137.644 171.6 125.207 171.6 109.449C171.6 93.6913 158.704 81.3952 142.53 81.3952ZM126.355 109.519C126.355 118.352 133.713 125.136 142.456 125.136C151.345 125.136 158.703 118.07 158.703 109.519C158.703 100.969 151.781 93.9734 142.529 93.9734C133.277 93.9734 126.355 100.687 126.355 109.519Z" fill="white"/>
</svg>
