<svg width="167" height="171" viewBox="0 0 167 171" fill="none" xmlns="http://www.w3.org/2000/svg">
<path d="M19.9538 55.0842C13.8478 54.0537 7.37095 52.2045 2.42544 46.999C-0.141219 44.2975 -0.695001 40.5847 0.879666 37.9507C2.45915 35.3118 6.30191 33.9201 9.76907 34.6858C12.6969 35.331 15.042 36.9587 17.0501 39.0823C20.4306 42.6554 22.5301 46.9219 23.4836 51.7326C24.0037 54.3619 23.3632 55.0649 19.9538 55.0794V55.0842Z" fill="#020203"/>
<path d="M111.145 14.5194C111.612 9.35236 112.796 4.68615 117.019 1.40198C118.469 0.275154 120.058 -0.601265 121.864 0.520744C123.756 1.69572 123.771 3.62192 123.265 5.46144C121.994 10.0891 119.446 13.9126 115.541 16.7441C114.525 17.4809 113.336 18.5114 112.059 17.871C110.673 17.1775 111.366 15.5692 111.145 14.5194Z" fill="#020203"/>
<path d="M37.7278 19.614C37.7663 23.6975 35.4693 25.2192 31.824 23.4326C28.9587 22.0265 26.7581 19.9847 26.4788 16.5706C26.1802 12.9734 28.9973 10.8546 32.4259 12.0151C35.4693 13.0456 37.6989 16.2383 37.7278 19.614Z" fill="#020203"/>
<path d="M10.7804 91.9864C10.7467 94.5434 7.94892 96.9849 5.17519 96.8789C2.79634 96.7874 0.971268 94.8805 0.976084 92.4824C0.985715 89.6605 3.01304 87.7391 5.9216 87.7921C8.88794 87.8499 10.8141 89.5112 10.7852 91.9816L10.7804 91.9864Z" fill="#020203"/>
<path d="M161.438 97.0568C158.51 97.0713 156.526 95.3907 156.555 92.9251C156.584 90.4596 158.712 88.7453 161.741 88.7549C164.823 88.7597 167.029 90.4837 167 92.8625C166.971 95.1836 164.501 97.0472 161.438 97.0616V97.0568Z" fill="#020203"/>
<path d="M51.0667 165.095C51.1004 167.83 49.126 170.021 46.5883 170.074C44.0409 170.122 41.975 168.143 41.9076 165.591C41.8402 162.971 44.3153 160.549 47.012 160.592C49.2801 160.626 51.033 162.581 51.0619 165.095H51.0667Z" fill="#020203"/>
<path d="M152.226 46.1087C151.687 42.6463 149.539 40.3493 146.308 39.1214C142.142 37.5371 137.919 39.1214 135.054 43.2483C132.256 47.274 129.097 47.8085 125.64 44.4907C116.51 35.7168 105.487 31.0506 93.1688 29.0329C88.3052 28.2336 87.1591 26.9189 87.265 22.0457C87.3758 17.1435 85.3677 13.4837 80.9567 11.336C77.0803 9.44832 73.2375 9.77577 69.91 12.5447C66.125 15.6892 64.7959 19.792 66.0383 24.6316C67.1748 29.0618 66.5969 30.2175 62.3352 31.6381C48.7555 36.1647 37.9736 44.4281 30.0473 56.2645C23.7535 65.6596 19.7952 75.9888 18.9669 87.3823C18.3842 91.7018 18.4131 96.0213 18.9621 100.341C19.0102 101.135 19.0199 101.939 19.1162 102.729C19.6507 106.967 20.9605 111.002 22.2751 115.042C23.6138 119.16 22.2944 122.266 18.5335 124.36C17.2767 125.059 15.9428 125.67 14.7967 126.527C9.82227 130.25 9.2396 137.536 13.482 142.038C17.3826 146.175 23.5898 146.377 27.813 142C31.2464 138.441 35.3974 138.316 39.1245 142.067C40.1984 143.146 41.3204 144.191 42.5147 145.13C61.0302 159.697 81.6887 162.201 103.864 155.931C109.855 154.236 115.243 151.231 120.492 147.942C124.282 145.568 127.19 146.141 129.911 149.656C130.306 150.162 130.657 150.706 131.081 151.183C133.744 154.154 138.227 155.064 141.873 153.398C145.465 151.756 147.526 147.985 146.982 143.926C146.544 140.613 144.415 138.566 141.738 136.847C137.678 134.242 136.763 130.876 138.762 126.508C139.296 125.343 139.86 124.192 140.404 123.031C146.481 110.102 148.403 96.5991 146.11 82.4801C145.205 76.9037 143.467 71.6019 141.396 66.3771C139.759 62.2406 141.174 58.9516 145.186 57.088C146.202 56.6161 147.247 56.1586 148.152 55.5133C151.379 53.2163 152.828 50.0333 152.212 46.1135L152.226 46.1087Z" fill="#020203"/>
<path d="M48.5288 82.5472C48.7022 75.2229 51.1629 69.1698 57.4375 65.2452C68.4505 58.3542 82.4732 65.9964 83.3737 79.2872C83.6771 83.7945 82.9066 88.0658 80.677 92.0386C76.8343 98.8959 69.664 102.503 62.5804 101.125C55.1116 99.6711 49.7471 93.7048 48.784 85.7592C48.6492 84.6468 48.6059 83.52 48.5288 82.5472Z" fill="white"/>
<path d="M127.229 81.3966C127.325 83.761 126.824 86.0291 126.063 88.2298C123.583 95.429 117.732 99.5799 110.447 99.3729C102.91 99.1562 96.1012 93.8351 94.1268 86.3759C92.6533 80.8236 93.2937 75.4736 96.0819 70.3547C101.422 60.5552 115.662 60.0736 122.297 67.9614C125.582 71.8668 127.19 76.3355 127.229 81.3966Z" fill="white"/>
<path d="M98.3306 116.882C98.1813 121.139 97.17 125.141 94.5023 128.545C90.4765 133.688 83.677 132.956 80.7492 127.125C77.8358 121.317 79.3864 112.428 84.1008 107.935C88.7911 103.466 94.8249 104.752 97.2567 110.762C98.0465 112.712 98.3739 114.768 98.3306 116.882Z" fill="white"/>
<path d="M12.3499 46.778C12.1717 46.9802 11.825 46.9321 11.695 46.9272C10.3178 46.8743 5.23742 42.5451 5.11222 41.2787C5.09296 41.1005 5.11222 40.5997 5.41559 40.3974C5.67563 40.2241 6.04642 40.3493 6.27275 40.436C8.07375 41.139 11.6709 43.9513 12.3403 45.8727C12.4077 46.0701 12.5618 46.5276 12.3499 46.7731V46.778Z" fill="white"/>
<path d="M79.4683 86.5738C79.4394 90.0506 76.6657 92.8436 73.2226 92.8676C69.7554 92.8917 66.9962 90.1132 67.001 86.6123C67.001 83.097 69.7073 80.3377 73.1937 80.2848C76.5308 80.2366 79.4972 83.2078 79.4635 86.569L79.4683 86.5738Z" fill="#020203"/>
<path d="M109.608 85.2494C109.604 88.341 106.854 91.1388 103.835 91.1388C100.517 91.1388 97.772 88.3073 97.825 84.9364C97.8731 81.7823 100.57 79.1627 103.719 79.2156C106.984 79.2734 109.613 81.9653 109.608 85.2494Z" fill="#020203"/>
</svg>
