<svg width="154" height="152" viewBox="0 0 154 152" fill="none" xmlns="http://www.w3.org/2000/svg">
<g clip-path="url(#clip0_2173_2564)">
<path d="M23.4823 30.9449C25.9334 30.8212 27.8987 31.9076 29.7271 33.3518C33.534 36.3594 36.2545 36.1916 39.8804 32.9941C49.1946 24.7752 59.8867 19.7272 72.447 19.0559C75.799 18.8748 77.6981 17.2319 78.44 13.9594C79.3719 9.85213 82.5517 7.4231 86.5397 7.78083C90.753 8.15623 93.9769 11.2521 93.9019 15.4035C93.84 18.8704 95.3769 20.7341 98.5038 21.6925C109.024 24.9076 117.406 31.2628 124.614 39.3934C127.493 42.6395 129.622 42.7278 134.162 40.1133C137.942 37.936 142.659 38.6559 145.402 41.8313C148.188 45.0597 148.246 50.1606 145.53 53.4155C144.567 54.5726 143.321 55.3013 141.966 55.9285C137.894 57.8143 136.635 60.4685 137.474 64.8231C140.27 79.3398 138.428 93.1808 131.318 106.236C128.875 110.718 129.542 113.381 133.773 116.261C136.463 118.089 137.713 120.633 137.196 123.835C136.701 126.896 134.926 129.055 131.909 130.022C128.721 131.047 125.978 130.177 123.624 127.911C123.205 127.51 122.878 127.006 122.507 126.547C119.932 123.371 117.097 122.837 113.599 124.997C106.648 129.285 99.1795 132.226 91.1328 133.644C85.3208 134.669 79.4911 135.216 73.582 134.43C68.8564 133.799 66.3568 135.684 65.2438 140.463C64.1618 145.096 60.7214 147.675 56.3404 147.145C52.3612 146.663 49.3933 143.311 49.3978 139.31C49.3978 137.632 50.0381 136.183 50.9038 134.783C52.9927 131.396 52.3833 128.622 48.9252 126.613C44.8268 124.237 41.1303 121.38 37.6545 118.178C34.2318 115.02 29.6874 115.32 26.5164 118.778C25.4741 119.913 24.4937 121.132 23.3277 122.126C18.7656 126.017 12.799 125.394 9.1555 120.713C5.62679 116.186 6.50124 109.901 11.1075 106.457C12.7902 105.198 14.7246 104.54 16.6855 103.917C22.7183 102 23.8842 99.5449 22.1441 93.49C18.6375 81.2742 18.9069 69.0982 23.0583 57.0679C24.7101 52.2938 23.9505 49.931 19.5385 47.4269C13.4438 43.9644 13.1877 35.4982 19.0703 32.0357C20.4394 31.2275 21.9189 30.8786 23.4823 30.9537V30.9449Z" fill="#020203"/>
<path d="M46.2753 16.0632C46.2886 19.031 45.3347 19.9629 42.5391 19.6979C37.5529 19.2254 30.5264 13.1396 29.3826 8.29918C28.7069 5.44176 29.6299 2.65059 31.9044 1.10485C34.3025 -0.524799 36.8022 -0.237733 39.1473 1.18435C42.2432 3.07015 43.8949 6.09097 45.0564 9.39444C45.8116 11.5408 46.2974 13.7578 46.2709 16.0544L46.2753 16.0632Z" fill="#020203"/>
<path d="M117.424 15.975C117.724 13.0999 118.113 9.88916 119.663 6.96991C121.023 4.41282 122.94 2.47402 125.837 1.6879C129.039 0.817864 131.804 2.81849 131.936 6.13963C132.016 8.04752 131.402 9.74783 130.32 11.298C127.829 14.8753 124.353 17.1276 120.325 18.5586C118.099 19.3491 117.38 18.722 117.424 15.975Z" fill="#020203"/>
<path d="M4.88927 78.8545C2.1776 78.8412 -0.083602 76.8583 0.000309711 74.5617C0.079805 72.4286 2.44258 70.4766 4.95551 70.4766C7.52586 70.4766 9.8798 72.2608 9.90189 74.2261C9.9328 76.9863 7.89242 78.8677 4.88927 78.8545Z" fill="#020203"/>
<path d="M89.5383 147.08C89.5162 144.678 91.2033 142.708 93.2613 142.735C95.5004 142.761 97.872 145.265 97.8411 147.566C97.8102 149.655 96.0172 151.4 93.8222 151.461C91.4992 151.532 89.5648 149.554 89.5427 147.08H89.5383Z" fill="#020203"/>
<path d="M154 80.561C153.992 82.6985 152.238 84.4871 150.14 84.5004C148.056 84.5136 146.161 82.8442 146.121 80.9629C146.086 79.1345 148.52 76.9793 150.639 76.9572C152.477 76.9395 154.005 78.578 154 80.561Z" fill="#020203"/>
<path d="M81.6151 61.5215C81.3545 67.9517 78.9387 73.353 73.6567 77.2129C68.7854 80.7726 63.446 81.5984 57.8637 79.0722C51.6321 76.2502 48.4832 71.0962 48.2006 64.4584C47.9047 57.4407 50.6119 51.5404 56.4018 47.3227C67.3898 39.3202 78.9432 47.1681 81.1028 56.924C81.434 58.4256 81.805 59.9404 81.6151 61.5215Z" fill="white"/>
<path d="M87.3432 95.9773C86.9413 99.4044 86.6542 102.867 85.2057 106.056C82.94 111.042 79.6587 114.844 73.8202 115.648C67.5268 116.514 60.646 111.903 59.3785 105.994C59.0341 104.382 59.3962 102.933 59.9129 101.48C61.2069 97.8145 63.4107 94.7275 66.012 91.8833C66.7318 91.0972 67.3811 91.1016 68.3394 91.4019C70.6492 92.1218 72.9899 92.7533 75.3527 93.2568C76.5628 93.5129 76.7262 93.7514 76.13 94.9085C74.3987 98.2782 72.7205 101.688 71.8107 105.437C73.5684 102.125 75.3836 98.8391 77.053 95.4827C77.6271 94.33 78.2012 93.8663 79.5527 94.1003C81.9994 94.5287 84.4814 94.7363 86.9501 95.0366C87.1886 95.306 87.4094 95.5842 87.3432 95.9773Z" fill="#F7A4BC"/>
<path d="M102.672 66.82C107.309 66.873 111.514 67.3323 115.506 68.9841C117.357 69.7481 119.07 70.7241 120.342 72.3185C121.137 73.3166 121.186 74.3544 120.254 75.2863C119.424 76.1122 118.399 76.2932 117.472 75.5248C112.265 71.2144 106.174 71.1393 99.9296 71.8327C98.6223 71.9784 97.2311 72.5349 96.2993 71.1702C95.4116 69.8674 96.1182 68.5734 96.7939 67.4648C100.579 61.2465 105.401 56.4901 113.254 56.1898C114 56.1633 114.725 56.203 115.347 56.6976C116.085 57.285 116.571 58.0005 116.314 58.9765C116.014 60.1248 115.153 60.668 114.027 60.6812C109.314 60.7342 105.923 63.2163 102.677 66.8245L102.672 66.82Z" fill="white"/>
<path d="M87.3428 95.9775C86.9851 95.7567 86.9232 95.4166 86.9497 95.0368C92.1125 94.4627 97.0942 93.204 101.877 91.1548C102.849 90.7396 103.953 90.033 104.664 91.5611C105.388 93.1157 104.28 93.6103 103.176 94.1579C98.11 96.662 92.7971 96.9093 87.3428 95.9775Z" fill="white"/>
<path d="M13.6862 110.371C13.5934 112.619 12.2155 114.461 10.8111 114.288C9.63634 114.147 9.55243 113.277 9.59659 112.336C9.68492 110.411 11.1423 108.379 12.4673 108.415C13.9468 108.454 13.642 109.594 13.6906 110.371H13.6862Z" fill="white"/>
<path d="M35.0752 2.54853C38.0695 2.31446 42.6405 6.4703 42.6979 9.4337C42.7023 9.69427 42.614 10.1182 42.455 10.1889C41.7749 10.4716 41.1654 10.1889 40.6619 9.72077C38.4052 7.64948 36.3648 5.41036 35.0796 2.54853H35.0752Z" fill="#020203"/>
<path d="M126.322 7.14614C126.004 5.62689 126.335 4.48304 127.514 3.72342C127.934 3.45402 128.455 3.73667 128.544 4.22689C128.853 5.96254 127.408 6.33352 126.322 7.14614Z" fill="white"/>
<path d="M70.6621 64.3259C70.6621 68.8616 67.2571 72.2976 62.7656 72.2887C58.3845 72.2799 54.9265 68.7335 54.9044 64.22C54.8823 59.989 58.4773 56.3543 62.7391 56.3013C67.0363 56.2484 70.6621 59.9184 70.6621 64.3304V64.3259Z" fill="#020203"/>
</g>
<defs>
<clipPath id="clip0_2173_2564">
<rect width="154" height="151.461" fill="white"/>
</clipPath>
</defs>
</svg>
