<svg width="182" height="183" viewBox="0 0 182 183" fill="none" xmlns="http://www.w3.org/2000/svg">
<path d="M170.823 24.3098C163.59 14.9162 152.169 8.16632 136.857 4.2005C133.497 3.33784 130.03 2.89142 126.572 2.82883C123.557 2.75533 120.52 2.9778 117.549 3.52358C126.521 9.15209 140.277 18.3261 111.981 19.7315C109.886 19.8422 107.554 19.8996 105.539 19.6538C98.7962 19.3766 94.2117 17.9532 90.2592 15.8053L90.2002 15.8068L89.7508 15.552C89.4505 15.3525 88.6712 14.8991 88.6712 14.8991C88.5214 14.8141 88.3716 14.7292 88.2218 14.6442C85.1955 12.9167 80.5035 10.7279 74.1754 8.07711C68.7726 5.81718 63.0425 4.65836 57.3082 4.53362C52.4907 4.4454 47.6611 5.06649 43.029 6.5099C30.0413 10.5519 20.0267 16.5591 13.1586 24.3795C10.396 29.7651 6.14069 41.7162 11.8329 56.938C12.0549 57.5529 12.2768 58.1679 12.5282 58.782C13.2185 60.4194 13.998 62.0841 14.9259 63.7747C28.38 88.2885 45.7711 99.9136 66.0228 100.538C66.0228 100.538 54.0745 106.002 42.1193 102.78C30.1936 99.5585 33.3954 103.616 37.515 112.554C41.6345 121.493 44.6151 147.771 47.9928 158.973C49.5047 163.987 50.7954 168.416 52.5754 171.12C54.1743 172.469 55.8192 173.285 57.4762 173.392C60.9371 173.573 64.4066 170.504 67.8271 164.245C67.8264 164.216 67.8552 164.185 67.8833 164.126C72.4059 155.831 74.7637 147.206 76.8518 139.621C78.2606 134.446 79.563 129.747 81.3285 125.863C83.6828 120.694 86.8426 117.042 92.2769 115.785C87.6028 113.123 81.4518 110.468 75.0204 109.622L75.2188 108.081C85.5915 109.421 94.2347 114.91 97.9035 117.537C103.842 121.173 106.491 129.172 109.623 138.785C112.083 146.317 114.892 154.815 119.848 162.935C123.572 168.988 127.159 171.913 130.636 171.562C134.497 171.171 138.053 166.83 141.189 160.992C143.901 155.962 146.32 149.817 148.394 144.064C153.013 131.277 156.682 112.309 159.384 98.4762C161.061 89.7791 162.399 82.9219 163.451 80.06C163.922 78.8076 164.794 77.0136 165.948 74.7105C171.492 63.4957 183.059 40.1387 170.853 24.3091L170.823 24.3098ZM61.0587 63.2892C53.2348 63.4818 46.7352 57.4674 46.5492 49.9092C46.3631 42.351 52.559 36.0242 60.3829 35.8317C68.2068 35.6391 74.7064 41.6534 74.8924 49.2116C75.0784 56.7698 68.8826 63.0966 61.0587 63.2892ZM118.956 61.8642C111.161 62.056 104.632 56.0424 104.446 48.4842C104.26 40.926 110.456 34.5992 118.28 34.4066C126.104 34.2141 132.603 40.2284 132.789 47.7866C132.975 55.3448 126.78 61.6716 118.956 61.8642Z" fill="white"/>
<path d="M25.2267 101.806C28.6063 115.489 33.2041 134.253 38.4464 146.798C38.7598 147.529 39.0732 148.26 39.3873 149.02C32.8137 130.393 27.88 109.983 23.8486 96.2266C24.276 97.9886 24.7352 99.8384 25.2274 101.835L25.2267 101.806Z" fill="white"/>
<path d="M51.6612 47.595C51.5979 45.0264 52.4263 42.6721 53.825 40.6879C53.8286 40.8356 53.743 40.9558 53.7459 41.0739C53.7858 42.6978 55.1759 43.9634 56.8293 43.9227C58.4826 43.882 59.8088 42.5495 59.7688 40.9257C59.7288 39.3019 58.3387 38.0362 56.6854 38.0769C56.5082 38.0813 56.3621 38.144 56.2152 38.1771C55.5981 38.3105 55.0134 38.5612 54.5807 38.9854C50.6451 41.1207 47.9982 45.2036 48.113 49.8684C48.2787 56.5999 54.0818 61.9224 61.0495 61.7509C64.9467 61.655 68.3286 59.8288 70.5949 57.0846C68.7632 58.2819 66.5656 59.0154 64.2037 59.0736C57.4721 59.2392 51.8801 54.0888 51.7195 47.564L51.6612 47.595Z" fill="white"/>
<path d="M109.561 46.1704C109.498 43.6018 110.326 41.2476 111.725 39.2634C111.728 39.411 111.643 39.5313 111.646 39.6494C111.685 41.2732 113.076 42.5389 114.729 42.4982C115.26 42.4851 115.728 42.2963 116.165 42.0492C117.068 41.5248 117.695 40.5935 117.668 39.5011C117.632 38.0249 116.452 36.8723 114.971 36.7315C114.823 36.7351 114.703 36.6495 114.556 36.6531C114.378 36.6574 114.232 36.7201 114.085 36.7533C113.468 36.8866 112.884 37.1374 112.451 37.5616C108.515 39.6969 105.868 43.7798 105.983 48.4446C106.149 55.1761 111.952 60.4986 118.92 60.3271C122.817 60.2312 126.199 58.4049 128.465 55.6608C126.633 56.858 124.436 57.5916 122.074 57.6497C115.342 57.8154 109.75 52.665 109.59 46.1402L109.561 46.1704Z" fill="white"/>
<path d="M66.7913 53.7523C67.6475 53.7312 68.3393 53.0347 68.319 52.208C68.2986 51.3813 67.5733 50.7197 66.7171 50.7408C65.8609 50.7619 65.1691 51.4584 65.1894 52.285C65.2098 53.1117 65.935 53.7733 66.7913 53.7523Z" fill="white"/>
<path d="M100.357 63.5926C93.0636 62.5313 86.8543 63.5114 84.1217 64.1104C83.3577 64.2769 82.9661 65.1728 83.3962 65.8417C91.4636 79.1438 98.8137 69.3027 101.198 65.3444C101.624 64.6545 101.159 63.7501 100.358 63.6221L100.357 63.5926Z" fill="#F0679B"/>
<path d="M88.6689 14.8984C88.6689 14.8984 88.7593 14.9555 88.789 14.9548C88.7593 14.9555 88.7282 14.897 88.6689 14.8984Z" fill="#9F60A7"/>
<path d="M117.55 3.52413C113.521 4.24369 109.593 5.49251 105.826 7.29866C99.3149 10.4131 94.5613 12.923 91.6539 14.8262C97.0107 17.619 104.828 19.5537 122.637 16.9588L122.852 18.4897C117.73 19.2361 113.396 19.6086 109.647 19.7009C108.171 19.7373 106.811 19.7116 105.51 19.655C107.525 19.9009 109.558 19.7031 111.654 19.622C140.64 18.6427 126.462 9.12458 117.521 3.52485L117.55 3.52413Z" fill="#CDEDEF"/>
<path d="M42.149 102.751C54.0747 105.973 66.0524 100.509 66.0524 100.509C45.8007 99.8845 28.3802 88.2601 14.9555 63.7456C14.0277 62.055 13.2481 60.3903 12.5579 58.7529C12.3065 58.1387 12.0845 57.5238 11.8626 56.9089C6.20061 41.7159 10.4264 29.7655 13.1883 24.3504C12.0969 25.618 11.0645 26.8842 10.1229 28.2368C-1.29001 44.6477 11.412 67.4074 17.5008 78.3359C18.7377 80.5802 19.7261 82.3284 20.2585 83.556C21.1685 85.7197 22.3735 90.2691 23.8482 96.1708C27.85 109.928 32.7836 130.338 39.3869 148.964C43.1478 157.734 47.6872 166.928 52.6345 171.09C50.8243 168.358 49.5639 163.957 48.052 158.943C44.6743 147.741 41.6937 121.463 37.5741 112.524C33.4546 103.586 30.2528 99.5286 42.1785 102.751L42.149 102.751Z" fill="#CDEDEF"/>
<path d="M60.3826 35.8602C52.5586 36.0527 46.3628 42.3795 46.5488 49.9377C46.7349 57.4959 53.2345 63.5103 61.0584 63.3177C68.8823 63.1251 75.0781 56.7983 74.8921 49.2401C74.7061 41.6819 68.2065 35.6676 60.3826 35.8602ZM61.0199 61.7529C54.0521 61.9244 48.2491 56.602 48.0834 49.8704C47.9686 45.2056 50.6155 41.1227 54.5511 38.9875C54.9838 38.5632 55.539 38.3132 56.1856 38.1791C56.3332 38.1755 56.4786 38.0833 56.6558 38.0789C58.3387 38.0375 59.6992 39.3039 59.7392 40.9277C59.7792 42.5515 58.453 43.884 56.7997 43.9247C55.1463 43.9654 53.7562 42.6998 53.7163 41.076C53.7126 40.9283 53.7688 40.8088 53.7954 40.69C52.3959 42.6446 51.5683 45.0284 51.6316 47.597C51.7922 54.1218 57.3842 59.2722 64.1157 59.1066C66.4777 59.0484 68.6753 58.3149 70.507 57.1176C68.2702 59.861 64.8587 61.688 60.9615 61.7839L61.0199 61.7529ZM68.3182 52.2084C68.3385 53.0351 67.6467 53.7316 66.7905 53.7527C65.9343 53.7738 65.209 53.1121 65.1886 52.2855C65.1683 51.4588 65.8601 50.7623 66.7163 50.7412C67.5725 50.7201 68.2978 51.3818 68.3182 52.2084Z" fill="#221E1F"/>
<path d="M118.281 34.4344C110.487 34.6262 104.261 40.9538 104.447 48.512C104.633 56.0702 111.133 62.0845 118.957 61.8919C126.781 61.6993 132.977 55.3725 132.791 47.8143C132.605 40.2561 126.105 34.2418 118.281 34.4344ZM118.918 60.3271C111.951 60.4986 106.147 55.1762 105.982 48.4447C105.867 43.7798 108.514 39.6969 112.45 37.5617C112.882 37.1374 113.437 36.8874 114.084 36.7534C114.232 36.7497 114.377 36.6575 114.554 36.6532C114.702 36.6495 114.821 36.7057 114.97 36.7316C116.451 36.9019 117.631 38.025 117.667 39.5012C117.694 40.5936 117.067 41.5248 116.164 42.0493C115.727 42.2964 115.259 42.4851 114.728 42.4982C113.045 42.5396 111.684 41.2733 111.644 39.6494C111.641 39.5018 111.697 39.3823 111.723 39.2635C110.324 41.2181 109.496 43.6019 109.56 46.1705C109.72 52.6953 115.312 57.8457 122.044 57.68C124.435 57.6212 126.603 56.8883 128.435 55.6911C126.169 58.4352 122.787 60.2615 118.889 60.3574L118.918 60.3271Z" fill="#221E1F"/>
<path d="M172.04 23.364C164.594 13.7098 152.872 6.76046 137.233 2.71406C127.244 0.153428 116.631 1.03504 107.041 5.11154C105.255 5.74635 103.499 6.43949 101.777 7.27952C97.8076 9.23837 90.6493 13.6686 90.1554 14.0057C90.0653 13.9489 89.9753 13.892 89.8853 13.8351C89.8853 13.8351 89.8853 13.8351 89.8558 13.8359C89.8558 13.8359 89.8262 13.8366 89.796 13.8078C89.7665 13.8085 89.7362 13.7797 89.706 13.7509C89.5562 13.666 89.3761 13.5522 89.2263 13.4673C89.1665 13.4392 89.1363 13.4104 89.0765 13.3824C85.9905 11.6267 81.1789 9.38178 74.7615 6.70369C64.4932 2.40694 53.0463 1.83196 42.5802 5.10286C40.0003 5.90491 37.6004 6.8207 35.2602 7.76456C24.8087 11.6259 13.2683 18.0547 5.77303 29.1994C-8.1917 49.9567 12.806 79.691 15.8854 87.1779C18.9648 94.6649 25.6629 131.546 34.1252 152.49C42.3994 172.995 53.8117 192.566 65.2556 172.61C67.0717 169.581 67.5661 168.063 69.2346 165.038C73.8702 156.534 76.2842 147.789 78.3989 140.085C80.351 132.977 82.0591 126.76 85.0286 122.581C86.4007 120.716 91.4086 115.334 98.7464 127.797C104.326 137.261 106.449 153.9 115.634 169.39C123.986 183.454 131.707 180.28 137.634 170.237C142.183 163.006 146.29 154.633 149.886 144.677C154.531 131.771 158.228 112.744 160.929 98.8517C162.607 90.2136 163.917 83.4163 164.943 80.6731C165.387 79.5101 166.258 77.7161 167.355 75.4734C173.039 63.9598 184.888 40.0345 172.101 23.4511L172.04 23.364ZM159.354 98.4769C156.652 112.31 152.983 131.278 148.364 144.065C146.29 149.818 143.871 155.963 141.159 160.993C138.023 166.831 134.496 171.171 130.606 171.563C127.159 171.913 123.542 169.019 119.818 162.936C114.863 154.845 112.053 146.318 109.593 138.786C106.685 129.877 104.168 122.435 99.1375 118.482C98.8062 118.224 98.4151 117.938 97.8735 117.538C94.2039 114.881 85.5607 109.392 75.1887 108.082L74.9903 109.623C81.4506 110.439 87.6016 113.094 92.2469 115.786C86.8421 117.042 83.6535 120.724 81.2985 125.863C79.5329 129.747 78.2306 134.447 76.8218 139.622C74.7337 147.207 72.3758 155.832 67.8533 164.126C67.854 164.156 67.8252 164.186 67.7971 164.246C64.3766 170.504 60.907 173.574 57.4462 173.393C55.7899 173.315 54.1443 172.47 52.5453 171.121C47.5987 166.988 43.0586 157.765 39.2976 148.995C38.9842 148.264 38.6701 147.503 38.3567 146.773C33.1439 134.227 28.5174 115.493 25.137 101.78C24.6455 99.8132 24.1856 97.9338 23.7582 96.1718C22.2836 90.2701 21.0785 85.7207 20.1686 83.557C19.6361 82.3293 18.6773 80.5804 17.4108 78.3369C11.322 67.4084 -1.37995 44.6487 10.033 28.2378C10.9746 26.8852 12.0062 25.5895 13.0983 24.3514C19.9369 16.5317 29.9522 10.554 42.9687 6.48177C47.6008 5.03837 52.4304 4.41728 57.248 4.5055C62.9822 4.63024 68.7124 5.78906 74.1151 8.04899C80.4433 10.6997 85.2023 13.2118 88.6153 15.0481C92.9256 17.3349 99.9932 22.4194 122.82 18.4603L122.605 16.9294C104.796 19.5243 96.9792 17.5896 91.6224 14.7968C94.5298 12.8936 99.2826 10.3542 105.795 7.26926C109.532 5.46384 113.489 4.21429 117.519 3.49473C120.518 2.94822 123.527 2.756 126.541 2.79998C129.999 2.86258 133.437 3.30972 136.826 4.17165C152.137 8.10795 163.56 14.8874 170.792 24.281C182.999 40.1105 171.432 63.4676 165.888 74.6824C164.763 76.9848 163.862 78.7795 163.391 80.0319C162.338 82.8938 161.001 89.751 159.324 98.4481L159.354 98.4769Z" fill="#221E1F"/>
<path d="M49.8278 64.2606C46.2259 64.3492 43.3076 65.8095 43.3497 67.5219C43.3919 69.2343 46.3489 70.55 49.9804 70.4606C53.6119 70.3713 56.5006 68.9117 56.4585 67.1993C56.4163 65.4869 53.4593 64.1712 49.8278 64.2606Z" fill="#F7B3C9"/>
<path d="M125.662 65.4946C125.704 67.207 128.661 68.5227 132.293 68.4333C135.924 68.3439 138.813 66.8843 138.771 65.1719C138.729 63.4595 135.772 62.1438 132.14 62.2332C128.509 62.3226 125.62 63.7822 125.662 65.4946Z" fill="#F7B3C9"/>
</svg>
