<svg width="448" height="534" viewBox="0 0 448 534" fill="none" xmlns="http://www.w3.org/2000/svg">
<path d="M123.575 119.422C123.575 119.422 123.396 119.62 123.297 119.683C123.351 119.593 123.476 119.485 123.575 119.422Z" stroke="#221E1F" stroke-width="1.02989" stroke-miterlimit="10"/>
<path d="M121.688 121.471C121.688 121.471 121.688 121.471 121.663 121.513C121.663 121.513 121.663 121.513 121.688 121.471Z" stroke="#221E1F" stroke-width="1.02989" stroke-miterlimit="10"/>
<path d="M121.687 121.475C122.188 120.735 122.699 120.184 123.274 119.732C123.327 119.642 123.453 119.534 123.552 119.47C128.72 115.401 135.379 122.477 139.417 131.596C140.207 133.348 140.898 135.163 141.426 136.943C142.036 138.894 142.413 140.827 142.672 142.752C142.691 143.13 142.827 143.517 142.847 143.894L147.02 138.317C146.482 134.09 154.626 117.015 167.627 106.554C176.106 99.6923 178.647 91.0076 179.357 85.8124C198.06 108.358 228.961 119.843 248.93 114.81C249.32 120.415 249.494 126.075 249.362 131.736C249.355 132.159 249.392 132.609 249.385 133.032C249.376 133.149 249.413 133.293 249.404 133.41C249.405 133.716 249.361 133.995 249.363 134.301C249.32 134.886 249.277 135.471 249.261 136.011C242.475 130.997 230.489 124.049 211.312 119.234C211.401 118.981 211.229 118.757 210.977 118.668C209.274 118.143 207.589 117.691 205.886 117.166C202.247 116.1 198.527 115.169 194.798 114.355C192.807 113.903 190.862 113.478 188.863 113.144C184.288 112.315 179.597 111.783 174.891 111.792C172.11 111.847 169.313 112.137 166.544 112.993C166.4 113.029 166.301 113.093 166.158 113.129C164.881 113.53 163.455 114.696 162.901 115.832C162.203 117.005 161.434 118.195 160.781 119.395C158.099 124.21 155.932 129.393 154.846 134.914C153.786 140.389 153.898 146.256 156.05 151.567C156.541 152.897 157.203 154.145 157.936 155.375L159.122 157.18C159.637 157.853 160.305 158.372 161.054 158.757C161.802 159.141 162.613 159.318 163.459 159.333L165.51 159.271C166.878 159.23 168.192 159.279 169.533 159.283C175.662 159.449 181.747 159.894 187.869 160.484C190.183 160.7 192.424 160.935 194.711 161.196C196.872 161.566 199.007 161.981 201.159 162.468C201.691 162.601 202.158 162.329 202.516 161.932C202.65 161.707 202.893 161.607 202.937 161.328C202.937 161.328 202.919 161.256 202.9 161.184C203.537 160.524 204.264 159.919 205.035 159.34C206.005 158.634 207.064 157.982 208.133 157.519C208.861 157.22 209.634 156.947 210.398 156.791C213.05 155.926 215.325 157.952 215.695 160.614C216.137 163.258 214.536 165.847 212.021 167.098C209.479 168.395 206.33 168.658 203.279 168.553C202.856 168.545 202.506 168.826 202.498 169.248C202.446 169.645 202.798 169.976 203.122 170.047C206.292 170.467 209.747 170.508 212.982 169.075C214.339 168.539 215.523 167.472 216.436 166.245C216.76 166.316 217.13 166.413 217.661 166.546C218.445 166.768 219.391 167.026 220.544 167.346C221.535 167.63 222.661 167.995 223.832 168.386C228.906 170.122 235.431 172.906 240.629 176.792C240.353 177.36 240.121 177.955 239.844 178.523C239.656 178.838 239.558 179.208 239.371 179.523C239.183 179.839 238.995 180.155 238.807 180.471C237.958 182.103 237.064 183.708 236.08 185.259C232.457 191.041 227.67 196.009 222.005 199.782C217.551 202.139 212.034 204.535 209.14 205.5C206.749 206.337 204.267 206.814 201.794 207.174C201.173 207.293 200.561 207.296 199.922 207.343C199.023 207.418 198.069 207.584 197.125 207.632C189.773 207.777 182.422 205.662 175.912 202.339C168.996 198.774 162.777 193.73 157.49 187.837C155.358 185.47 153.351 182.993 151.541 180.39C151.052 179.672 150.537 178.999 150.093 178.308C149.143 176.826 148.192 175.345 147.341 173.8C142.73 165.745 139.699 156.37 139.583 147.02C139.557 144.807 139.629 142.53 139.981 140.296C140.094 139.387 138.717 139.239 138.558 140.122C138.399 141.004 138.313 141.869 138.181 142.706C138.024 144.2 137.868 145.695 137.874 147.225C137.875 147.531 137.831 147.81 137.859 148.071C133.718 150.309 127.37 151.538 121.9 144.926C118.592 140.943 117.77 135.447 118.418 130.459C118.701 129.162 119.021 128.009 119.377 127C120.106 124.748 120.882 122.828 121.777 121.529C121.777 121.529 121.777 121.529 121.804 121.484L121.687 121.475ZM180.577 109.008C183.36 107.306 195.787 106.945 195.787 106.945C184.377 97.5917 177.767 110.755 180.577 109.008ZM233.018 121.646C236.286 122.003 246.293 129.3 246.293 129.3C242.991 114.94 229.75 121.289 233.018 121.646ZM212.548 190.431C213.195 189.961 213.823 189.419 214.496 188.903C214.522 188.858 214.549 188.813 214.621 188.795C215.249 188.253 215.832 187.683 216.442 187.069C216.495 186.979 216.594 186.916 216.72 186.807C217.302 186.238 217.867 185.597 218.386 184.929C218.494 184.749 218.619 184.64 218.772 184.487C219.291 183.819 219.811 183.151 220.357 182.438C220.491 182.213 220.644 182.059 220.823 181.86C221.297 181.166 221.825 180.381 222.326 179.641C222.487 179.37 222.622 179.145 222.783 178.874C223.212 178.153 223.668 177.386 224.097 176.665C224.34 176.565 224.529 176.555 224.726 176.428C225.068 176.265 225.192 175.851 225.074 175.536C224.956 175.221 224.613 175.079 224.254 175.17L224.209 175.143C222.546 175.68 220.81 175.93 219.101 176.134L210.498 176.328C207.006 176.143 203.53 175.724 200.072 175.071C196.056 174.33 192.011 173.328 188.012 172.353C186.003 171.83 184.066 171.288 182.111 170.674C180.273 170.069 178.048 169.294 176.793 168.426L176.478 168.238C176.189 168.005 175.739 168.043 175.479 168.377C175.292 168.693 175.329 169.143 175.618 169.375C177.261 170.719 178.938 171.595 180.669 172.38C180.635 172.849 180.6 173.317 180.593 173.74C180.584 173.857 180.576 173.974 180.585 174.163C180.624 174.918 180.663 175.674 180.792 176.484C180.829 176.628 180.82 176.745 180.857 176.888C181.133 178.579 181.715 180.269 182.486 181.949C182.486 181.949 182.505 182.021 182.55 182.048C182.958 182.901 183.393 183.709 183.945 184.526C183.945 184.526 183.99 184.553 184.008 184.625C186.769 189.015 191.112 192.698 196.21 194.083L196.301 194.137C196.994 194.305 197.688 194.473 198.435 194.552C198.435 194.552 198.48 194.578 198.525 194.605C200.065 194.788 201.64 194.81 203.258 194.552C203.258 194.552 203.33 194.533 203.402 194.515C204.14 194.404 204.904 194.249 205.65 194.021C205.749 193.957 205.866 193.966 205.965 193.903C208.086 193.211 210.233 192.168 212.468 190.567L212.548 190.431ZM133.684 133.741C132.987 132.655 132.047 131.669 130.947 130.953C129.909 130.336 128.476 129.666 127.235 129.905C126.687 130.006 126.518 130.699 126.915 131.058C127.313 131.416 127.772 131.568 128.17 131.926C128.594 132.239 128.991 132.598 129.415 132.911C129.903 133.323 130.146 133.53 130.517 133.933C130.887 134.337 131.258 134.74 131.601 135.189C132.135 135.934 132.633 136.841 132.898 137.731C133.153 138.738 133.148 139.773 132.864 140.764C132.472 141.935 134.095 142.595 134.648 141.459C135.773 138.953 135.276 136.093 133.774 133.795L133.684 133.741Z" fill="#FBC3AE"/>
<path d="M192.206 187.059C205.808 190.572 208.794 190.273 208.755 191.776C208.703 192.172 208.632 192.496 208.489 192.839C207.662 193.202 206.863 193.52 206.09 193.792C205.991 193.856 205.874 193.847 205.775 193.911C205.029 194.138 204.265 194.294 203.527 194.405C203.527 194.405 203.455 194.423 203.383 194.442C201.765 194.7 200.19 194.678 198.65 194.495C198.65 194.495 198.605 194.468 198.56 194.441C197.839 194.318 197.119 194.195 196.425 194.026L196.335 193.973C194.119 193.387 192.055 192.342 190.223 191.008C183.728 184.579 187.702 185.906 192.296 187.112L192.206 187.059Z" fill="#ED1B23"/>
<path d="M159.159 337.327C162.009 338.901 169.457 342.905 178.933 347.504C179.933 347.977 180.934 348.451 181.98 348.951C182.07 349.004 182.115 349.031 182.205 349.085C179.212 359.76 175.692 371.526 172.012 383.869C171.764 384.698 171.542 385.481 171.293 386.31C171.31 386.076 171.282 385.815 171.254 385.555C171.172 382.819 170.953 379.697 170.358 376.901C169.414 372.431 167.7 368.847 164.318 369.4C158.742 370.356 147.763 384.706 141.093 394.171C140.825 394.622 140.44 395.064 140.198 395.47C139.93 395.921 139.643 396.3 139.357 396.679C138.462 397.979 137.647 399.142 137.039 400.063C137.012 400.108 136.985 400.153 136.958 400.198C136.958 400.198 136.931 400.243 136.904 400.288C136.904 400.288 136.931 400.243 136.913 400.171C136.852 398.426 136.72 396.698 136.66 394.952C136.63 394.386 136.601 393.819 136.599 393.207C136.597 392.595 136.549 391.956 136.52 391.389C135.99 379.35 135.46 367.617 134.953 357.18C134.953 357.18 135.052 357.117 135.097 357.143C144.555 352.33 152.69 345.019 159.223 337.426L159.159 337.327Z" fill="#294190"/>
<path d="M205.964 300.942C205.964 300.942 205.55 300.818 205.344 300.756C205.532 300.746 205.793 300.718 206.008 300.663C205.955 300.753 206.018 300.852 205.991 300.897L205.964 300.942Z" fill="#294190"/>
<path d="M129.718 183.712C139.968 181.262 148.679 181.194 148.679 181.194C148.679 181.194 148.679 181.194 148.724 181.221C148.724 181.221 148.815 181.275 148.788 181.32C150.697 184.165 152.759 186.857 155.045 189.378C164.832 200.329 178.039 208.92 192.999 209.638C193.746 209.716 194.502 209.677 195.276 209.71C196.806 209.705 198.344 209.582 199.837 209.432C200.431 209.358 201.043 209.356 201.637 209.282C202.113 209.199 202.545 209.089 203.021 209.007C203.121 209.249 203.221 209.492 203.348 209.689C203.611 210.273 203.874 210.857 204.111 211.486C204.673 212.798 205.236 214.11 205.799 215.422C206.598 217.363 207.325 219.322 207.981 221.299C208.054 221.587 208.387 221.541 208.602 221.486C208.773 221.404 208.88 221.224 208.844 221.08C208.196 218.68 207.476 216.297 206.684 213.934C206.184 212.415 205.611 210.914 205.012 209.458C204.912 209.216 204.839 208.928 204.739 208.685C205.027 208.612 205.36 208.566 205.647 208.493C205.647 208.493 205.692 208.52 205.783 208.573C206.537 208.229 207.564 208.351 208.879 208.706C216.897 211.034 234.771 225.942 251.95 232.988C252.22 233.149 252.563 233.291 252.905 233.434C253.216 234.657 253.573 236.212 254.11 237.875C256.223 244.689 260.408 254.383 268.049 259.602C269.349 260.497 270.728 261.256 272.26 261.863C263.869 263.037 250.604 263.266 230.614 259.921C229.272 259.611 227.416 259.24 225.426 258.788C224.822 258.673 224.246 258.514 223.642 258.399C223.039 258.284 222.508 258.151 221.904 258.036C219.959 257.612 218.13 257.195 216.698 256.832C216.563 256.751 216.446 256.743 216.329 256.734C216.329 256.734 216.284 256.707 216.239 256.681C216.239 256.681 216.149 256.627 216.103 256.6C216.103 256.6 216.13 256.555 216.157 256.51C216.184 256.465 216.147 256.321 216.174 256.276C216.174 256.276 216.228 256.186 216.183 256.159C216.163 255.781 216.216 255.385 216.196 255.007C216.186 254.512 216.247 253.999 216.236 253.504C216.263 253.459 216.271 253.342 216.253 253.27C216.238 241.904 214.695 231.155 211.973 220.438C211.827 219.863 210.982 220.154 211.128 220.729C211.789 224.237 212.352 227.807 212.797 231.369C212.852 231.585 212.834 231.819 212.889 232.035C213.232 234.743 213.503 237.468 213.658 240.186C213.715 241.013 213.745 241.886 213.802 242.714C213.928 245.17 214.009 247.6 214.018 250.047C214.001 250.281 214.056 250.497 214.039 250.731C214.078 251.487 214.044 252.261 214.011 253.035C214.022 253.53 213.961 254.043 213.972 254.538C213.945 254.583 213.963 254.655 213.982 254.727C213.974 255.15 213.94 255.618 213.933 256.041C213.936 256.959 213.894 257.85 213.853 258.741C213.853 258.741 213.853 258.741 213.826 258.786C213.837 259.281 213.821 259.821 213.786 260.289C213.787 260.595 213.762 260.946 213.763 261.252C213.728 261.415 213.764 261.558 213.729 261.721C213.729 261.721 213.702 261.766 213.675 261.811C213.26 268.769 212.404 275.647 211.079 282.492C211.079 282.492 209.569 282.875 207.149 283.145C206.672 283.228 206.151 283.284 205.584 283.313C205.062 283.369 204.567 283.38 204.045 283.436C200.617 283.656 196.225 283.546 191.542 282.591L203.761 260.309L204.566 258.956L205.227 257.639C205.227 257.639 205.254 257.594 205.281 257.549C205.727 256.594 206.129 255.611 206.53 254.629C206.708 254.124 206.859 253.665 207.011 253.205C207.162 252.746 207.34 252.241 207.491 251.782C208.327 249.043 208.884 246.26 209.081 243.568C209.149 242.632 209.191 241.741 209.16 240.868C209.167 240.139 209.101 239.429 209.081 238.745C208.93 236.945 208.707 235.164 208.242 233.483C207.978 232.593 207.759 231.73 207.422 230.858C205.332 225.341 201.492 221.224 196.535 219.191C171.099 208.576 145.133 197.829 119.022 187.118C122.589 185.638 126.202 184.49 129.7 183.64L129.718 183.712Z" fill="#294190"/>
<path d="M229.306 162.973C229.306 162.973 229.306 162.973 229.234 162.992C229.099 162.911 228.919 162.804 228.784 162.723C228.468 162.536 228.152 162.348 227.836 162.16C227.521 161.972 227.25 161.811 226.961 161.578C226.601 161.364 226.294 161.059 226.032 160.781C225.788 160.575 225.616 160.35 225.372 160.144C225.02 159.813 224.74 159.463 224.414 159.086C224.288 158.888 224.089 158.709 223.962 158.512C223.664 158.09 223.365 157.668 223.139 157.228C223.093 157.201 223.03 157.102 222.967 157.004C223.192 157.138 223.418 157.272 223.643 157.406C227.916 159.46 233.039 157.623 235.093 153.35C235.986 151.439 236.086 149.422 235.612 147.552C236.033 147.254 236.41 146.928 236.633 146.451C237.276 145.062 236.694 143.373 235.306 142.73C234.395 142.31 233.397 142.449 232.607 142.956C232.119 142.544 231.578 142.222 230.983 141.99C228.549 140.847 225.886 140.911 223.595 141.99C223.595 141.99 223.622 141.945 223.648 141.9C223.783 141.675 224.007 141.503 224.186 141.304C224.697 140.753 225.181 140.248 225.755 139.796C226.033 139.534 226.33 139.343 226.626 139.153C227.147 138.791 227.712 138.456 228.296 138.193C228.611 138.075 228.907 137.885 229.222 137.767C230.093 137.431 230.983 137.166 231.937 137.001C232.622 137.286 233.28 137.617 233.956 138.019C235.219 138.77 236.374 139.702 237.431 140.697C238.533 141.719 239.509 142.849 240.234 144.196C243.495 150.106 240.79 158.143 234.889 161.288C233.101 162.239 231.133 162.778 229.136 163.055L229.306 162.973Z" fill="#294190"/>
<path d="M184.641 150.812C184.641 150.812 184.641 150.812 184.569 150.83C184.388 150.723 184.253 150.642 184.073 150.535C183.712 150.32 183.396 150.133 183.036 149.918C182.72 149.73 182.404 149.542 182.142 149.264C181.781 149.05 181.429 148.718 181.122 148.413C180.878 148.207 180.661 147.956 180.418 147.75C180.065 147.418 179.74 147.042 179.442 146.62C179.27 146.395 179.143 146.198 178.971 145.973C178.628 145.525 178.356 145.058 178.057 144.636C177.967 144.582 177.949 144.51 177.885 144.412C178.111 144.546 178.336 144.68 178.607 144.841C183.178 147.011 188.66 145.082 190.83 140.512C191.776 138.51 191.912 136.332 191.401 134.318C191.868 134.046 192.271 133.676 192.521 133.153C193.218 131.675 192.572 129.886 191.121 129.145C190.165 128.698 189.095 128.855 188.233 129.38C187.7 128.941 187.159 128.619 186.519 128.361C183.95 127.137 181.025 127.229 178.636 128.372C178.636 128.372 178.663 128.327 178.689 128.282C178.824 128.056 179.048 127.885 179.254 127.641C179.765 127.09 180.303 126.494 180.877 126.042C181.2 125.807 181.523 125.572 181.846 125.336C182.439 124.956 183.004 124.621 183.642 124.268C183.983 124.105 184.28 123.914 184.639 123.823C185.583 123.469 186.545 123.186 187.543 123.047C188.273 123.36 189.003 123.672 189.725 124.101C191.078 124.906 192.323 125.891 193.443 126.985C194.608 128.106 195.675 129.29 196.418 130.709C199.906 137.058 197.022 145.6 190.753 148.953C188.867 149.968 186.755 150.543 184.614 150.857L184.641 150.812Z" fill="#294190"/>
<path d="M186.644 344.7C186.194 344.432 185.689 344.254 185.256 344.057C184.805 343.789 184.301 343.611 183.823 343.388C183.733 343.334 183.688 343.307 183.597 343.254C182.552 342.754 181.506 342.254 180.505 341.78C172.328 337.77 165.899 334.311 162.932 332.729C162.986 332.639 163.066 332.504 163.12 332.414L163.173 332.324C163.173 332.324 163.173 332.324 163.2 332.278C164.633 330.383 166.012 328.578 167.247 326.81L174.005 314.528L181.8 300.298L182.739 298.72L182.828 298.467L183.284 297.701L187.488 298.126L189.541 298.37C188.956 298.922 189.897 299.743 190.303 299.801L191.036 299.818C196.447 300.473 201.708 301.396 207.005 302.96C218.753 306.408 230.13 312.525 239.205 320.672C245.255 326.103 250.337 333.687 253.63 340.775C253.387 340.875 252.327 341.342 252.057 341.487C251.644 341.669 251.177 341.94 250.755 342.239C250.36 342.492 249.893 342.764 249.444 343.108C238.574 350.501 217.108 374.06 206.286 384.656C206.809 382.647 207.359 380.593 207.838 378.558C209.015 373.397 210.148 368.209 210.794 362.915C211.486 357.648 211.834 352.238 210.879 346.968C210.814 346.563 210.454 346.349 210.049 346.413C209.716 346.459 210.053 346.875 210.055 347.181C209.846 349.618 209.656 352.671 209.164 354.923C208.705 354.772 207.936 354.07 207.476 353.919C206.971 353.741 206.494 353.518 205.944 353.313C199.311 350.71 192.658 347.729 186.609 344.862L186.644 344.7Z" fill="#294190"/>
<path d="M195.098 405.415C194.278 405.049 193.449 404.8 192.548 404.569C190.025 403.679 187.82 403.588 185.996 404.396C183.076 405.711 181.864 408.776 181.207 411.316C176.847 410.126 172.549 408.729 168.332 407.197C170.554 399.666 172.775 392.134 174.989 384.719C178.633 372.539 182.091 360.98 185.075 350.421C191.674 353.493 198.903 356.634 206.023 359.343C205.272 377.641 197.487 399.142 195.053 405.388L195.098 405.415Z" fill="white"/>
<path d="M123.159 361.518C125.002 361.088 126.764 360.488 128.48 359.86C129.568 359.469 130.682 359.033 131.796 358.597C132.191 367.991 132.653 378.401 133.188 389.099C133.188 389.099 133.188 389.099 133.143 389.073C131.979 388.258 130.833 387.515 129.669 386.701C120.104 379.789 111.345 371.83 103.456 362.923C109.817 362.494 116.249 362.048 122.61 361.619L123.132 361.563L123.159 361.518Z" fill="white"/>
<path d="M218.723 262.977C220.623 263.375 222.523 263.772 224.333 264.117C241.312 304.442 275.89 336.738 298.726 354.904C308.754 362.885 316.558 368.138 319.571 370.053C318.837 371.081 318.084 372.038 317.35 373.067C312.264 379.871 306.401 386.03 299.753 391.356C278.802 408.199 250.767 417.348 219.907 416.878C220.283 416.246 220.685 415.57 221.106 414.965C230.561 399.587 239.339 383.805 247.667 367.755L253.796 355.71C254.724 353.636 255.941 351.796 256.643 349.283C257.291 346.859 257.317 344.249 256.696 341.804C252.973 332.873 247.456 325.622 240.621 319.357C231.149 310.852 219.716 305.027 207.599 301.481C209.122 299.639 209.967 297.089 210.679 294.765C211.461 292.116 212.062 289.36 212.664 286.604C214.247 279.12 215.299 271.503 215.855 263.896C215.889 263.428 215.924 262.96 215.958 262.492C216.282 262.563 216.606 262.634 216.931 262.704C217.579 262.846 218.137 262.934 218.741 263.049L218.723 262.977Z" fill="white"/>
<path d="M222.607 76.4324C222.607 76.4324 212.104 71.4049 200.84 67.4511C189.577 63.4974 184.509 63.2912 184.509 63.2912C184.509 63.2912 193.017 59.2549 204.316 65.6114C204.316 65.6114 199.408 59.6991 191.958 57.648C191.958 57.648 195.77 56.6799 202.464 58.7698C202.464 58.7698 216.331 60.914 232.905 77.1861L213.784 68.0689L222.679 76.4142L222.607 76.4324Z" fill="white"/>
<path d="M156.957 72.6636C159.85 68.8282 164.439 68.8111 164.439 68.8111C154.346 67.5078 147.347 75.3722 147.347 75.3722C147.347 75.3722 149.24 71.3694 156.008 66.6646C162.704 61.9781 165.829 64.9362 167.933 67.0432C168.548 67.6529 169.993 69.1234 170.914 70.0379C171.33 70.4683 171.637 70.7732 171.637 70.7732C171.457 70.6658 171.223 70.6487 170.97 70.5597C163.707 67.8869 156.957 72.6636 156.957 72.6636Z" fill="white"/>
<path d="M212.282 176.409C211.742 176.393 211.184 176.305 210.572 176.307L219.175 176.113C216.872 176.392 214.533 176.527 212.256 176.454L212.282 176.409Z" fill="white"/>
<path d="M219.045 178.174C217.533 180.511 214.423 184.095 209.151 184.439C201.252 184.99 195.044 183.006 192.413 179.731C191.12 178.107 190.502 176.58 190.3 175.482C193.39 176.344 196.462 177.133 199.614 177.788C203.747 178.537 207.997 178.989 212.262 178.902C214.529 178.785 216.824 178.624 219.09 178.201L219.045 178.174Z" fill="white"/>
<path d="M232.514 163.961C231.398 163.785 230.343 163.402 229.316 162.974C231.313 162.696 233.282 162.158 235.069 161.207C240.97 158.062 243.649 150.07 240.414 144.115C239.662 142.813 238.686 141.683 237.611 140.616C236.554 139.621 235.399 138.689 234.136 137.938C233.505 137.562 232.802 137.205 232.117 136.919C234.401 136.569 236.877 136.821 239.275 137.82C244.619 140.023 248.221 145.463 247.828 151.152C247.784 151.431 247.858 151.719 247.787 152.043C247.743 152.322 247.654 152.574 247.61 152.854C246.231 159.482 240.015 165.004 232.586 163.943L232.514 163.961Z" fill="white"/>
<path d="M235.34 142.683C236.728 143.326 237.31 145.015 236.668 146.404C236.399 146.854 236.041 147.252 235.646 147.505C234.856 148.012 233.857 148.151 232.947 147.731C231.559 147.088 230.976 145.399 231.619 144.011C231.887 143.56 232.246 143.162 232.641 142.909C233.431 142.402 234.429 142.263 235.34 142.683Z" fill="white"/>
<path d="M188.025 151.903C186.837 151.746 185.737 151.336 184.62 150.854C186.76 150.54 188.873 149.965 190.759 148.95C197.028 145.597 199.939 137.01 196.424 130.706C195.654 129.332 194.569 128.076 193.449 126.982C192.329 125.888 191.084 124.903 189.731 124.098C189.054 123.696 188.306 123.312 187.549 123.044C189.977 122.657 192.615 122.945 195.22 124.006C201.205 126.467 205.188 132.806 204.276 139.163C203.214 146.591 196.318 153.051 187.98 151.876L188.025 151.903Z" fill="white"/>
<path d="M187.094 130.593C187.344 130.07 187.748 129.7 188.215 129.428C189.077 128.903 190.147 128.746 191.103 129.192C192.581 129.889 193.227 131.677 192.504 133.201C192.208 133.697 191.85 134.094 191.383 134.366C190.521 134.891 189.451 135.048 188.495 134.601C187.017 133.905 186.371 132.117 187.094 130.593Z" fill="white"/>
<path d="M88.0357 178.445C89.7545 178.43 91.5464 178.702 93.3759 179.424C99.0632 181.77 104.75 184.115 110.438 186.461C111.078 186.72 111.763 187.005 112.403 187.264C113.088 187.549 113.728 187.808 114.413 188.093C114.845 188.29 115.35 188.468 115.783 188.664C141.551 199.232 167.265 209.891 192.584 220.497C193.314 220.809 194.017 221.166 194.694 221.569C195.505 222.052 196.308 222.652 196.995 223.243C199.071 225.089 200.664 227.441 201.682 230.245C203.019 233.849 203.169 237.907 202.446 241.995C201.961 244.76 201.117 247.616 199.696 250.312L199.616 250.447L198.856 251.827L198.051 253.18L196.38 256.399L195.575 257.752L194.86 259.158L183.384 280.295L174.464 296.725L173.597 298.285L172.684 299.818L171.908 301.432L167.421 309.692L162.961 317.907C160.275 321.805 157.525 325.298 154.729 328.458C154.729 328.458 154.729 328.458 154.703 328.503C154.676 328.548 154.622 328.638 154.595 328.683C148.251 335.96 141.594 341.403 134.552 345.029C134.552 345.029 134.453 345.092 134.408 345.065C133.896 345.31 133.384 345.555 132.872 345.8C132.36 346.045 131.848 346.29 131.336 346.534C130.266 346.997 129.152 347.433 128.02 347.798C124.568 348.98 121.044 349.875 117.392 350.267C109.934 350.898 102.422 351.619 94.937 352.294C94.3433 352.369 93.7045 352.416 93.1377 352.445C92.544 352.519 91.9772 352.548 91.3835 352.623C89.4403 352.81 87.5691 352.979 85.626 353.166C85.0323 353.24 84.4654 353.269 83.8718 353.343C83.3049 353.373 82.7112 353.447 82.1895 353.503C78.636 353.831 75.1276 354.186 71.5741 354.514C66.0952 347.713 60.5713 340.885 55.1193 334.039C52.3798 330.638 49.6855 327.265 46.9461 323.864C34.0898 307.911 31.6941 295.312 37.59 273.908L37.7584 273.214C39.3996 266.864 52.7196 216.355 65.3343 196.384C69.8075 189.276 78.2093 178.644 88.054 178.517L88.0357 178.445ZM114.245 331.848C117.503 331.71 120.75 331.383 123.916 330.885C125.058 330.71 126.137 330.436 127.216 330.162C128.367 329.87 129.473 329.551 130.533 329.205C131.064 329.032 131.594 328.859 132.079 328.659C132.465 328.523 132.897 328.413 133.31 328.232C133.409 328.168 133.508 328.105 133.652 328.068C133.652 328.068 133.705 327.978 133.822 327.987C136.697 326.644 138.822 324.611 140.19 322.005C140.19 322.005 140.19 322.005 140.216 321.96C140.404 321.645 140.592 321.329 140.69 320.96C140.797 320.779 140.904 320.599 140.967 320.392C141.439 319.085 141.651 318.112 141.648 317.194L141.582 316.484C140.879 311.303 139.905 305.961 138.734 300.746C138.166 298.21 137.634 295.512 137.174 292.796C136.87 290.844 136.574 288.776 136.324 286.734C136.213 285.996 136.075 285.304 136.037 284.548L135.936 283.999L135.634 282.66C135.634 282.66 136.164 282.487 136.433 282.342C137.206 282.069 137.907 281.814 138.635 281.514C146.229 278.705 152.689 275.955 157.316 273.823C161.943 271.691 164.781 270.204 165.024 270.104C166.003 269.588 166.855 268.874 167.617 268.106C168.863 266.832 169.775 265.299 170.3 263.596C171.028 261.038 171.315 258.4 171.369 255.745C171.403 255.277 171.437 254.809 171.445 254.386C171.445 254.386 171.471 254.341 171.453 254.269C171.442 253.774 171.386 253.252 171.33 252.73C171.253 251.219 171.157 249.635 170.981 248.187C170.925 247.665 170.797 247.162 170.741 246.64C170.685 246.118 170.584 245.57 170.501 245.093C170.4 244.544 170.353 243.906 170.206 243.33C169.474 239.841 168.58 236.623 167.588 233.774C166.124 229.666 162.946 226.798 159.099 225.67C157.384 224.344 155.222 223.668 152.811 224.127C147.371 225.165 142.03 226.444 136.834 227.994C131.09 229.644 125.356 231.789 119.677 234.15C119.419 232.531 119.133 230.651 118.81 228.322L116.509 212.176C116.424 211.088 116.112 209.559 115.512 207.797C114.218 203.609 111.298 202.36 109.775 201.942C109.451 201.871 109.1 201.846 108.776 201.775C108.359 201.039 107.88 200.509 107.187 200.341C106.124 200.075 104.351 200.181 101.968 200.594C101.374 200.669 100.799 200.815 100.133 200.907C98.9374 201.173 97.7147 201.483 96.4651 201.839C95.7458 202.021 95.0265 202.204 94.3524 202.414C93.705 202.578 93.076 202.814 92.4469 203.051C91.6021 203.342 90.7389 203.561 89.8673 203.897C86.3623 205.17 83.2181 206.658 80.4797 208.387C78.1364 209.862 76.6842 211.38 76.0511 212.957C74.1319 214.746 72.8795 216.748 72.4193 218.856L72.1373 220.459C71.946 224.68 73.965 237.605 78.7113 253.129C63.9345 257.953 54.8346 267.193 53.3812 268.405C53.0313 268.685 52.6814 268.965 52.3314 269.246L51.8291 269.679C41.636 277.781 52.2175 299.097 56.9931 305.54C58.576 307.703 60.1018 309.038 61.4998 309.87C64.3409 311.56 66.5974 310.949 68.097 310.071C68.681 309.807 69.4174 309.391 70.2708 308.983C70.8097 308.693 71.4205 308.384 72.0582 308.031C72.597 307.741 73.2078 307.433 73.8454 307.079C73.8991 306.989 74.0161 306.998 74.1149 306.934C74.6538 306.644 75.1927 306.355 75.7584 306.019C76.2972 305.729 76.8361 305.439 77.375 305.149C79.1891 304.153 81.102 303.093 83.0869 302.014C85.88 300.501 89.1938 298.626 91.8882 297.176C92.1547 298.678 92.4407 300.558 92.7912 302.842C92.9287 303.535 93.8894 307.77 94.7684 311.834C95.5002 315.017 96.1955 318.056 96.4244 319.108C96.9832 321.761 97.7481 324.17 98.7191 326.335C101.469 332.49 114.3 332.064 114.417 332.073L114.245 331.848Z" fill="white"/>
<path d="M130.946 130.951C132.074 131.622 132.987 132.654 133.684 133.74C135.141 136.011 135.683 138.898 134.558 141.404C134.076 142.522 132.409 141.835 132.774 140.709C133.103 139.745 133.108 138.71 132.807 137.676C132.588 136.813 132.072 135.834 131.511 135.134C131.167 134.685 130.797 134.282 130.426 133.878C130.056 133.474 129.812 133.268 129.325 132.856C128.927 132.498 128.503 132.184 128.079 131.871C127.655 131.558 127.222 131.361 126.825 131.003C126.428 130.644 126.569 129.996 127.145 129.85C128.386 129.611 129.846 130.236 130.856 130.898L130.946 130.951Z" fill="#221E1F"/>
<path d="M195.785 106.945C195.785 106.945 183.358 107.306 180.575 109.009C177.791 110.711 184.375 97.5923 195.785 106.945Z" fill="#221E1F"/>
<path d="M246.291 129.299C246.291 129.299 236.239 121.975 233.016 121.645C229.748 121.288 243.016 114.894 246.291 129.299Z" fill="#221E1F"/>
<path d="M192.808 192.608C193.944 193.162 195.062 193.644 196.26 193.99C195.062 193.644 193.918 193.207 192.808 192.608Z" fill="#221E1F"/>
<path d="M176.557 168.103L176.872 168.291C178.145 169.231 180.325 169.979 182.164 170.584C184.119 171.198 186.074 171.811 188.064 172.263C192.064 173.238 196.081 174.285 200.124 174.981C203.583 175.634 207.031 176.098 210.55 176.238C211.135 176.281 211.694 176.369 212.261 176.34C214.583 176.439 216.877 176.277 219.18 175.999C220.889 175.795 222.625 175.545 224.234 175.098L224.279 175.125C224.62 174.962 224.963 175.104 225.126 175.446C225.289 175.787 225.12 176.175 224.779 176.338C224.581 176.465 224.32 176.493 224.149 176.574C223.693 177.341 223.237 178.108 222.835 178.784C222.674 179.055 222.54 179.28 222.379 179.551C221.896 180.362 221.349 181.075 220.875 181.77C220.741 181.996 220.588 182.149 220.409 182.348C219.863 183.061 219.343 183.729 218.824 184.396C218.717 184.577 218.591 184.685 218.439 184.839C217.874 185.48 217.31 186.121 216.772 186.717C216.718 186.807 216.619 186.87 216.494 186.979C215.884 187.593 215.301 188.162 214.673 188.705C214.647 188.75 214.62 188.795 214.548 188.813C213.92 189.355 213.247 189.871 212.601 190.341C211.335 191.237 210.132 191.925 208.91 192.542C208.811 192.605 208.686 192.714 208.542 192.75C207.715 193.113 206.916 193.431 206.143 193.704C206.961 193.458 207.742 193.068 208.569 192.705C208.738 192.317 208.809 191.993 208.853 191.714C208.892 190.211 205.951 190.537 192.304 186.997C187.755 185.817 183.871 184.545 190.014 190.641C190.618 191.062 191.223 191.483 191.854 191.858C191.313 191.536 190.772 191.214 190.23 190.892C190.095 190.812 189.987 190.686 189.878 190.561C189.075 189.961 188.371 189.297 187.693 188.589C187.386 188.284 187.052 188.024 186.745 187.72C185.787 186.661 184.928 185.54 184.168 184.354C184.168 184.354 184.123 184.328 184.104 184.256C183.597 183.466 183.117 182.63 182.709 181.777C182.709 181.777 182.691 181.705 182.646 181.678C181.875 179.998 181.337 178.335 181.016 176.618C180.98 176.474 180.988 176.357 180.952 176.213C180.823 175.404 180.784 174.648 180.745 173.892C180.754 173.775 180.717 173.631 180.752 173.469C180.787 173.001 180.794 172.578 180.828 172.11C179.143 171.351 177.42 170.449 175.778 169.105C175.489 168.872 175.424 168.467 175.639 168.106C175.827 167.791 176.303 167.708 176.637 167.968L176.557 168.103ZM192.412 179.734C195.043 183.009 201.251 184.993 209.15 184.441C214.422 184.098 217.532 180.514 219.044 178.177C216.778 178.6 214.483 178.761 212.216 178.878C207.951 178.965 203.746 178.54 199.568 177.764C196.416 177.109 193.344 176.32 190.254 175.459C190.501 176.582 191.074 178.083 192.367 179.707L192.412 179.734Z" fill="#221E1F"/>
<path d="M231.04 141.901C231.608 142.177 232.122 142.544 232.663 142.866C232.242 143.165 231.865 143.49 231.642 143.968C230.999 145.356 231.581 147.046 232.969 147.689C233.88 148.108 234.878 147.97 235.668 147.463C236.143 149.333 236.016 151.394 235.15 153.26C233.096 157.534 228 159.325 223.7 157.317C223.474 157.182 223.249 157.048 223.024 156.914C222.933 156.86 222.942 156.743 222.924 156.672C222.57 156.034 222.271 155.306 222.016 154.605C221.934 154.434 221.88 154.219 221.798 154.048C221.507 153.203 221.288 152.34 221.212 151.44C221.082 150.325 221.114 149.245 221.263 148.173C221.334 147.849 221.378 147.57 221.449 147.246C221.599 146.48 221.794 145.742 222.079 145.057C222.24 144.786 222.284 144.507 222.4 144.209C222.793 143.344 223.276 142.532 223.822 141.819C226.041 140.758 228.777 140.676 231.211 141.819L231.04 141.901Z" fill="#221E1F"/>
<path d="M178.612 144.841C178.386 144.706 178.161 144.572 177.89 144.411C177.8 144.358 177.809 144.241 177.745 144.142C177.374 143.432 177.029 142.678 176.729 141.95C176.675 141.734 176.593 141.563 176.538 141.348C176.229 140.431 175.991 139.496 175.916 138.596C175.768 137.409 175.808 136.212 175.984 135.095C176.01 134.744 176.08 134.42 176.151 134.096C176.328 133.285 176.55 132.501 176.817 131.744C176.933 131.447 177.049 131.15 177.165 130.852C177.585 129.942 178.094 129.085 178.694 128.282C181.084 127.139 183.963 127.02 186.578 128.27C187.191 128.574 187.75 128.968 188.291 129.29C187.824 129.562 187.421 129.932 187.171 130.455C186.474 131.933 187.12 133.722 188.572 134.463C189.527 134.91 190.597 134.753 191.459 134.228C191.971 136.242 191.835 138.42 190.889 140.421C188.719 144.992 183.236 146.92 178.666 144.75L178.612 144.841Z" fill="#221E1F"/>
<path d="M51.6544 269.458L52.1567 269.024C52.5067 268.744 52.8566 268.464 53.2065 268.184C53.2065 268.184 53.1797 268.229 53.1529 268.274C49.3756 271.339 50.7375 279.415 53.5637 286.775C56.7529 294.961 61.8196 302.25 63.902 300.802C65.6089 299.986 69.3359 297.929 73.6018 295.582C74.3114 295.211 75.0478 294.794 75.7842 294.377C75.9097 294.269 76.0536 294.232 76.1792 294.124C76.7449 293.789 77.3557 293.481 77.9214 293.146C77.9751 293.055 78.0921 293.064 78.1908 293.001C78.8553 292.602 79.4929 292.249 80.2025 291.877C81.7472 291.025 83.2919 290.174 84.6928 289.359C85.8693 288.715 86.9739 288.09 88.0248 287.555C88.7612 287.139 89.4707 286.767 90.0815 286.459C91.725 285.544 92.9466 284.927 93.5038 284.709C93.6476 284.673 93.7195 284.654 93.8634 284.618C93.8634 284.618 93.9268 284.717 93.9719 284.744C94.1071 284.824 94.2424 284.904 94.2704 285.165C94.3166 285.498 94.4359 286.119 94.6551 286.982C94.7464 287.341 94.7841 287.791 94.8669 288.268C94.9314 288.673 95.0142 289.149 95.142 289.653C95.2334 290.012 95.2796 290.345 95.3441 290.75C95.6009 292.063 95.8236 293.844 96.1461 295.868C96.1837 296.317 96.2751 296.677 96.3578 297.154C96.5331 298.296 99.5053 311.055 100.018 313.375C100.348 314.975 100.803 316.468 101.313 317.87C101.504 318.472 101.74 319.101 101.958 319.658C102.784 321.554 109.888 322.544 112.911 322.389C115.98 322.261 118.966 321.962 122.015 321.455C123.778 321.161 125.36 320.759 126.879 320.258C128.012 319.894 129.144 319.53 130.169 319.04C130.726 318.822 131.219 318.505 131.686 318.233C132.081 317.98 132.458 317.655 132.835 317.329C132.987 317.176 133.185 317.049 133.337 316.895C134.126 316.083 134.69 315.136 135.028 314.054C135.268 313.343 135.401 312.811 135.4 312.505C134.697 307.324 133.778 302.198 132.606 296.983C132.25 295.427 131.992 293.808 131.662 292.208C130.936 288.296 130.264 284.294 129.735 279.949C129.662 279.661 129.589 279.373 129.543 279.041C129.314 277.989 129.13 276.963 128.874 275.956C128.773 275.408 128.627 274.832 128.526 274.284L128.49 274.14C128.471 274.068 128.57 274.005 128.597 273.96C128.741 273.923 128.885 273.887 129.01 273.778C129.783 273.505 130.556 273.232 131.329 272.959C145.484 267.948 156.587 262.525 160.423 260.594C160.935 260.349 161.375 260.123 161.599 259.951C162.92 259.271 163.932 257.98 164.322 256.503C164.509 255.881 164.578 255.251 164.72 254.603C164.826 254.116 164.932 253.63 164.993 253.117C165.055 252.604 165.089 252.136 165.15 251.622C165.227 250.569 165.322 249.588 165.282 248.526C165.253 247.959 165.197 247.438 165.168 246.871C165.157 246.376 165.101 245.854 165.045 245.332C164.99 244.811 165.006 244.271 164.923 243.794C164.904 243.722 164.913 243.605 164.895 243.533C164.699 241.707 164.431 239.899 164.065 238.155C163.368 234.809 162.529 231.807 161.619 229.128C161.029 227.556 160.079 226.38 158.879 225.422C162.726 226.55 165.904 229.418 167.368 233.526C168.36 236.375 169.254 239.593 169.987 243.082C170.088 243.631 170.162 244.224 170.281 244.845C170.382 245.393 170.465 245.87 170.521 246.392C170.577 246.914 170.705 247.417 170.761 247.939C170.955 249.459 171.033 250.971 171.111 252.482C171.121 252.977 171.177 253.499 171.233 254.021C171.233 254.021 171.206 254.066 171.225 254.138C171.236 254.633 171.156 255.074 171.149 255.497C171.096 258.152 170.782 260.835 170.08 263.348C169.601 265.078 168.688 266.611 167.397 267.858C166.635 268.625 165.783 269.34 164.804 269.856C164.534 270.001 161.696 271.488 157.096 273.575C152.47 275.707 146.009 278.457 138.415 281.266C137.688 281.566 136.987 281.821 136.214 282.094C135.926 282.167 135.683 282.267 135.414 282.412L135.716 283.751L135.817 284.3C135.928 285.037 136.038 285.775 136.104 286.486C136.355 288.528 136.605 290.569 136.954 292.548C137.388 295.309 137.946 297.962 138.514 300.498C139.73 305.74 140.659 311.055 141.362 316.236L141.428 316.946C141.431 317.864 141.246 318.792 140.747 320.144C140.639 320.324 140.532 320.504 140.47 320.712C140.327 321.054 140.139 321.37 139.997 321.712C139.997 321.712 139.997 321.712 139.97 321.757C138.629 324.318 136.477 326.396 133.603 327.739C133.603 327.739 133.549 327.829 133.432 327.82C133.333 327.884 133.234 327.947 133.091 327.983C132.704 328.12 132.246 328.275 131.859 328.411C131.374 328.611 130.844 328.784 130.313 328.957C129.253 329.303 128.147 329.622 126.996 329.914C125.917 330.188 124.838 330.462 123.696 330.637C120.53 331.135 117.256 331.507 114.026 331.6C114.026 331.6 101.077 332.017 98.3275 325.863C97.3565 323.698 96.6184 321.244 96.0328 318.636C95.849 317.611 95.1086 314.545 94.3769 311.362C93.4527 307.271 92.4652 303.081 92.3996 302.37C92.0491 300.085 91.7631 298.206 91.4966 296.704C88.7753 298.199 85.4433 300.002 82.6953 301.542C80.7104 302.62 78.7975 303.68 76.9834 304.677C76.4445 304.967 75.9056 305.257 75.3668 305.547C74.8011 305.882 74.2171 306.145 73.7233 306.462C73.6696 306.552 73.5526 306.544 73.4538 306.607C72.8162 306.96 72.2773 307.25 71.6665 307.559C71.0289 307.912 70.4181 308.22 69.8792 308.51C69.0709 308.945 68.2894 309.335 67.7054 309.598C66.2327 310.432 63.9493 311.088 61.1082 309.398C59.7102 308.566 58.2112 307.186 56.6015 305.068C51.8259 298.624 41.2444 277.308 51.4375 269.207L51.6544 269.458Z" fill="#221E1F"/>
<path d="M114.865 235.868C114.865 235.868 114.765 235.625 114.746 235.554C114.683 235.455 114.646 235.311 114.565 235.14C114.501 235.041 114.501 235.041 114.465 234.898C114.265 234.412 114 233.216 113.669 231.31C113.338 229.403 112.913 226.525 112.368 222.72C111.887 219.32 111.222 214.589 110.363 208.644C110.234 207.835 110.123 207.097 110.021 206.242C109.927 205.271 109.662 204.075 109.224 202.655C109.07 202.196 108.88 201.9 108.644 201.577C108.996 201.603 109.347 201.628 109.644 201.744C111.238 202.143 114.087 203.411 115.38 207.599C115.936 209.334 116.247 210.863 116.378 211.978L118.678 228.123C119.002 230.453 119.288 232.333 119.546 233.952C118.89 234.233 118.189 234.488 117.506 234.814C116.608 235.196 115.691 235.505 114.811 235.958L114.865 235.868Z" fill="#221E1F"/>
<path d="M83.2518 250.828C83.1725 251.27 82.9578 251.631 82.5263 251.74C81.1597 252.087 79.8382 252.461 78.5349 252.907C73.7435 237.356 71.7696 224.458 71.9609 220.237L72.2429 218.634C72.7299 216.481 73.9555 214.524 75.8747 212.735C75.7405 212.96 75.6247 213.258 75.5807 213.537C75.5367 213.816 75.4745 214.023 75.4306 214.303C75.2895 217.516 76.9043 228.246 80.7613 241.776C81.5274 244.49 82.3568 247.304 83.3666 250.225C83.4214 250.441 83.3591 250.648 83.3237 250.81L83.2518 250.828Z" fill="#221E1F"/>
<path d="M205.62 283.453C206.187 283.424 206.709 283.368 207.185 283.285C209.632 282.97 211.116 282.632 211.116 282.632C210.533 285.766 209.879 288.918 209.09 291.99C208.3 295.061 207.113 297.774 206.026 300.73C205.837 300.74 205.577 300.768 205.361 300.823C202.109 299.926 198.749 299.209 195.4 298.682C193.842 298.427 192.356 298.153 190.816 297.97C190.375 297.891 189.962 298.072 189.684 298.334L187.631 298.09L183.382 297.638L183.704 297.097L191.552 282.777C196.307 283.713 200.654 283.796 204.055 283.621C204.622 283.592 205.117 283.581 205.593 283.498L205.62 283.453Z" fill="#F7A4BC"/>
<path d="M217.975 164.47C217.975 164.47 217.605 164.373 217.488 164.364C218.032 163.039 218.342 161.697 218.121 160.222C217.871 158.486 217.028 156.824 215.656 155.642C215.566 155.588 215.502 155.489 215.367 155.409C213.806 154.236 211.519 153.974 209.856 154.511C208.993 154.73 208.166 155.094 207.385 155.483C205.409 156.445 203.722 157.945 202.352 159.633C202.325 159.678 202.298 159.723 202.244 159.813C202.109 159.733 202.073 159.589 201.884 159.599C191.122 157.47 180.184 156.458 169.249 156.363L165.208 156.279C164.038 156.194 162.894 155.757 161.955 155.076C161.639 154.889 161.449 154.592 161.187 154.314C160.663 153.758 160.193 153.112 159.857 152.241C159.258 151.091 158.786 149.833 158.475 148.61C156.936 143.603 157.24 138.166 158.67 133.094C158.67 133.094 158.723 133.004 158.75 132.959C160.108 127.906 162.529 123.118 165.464 118.697C166.913 116.262 168.474 114.87 171.11 114.546C173.709 114.077 176.354 113.941 179.009 113.994C186.686 114.227 194.331 115.539 201.897 117.293C203.609 117.701 205.365 118.135 207.077 118.543C207.077 118.543 207.077 118.543 207.122 118.569C208.392 118.898 209.617 119.199 210.887 119.527C211.139 119.616 211.364 119.445 211.453 119.192C230.63 124.007 242.616 130.955 249.402 135.97C249.916 136.337 250.521 136.757 250.963 137.143C251.297 137.403 251.541 137.609 251.875 137.868C252.055 137.976 252.209 138.128 252.407 138.307C253.716 139.391 254.773 140.386 255.477 141.05C256.2 141.785 256.653 142.665 256.765 143.709C258.813 159.459 254.45 169.563 250.343 176.157C248.769 178.701 247.234 179.741 245.049 177.769C244.787 177.491 244.453 177.232 244.146 176.927C243.812 176.667 243.55 176.389 243.216 176.129C242.773 175.744 242.304 175.404 241.835 175.064C241.745 175.01 241.655 174.956 241.564 174.903C233.948 169.333 224.064 166.14 219.173 164.817C218.758 164.692 218.389 164.595 218.065 164.524L217.975 164.47ZM195.218 124.004C192.613 122.943 190.02 122.683 187.547 123.043C186.548 123.182 185.587 123.464 184.643 123.819C184.302 123.982 183.96 124.145 183.646 124.263C183.035 124.572 182.397 124.925 181.85 125.332C181.527 125.567 181.204 125.802 180.881 126.037C180.279 126.535 179.723 127.059 179.258 127.636C179.123 127.862 178.854 128.007 178.693 128.277C178.693 128.277 178.666 128.322 178.639 128.368C178.039 129.171 177.53 130.028 177.11 130.938C176.949 131.209 176.878 131.533 176.762 131.83C176.495 132.587 176.228 133.344 176.096 134.182C176.025 134.506 175.955 134.83 175.929 135.181C175.798 136.324 175.739 137.45 175.861 138.682C175.981 139.609 176.219 140.544 176.483 141.434C176.538 141.649 176.62 141.82 176.674 142.036C176.947 142.809 177.274 143.491 177.69 144.228C177.754 144.327 177.772 144.398 177.835 144.497C177.926 144.551 177.944 144.623 178.007 144.722C178.279 145.189 178.578 145.61 178.921 146.059C179.093 146.283 179.22 146.481 179.392 146.705C179.717 147.082 180.042 147.459 180.368 147.836C180.585 148.087 180.828 148.293 181.072 148.499C181.379 148.804 181.713 149.063 182.092 149.35C182.408 149.538 182.697 149.771 182.986 150.004C183.346 150.218 183.662 150.406 184.023 150.621C184.203 150.728 184.383 150.835 184.519 150.916C184.519 150.916 184.519 150.916 184.591 150.898C185.636 151.398 186.808 151.789 187.996 151.947C196.289 153.095 203.159 146.68 204.292 139.233C205.231 132.831 201.221 126.538 195.236 124.076L195.218 124.004ZM223.964 158.508C223.964 158.508 224.262 158.93 224.416 159.083C224.696 159.433 225.022 159.809 225.374 160.141C225.591 160.392 225.789 160.572 226.033 160.778C226.34 161.082 226.629 161.315 226.963 161.575C227.279 161.763 227.522 161.969 227.838 162.157C228.154 162.345 228.469 162.532 228.785 162.72C228.92 162.801 229.101 162.908 229.236 162.989C229.236 162.989 229.236 162.989 229.308 162.97C230.309 163.443 231.363 163.827 232.506 163.957C239.935 165.019 246.151 159.497 247.53 152.868C247.574 152.589 247.663 152.337 247.707 152.058C247.751 151.779 247.75 151.473 247.749 151.167C248.141 145.478 244.539 140.037 239.195 137.835C236.752 136.809 234.321 136.584 232.037 136.934C231.084 137.1 230.194 137.364 229.322 137.7C229.007 137.818 228.711 138.008 228.397 138.127C227.813 138.39 227.247 138.725 226.726 139.087C226.43 139.277 226.107 139.512 225.856 139.729C225.282 140.181 224.797 140.687 224.287 141.238C224.152 141.463 223.883 141.608 223.749 141.834C223.749 141.834 223.722 141.879 223.695 141.924C223.149 142.637 222.666 143.449 222.273 144.314C222.112 144.585 222.068 144.864 221.952 145.161C221.667 145.846 221.472 146.585 221.322 147.35C221.251 147.674 221.207 147.954 221.136 148.278C220.987 149.349 220.955 150.429 221.085 151.545C221.187 152.399 221.407 153.262 221.671 154.152C221.752 154.323 221.807 154.539 221.889 154.71C222.143 155.411 222.47 156.093 222.796 156.776C222.887 156.83 222.878 156.947 222.896 157.019C222.941 157.045 223.005 157.144 223.068 157.243C223.34 157.71 223.593 158.105 223.892 158.527L223.964 158.508Z" fill="#F7A4BC"/>
<path d="M257.534 194.97C257.554 195.654 257.629 196.248 257.792 196.589C257.992 197.074 258.191 197.56 258.517 197.936C258.689 198.161 258.887 198.34 259.131 198.546C259.221 198.6 259.311 198.653 259.402 198.707C259.241 198.978 259.08 199.248 258.919 199.519C258.392 200.61 258.135 201.862 258.446 203.084C258.683 204.019 259.209 204.881 259.886 205.59C260.302 206.02 260.97 206.54 261.655 206.825C260.877 208.133 260.549 209.709 260.789 211.256C260.963 212.092 261.371 212.946 261.878 213.736C261.304 214.188 260.271 214.795 258.48 214.522C255.616 214.101 252.759 208.127 251.9 202.182C251.725 201.039 251.956 200.139 252.25 199.337C253.123 197.048 255.404 195.779 256.977 195.188C257.147 195.107 257.318 195.025 257.462 194.989L257.534 194.97Z" fill="#F7A4BC"/>
<path d="M268.078 259.55C260.436 254.332 256.207 244.611 254.139 237.824C253.628 236.116 253.2 234.579 252.934 233.383C252.825 232.951 252.778 232.618 252.687 232.259C252.448 231.018 252.293 230.253 252.293 230.253C252.293 230.253 260.682 238.114 267.888 227.747C269.177 225.889 269.992 224.725 270.501 223.868C270.904 223.192 271.172 222.741 271.306 222.515C272.223 222.206 273.095 221.87 273.913 221.623C273.913 221.623 274.057 221.587 274.129 221.569C275.81 221.103 277.564 220.926 279.301 220.983C280.147 220.997 280.939 221.102 281.732 221.207C282.614 221.366 283.47 221.57 284.351 221.423C285.089 221.312 285.049 220.25 284.481 219.973C283.444 219.356 281.887 219.407 280.672 219.295C279.429 219.227 278.205 219.232 276.991 219.425C275.561 219.674 274.168 220.066 272.793 220.53C271.732 220.876 270.698 221.176 269.601 221.379C268.432 221.599 267.172 221.46 266.269 220.617C265.392 219.729 265.298 218.452 265.662 217.326C265.956 216.524 266.359 215.847 266.923 215.206C268.492 213.391 271.016 212.329 273.183 211.664C274.603 211.227 276.06 210.933 277.49 210.685C278.893 210.482 280.268 210.018 281.644 209.86C282.049 209.795 282.308 209.155 281.803 208.977C278.964 207.899 275.997 208.576 273.138 209.378C270.306 210.136 267.432 211.478 265.433 213.709C265.227 213.952 264.994 214.241 264.833 214.512C264.308 213.65 263.729 212.878 263.375 211.934C263.256 211.62 263.12 211.233 263.101 210.856C262.978 209.317 263.53 207.875 264.624 206.755C266.22 205.201 268.357 203.97 270.361 202.963C272.705 201.794 275.158 200.75 277.775 200.353C278.441 200.26 278.392 199.316 277.709 199.336C274.757 199.473 271.942 199.997 269.265 201.212C266.974 202.292 264.334 203.652 262.568 205.593C262.198 205.189 261.782 204.759 261.43 204.427C260.906 203.871 260.48 203.252 260.325 202.488C259.995 200.887 260.952 199.381 262.001 198.234C263.533 196.581 265.346 195.278 267.223 194.075C269.225 192.762 271.327 191.693 273.692 191.207C274.456 191.051 274.073 189.846 273.309 190.002C270.72 190.66 268.231 191.866 265.924 193.18C263.984 194.285 262.117 195.677 260.539 197.303C260.36 197.502 260.091 197.647 259.956 197.872C259.956 197.872 259.93 197.917 259.903 197.963C259.586 197.469 259.368 196.912 259.267 196.363C259.066 195.572 259.009 194.744 259.042 193.97C259.102 193.151 259.189 192.287 259.456 191.53C259.545 191.277 259.589 190.998 259.705 190.701C259.776 190.377 259.892 190.079 260.052 189.809C261.511 187.562 264.282 185.059 268.379 183.1C274.128 180.415 285.663 177.447 289.462 187.278C301.356 217.985 298.455 236.408 292.846 247.786C288.674 256.234 282.977 260.782 280.611 263.526C277.453 263.601 274.67 263.044 272.128 262.082C270.596 261.476 269.217 260.716 267.917 259.821L268.078 259.55Z" fill="#F7A4BC"/>
<path d="M137.024 399.99C137.633 399.069 138.421 397.951 139.342 396.606C139.584 396.2 139.871 395.821 140.184 395.397C140.452 394.946 140.811 394.549 141.079 394.098C147.775 384.588 158.728 370.283 164.304 369.327C167.712 368.729 169.4 372.358 170.343 376.828C170.912 379.669 171.13 382.791 171.239 385.481C171.267 385.742 171.25 385.976 171.278 386.237C169.314 392.823 167.323 399.454 165.377 406.112C165.225 406.571 165.119 407.057 164.968 407.517C164.817 407.977 164.684 408.508 164.532 408.968C164.213 410.121 163.848 411.247 163.528 412.4C163.377 412.86 163.271 413.346 163.12 413.805C162.941 414.31 162.835 414.796 162.702 415.328C160.623 422.517 158.616 429.688 156.788 436.66C156.549 437.678 150.132 461.703 146.502 470.473C143.906 476.683 142.289 477.553 141.768 477.609C141.696 477.627 141.624 477.645 141.579 477.618C138.814 477.134 135.227 463.459 134.02 439.112C134.009 438.617 134.143 438.391 135.716 437.8C136.417 437.546 137.316 437.165 137.979 436.46C138.185 436.216 138.301 435.919 138.444 435.576C138.533 435.324 138.558 434.973 138.584 434.622C138.053 424.842 137.554 414.287 137.038 403.661C137.009 403.094 136.98 402.528 136.951 401.961C136.921 401.394 136.892 400.827 136.863 400.26C136.863 400.26 136.89 400.215 136.917 400.17C136.917 400.17 136.971 400.08 136.997 400.035L137.024 399.99Z" fill="#F7A4BC"/>
<path d="M191.265 407.348C192.94 407.611 194.761 408.451 196.402 409.488C196.492 409.542 196.591 409.479 196.681 409.532C197.321 409.791 198.086 409.635 198.461 409.004C198.515 408.914 198.569 408.823 198.622 408.733C201.535 400.758 204.196 392.694 206.371 384.523C217.238 373.954 238.686 350.323 249.53 342.975C250.023 342.658 250.445 342.36 250.84 342.106C251.307 341.835 251.747 341.608 252.142 341.355C252.412 341.21 253.387 340.876 253.63 340.777C253.875 341.289 253.745 341.533 253.964 342.09C254.219 343.097 254.42 344.668 254.415 345.703C254.392 346.666 253.947 347.557 253.717 348.458C253.717 348.458 253.69 348.503 253.663 348.548C253.565 348.918 253.351 349.278 253.226 349.693C252.923 350.306 252.449 351.307 251.967 352.424C251.637 353.082 251.378 353.722 251.075 354.335L250.967 354.516L244.973 366.336C236.699 382.296 227.992 398.059 218.519 413.366C217.821 414.538 217.06 415.612 216.363 416.785C216.068 417.281 215.773 417.777 215.504 418.228C215.209 418.724 214.887 419.265 214.547 419.734C214.198 420.32 213.876 420.861 213.482 421.421C213.187 421.917 212.892 422.413 212.597 422.909C212.302 423.405 212.007 423.901 211.712 424.397C211.336 425.029 210.843 425.651 210.468 426.283C203.38 436.964 195.823 447.306 187.119 456.598C185.081 457.767 183.603 457.376 182.946 454.787C182.226 452.405 182.341 449.542 182.43 446.725C182.661 441.001 183.053 435.312 183.59 429.586C183.859 426.877 184.11 424.095 184.405 421.34C184.466 420.827 184.501 420.359 184.607 419.872C184.668 419.359 184.702 418.891 184.808 418.405C184.922 417.495 185.062 416.541 185.221 415.658C185.282 415.145 185.388 414.659 185.521 414.128C185.601 413.686 185.68 413.245 185.759 412.804L185.813 412.714C186.425 410.146 187.649 407.883 189.628 407.534C190.221 407.46 190.833 407.457 191.508 407.554L191.265 407.348Z" fill="#F7A4BC"/>
<path d="M80.2853 208.091C83.0505 206.317 86.1947 204.829 89.6729 203.602C90.5446 203.265 91.4077 203.046 92.2525 202.755C92.8816 202.519 93.5557 202.309 94.158 202.118C94.9041 201.89 95.5965 201.753 96.2707 201.543C97.4934 201.233 98.743 200.877 99.9389 200.612C100.586 200.447 101.18 200.373 101.774 200.299C104.157 199.885 105.903 199.825 106.992 200.045C107.686 200.214 108.165 200.743 108.581 201.479C108.745 201.821 109.007 202.099 109.161 202.557C109.599 203.977 109.864 205.173 109.958 206.145C110.06 206.999 110.171 207.737 110.3 208.546C111.159 214.492 111.824 219.223 112.305 222.623C112.85 226.428 113.275 229.306 113.606 231.212C113.937 233.119 114.202 234.315 114.402 234.8C114.438 234.944 114.484 234.971 114.502 235.043C114.583 235.213 114.647 235.312 114.683 235.456C114.728 235.483 114.783 235.699 114.802 235.771C115.7 235.389 116.572 235.053 117.497 234.627C118.153 234.345 118.854 234.091 119.537 233.764C125.215 231.403 130.949 229.258 136.693 227.608C141.934 226.085 147.23 224.779 152.671 223.742C155.081 223.283 157.198 223.932 158.958 225.284C160.113 226.216 161.135 227.373 161.699 228.991C162.654 231.696 163.493 234.698 164.144 238.017C164.51 239.761 164.778 241.569 164.974 243.395C164.992 243.467 164.984 243.584 165.002 243.656C165.058 244.178 165.069 244.673 165.125 245.195C165.18 245.716 165.191 246.211 165.247 246.733C165.276 247.3 165.332 247.822 165.361 248.388C165.401 249.45 165.279 250.477 165.229 251.485C165.168 251.998 165.134 252.466 165.072 252.979C165.011 253.492 164.86 253.952 164.799 254.465C164.657 255.113 164.588 255.744 164.401 256.365C164.011 257.843 162.999 259.133 161.678 259.813C161.436 259.913 161.041 260.167 160.502 260.456C156.711 262.414 145.608 267.837 131.408 272.822C130.635 273.095 129.862 273.367 129.089 273.64C128.945 273.677 128.802 273.713 128.676 273.822C128.604 273.84 128.55 273.93 128.569 274.002L128.605 274.146C128.706 274.695 128.852 275.27 128.953 275.819C129.182 276.871 129.366 277.896 129.622 278.903C129.695 279.191 129.768 279.478 129.814 279.811C130.298 284.129 130.97 288.131 131.741 292.07C132.071 293.671 132.329 295.289 132.685 296.845C133.857 302.06 134.821 307.213 135.479 312.367C135.48 312.673 135.347 313.205 135.107 313.917C134.724 314.971 134.133 315.963 133.416 316.758C133.309 316.938 133.111 317.065 132.914 317.192C132.537 317.517 132.232 317.824 131.765 318.096C131.298 318.367 130.805 318.684 130.248 318.902C129.178 319.365 128.091 319.756 126.958 320.12C125.394 320.594 123.812 320.996 122.094 321.317C119.045 321.824 116.032 322.168 112.99 322.251C109.967 322.406 102.863 321.416 102.037 319.52C101.774 318.936 101.583 318.334 101.392 317.732C100.882 316.33 100.427 314.838 100.097 313.237C99.5843 310.917 96.6572 298.185 96.4369 297.016C96.3541 296.539 96.3347 296.161 96.2251 295.73C95.9026 293.706 95.6531 291.97 95.4231 290.612C95.3586 290.207 95.3124 289.875 95.221 289.515C95.1383 289.038 95.0555 288.562 94.9459 288.13C94.8632 287.654 94.7536 287.222 94.7342 286.844C94.5869 285.963 94.4408 285.387 94.3494 285.028C94.3215 284.767 94.1862 284.686 94.0509 284.606C94.0509 284.606 94.0143 284.462 93.9424 284.48C93.7986 284.517 93.7266 284.535 93.5828 284.572C93.0256 284.79 91.804 285.406 90.1606 286.321C89.523 286.674 88.8134 287.046 88.1038 287.418C87.098 287.979 85.9483 288.578 84.7718 289.221C83.3259 290.009 81.8262 290.888 80.2815 291.739C79.6439 292.093 78.9794 292.491 78.2699 292.863C78.2162 292.953 78.0992 292.944 78.0004 293.008C77.4347 293.343 76.8239 293.651 76.2582 293.986C76.1326 294.095 75.9888 294.131 75.8632 294.24C75.1268 294.656 74.3904 295.073 73.6808 295.445C69.4149 297.791 65.6879 299.848 63.9811 300.664C61.8986 302.112 56.8319 294.823 53.6427 286.637C50.7715 279.25 49.4095 271.174 53.2319 268.136C53.2319 268.136 53.2587 268.091 53.2856 268.046C54.7658 266.789 63.8388 257.594 78.6157 252.77C79.8921 252.369 81.2404 251.95 82.607 251.603C83.0386 251.493 83.2081 251.106 83.3326 250.691C83.3948 250.484 83.457 250.277 83.3754 250.106C82.4375 247.167 81.5813 244.398 80.7702 241.657C76.94 228.082 75.3252 217.352 75.4394 214.184C75.4833 213.905 75.5456 213.697 75.5895 213.418C75.6335 213.139 75.7945 212.868 75.8835 212.616C76.5166 211.039 77.9688 209.522 80.3122 208.046L80.2853 208.091Z" fill="#F7A4BC"/>
<path d="M61.1308 196.571C74.8558 172.681 86.8703 172.808 94.1662 176.965C100.746 179.658 107.325 182.352 113.86 185.018C126.333 180.166 140.312 178.836 147.024 178.433C145.892 176.539 144.787 174.599 143.826 172.623C140.543 165.724 138.237 158.002 137.839 150.255C135.675 151.532 131.733 151.384 129.887 151.202C125.845 150.812 122.778 148.682 120.551 145.343C117.438 140.62 116.379 134.19 117.321 128.4C117.8 124.105 119.509 119.078 124.612 116.863C126.193 116.155 127.633 116.096 129.884 116.519C129.884 116.519 124.766 109.933 137.89 83.975C150.298 59.4238 162.829 55.7055 171.217 65.5195C171.973 62.9159 178.08 45.0566 205.374 54.7013C234.778 65.112 243.239 82.6022 253.351 76.895C263.957 70.871 251.319 67.6873 245.297 67.3407C244.595 67.2893 244.358 66.3543 244.95 65.9741C248.137 63.9014 253.847 60.1545 257.474 57.8552C285.422 39.9237 280.76 95.5835 257.843 111.013C256.011 112.243 253.945 113.151 251.77 113.933C251.992 117.973 252.124 121.959 252.085 126.027C252.238 128.438 252.329 131.056 252.294 133.783C255.957 136.451 258.242 138.666 259.426 139.858C260.103 140.567 260.512 141.42 260.65 142.419C262.538 156.486 259.437 169.601 251.544 181.329C250.04 183.549 247.154 184.396 244.712 183.371C243.775 182.996 242.819 182.55 241.863 182.103C241.239 183.563 240.713 184.96 239.972 186.412C236.025 194.688 225.923 203.149 213.663 207.334C217.503 208.886 222.239 212.009 228.383 216.153C234.753 220.431 241.817 225.183 248.966 228.765C249.218 228.548 249.541 228.313 249.837 228.123C251.283 227.335 253.102 227.562 254.339 228.664C254.339 228.664 256.704 230.743 259.241 230.482C260.689 230.305 262.099 229.373 263.496 227.64C261.54 226.72 260.22 225.141 259.493 223.182C259.075 222.14 258.9 220.998 258.913 219.846C258.418 219.857 257.905 219.795 257.437 219.761C251.269 218.839 248.355 209.473 247.597 204.076C246.951 199.723 249.186 195.863 253.398 193.606C253.664 192.543 254.074 191.444 254.646 190.38C254.646 190.38 255.558 188.847 257.021 187.824C259.108 185.036 262.374 182.522 266.345 180.671C268.878 179.492 277.639 175.851 284.931 178.784C288.518 180.247 291.255 183.035 292.709 186.954C312.263 237.421 293.293 256.786 285.135 265.06C284.372 265.827 283.709 266.532 283.171 267.128C282.473 267.994 281.403 268.457 280.315 268.542C277.201 268.644 274.131 268.16 271.284 267.199C263.566 268.164 251.409 268.38 233.625 265.737C231.833 265.465 229.906 265.112 227.997 264.831C254.439 325.685 321.613 367.848 322.38 368.305L323.732 369.109L322.882 370.436C317.119 379.096 310.137 386.727 302.08 393.29C280.188 413.359 249.362 424.633 215.092 424.454C213.312 427.242 211.486 430.002 209.615 432.736C202.394 443.643 194.889 453.588 187.663 461.012C187.493 461.094 183.452 463.575 180.043 461.608C177.428 460.051 176.172 456.312 176.403 450.588C176.803 439.652 178.442 427.866 179.701 420.311C174.981 419.213 170.395 417.889 165.845 416.403C163.793 423.547 161.768 430.646 159.966 437.573C159.283 440.159 153.186 463.03 149.511 471.773C148.538 474.126 147.235 476.83 145.595 478.663C143.884 480.821 141.783 482.196 139.18 481.747C138.694 481.641 138.019 481.544 137.252 481.088C134.141 479.237 129.181 471.768 127.537 438.612C127.351 434.716 130.352 433.265 132.023 432.611C131.471 422.146 130.926 410.953 130.407 399.715C115.154 390.152 101.448 378.09 89.993 363.887C84.01 364.296 78.0538 364.66 71.9989 365.087L70.1996 365.238L69.1053 363.793C62.4129 354.927 55.7473 346.015 49.0634 337.032C28.8279 309.056 28.0015 294.949 33.7547 273.887L33.8449 273.941C34.2006 270.367 36.1797 262.935 41.3101 246.204C45.7023 231.843 52.7815 211.631 61.3026 196.796L61.1308 196.571ZM298.68 354.876C275.862 336.782 241.239 304.46 224.287 264.089C222.477 263.745 220.576 263.347 218.676 262.949C218.073 262.834 217.469 262.719 216.866 262.605C216.542 262.534 216.217 262.463 215.893 262.392C215.859 262.86 215.825 263.329 215.79 263.797C215.279 271.43 214.227 279.047 212.599 286.505C212.024 289.216 211.423 291.972 210.614 294.665C209.876 297.035 209.057 299.54 207.534 301.381C219.651 304.927 231.057 310.797 240.556 319.257C247.392 325.522 252.953 332.8 256.631 341.704C257.252 344.15 257.253 346.715 256.578 349.183C255.876 351.696 254.632 353.582 253.731 355.61L247.602 367.656C239.301 383.66 230.568 399.469 221.041 414.866C220.665 415.497 220.263 416.174 219.842 416.778C250.702 417.248 278.737 408.1 299.688 391.256C306.336 385.931 312.199 379.772 317.285 372.967C318.019 371.939 318.817 371.009 319.506 369.953C316.52 367.993 308.761 362.767 298.661 354.804L298.68 354.876ZM141.604 477.571C141.604 477.571 141.649 477.598 141.793 477.562C142.296 477.434 143.931 476.636 146.527 470.426C150.175 461.728 156.547 437.676 156.813 436.613C158.641 429.641 160.693 422.497 162.727 415.281C162.905 414.776 163.012 414.29 163.145 413.758C163.296 413.299 163.402 412.812 163.553 412.353C163.873 411.2 164.238 410.074 164.557 408.92C164.709 408.461 164.842 407.929 164.993 407.47C165.144 407.01 165.251 406.524 165.402 406.065C167.348 399.407 169.339 392.776 171.303 386.19C171.552 385.361 171.774 384.578 172.023 383.749C175.703 371.406 179.223 359.64 182.216 348.965C182.126 348.911 182.081 348.884 181.991 348.83C180.945 348.33 179.944 347.857 178.943 347.384C169.513 342.811 162.065 338.807 159.17 337.207C152.665 344.755 144.503 352.111 135.044 356.924C135.044 356.924 134.946 356.988 134.901 356.961C135.335 367.417 135.865 379.15 136.468 391.17C136.47 391.782 136.517 392.421 136.546 392.988C136.576 393.555 136.605 394.122 136.607 394.734C136.667 396.479 136.755 398.18 136.86 399.952C136.86 399.952 136.834 399.997 136.852 400.069C136.881 400.636 136.91 401.203 136.939 401.77C136.968 402.337 136.997 402.903 137.026 403.47C137.516 414.142 138.033 424.768 138.582 434.62C138.583 434.926 138.521 435.133 138.432 435.386C138.316 435.683 138.173 436.025 137.967 436.269C137.349 437 136.406 437.355 135.705 437.61C134.087 438.173 133.953 438.399 134.009 438.921C135.215 463.268 138.803 476.943 141.567 477.427L141.604 477.571ZM129.692 386.651C130.856 387.466 131.975 388.253 133.166 389.023C133.166 389.023 133.166 389.023 133.211 389.05C132.721 378.378 132.26 367.968 131.82 358.547C130.751 359.01 129.663 359.401 128.504 359.811C126.742 360.411 125.026 361.038 123.182 361.468L122.661 361.524C116.326 361.908 109.867 362.4 103.506 362.828C111.395 371.735 120.154 379.694 129.719 386.606L129.692 386.651ZM195.097 405.414C197.531 399.169 205.316 377.667 206.067 359.369C198.947 356.66 191.718 353.519 185.119 350.448C182.135 361.006 178.722 372.592 175.033 384.745C172.819 392.16 170.571 399.737 168.376 407.223C172.593 408.756 176.891 410.152 181.251 411.342C181.908 408.802 183.12 405.738 186.04 404.422C187.864 403.614 190.069 403.705 192.592 404.596C193.493 404.826 194.322 405.075 195.142 405.441L195.097 405.414ZM46.9263 323.793C49.6657 327.194 52.4051 330.594 55.0995 333.968C60.5783 340.769 66.0755 347.642 71.5543 354.443C75.0627 354.088 78.6162 353.76 82.1697 353.431C82.7366 353.402 83.3302 353.328 83.852 353.272C84.4456 353.198 85.0125 353.169 85.6062 353.095C87.5493 352.907 89.4205 352.739 91.3637 352.551C91.9574 352.477 92.5242 352.448 93.1179 352.374C93.7116 352.3 94.3503 352.252 94.9172 352.223C102.429 351.502 109.959 350.853 117.372 350.196C121.024 349.804 124.522 348.954 128 347.726C129.087 347.335 130.202 346.899 131.316 346.463C131.828 346.218 132.34 345.973 132.852 345.729C133.364 345.484 133.921 345.266 134.388 344.994C134.388 344.994 134.487 344.931 134.532 344.957C141.574 341.331 148.231 335.889 154.576 328.612C154.602 328.567 154.656 328.477 154.683 328.432C154.683 328.432 154.683 328.432 154.71 328.387C157.487 325.155 160.255 321.733 162.941 317.836L167.401 309.621L171.888 301.361L172.8 299.828L173.577 298.214L174.489 296.681L174.444 296.654L183.364 280.224L194.841 259.087L195.645 257.734L196.36 256.327L198.076 253.135L198.881 251.782L199.596 250.376L199.676 250.241C201.097 247.545 201.915 244.734 202.426 241.924C203.149 237.836 202.972 233.823 201.662 230.174C200.644 227.37 199.006 224.991 196.975 223.172C196.244 222.554 195.485 221.981 194.674 221.498C193.997 221.095 193.294 220.738 192.564 220.426C167.246 209.82 141.459 199.179 115.763 188.593C115.33 188.396 114.825 188.218 114.393 188.022C113.708 187.737 113.068 187.478 112.383 187.193C111.743 186.934 111.058 186.648 110.418 186.39C104.731 184.044 99.0434 181.699 93.3561 179.353C91.5266 178.631 89.7347 178.358 88.0159 178.374C78.198 178.455 69.8145 189.16 65.2962 196.241C52.6547 216.257 39.3347 266.766 37.7203 273.071L37.5519 273.765C31.656 295.169 34.0517 307.768 46.908 323.721L46.9263 323.793ZM123.273 119.729C122.717 120.254 122.206 120.804 121.687 121.472C121.687 121.472 121.687 121.472 121.66 121.517C120.765 122.817 119.989 124.736 119.259 126.989C118.921 128.07 118.602 129.223 118.3 130.448C117.626 135.481 118.474 140.932 121.783 144.915C127.252 151.527 133.601 150.298 137.741 148.059C137.74 147.753 137.784 147.474 137.756 147.213C137.795 145.71 137.907 144.189 138.063 142.695C138.15 141.83 138.237 140.966 138.441 140.11C138.599 139.228 139.977 139.376 139.863 140.285C139.511 142.518 139.466 144.75 139.465 147.009C139.626 156.386 142.612 165.734 147.223 173.789C148.102 175.289 149.025 176.815 149.976 178.296C150.419 178.988 150.935 179.661 151.423 180.379C153.233 182.982 155.24 185.458 157.372 187.826C162.686 193.674 168.878 198.762 175.794 202.327C182.304 205.651 189.655 207.765 197.007 207.621C197.925 207.618 198.878 207.452 199.805 207.332C200.443 207.284 201.082 207.237 201.676 207.163C204.149 206.803 206.631 206.325 209.022 205.489C211.916 204.524 217.433 202.127 221.888 199.771C227.552 195.997 232.339 191.03 235.963 185.248C236.947 183.696 237.841 182.091 238.689 180.459C238.877 180.143 239.065 179.828 239.253 179.512C239.441 179.196 239.538 178.827 239.726 178.511C240.003 177.943 240.235 177.349 240.512 176.781C235.269 172.868 228.788 170.111 223.715 168.375C222.543 167.983 221.417 167.618 220.426 167.334C219.345 166.996 218.354 166.712 217.543 166.535C217.057 166.429 216.643 166.304 216.318 166.234C215.405 167.461 214.221 168.527 212.864 169.063C209.648 170.569 206.174 170.456 203.005 170.036C202.608 169.983 202.328 169.633 202.381 169.237C202.388 168.814 202.81 168.516 203.161 168.541C206.212 168.647 209.361 168.383 211.903 167.087C214.418 165.836 216.019 163.247 215.577 160.603C215.208 157.94 212.905 155.96 210.281 156.78C209.516 156.936 208.743 157.208 208.016 157.508C206.946 157.971 205.887 158.623 204.918 159.329C204.146 159.907 203.419 160.513 202.783 161.172C202.783 161.172 202.846 161.271 202.819 161.316C202.775 161.595 202.578 161.722 202.398 161.921C202.04 162.318 201.6 162.545 201.042 162.457C198.889 161.97 196.755 161.555 194.593 161.185C192.307 160.923 189.993 160.707 187.751 160.472C181.63 159.883 175.544 159.438 169.415 159.272C168.074 159.268 166.688 159.237 165.393 159.26L163.341 159.321C162.495 159.306 161.684 159.129 160.936 158.745C160.188 158.361 159.52 157.842 159.004 157.169L157.819 155.364C157.085 154.134 156.424 152.885 155.933 151.555C153.78 146.245 153.668 140.378 154.728 134.902C155.814 129.382 157.955 124.244 160.664 119.383C161.361 118.211 162.086 116.993 162.783 115.821C163.337 114.685 164.763 113.519 166.04 113.118C166.184 113.081 166.309 112.973 166.426 112.981C169.177 112.053 171.993 111.836 174.773 111.781C179.507 111.727 184.17 112.304 188.745 113.132C190.744 113.467 192.69 113.892 194.68 114.343C198.436 115.112 202.129 116.088 205.769 117.155C207.498 117.634 209.156 118.132 210.859 118.657C211.111 118.746 211.211 118.988 211.194 119.222C211.105 119.475 210.88 119.647 210.628 119.557C209.358 119.229 208.133 118.928 206.863 118.6C206.863 118.6 206.863 118.6 206.818 118.573C205.106 118.165 203.377 117.686 201.639 117.323C194.073 115.569 186.454 114.212 178.75 114.025C176.095 113.971 173.405 114.08 170.851 114.576C168.188 114.946 166.628 116.337 165.206 118.728C162.297 123.103 159.876 127.891 158.491 132.989C158.491 132.989 158.438 133.08 158.411 133.125C156.981 138.197 156.722 143.66 158.217 148.64C158.572 149.89 159.027 151.076 159.598 152.271C159.934 153.142 160.405 153.789 160.929 154.345C161.191 154.623 161.408 154.874 161.696 155.107C162.635 155.787 163.779 156.224 164.95 156.309L168.991 156.393C179.88 156.461 190.863 157.5 201.625 159.629C201.76 159.709 201.85 159.763 201.986 159.843C202.013 159.798 202.039 159.753 202.093 159.663C203.445 157.903 205.15 156.475 207.126 155.514C207.908 155.124 208.779 154.788 209.597 154.542C211.287 153.959 213.574 154.221 215.108 155.439C215.199 155.493 215.262 155.591 215.397 155.672C216.841 156.836 217.658 158.543 217.862 160.252C218.11 161.682 217.773 163.069 217.229 164.394C217.365 164.475 217.554 164.465 217.716 164.5C218.04 164.571 218.409 164.669 218.824 164.793C223.715 166.116 233.554 169.283 241.216 174.879C241.306 174.933 241.396 174.987 241.486 175.04C241.955 175.38 242.398 175.766 242.867 176.106C243.201 176.366 243.508 176.671 243.797 176.903C244.131 177.163 244.393 177.441 244.7 177.746C246.885 179.718 248.42 178.677 249.994 176.133C254.101 169.54 258.437 159.48 256.416 143.685C256.278 142.687 255.806 141.735 255.128 141.026C254.496 140.345 253.367 139.368 252.059 138.284C251.878 138.177 251.725 138.024 251.526 137.845C251.192 137.585 250.993 137.406 250.614 137.119C250.145 136.779 249.541 136.358 249.053 135.946C249.096 135.361 249.139 134.776 249.155 134.236C249.154 133.93 249.197 133.651 249.196 133.345C249.205 133.228 249.168 133.084 249.177 132.967C249.184 132.544 249.147 132.094 249.154 131.671C249.286 126.01 249.085 120.395 248.722 114.745C228.682 119.796 197.852 108.293 179.149 85.7473C178.394 90.9157 175.925 99.5822 167.419 106.489C154.49 116.932 146.319 134.052 146.812 138.252L142.639 143.829C142.62 143.452 142.528 143.092 142.464 142.687C142.205 140.762 141.828 138.829 141.218 136.878C140.671 135.027 139.954 133.256 139.21 131.531C135.216 122.439 128.557 115.363 123.344 119.405C123.29 119.495 123.164 119.604 123.066 119.667L123.273 119.729ZM167.929 67.0436C165.825 64.9366 162.745 62.0053 156.004 66.665C149.308 71.3515 147.343 75.3725 147.343 75.3725C147.343 75.3725 154.297 67.4813 164.435 68.8115C164.435 68.8115 159.846 68.8285 156.953 72.664C156.953 72.664 163.703 67.8872 170.966 70.56C171.146 70.6673 171.381 70.6845 171.633 70.7735C171.633 70.7735 171.326 70.4687 170.91 70.0383C170.034 69.1506 168.589 67.6801 167.929 67.0436ZM202.42 58.744C195.725 56.654 191.913 57.6221 191.913 57.6221C199.39 59.6281 204.272 65.5855 204.272 65.5855C192.945 59.2742 184.465 63.2654 184.465 63.2654C184.465 63.2654 189.532 63.4715 200.796 67.4253C212.06 71.3791 222.563 76.4066 222.563 76.4066L213.667 68.0613L232.789 77.1785C216.241 60.8614 202.348 58.7622 202.348 58.7622L202.42 58.744ZM252.322 199.316C252.001 200.163 251.77 201.064 251.972 202.161C252.831 208.106 255.688 214.08 258.552 214.502C260.343 214.774 261.349 214.212 261.95 213.715C261.417 212.97 261.035 212.071 260.861 211.235C260.621 209.688 260.949 208.112 261.727 206.804C261.042 206.519 260.374 205.999 259.958 205.569C259.281 204.861 258.755 203.999 258.518 203.064C258.162 201.814 258.464 200.589 258.991 199.498C259.152 199.228 259.313 198.957 259.474 198.686C259.383 198.633 259.293 198.579 259.203 198.525C258.978 198.391 258.761 198.14 258.589 197.916C258.29 197.494 258.064 197.054 257.864 196.569C257.746 196.254 257.626 195.633 257.606 194.95C257.462 194.986 257.291 195.068 257.121 195.149C255.548 195.74 253.312 197.035 252.393 199.298L252.322 199.316ZM289.551 187.028C285.753 177.197 274.218 180.165 268.468 182.85C264.372 184.809 261.6 187.312 260.142 189.559C259.981 189.829 259.865 190.127 259.794 190.451C259.705 190.703 259.634 191.027 259.545 191.28C259.296 192.109 259.191 192.901 259.131 193.72C259.071 194.539 259.155 195.322 259.356 196.113C259.502 196.688 259.72 197.246 259.992 197.713C259.992 197.713 260.019 197.667 260.046 197.622C260.18 197.397 260.449 197.252 260.628 197.053C262.161 195.401 264.073 194.035 266.013 192.93C268.321 191.616 270.809 190.41 273.398 189.752C274.189 189.551 274.572 190.756 273.781 190.957C271.434 191.514 269.359 192.539 267.312 193.825C265.436 195.028 263.596 196.376 262.09 197.984C261.041 199.13 260.084 200.637 260.414 202.238C260.57 203.002 260.995 203.621 261.519 204.177C261.844 204.554 262.287 204.939 262.657 205.343C264.396 203.447 267.063 202.042 269.354 200.962C272.058 199.701 274.873 199.178 277.798 199.086C278.482 199.066 278.458 200.029 277.864 200.103C275.247 200.5 272.794 201.544 270.45 202.713C268.447 203.72 266.309 204.951 264.713 206.505C263.601 207.553 263.067 209.067 263.19 210.606C263.209 210.983 263.346 211.37 263.464 211.684C263.818 212.628 264.37 213.445 264.922 214.262C265.083 213.991 265.316 213.702 265.522 213.459C267.494 211.274 270.414 209.958 273.227 209.128C276.059 208.371 279.053 207.649 281.892 208.727C282.397 208.905 282.111 209.59 281.733 209.61C280.357 209.768 278.937 210.205 277.579 210.435C276.104 210.657 274.692 210.977 273.272 211.414C271.106 212.079 268.581 213.141 267.013 214.956C266.475 215.552 266.046 216.273 265.752 217.076C265.387 218.202 265.455 219.524 266.358 220.367C267.234 221.255 268.494 221.394 269.69 221.129C270.787 220.926 271.848 220.581 272.882 220.28C274.257 219.816 275.65 219.423 277.08 219.175C278.295 218.982 279.545 218.932 280.761 219.045C281.976 219.157 283.506 219.151 284.57 219.723C285.111 220.045 285.178 221.062 284.44 221.173C283.559 221.32 282.703 221.116 281.821 220.957C280.983 220.826 280.191 220.721 279.39 220.732C277.653 220.676 275.872 220.899 274.218 221.319C274.218 221.319 274.074 221.355 274.002 221.373C273.184 221.619 272.267 221.929 271.395 222.265C271.261 222.491 270.993 222.942 270.59 223.618C270.081 224.475 269.266 225.639 267.977 227.497C260.726 237.838 252.382 230.003 252.382 230.003C252.382 230.003 252.511 230.813 252.776 232.009C252.867 232.368 252.914 232.701 253.023 233.133C252.726 233.017 252.383 232.874 252.068 232.686C234.889 225.641 217.015 210.732 208.997 208.404C207.754 208.031 206.655 207.927 205.901 208.272C205.856 208.245 205.81 208.218 205.765 208.191C205.478 208.264 205.145 208.311 204.857 208.384C204.957 208.626 205.03 208.914 205.13 209.157C205.703 210.657 206.275 212.158 206.803 213.632C207.594 215.996 208.269 218.351 208.962 220.778C209.017 220.994 208.891 221.103 208.72 221.184C208.478 221.284 208.172 221.285 208.099 220.998C207.444 219.02 206.716 217.061 205.917 215.12C205.426 213.79 204.791 212.497 204.229 211.185C203.965 210.601 203.729 209.972 203.466 209.388C203.366 209.145 203.266 208.903 203.139 208.705C202.663 208.788 202.204 208.943 201.755 208.98C201.161 209.054 200.549 209.057 199.955 209.131C198.174 209.354 196.375 209.504 194.611 209.493C194.116 209.504 193.63 209.397 193.162 209.363C178.202 208.645 164.995 200.055 155.208 189.103C152.949 186.538 150.815 183.864 148.951 181.045C148.951 181.045 148.861 180.991 148.888 180.946C148.888 180.946 148.888 180.946 148.842 180.919C148.842 180.919 140.131 180.988 129.881 183.438C126.384 184.288 122.77 185.435 119.203 186.915C145.314 197.626 171.281 208.374 196.716 218.988C201.673 221.022 205.487 225.183 207.604 230.656C207.94 231.527 208.159 232.391 208.423 233.28L209.262 238.542C209.328 239.253 209.348 239.937 209.342 240.665C209.345 241.583 209.304 242.474 209.262 243.366C209.065 246.057 208.508 248.84 207.673 251.579C207.521 252.038 207.343 252.543 207.192 253.002C207.041 253.462 206.863 253.967 206.711 254.426C206.31 255.409 205.909 256.391 205.462 257.347C205.462 257.347 205.435 257.392 205.409 257.437L204.657 258.699L203.943 260.106L191.724 282.389L183.875 296.709L183.553 297.25L183.142 298.043L183.008 298.269L182.114 299.874L174.32 314.104L167.562 326.386C166.327 328.154 164.966 330.031 163.515 331.855C163.515 331.855 163.515 331.855 163.488 331.9L163.434 331.99C163.381 332.08 163.3 332.215 163.247 332.306C166.186 333.932 172.643 337.346 180.82 341.356C181.82 341.83 182.866 342.33 183.912 342.83C184.002 342.883 184.047 342.91 184.138 342.964C184.588 343.232 185.093 343.41 185.571 343.634C186.022 343.902 186.526 344.08 186.959 344.276C193.008 347.143 199.688 350.079 206.294 352.727C206.799 352.905 207.276 353.128 207.826 353.333C208.259 353.529 208.673 353.654 209.133 353.805C209.168 353.643 209.132 353.499 209.167 353.337C209.193 352.986 209.218 352.635 209.271 352.239C209.462 350.276 209.671 348.386 209.834 346.468C209.833 346.162 210.066 345.873 210.399 345.827C210.804 345.763 211.138 346.022 211.229 346.382C212.185 351.652 211.881 357.089 211.144 362.329C210.453 367.596 209.366 372.811 208.188 377.972C207.709 380.007 207.159 382.061 206.636 384.07C204.461 392.24 201.8 400.305 198.887 408.28C198.834 408.37 198.78 408.46 198.726 408.55C198.351 409.182 197.613 409.292 196.946 409.079C196.856 409.025 196.757 409.089 196.667 409.035C194.999 408.042 193.205 407.158 191.53 406.894C190.854 406.798 190.269 406.755 189.649 406.874C187.67 407.224 186.419 409.532 185.834 412.054L185.781 412.144C185.701 412.585 185.622 413.027 185.543 413.468C185.437 413.954 185.375 414.468 185.242 414.999C185.084 415.882 184.943 416.836 184.83 417.745C184.769 418.259 184.689 418.7 184.628 419.213C184.567 419.726 184.488 420.167 184.427 420.681C184.131 423.435 183.88 426.217 183.611 428.927C183.102 434.607 182.727 440.368 182.451 446.066C182.363 448.883 182.202 451.718 182.967 454.127C183.625 456.717 185.147 457.134 187.141 455.939C195.844 446.646 203.446 436.332 210.489 425.623C210.865 424.992 211.357 424.369 211.733 423.738C212.028 423.242 212.323 422.746 212.618 422.25C212.913 421.754 213.208 421.257 213.504 420.761C213.852 420.175 214.174 419.634 214.568 419.075C214.863 418.579 215.185 418.037 215.526 417.568C215.821 417.072 216.116 416.576 216.384 416.125C217.082 414.953 217.843 413.879 218.54 412.706C227.942 397.418 236.693 381.681 244.994 365.677L250.989 353.856L251.096 353.676C251.828 352.035 252.668 350.52 253.274 348.988C253.444 348.601 253.613 348.213 253.711 347.844C253.711 347.844 253.738 347.799 253.765 347.754C254.022 346.808 254.163 345.853 254.159 344.935C254.164 343.9 254.052 342.857 253.797 341.85C253.552 341.338 253.262 340.799 253.017 340.287C249.724 333.199 244.586 326.234 238.582 320.83C229.507 312.684 218.417 307.001 206.624 303.527C201.327 301.962 195.977 300.794 190.566 300.139L190.475 300.086L190.449 300.131C189.773 300.034 189.321 299.46 189.229 298.795C189.256 298.749 189.165 298.696 189.174 298.579C189.174 298.579 189.111 298.48 189.137 298.435C189.19 298.039 189.378 297.723 189.674 297.533C189.952 297.271 190.365 297.089 190.807 297.169C192.346 297.352 193.877 297.652 195.39 297.881C198.74 298.408 202.072 299.17 205.351 300.022C205.558 300.084 205.765 300.146 205.973 300.208C206.026 300.118 205.963 300.019 205.99 299.974C207.05 297.063 208.309 294.332 209.053 291.233C209.843 288.162 210.497 285.01 211.079 281.876C212.377 275.076 213.26 268.153 213.675 261.195C213.675 261.195 213.702 261.15 213.729 261.104C213.764 260.942 213.727 260.799 213.763 260.636C213.762 260.33 213.787 259.979 213.786 259.673C213.82 259.205 213.836 258.665 213.826 258.17C213.826 258.17 213.826 258.17 213.852 258.125C213.894 257.234 213.891 256.316 213.932 255.425C213.94 255.002 213.974 254.534 213.982 254.111C214.008 254.066 213.99 253.994 213.972 253.922C213.961 253.427 214.022 252.914 214.011 252.419C214.044 251.645 214.051 250.916 214.039 250.115C214.056 249.881 214.001 249.665 214.018 249.431C214.009 246.984 213.928 244.554 213.802 242.098C213.745 241.27 213.715 240.397 213.657 239.569C213.458 236.825 213.187 234.1 212.889 231.419C212.834 231.203 212.852 230.969 212.797 230.753C212.378 227.146 211.816 223.576 211.128 220.113C210.982 219.538 211.827 219.247 211.973 219.822C214.695 230.539 216.193 241.261 216.253 252.654C216.226 252.699 216.218 252.816 216.236 252.888C216.247 253.383 216.186 253.896 216.196 254.391C216.216 254.769 216.163 255.165 216.183 255.543C216.183 255.543 216.129 255.633 216.174 255.66C216.147 255.705 216.184 255.849 216.157 255.894C216.157 255.894 216.13 255.939 216.103 255.984C216.103 255.984 216.194 256.038 216.239 256.065C216.239 256.065 216.284 256.091 216.329 256.118C216.419 256.172 216.581 256.207 216.698 256.216C218.13 256.579 219.959 256.996 221.904 257.42C222.481 257.58 223.039 257.668 223.642 257.783C224.246 257.898 224.822 258.057 225.426 258.172C227.416 258.624 229.271 258.995 230.614 259.305C250.604 262.65 263.868 262.421 272.26 261.247C274.775 262.254 277.558 262.811 280.743 262.691C283.064 259.92 288.761 255.372 292.977 246.951C298.632 235.6 301.488 217.15 289.594 186.443L289.551 187.028Z" fill="#221E1F"/>
</svg>
