<svg width="177" height="181" viewBox="0 0 177 181" fill="none" xmlns="http://www.w3.org/2000/svg">
<path d="M148.143 181C147.754 181 147.452 180.698 147.365 180.353L143.262 163.618C142.787 161.72 141.362 160.125 139.548 159.348L123.524 153.008C123.178 152.879 122.962 152.534 123.005 152.145C123.049 151.757 123.308 151.455 123.653 151.369L140.412 147.272C142.312 146.797 143.91 145.374 144.687 143.562L151.037 127.561C151.166 127.216 151.469 127 151.814 127C151.814 127 151.814 127 151.857 127C152.246 127 152.548 127.302 152.635 127.647L156.738 144.382C157.213 146.28 158.638 147.875 160.452 148.652L176.476 154.992C176.822 155.121 177.038 155.466 176.995 155.855C176.951 156.243 176.692 156.545 176.347 156.631L159.588 160.728C157.688 161.203 156.09 162.626 155.313 164.438L148.963 180.439C148.834 180.784 148.531 181 148.186 181C148.186 181 148.186 181 148.143 181Z" fill="#E3F7FF"/>
<path d="M82.4124 177C81.1383 177 80.1473 176.01 79.8641 174.879L66.4149 120.026C64.8576 113.806 60.1857 108.575 54.2398 106.03L1.71681 85.2484C0.584236 84.8243 -0.123621 83.6933 0.0179502 82.4209C0.159521 81.1486 1.00895 80.1589 2.14152 79.8762L57.0712 66.4457C63.3003 64.8906 68.5385 60.2252 71.0867 54.2875L91.8977 1.83786C92.3224 0.706869 93.3134 0 94.446 0C94.446 0 94.446 0 94.5876 0C95.8617 0 96.8527 0.989618 97.1358 2.12061L110.585 56.9736C112.142 63.1941 116.814 68.4249 122.76 70.9697L175.283 91.7516C176.416 92.1757 177.124 93.3067 176.982 94.5791C176.84 95.8514 175.991 96.8411 174.859 97.1238L119.929 110.554C113.7 112.109 108.462 116.775 105.913 122.712L85.1023 175.162C84.6776 176.293 83.6866 177 82.554 177C82.554 177 82.554 177 82.4124 177Z" fill="#E3F7FF"/>
</svg>
