<svg width="358" height="306" viewBox="0 0 358 306" fill="none" xmlns="http://www.w3.org/2000/svg">
<path d="M188.8 499.197C184.815 498.525 182.237 494.906 181.949 491.218L168.837 312.528C167.25 292.247 155.397 273.418 138.141 262.318L-15.1881 169.578C-18.5071 167.654 -20.1243 163.742 -19.0096 159.837C-17.895 155.931 -14.7154 153.284 -11.0232 152.997L167.897 139.985C188.204 138.409 207.053 126.581 218.159 109.352L310.951 -43.7323C312.877 -47.046 316.35 -48.734 319.893 -48.1361C319.893 -48.1361 319.893 -48.1361 320.336 -48.0613C324.321 -47.3886 326.899 -43.7697 327.188 -40.0823L340.299 138.608C341.886 158.889 353.739 177.719 370.995 188.818L524.324 281.558C527.643 283.483 529.26 287.394 528.146 291.3C527.031 295.205 523.852 297.852 520.159 298.139L341.239 311.151C320.932 312.727 302.083 324.555 290.977 341.784L198.185 494.868C196.259 498.182 192.786 499.87 189.243 499.272C189.243 499.272 189.243 499.272 188.8 499.197Z" fill="#E3F7FF"/>
</svg>
