<svg width="171" height="171" viewBox="0 0 171 171" fill="none" xmlns="http://www.w3.org/2000/svg">
<g clip-path="url(#clip0_1954_2323)">
<path d="M88.6691 155.175C80.4886 155.158 75.5856 157.902 73.9602 163.405C72.4482 168.517 67.4368 171.401 62.4403 170.024C57.3938 168.632 54.5652 163.721 55.8669 158.514C56.1472 157.393 56.6479 156.326 57.0384 155.23C58.1098 152.211 57.3488 149.578 54.5001 148.251C46.4147 144.491 39.7812 138.909 33.7134 132.506C30.7546 129.387 27.5755 129.321 24.2112 132.115C22.2887 133.712 20.4864 135.384 17.8279 135.795C13.2971 136.496 8.87643 133.937 7.37449 129.577C5.88758 125.251 7.83509 120.445 11.9554 118.337C13.3622 117.621 14.8691 117.091 16.2159 116.28C19.3599 114.387 20.6766 110.963 19.5702 107.453C15.2396 93.7157 15.53 80.0831 20.2611 66.4957C21.8031 62.07 20.4563 59.4666 15.9455 58.1199C12.1857 56.9984 10.3784 54.365 9.89774 50.6803C9.4021 46.8854 10.6187 43.6963 13.9379 41.6587C17.1471 39.6862 20.4413 39.9165 23.5653 42.0342C24.3213 42.5448 25.0072 43.1656 25.7331 43.7264C28.9372 46.2045 31.9862 46.0443 34.8498 43.1406C42.1993 35.681 50.7503 30.0337 60.4077 26.0236C65.4843 23.9159 66.5706 21.7331 65.3341 16.2911C63.9623 10.2483 66.7309 5.0566 72.0928 3.62476C77.5298 2.17289 83.1119 5.19678 84.8442 10.5336C85.3949 12.2308 85.3698 13.9731 85.2998 15.7303C85.1245 20.0859 87.067 22.1586 91.3525 22.6142C112.895 24.8971 129.767 34.8399 141.407 53.2937C141.807 53.9295 142.188 54.5753 142.583 55.2111C145.242 59.4866 148.676 60.568 153.217 58.3552C155.815 57.0885 158.399 56.653 161.182 57.5091C165.878 58.961 168.672 63.2014 168.246 68.2679C167.836 73.1192 164.326 76.844 159.535 77.4998C153.843 78.2808 151.87 80.5287 151.685 86.3862C151.34 97.3854 149.482 108.049 144.896 118.157C143.019 122.297 144.461 125.957 148.601 128.205C154.073 131.179 155.951 137.447 152.782 142.158C149.207 147.47 141.903 147.57 137.377 142.298C136.095 140.806 134.803 139.47 132.781 139.104C130.413 138.674 128.455 139.354 126.538 140.851C114.367 150.359 100.494 155.015 88.6591 155.175H88.6691Z" fill="#454553"/>
<path d="M146.714 45.0482C141.943 45.0282 140.095 42.9555 140.831 39.1456C141.888 33.6686 144.135 28.8524 149.087 25.7634C151.029 24.5518 153.152 23.881 155.48 24.0111C160.692 24.3065 163.846 28.8774 162.309 33.8588C161.703 35.8263 160.647 37.4885 159.145 38.8502C155.355 42.2796 150.999 44.5275 146.714 45.0382V45.0482Z" fill="#454553"/>
<path d="M37.5333 23.8055C37.5333 28.1711 35.9263 29.6079 32.8473 27.9408C26.7545 24.6415 20.982 20.7515 18.4938 13.7876C17.3023 10.4533 18.2585 7.5996 20.5815 5.9625C23.0197 4.24028 25.8233 4.2503 28.707 6.28291C34.965 10.6936 36.9576 17.232 37.5333 23.8055Z" fill="#454553"/>
<path d="M137.252 4.81645C137.252 8.38104 133.542 12.5714 130.413 12.5314C128.14 12.5063 126.613 10.3035 126.608 7.04432C126.598 2.85893 128.971 -0.0698353 132.315 0.000254858C135.139 0.0603321 137.257 2.12299 137.257 4.81645H137.252Z" fill="#454553"/>
<path d="M112.635 163.61C112.67 160.111 114.237 157.753 116.485 157.823C119.153 157.908 121.862 161.082 121.837 164.106C121.817 166.744 119.544 168.997 116.875 169.027C114.337 169.057 112.6 166.839 112.635 163.605V163.61Z" fill="#454553"/>
<path d="M4.40589 86.5917C7.06932 86.6418 9.05687 88.4291 9.06188 90.7871C9.06689 93.1952 7.16945 95.0727 4.77637 95.0376C2.06288 94.9926 -0.0798815 92.8798 0.000221585 90.3366C0.0703118 88.1487 1.95273 86.5467 4.40589 86.5917Z" fill="#454553"/>
<path d="M166.594 97.1299C168.917 97.1399 170.99 98.9673 171 101.02C171.015 103.288 169.048 105.095 166.539 105.115C163.986 105.13 161.613 103.183 161.663 101.11C161.713 98.9523 163.986 97.1199 166.594 97.1299Z" fill="#454553"/>
<path d="M107.724 124.756C105.315 124.56 102.892 124.495 100.509 124.155C91.0922 122.798 81.9304 124.34 72.7836 126.343C69.2791 127.109 65.7396 127.454 62.1249 126.803C51.2759 124.856 48.172 112.62 50.9706 105.596C52.2672 102.337 55.3312 100.91 59.6667 101.416C64.2927 101.961 68.9187 102.542 73.5496 103.043C83.3372 104.099 92.5891 102.207 101.4 97.9061C103.418 96.9199 105.476 95.9836 107.729 95.6983C112.089 95.1476 116.81 97.826 119.108 102.342C121.596 107.238 121.702 112.385 119.399 117.286C117.156 122.047 113.856 125.737 107.729 124.751L107.724 124.756Z" fill="white"/>
<path d="M123.223 64.6032C123.148 75.0766 117.817 81.595 109.851 83.2822C102.617 84.8142 95.2625 81.1695 92.2336 74.6311C91.5427 73.1392 91.6379 72.248 93.0647 71.1115C100.214 65.4092 107.273 59.5917 114.277 53.7092C115.594 52.6027 116.265 52.6328 117.441 53.8694C120.966 57.5591 123.208 61.7445 123.228 64.6082L123.223 64.6032Z" fill="white"/>
<path d="M57.2437 85.42C50.8054 85.4901 44.8027 81.5751 42.2644 75.6424C39.8213 69.9301 41.2881 62.1701 45.5236 57.7094C46.4448 56.7381 47.0205 56.8783 47.9617 57.5742C55.1309 62.836 62.4904 67.8274 70.0752 72.4734C71.3768 73.2694 71.6322 74.0955 71.2967 75.5373C70.0051 81.0794 64.0174 85.3449 57.2437 85.42Z" fill="white"/>
<path d="M154.674 27.3749C153.197 30.6841 150.178 32.141 147.44 33.8882C147.239 34.0184 146.749 33.9433 146.549 33.7781C146.028 33.3375 146.208 32.7418 146.388 32.176C147.269 29.3975 151.265 27.0094 154.674 27.3799V27.3749Z" fill="white"/>
<path d="M21.3626 8.36035C24.021 11.5244 23.9959 15.2042 25.2926 18.7037C21.678 17.5422 19.7004 12.2203 21.3626 8.36035Z" fill="#454553"/>
<path d="M92.489 106.597C93.8458 108.359 95.0423 109.947 96.2839 111.509C98.6119 114.437 99.6332 114.417 101.506 111.108C102.842 108.74 103.884 106.212 105.235 103.373C108.895 108.274 110.958 113.501 112.64 119.058C109.165 119.634 105.811 119.434 102.552 119.048C92.7894 117.902 83.3072 119.429 73.83 121.421C69.8249 122.262 65.7847 122.663 61.6744 122.227C60.613 122.117 59.8921 122.037 60.1324 120.7C60.9835 115.994 62.2752 111.499 65.4242 107.704C66.4355 106.482 66.9262 106.888 67.5169 107.934C68.8336 110.242 70.2104 112.52 71.442 114.873C72.218 116.355 73.004 116.36 74.1104 115.288C75.4471 113.997 76.4534 112.46 77.2645 110.823C78.3358 108.66 79.257 108.885 80.4335 110.723C81.1495 111.839 82.1007 112.8 82.8767 113.882C84.1984 115.734 85.6352 115.624 86.9369 114.007C88.8093 111.679 90.5315 109.226 92.489 106.597Z" fill="#454553"/>
<path d="M105.14 79.1021C101.471 79.0971 98.6069 76.1232 98.637 72.3484C98.667 68.8789 101.501 66.1103 105.05 66.0803C108.63 66.0503 111.589 68.974 111.589 72.5386C111.589 76.1433 108.68 79.1071 105.14 79.1021Z" fill="#454553"/>
<path d="M64.3428 74.5007C64.3227 77.9301 61.5442 80.7137 58.1948 80.6686C54.8706 80.6185 52.082 77.7398 52.117 74.3855C52.1521 71.0612 54.8255 68.4028 58.1598 68.3878C61.6042 68.3678 64.3628 71.0963 64.3428 74.5007Z" fill="#454553"/>
</g>
<defs>
<clipPath id="clip0_1954_2323">
<rect width="171" height="170.369" fill="white"/>
</clipPath>
</defs>
</svg>
