<svg width="194" height="190" viewBox="0 0 194 190" fill="none" xmlns="http://www.w3.org/2000/svg">
<g clip-path="url(#clip0_1954_2293)">
<path d="M75.4853 180.799C75.638 174.021 75.4287 173.721 69.046 171.18C64.2251 169.262 59.6418 166.891 55.4207 163.841C49.4794 159.552 44.2737 160.593 40.4599 166.795C36.1539 173.8 28.566 176.075 22.0759 172.295C17.5661 169.669 15.4159 165.624 15.6819 160.537C15.9478 155.427 18.7261 151.761 23.2811 149.452C23.6149 149.282 23.9771 149.175 24.3335 149.05C31.7064 146.419 33.138 140.715 29.4713 134.327C24.2713 125.262 22.5908 115.083 22.6756 104.672C22.7435 96.1443 24.0337 87.8209 26.8968 79.735C28.8602 74.1785 27.2702 71.2192 21.6288 69.0068C16.2025 66.8792 13.1752 62.5732 13.2997 57.1638C13.4072 52.3938 16.5646 48.1217 21.3459 46.6845C25.6293 45.3944 29.5562 46.3506 32.9116 49.3269C34.8694 51.064 36.9404 52.3881 39.7017 52.2976C42.1518 52.2184 44.302 51.562 46.0334 49.7117C54.8775 40.2679 65.6171 33.9701 78.0315 30.4393C79.2877 30.0828 80.4703 29.4604 81.6982 29.002C83.5824 28.2947 84.3915 27.0329 84.5387 24.9506C84.9121 19.5129 88.409 16.067 93.4563 15.852C98.5714 15.6313 102.623 18.6981 103.426 23.8586C103.783 26.1446 104.96 27.0499 106.889 27.6836C111.127 29.0756 115.609 29.0926 119.909 30.1394C143.046 35.7751 159.801 49.259 169.991 70.8288C172.362 75.8421 173.675 76.5494 179.226 75.8534C184.392 75.2083 189.575 79.0051 190.418 84.058C191.363 89.7334 188.245 94.3733 182.655 95.6181C177.885 96.6762 176.691 98.1361 176.623 102.951C176.572 106.907 176.374 110.845 175.786 114.772C174.875 120.894 177.63 124.289 183.758 124.923C189.292 125.494 192.738 128.001 193.717 132.16C194.786 136.709 192.88 141.451 188.851 144.257C185.128 146.855 180.341 146.64 176.204 143.703C170.32 139.516 166.908 140.031 162.698 145.831C160.361 149.044 157.713 151.97 154.844 154.714C151.036 158.358 150.827 162.726 154.357 166.67C155.812 168.294 157.26 169.896 158.007 171.984C160.129 177.925 157.181 184.398 151.375 186.616C145.643 188.806 139.057 185.869 136.709 180.035C136.217 178.813 135.951 177.5 135.43 176.301C133.761 172.476 129.438 170.688 125.601 172.108C117.765 174.999 109.668 176.55 101.321 176.816C100.003 176.855 98.6846 176.912 97.3719 177.053C94.2088 177.393 92.8961 178.717 92.517 181.863C91.9002 186.967 88.1544 190.322 83.4579 189.988C78.5408 189.638 75.3834 185.999 75.5022 180.811L75.4853 180.799Z" fill="#454553"/>
<path d="M193.219 31.3108C193.151 31.6164 193.01 32.6518 192.682 33.6138C190.452 40.2001 180.12 47.8559 173.172 48.1218C168.469 48.3029 166.585 46.215 167.79 41.7222C169.448 35.5376 172.368 30.0037 177.217 25.6524C179.068 23.9945 181.167 22.8176 183.662 22.3762C189.117 21.4087 193.349 25.0244 193.225 31.3052L193.219 31.3108Z" fill="#454553"/>
<path d="M61.2262 17.3975C61.1583 18.6933 61.0394 20.3795 60.3831 21.9751C59.291 24.6346 58.0688 25.223 55.6017 23.6953C50.8317 20.7416 46.7237 17.0354 43.9002 12.0956C42.7402 10.0642 42.3498 7.82353 42.9213 5.54887C44.2623 0.196042 50.4696 -1.41094 54.8096 2.42544C58.6176 5.79783 61.1922 11.6316 61.2318 17.3975H61.2262Z" fill="#454553"/>
<path d="M131.713 1.06138C134.615 1.11796 137.099 3.60765 137.088 6.45947C137.071 9.66211 133.744 13.0967 130.637 13.1081C128.142 13.1194 126.037 10.5109 126.037 7.41574C126.037 3.83964 128.572 1.0048 131.718 1.06138H131.713Z" fill="#454553"/>
<path d="M6.39654 108.955C3.50511 108.938 0.907911 106.426 0.879619 103.631C0.851327 100.841 3.50511 98.4192 6.48707 98.5041C10.0122 98.6116 12.9037 100.915 12.881 103.597C12.8527 106.516 9.8821 108.972 6.39654 108.949V108.955Z" fill="#454553"/>
<path d="M127.497 132.67C127.599 133.677 126.258 134.135 125.72 133.275C124.826 131.849 124.04 130.537 122.733 130.401C120.792 130.203 118.642 132.381 116.52 133.388C112.87 135.12 111.795 134.401 111.778 130.322C111.761 126.525 111.773 122.734 111.778 118.858C111.778 118.066 110.884 117.619 110.239 118.077C107.014 120.385 104.643 123.515 102.651 127C102.006 128.132 101.469 129.892 100.179 129.829C98.8149 129.767 98.6395 127.894 98.2038 126.712C96.9023 123.192 95.6858 119.639 94.4975 116.085C93.7676 113.895 92.9132 113.935 91.5269 115.638C89.2862 118.399 88.047 121.63 86.8983 124.918C86.4683 126.157 86.1571 127.453 85.6365 128.652C84.7142 130.774 83.6052 130.921 82.1849 129.037C81.1721 127.696 80.3742 126.191 79.5651 124.708C78.6428 123.017 77.7657 121.296 76.7925 119.407C76.4473 118.739 75.508 118.705 75.1119 119.339C72.4185 123.679 70.5683 128.194 68.4294 132.743C68.1238 133.394 67.2298 133.485 66.7885 132.913C65.6964 131.482 64.6609 130.101 63.5519 128.777C62.7767 127.855 63.1445 127.096 63.4896 126.185C65.5493 120.782 69.2725 116.906 74.5857 114.801C86.1062 110.246 97.9831 109.233 110.001 112.424C120.69 115.265 126.399 121.925 127.497 132.658V132.67Z" fill="white"/>
<path d="M145.536 89.5132C145.236 95.6978 142.486 101.718 135.719 105.255C129.5 108.508 123.338 108.016 117.589 104.044C112.508 100.524 110.782 95.2847 110.567 89.3548C110.522 88.1382 111.218 87.7025 112.089 87.2951C121.024 83.0683 129.585 78.1625 137.892 72.8153C139.091 72.0401 139.708 72.0628 140.517 73.3133C143.476 77.9079 145.519 82.7741 145.536 89.5132Z" fill="white"/>
<path d="M78.8917 90.0904C78.7106 99.8342 71.7112 107.06 62.3862 107.371C53.3837 107.671 45.2696 100.372 44.4265 91.1825C43.8437 84.8451 45.1904 79.034 49.1965 73.9414C50.0962 72.7984 50.7186 72.4872 52.1219 73.4095C59.9927 78.5813 68.2256 83.1137 76.849 86.9161C78.4843 87.6347 79.2878 88.557 78.886 90.0904H78.8917Z" fill="white"/>
<path d="M189.27 132.987C189.19 134.141 188.647 134.995 187.414 135.012C186.503 135.024 185.778 134.486 185.801 133.434C185.829 132.161 186.497 131.136 187.725 131.018C188.834 130.91 189.219 131.929 189.27 132.987Z" fill="white"/>
<path d="M183.662 26.2468C184.234 26.2411 184.85 26.2581 185.133 26.8352C185.495 27.5652 185.399 28.3573 184.862 28.9458C181.919 32.1598 178.281 34.5306 174.756 37.0033C173.794 37.6767 173.619 36.5224 173.636 35.7868C173.743 32.0805 179.894 26.2468 183.662 26.2468Z" fill="white"/>
<path d="M51.9691 15.9199C47.714 13.5547 47.3462 9.30522 46.1863 5.36133C49.4851 6.34023 52.269 11.3875 51.9691 15.9199Z" fill="white"/>
<path d="M133.274 92.8174C133.303 97.6044 129.551 101.56 124.883 101.667C120.441 101.769 116.339 97.6044 116.294 92.9419C116.243 88.2624 120.203 84.3128 124.894 84.3638C129.568 84.4147 133.246 88.1266 133.274 92.8174Z" fill="#454553"/>
<path d="M72.9049 93.1291C72.8936 97.752 69.0685 101.673 64.5645 101.685C60.0095 101.696 55.9864 97.6219 55.9637 92.9763C55.9411 88.195 59.7775 84.3247 64.5079 84.3586C69.2043 84.3926 72.9162 88.2686 72.9049 93.1234V93.1291Z" fill="#454553"/>
</g>
<defs>
<clipPath id="clip0_1954_2293">
<rect width="193.12" height="189.686" fill="white" transform="translate(0.879639 0.314453)"/>
</clipPath>
</defs>
</svg>
