<svg width="390" height="853" viewBox="0 0 390 853" fill="none" xmlns="http://www.w3.org/2000/svg">
<mask id="mask0_2635_7664" style="mask-type:alpha" maskUnits="userSpaceOnUse" x="0" y="0" width="390" height="853">
<path d="M0 9C0 9 118.767 0 195 0C271.233 0 390 9 390 9V853C390 853 271.233 844 195 844C118.767 844 0 853 0 853V9Z" fill="#E3F7FF"/>
</mask>
<g mask="url(#mask0_2635_7664)">
<g clip-path="url(#clip0_2635_7664)">
<path d="M-574.001 194.056V0H964.521V210.931C957.145 211.951 949.775 213.43 942.832 216.181C936.202 218.806 931.035 223.872 924.372 224.643C921.678 173.451 880.103 129.142 829.509 121.573C771.434 112.879 711.558 152.857 691.888 206.711C679.408 199.443 667.595 193.432 653.039 191.182C602.144 183.328 553.891 225.007 540.799 272.095L685.558 273.157C639.075 289.647 593.516 309.501 546.626 324.856C535.98 328.342 524.447 332.794 513.32 333.275C512.369 318.824 511.677 301.473 509.056 287.418C508.734 285.696 509.775 285.59 506.985 285.812C504.708 302.64 502.314 319.532 500.64 336.439L461.178 336.275C457.813 335.192 460.745 331.104 460.607 328.453C460.512 326.551 459.429 325.025 459.424 324.835C459.345 321.349 459.318 317.773 459.424 314.287C459.546 310.177 459.466 305.735 459.424 301.631C459.234 283.721 459.561 265.752 459.429 247.836C455.144 248.427 447.034 246.568 443.574 248.897C438.343 246.663 431.723 248.232 426.054 247.883C424.675 247.799 423.692 246.8 423.497 246.784V224.632L415.044 224.638C416.586 222.572 412.212 177.861 410.96 173.293C410.463 171.492 411.726 170.356 408.709 170.858L404.482 225.699C403.167 225.942 398.48 225.345 398.131 225.689C397.381 226.428 398.723 243.467 397.038 246.747C391.643 248.792 364.83 244.677 362.669 247.777C361.634 277.657 362.463 307.605 362.21 337.49H285.072C285.469 332.889 284.629 327.777 285.03 323.208C289.014 277.91 314.501 227.854 301.9 183.064C293.557 153.406 265.598 136.589 235.409 143.434C230.97 143.857 223.695 146.746 219.558 148.706C217.038 150.153 213.266 149.218 211.105 149.762C193.2 145.98 176.525 135.839 157.701 137.07C145.823 137.846 131.717 144.57 120.215 148.22C118.498 148.764 116.448 147.956 117.055 150.818C115.56 150.369 114.06 150.142 112.829 149.762C94.9498 144.264 88.7418 138.052 68.1736 145.795C10.627 167.461 41.1385 253.16 49.1165 296.138C51.98 311.566 53.7711 327.206 55.7682 342.761L16.6711 343.818C16.7504 333.713 16.3541 324.116 15.6145 314.287C15.5405 313.331 16.9459 311.329 16.6711 311.133L-3.4057 311.123L-3.9552 253.139L-40.4158 210.429C-42.8303 209.415 -73.4898 209.421 -75.3178 210.398C-75.8779 210.699 -76.1473 211.396 -76.3164 211.993C-76.3534 237.642 -76.2689 263.338 -76.3164 288.981H-113.305C-113.321 307.241 -113.263 325.558 -113.3 343.823C-118.261 343.701 -123.206 344.235 -128.146 343.347C-141.899 340.876 -165.104 330.866 -179.363 325.912C-222.545 310.917 -268.362 294.39 -310.122 276.02C-311.707 275.322 -313.577 275.866 -313.012 273.157H-151.346C-171.306 208.243 -252.137 175.68 -307.184 221.474C-308.289 221.231 -313.435 203.357 -314.613 200.404C-336.127 146.508 -395.089 99.3835 -455.674 115.472C-493.466 125.508 -530.265 161.873 -534.914 201.445C-538.771 202.068 -541.492 199.301 -544.905 198.234C-554.251 195.318 -564.147 193.712 -574.006 194.056H-574.001Z" fill="#F4F8FE"/>
<path d="M401.313 690.804C398.185 696.456 398.164 704.833 396.03 710.843C393.467 713.136 396.452 719.057 393.938 720.884C392.987 721.581 374.944 727.608 371.726 728.77C344.665 738.531 257.843 763.261 242.273 781.494C238.469 785.951 236.593 789.263 236.472 795.216C231.431 801.945 232.932 812.403 236.472 819.475C237.497 821.52 237.94 821.615 238.585 822.639C238.918 823.167 240.482 825.523 240.698 825.803C241.005 826.194 241.433 826.49 241.755 826.86C243.403 828.74 244.027 829.426 245.982 831.08C247.551 832.405 248.449 832.643 249.152 833.187C263.47 844.305 278.865 851.795 294.589 860.611H84.3102C73.5373 852.999 61.3486 847.047 52.6416 836.848C41.6046 823.923 39.5863 812.915 50.5229 798.934C79.7876 761.539 178.93 743.554 224.6 729.055C242.775 723.288 279.716 714.329 267.115 688.697C258.974 672.143 235.653 664.331 218.561 660.697C196.762 656.06 172.4 653.049 150.204 649.827C117.807 645.121 85.1819 641.239 52.6099 638.075C52.5517 630.395 52.7578 622.663 52.4936 614.983C44.949 614.581 34.9528 610.879 27.778 610.879C21.5858 610.879 5.29189 614.296 -1.28064 615.923C-1.85653 616.066 -2.70715 615.77 -3.38342 615.923C-3.45739 620.83 -3.3306 625.779 -3.394 630.691L-50.9444 624.363C-50.9656 612.426 -50.9075 600.442 -50.9444 588.505C-17.0304 594.595 17.0474 600.315 51.1781 605.227C138.724 617.83 228.541 622.409 313.609 647.039C344.755 656.055 378.484 666.845 401.313 690.804Z" fill="#A0E0EE"/>
<path d="M267.114 688.692C268.039 698.109 257.921 703.248 250.488 706.37C215.686 720.985 168.215 726.922 130.792 736.667C100.392 744.584 35.2002 760.889 16.2434 785.809C-8.57261 818.43 34.0379 845.304 57.8923 860.6H44.1555C-2.32239 834.186 -82.4026 779.392 2.2319 738.077C41.461 718.925 87.9601 714.641 127.913 698.991C156.486 687.799 144.614 679.38 122.577 673.174C100.339 666.909 75.56 664.025 52.609 661.274C52.6618 653.557 52.6671 645.787 52.609 638.07C85.181 641.234 117.806 645.116 150.204 649.822C172.404 653.044 196.766 656.055 218.56 660.693C235.652 664.326 258.973 672.144 267.114 688.692Z" fill="#B3E5EC"/>
<path d="M467.883 736.154C469.4 743.105 471.83 750.532 474.223 757.25C461.004 759.13 447.088 762.041 434.577 766.72C429.933 768.458 416.582 773.254 418.368 779.693C420.571 787.642 453.307 795.206 461.343 796.996C525.007 811.194 595.107 811.294 658.085 794.16C658.096 794.297 659.057 795.332 659.19 796.706C659.396 798.802 658.349 805.996 659.749 806.942L714.089 818.419C711.965 832.263 711.125 846.63 710.919 860.606C675.668 857.315 632.128 865 597.855 860.606C578.126 858.076 546.231 847.765 525.773 842.378C489.852 832.913 451.442 822.624 416.613 810.005C397.419 803.049 339.534 784.055 378.415 760.24C386.773 755.121 397.229 751.651 406.596 748.815C407.304 755.982 411.436 754.678 411.88 746.707L467.883 736.16V736.154Z" fill="#E9F6FD"/>
<path d="M396.029 724.55C390.143 720.874 392.817 729.668 398.142 728.77C401.318 733.83 405.883 733.487 406.48 734.158C407.119 734.881 406.337 746.19 406.596 748.81C397.228 751.646 386.773 755.111 378.414 760.234C339.534 784.055 397.418 803.049 416.613 810C451.441 822.618 489.851 832.907 525.773 842.372C546.23 847.765 578.126 858.07 597.854 860.6H349.535C335.323 855.118 321.084 849.825 307.268 843.725C312.721 845.399 312.161 835.094 310.185 833.43C309.249 832.638 306.856 832.95 305.836 832.226C304.817 831.502 305.033 829.532 304.156 828.418C300.722 824.06 291.418 826.464 291.418 825.798V802.595C291.418 802.246 296.538 802.854 297.589 799.785C298.91 795.929 296.406 785.233 298.244 782.513C299.253 781.018 302.936 781.309 303.86 780.205C304.7 779.207 304.304 776.328 305.398 775.404C306.344 774.601 309.107 774.981 310.216 773.888C311.326 772.795 311.062 769.208 312.509 768.263C314.528 766.942 320.767 768.796 322.606 765.69C324.122 763.123 322.368 754.958 323.182 754.128C324.333 752.951 334.182 753.521 336.163 753.072C337.595 752.75 337.156 748.746 339.676 747.917C344.537 746.317 350.507 750.484 354.206 744.494C356.958 740.036 355.183 738.172 362.67 737.079L371.731 728.76C374.954 727.598 392.991 721.571 393.942 720.874C396.452 719.041 393.472 713.12 396.034 710.833C396.515 715.064 395.353 720.536 396.034 724.545L396.029 724.55Z" fill="#B8E6EF"/>
<path d="M44.1556 860.606H-50.9453V714.008C-38.3656 710.854 -25.4952 708.889 -12.8151 706.138C-11.3992 705.831 -10.2051 704.622 -9.73492 704.516C10.6589 700.053 31.3751 696.773 51.5788 691.359C53.4544 689.959 52.5773 665.694 52.609 661.273C75.5653 664.025 100.339 666.909 122.577 673.173C144.614 679.38 156.486 687.804 127.913 698.991C87.9601 714.641 41.4611 718.925 2.23196 738.077C-82.4026 779.392 -2.32233 834.186 44.1556 860.6V860.606Z" fill="#E9F6FD"/>
<path d="M84.3092 860.606H57.8923C34.0378 845.315 -8.56737 818.435 16.2434 785.814C35.2002 760.895 100.392 744.584 130.792 736.672C168.209 726.927 215.686 720.99 250.487 706.375C257.921 703.254 268.044 698.114 267.114 688.697C279.72 714.33 242.779 723.282 224.599 729.056C178.929 743.554 79.7814 761.539 50.522 798.935C39.5854 812.91 41.6036 823.918 52.6406 836.848C61.3477 847.047 73.5364 852.994 84.3092 860.611V860.606Z" fill="#6BC6D8"/>
<path d="M304.099 842.674C304.442 843.751 305.435 843.477 306.212 843.73C306.545 843.841 306.989 843.609 307.269 843.73C321.085 849.831 335.323 855.123 349.536 860.606H294.589C278.865 851.79 263.469 844.301 249.151 833.182L245.981 831.075C244.027 829.422 243.403 828.735 241.755 826.855L240.698 825.798C240.481 825.518 238.918 823.163 238.585 822.634L236.471 819.47C232.931 812.403 231.431 801.945 236.471 795.211C236.091 813.93 264.616 826.247 279.415 833.029C285.882 835.992 297.605 841.522 304.099 842.668V842.674Z" fill="#6BC6D8"/>
<path d="M112.84 149.762C135.178 167.15 160.316 174.148 187.822 165.01C199.936 160.986 208.797 153.802 219.564 148.705C223.701 146.746 230.976 143.857 235.414 143.434C251.138 141.929 265.482 154.378 271.531 168.032C288.169 205.586 265.725 254.85 258.302 292.309C253.261 317.762 256.822 354.265 255.539 381.303C254.683 399.298 253.156 420.246 249.88 437.877C247.286 451.831 243.44 470.809 228.033 475.663C227.748 477.411 230.596 476.799 231.763 476.751C236.825 476.561 242.969 476.049 248.105 475.647C268.995 474.026 295.534 471.089 313.397 460.969C317.645 458.561 325.063 457.356 322.944 450.046C320.979 443.259 293.98 438.769 287.197 437.681L288.306 382.898C302.36 382.882 316.467 382.724 330.52 382.84V516.783C328.56 516.508 326.214 516.973 324.18 516.783V477.765C323.604 477.11 316.134 482.778 314.691 483.581C286.616 499.136 234.188 500.699 202.092 501.972C156.602 503.779 110.103 503.229 65.0726 495.38C46.6389 492.169 26.7786 487.716 11.404 476.704C10.1466 470.408 6.99238 467.677 8.30794 459.369C8.74646 456.612 14.6955 448.108 16.6874 447.178C17.6701 446.719 22.2825 446.666 24.0841 446.122C18.7162 450.685 16.5025 453.284 22.5097 458.767C34.9098 470.091 70.7945 473.371 87.4847 475.653C88.4939 475.79 89.6245 475.558 90.6548 475.653C91.6216 475.843 101.185 477.734 98.0462 474.612C97.8983 474.464 95.6211 474.184 94.5328 473.403C81.7787 464.223 76.2892 450.141 71.6346 435.574C63.8363 411.156 61.0467 386.917 57.8978 361.749C57.1106 355.448 56.5875 349.036 55.7844 342.766C53.7873 327.211 51.9963 311.572 49.1327 296.143C41.1548 253.165 10.6432 167.467 68.1898 145.8C88.758 138.057 94.966 144.269 112.845 149.767L112.84 149.762ZM186.807 360.693C181.429 344.525 168.421 322.141 148.016 334.109C122.836 348.883 123.259 412.339 121.283 438.204C120.242 451.81 120.617 471.734 104.397 475.668C104.112 477.406 105.823 476.64 107.012 476.709C112.491 477.036 117.949 477.396 123.406 477.765C156.364 479.984 189.782 478.806 222.729 477.76C223.31 475.246 222.306 476.054 221.355 475.41C205.278 464.46 202.631 452.27 199.487 433.472C195.361 408.821 194.811 384.747 186.807 360.698V360.693Z" fill="#FEFEFF"/>
<path d="M-76.3049 211.988C-74.0013 212.204 -71.4336 216.049 -69.9859 217.814C-59.9898 229.983 -49.9091 242.163 -40.399 254.723C-40.4624 279.337 -40.251 303.955 -40.3303 328.569C-40.3831 345.101 -40.3884 362.257 -40.3726 378.62C-40.3303 418.329 -40.4043 458.085 -40.3726 497.795C-51.5998 500.266 -77.4778 507.925 -85.7463 515.262C-101.39 529.142 -74.1334 539.664 -63.8466 542.844C13.8297 566.897 114.98 569.601 196.719 579.135C270.924 587.787 387.555 599.539 453.048 632.318C454.77 633.179 456.366 633.998 458.373 633.85C459.525 644.308 459.8 653.071 460.487 663.381C455.584 661.733 450.02 671.531 448.863 674.98C440.288 663.112 425.199 655.807 411.848 650.229C386.942 639.824 359.241 633.396 332.835 627.845C244.608 609.305 154.262 603.104 64.9147 591.511C26.2192 586.493 -12.3495 580.382 -50.9393 574.788C-50.9922 570.23 -50.9024 565.63 -50.9341 561.071C-52.9312 560.834 -55.3985 561.409 -57.2794 561.077C-71.3173 558.599 -85.2338 554.754 -99.5465 553.693C-99.0762 540.778 -99.8001 527.7 -99.6574 514.781L-121.726 511.496C-121.789 506.943 -121.684 502.348 -121.737 497.795L-87.9072 486.74C-86.0105 485.155 -86.9456 475.706 -86.8663 472.484C-86.8558 472.13 -86.8716 471.781 -86.8663 471.427H-76.2943C-76.2203 410.628 -76.4158 349.776 -76.2996 288.971C-76.252 263.322 -76.3366 237.626 -76.2996 211.982L-76.3049 211.988Z" fill="#A9DEE8"/>
<path d="M285.078 337.49C284.412 345.265 283.71 353.711 282.965 361.75C280.925 383.664 277.116 414.621 271.341 435.574C269.429 442.504 262.058 459.918 257.605 465.633L248.094 475.653C242.959 476.054 236.814 476.567 231.753 476.757C230.585 476.799 227.738 477.417 228.023 475.669C243.435 470.809 247.276 451.837 249.87 437.882C253.151 420.251 254.672 399.304 255.528 381.308C256.812 354.27 253.251 317.762 258.291 292.314C265.715 254.855 288.158 205.591 271.521 168.037C265.471 154.384 251.132 141.934 235.404 143.44C265.593 136.594 293.553 153.412 301.895 183.069C314.496 227.86 289.009 277.921 285.025 323.213C284.624 327.782 285.464 332.895 285.068 337.495L285.078 337.49Z" fill="#D3EEFB"/>
<path d="M362.216 337.49C362.469 307.605 361.64 277.657 362.676 247.778C364.836 244.677 391.655 248.792 397.044 246.748C398.729 243.468 397.382 226.428 398.138 225.689C398.486 225.346 403.173 225.942 404.488 225.699L408.715 170.858C411.732 170.356 410.469 171.492 410.966 173.293C412.218 177.862 416.592 222.573 415.05 224.638C414.886 224.86 413.111 224.4 412.936 224.632C412.117 225.721 413.544 243.579 412.931 246.795C416.413 246.996 420.032 246.505 423.503 246.79C423.699 246.806 424.681 247.804 426.06 247.889C431.729 248.237 438.349 246.663 443.58 248.903C440.87 250.725 430.018 263.422 427.186 266.819C425.706 268.593 420.655 274.25 420.354 275.819L420.333 521.003C416.159 521.093 412.762 519.952 408.71 519.947C408.805 515.262 408.482 507.571 407.653 503.071C409.402 501.978 408.71 499.068 408.725 497.288C408.821 488.324 408.704 479.329 408.71 470.376C408.741 406.968 409.523 343.184 407.706 279.96C400.631 263.914 380.375 263.396 374.082 280.251C373.533 304.785 373.961 329.335 373.887 353.88C373.818 375.921 372.761 399.261 373.908 421.297C373.998 423.009 374.42 426.088 372.783 427.134C369.338 422.977 365.893 416.935 361.159 414.478C361.159 414.125 361.159 413.776 361.159 413.422C361.275 396.129 362.084 378.905 362.216 361.744C362.279 353.674 362.147 345.555 362.216 337.485V337.49Z" fill="#FEFEFF"/>
<path d="M15.6254 314.287C16.365 324.116 16.7613 333.714 16.682 343.818C16.6345 349.438 16.7032 356.246 16.682 361.744C16.5922 387.974 14.7853 415.044 15.5831 441.421C15.6412 443.428 15.4827 445.414 16.682 447.168C14.6902 448.103 8.73584 456.601 8.3026 459.358C6.98704 467.672 10.1412 470.403 11.3987 476.694C11.8213 478.796 11.1081 481.801 11.3987 484.078C-0.969741 485.731 2.43804 482.039 -2.13737 474.914C-5.26513 470.044 -10.1681 467.419 -16.0749 468.258C-18.0192 429.215 -14.9337 389.939 -16.0538 350.684L1.34436 329.023L15.6254 314.271V314.287Z" fill="#D3EEFB"/>
<path d="M-3.39488 311.123L16.682 311.134C16.9567 311.334 15.5566 313.336 15.6253 314.287L1.3443 329.039L-16.0538 350.7C-14.9338 389.955 -18.0193 429.231 -16.075 468.274C-26.2297 469.716 -31.5395 488.176 -32.9818 496.749C-35.576 496.384 -37.9271 497.266 -40.3786 497.805C-40.4103 458.096 -40.3363 418.34 -40.3786 378.631C-40.1091 376.555 -34.0385 371.225 -34.0385 370.718V338.024L-3.39488 311.128V311.123Z" fill="#A0E0EE"/>
<path d="M362.216 337.49C362.147 345.56 362.279 353.679 362.216 361.749H282.965C283.71 353.716 284.412 345.265 285.078 337.49H362.216Z" fill="#DBEFFC"/>
<path d="M211.11 149.762C206.081 151.03 199.947 154.183 194.209 155.572C165.119 162.613 144.989 159.18 117.066 150.818C116.459 147.961 118.509 148.769 120.226 148.22C131.728 144.57 145.834 137.846 157.711 137.07C176.531 135.839 193.21 145.975 211.116 149.762H211.11Z" fill="#FEFEFF"/>
<path d="M55.7792 342.767C56.5823 349.036 57.1054 355.448 57.8926 361.75H16.6822C16.7033 356.251 16.6346 349.443 16.6822 343.823L55.7792 342.767Z" fill="#DBEFFC"/>
<path d="M219.564 148.706C208.797 153.803 199.936 160.986 187.822 165.011C160.316 174.143 135.178 167.15 112.84 149.762C114.071 150.142 115.571 150.369 117.067 150.818C144.989 159.179 165.119 162.613 194.209 155.572C199.942 154.183 206.076 151.03 211.111 149.762C213.272 149.218 217.044 150.153 219.564 148.706Z" fill="#E9F6FD"/>
<path d="M448.863 674.985C446.375 682.406 445.329 696.641 445.693 704.516L422.446 711.9C421.664 702.794 412.64 670.337 401.313 690.804C378.483 666.846 344.754 656.055 313.609 647.039C228.536 622.409 138.723 617.83 51.1777 605.228C17.0523 600.315 -17.0308 594.59 -50.9448 588.505C-50.9607 583.947 -50.892 579.352 -50.9448 574.793C-12.3497 580.392 26.219 586.498 64.9092 591.516C154.257 603.11 244.602 609.31 332.83 627.85C359.236 633.401 386.937 639.824 411.843 650.234C425.194 655.812 440.288 663.117 448.858 674.985H448.863Z" fill="#60C4D6"/>
<path d="M371.726 728.771L362.665 737.089C355.178 738.183 356.953 740.047 354.201 744.505C350.497 750.495 344.532 746.327 339.671 747.928C337.156 748.757 337.59 752.755 336.158 753.083C334.171 753.532 324.328 752.961 323.177 754.139C322.368 754.969 324.122 763.134 322.601 765.701C320.762 768.812 314.522 766.953 312.504 768.274C311.062 769.219 311.321 772.811 310.211 773.899C309.102 774.987 306.338 774.612 305.393 775.415C304.299 776.339 304.695 779.212 303.855 780.216C302.925 781.32 299.243 781.029 298.239 782.524C296.406 785.244 298.905 795.94 297.584 799.796C296.533 802.864 291.413 802.252 291.413 802.606V825.809C291.413 826.48 300.717 824.076 304.151 828.429C305.028 829.543 304.822 831.519 305.831 832.237C306.84 832.955 309.239 832.654 310.179 833.441C312.161 835.11 312.715 845.41 307.263 843.736C306.983 843.614 306.539 843.846 306.206 843.736C305.905 842.669 304.959 842.832 304.093 842.679C297.605 841.528 285.881 836.003 279.409 833.04C264.61 826.258 236.085 813.935 236.466 795.222C236.587 789.274 238.463 785.957 242.267 781.499C257.837 763.266 344.659 738.537 371.72 728.776L371.726 728.771Z" fill="#B3E5EC"/>
<path d="M-1.28096 615.923C5.29157 614.291 21.5855 610.879 27.7777 610.879C34.9525 610.879 44.9487 614.581 52.4933 614.983C52.7575 622.657 52.5514 630.39 52.6096 638.075C52.6677 645.792 52.6624 653.562 52.6096 661.278C52.5779 665.699 53.4496 689.964 51.5793 691.364C31.3809 696.778 10.6595 700.058 -9.73438 704.521V666.555C0.753143 665.113 10.781 661.976 20.9093 659.171C22.0029 658.87 23.8627 659.403 25.1413 659.176L25.7383 621.131C24 618.728 2.37514 619.113 -1.28096 615.928V615.923Z" fill="#FEFEFF"/>
<path d="M-1.28136 615.923C2.36946 619.103 23.9996 618.723 25.7379 621.126L25.1408 659.171C23.8623 659.393 22.0025 658.86 20.9088 659.166C14.6111 656.536 7.03998 656.905 0.509713 655.764C-1.26022 655.453 -2.89279 653.979 -3.39472 653.895C-3.32075 646.178 -3.4951 638.408 -3.39472 630.691C-3.33131 625.785 -3.45811 620.83 -3.38414 615.923C-2.70787 615.77 -1.85725 616.066 -1.28136 615.923Z" fill="#DBEFFC"/>
<path d="M238.584 822.634C237.939 821.609 237.496 821.514 236.471 819.47L238.584 822.634Z" fill="#A9DEE8"/>
<path d="M249.151 833.182C248.449 832.633 247.551 832.395 245.981 831.075L249.151 833.182Z" fill="#A9DEE8"/>
<path d="M241.754 826.854C241.432 826.484 241.004 826.194 240.697 825.798L241.754 826.854Z" fill="#A9DEE8"/>
<path d="M-3.39485 653.889C-2.89293 653.974 -1.26036 655.453 0.509575 655.759C7.03455 656.9 14.6109 656.53 20.9087 659.16C10.7805 661.96 0.752602 665.103 -9.73492 666.545L-50.9453 659.16C-50.9453 655.305 -50.9453 651.417 -50.9453 647.562C-35.1955 650.044 -19.1076 651.227 -3.39485 653.889Z" fill="#E9F6FD"/>
<path d="M306.212 843.73C305.435 843.477 304.442 843.751 304.099 842.674C304.965 842.827 305.911 842.663 306.212 843.73Z" fill="#B8E6EF"/>
<path d="M11.3988 485.144C12.577 485.313 12.3867 486.174 12.4554 486.201L12.4185 529.781L21.9655 533.658V505.712C21.9655 504.434 25.0299 501.18 26.7734 500.932C41.6884 498.798 33.2984 528.672 35.8397 536.157C36.4156 537.857 45.8147 539.421 48.3824 539.986C53.0054 541.011 57.454 541.444 62.1192 542.093C66.6629 542.727 71.2331 543.99 75.856 544.201V517.306C75.856 514.649 80.9545 512.135 83.723 512.531C85.6778 512.811 90.6495 517.998 90.6495 519.413V546.308C95.283 546.277 99.9271 545.918 104.386 547.365V520.47C104.386 516.498 112.253 514.158 115.978 517.343C116.559 517.839 119.18 522.271 119.18 522.577V548.416H132.917V523.633C132.917 521.721 138.38 516.851 140.842 516.851C143.304 516.851 148.767 521.721 148.767 523.633V549.472C153.664 549.662 158.668 549.208 163.56 549.472C169.478 549.789 172.875 549.52 178.354 549.472C183.257 549.43 188.249 549.673 193.147 549.472C198.489 549.25 203.878 548.722 208.997 548.416C213.631 548.136 218.138 547.698 222.734 547.36C227.716 546.99 232.529 546.794 237.528 546.303C242.335 545.833 247.534 545.812 252.321 545.247C260.817 544.249 269.265 542.479 277.681 541.027C281.94 540.292 286.098 539.801 290.361 538.919C294.879 537.984 298.667 536.901 303.042 535.755C307.247 534.651 311.579 534.049 315.722 532.591C318.511 531.609 321.248 530.341 323.995 529.253C324.238 525.144 324.365 520.882 324.175 516.772C326.209 516.962 328.555 516.498 330.515 516.772C333.474 517.184 344.87 519.899 346.217 516.064C346.688 514.723 346.286 512.932 346.365 511.501L360.102 512.557C360.202 513.059 360.678 513.571 361.159 513.614C366.77 514.073 372.423 514.755 378.071 514.665C377.606 519.371 378.161 523 379.122 527.325C381.917 539.912 388.823 537.34 390.577 540.15C392.209 542.764 388.342 558.747 393.53 559.878C393.763 559.93 397.091 559.149 397.091 558.969V538.93C397.091 538.74 399.347 538.819 400.811 537.942C407.885 533.679 408.561 527.547 408.714 519.947C412.767 519.952 416.164 521.093 420.338 521.003C422.282 520.961 423.904 520.163 425.621 519.947C425.019 523.264 427.264 521.753 429.251 522.075C432.257 522.561 440.653 522.788 441.324 524.843C442.512 528.461 441.191 539.532 441.609 544.597C442.428 554.553 445.804 564.071 447.812 573.737L387.581 565.302C384.2 556.666 376.57 549.763 366.743 553.471C364.17 554.442 358.195 559.698 356.937 562.138C349.002 563.353 332.422 563.517 326.78 569.469C323.879 572.528 323.383 575.058 326.965 577.82C333.046 582.505 353.984 583.472 362.215 584.285C368.74 584.935 374.721 587.158 381.236 585.341C381.347 585.796 381.035 587.312 381.23 587.444C382.113 588.056 393.799 588.125 396.029 588.505C400.821 589.319 405.46 593.787 410.823 590.613C410.226 594.014 412.54 592.387 414.51 592.683C427.402 594.627 440.314 596.518 453.09 599.048C453.967 603.669 454.463 608.148 455.203 612.76C401.069 599.439 346.085 588.701 290.742 581.269C196.449 568.608 100.841 567.034 6.82333 552.467C-11.827 549.578 -33.6685 546.773 -51.4894 541.058C-101.386 525.059 -61.0259 504.291 -32.9817 499.907C-33.7266 505.596 -35.3486 512.79 -32.7387 518.124C-28.6071 526.565 -8.67282 526.824 -1.28136 523.639C11.6788 518.05 0.789749 495.735 2.90839 486.903C3.33105 485.15 9.6658 484.902 11.3988 485.15V485.144Z" fill="#E9F6FD"/>
<path d="M186.807 360.693C183.294 363.508 164.294 360.408 162.625 361.876C152.893 385.027 152.053 410.639 146.653 434.523C142.992 450.712 137.666 467.899 123.406 477.766C117.943 477.396 112.486 477.037 107.012 476.709C105.823 476.641 104.111 477.407 104.397 475.669C120.617 471.734 120.247 451.811 121.282 438.205C123.258 412.339 122.836 348.883 148.016 334.11C168.416 322.141 181.423 344.525 186.807 360.693Z" fill="#D3EEFB"/>
<path d="M57.893 361.75C61.0419 386.918 63.8316 411.156 71.6298 435.574C55.2566 436.942 39.6865 441.448 24.0794 446.122C22.2778 446.661 17.6654 446.714 16.6827 447.178C15.4833 445.419 15.6418 443.439 15.5837 441.432C14.7912 415.054 16.5928 387.979 16.6827 361.755H57.893V361.75Z" fill="#E9F6FD"/>
<path d="M199.487 433.467C202.631 452.265 205.278 464.461 221.355 475.405C222.301 476.049 223.31 475.241 222.729 477.755C189.781 478.801 156.364 479.979 123.406 477.76C137.666 467.894 142.992 450.707 146.653 434.518L199.487 433.461V433.467Z" fill="#00B4C0"/>
<path d="M199.487 433.467L146.653 434.523C152.053 410.639 152.888 385.032 162.625 361.876C164.295 360.413 183.294 363.509 186.807 360.693C194.811 384.742 195.361 408.811 199.487 433.467Z" fill="#E9F6FD"/>
<path d="M362.216 361.75C362.084 378.91 361.276 396.14 361.159 413.427H346.366C346.339 403.244 346.382 393.018 346.371 382.835C341.098 382.808 335.789 382.882 330.516 382.84C316.462 382.724 302.355 382.877 288.301 382.898L287.192 437.682C281.946 436.842 276.562 436.615 271.342 435.574C277.117 414.616 280.926 383.664 282.965 361.75H362.216Z" fill="#E9F6FD"/>
<path d="M330.516 382.84C335.788 382.882 341.098 382.808 346.371 382.834C346.382 393.018 346.339 403.244 346.366 413.427C346.45 445.208 348.13 480.111 346.366 511.511C346.287 512.943 346.688 514.733 346.218 516.075C344.871 519.909 333.474 517.194 330.516 516.783V382.84Z" fill="#B1E6F5"/>
<path d="M11.399 476.709C26.7736 487.722 46.6338 492.174 65.0676 495.386C110.098 503.235 156.597 503.784 202.087 501.977C234.183 500.699 286.61 499.136 314.686 483.586C316.134 482.783 323.605 477.116 324.17 477.771V516.788C324.17 516.624 323.113 515.605 323.076 514.237C322.812 504.914 323.367 495.523 323.108 486.206C305.425 497.345 283.382 501.08 262.888 504.132C241.564 507.312 219.998 508.881 198.431 509.404H143.484C109.078 508.469 63.155 504.798 30.6675 493.864C24.2059 491.688 18.5474 488.229 12.4556 486.206C12.387 486.185 12.5772 485.318 11.399 485.149V484.093C11.1084 481.822 11.8216 478.811 11.399 476.709Z" fill="#8ED2E2"/>
<path d="M71.6297 435.574C76.2844 450.142 81.7791 464.223 94.5279 473.403C95.6162 474.185 97.8934 474.465 98.0413 474.612C101.18 477.729 91.6167 475.843 90.6499 475.653C90.1691 475.558 88.3146 473.25 87.4798 475.653C70.7896 473.377 34.9049 470.096 22.5048 458.767C16.5029 453.284 18.7113 450.686 24.0792 446.122C39.6863 441.448 55.2565 436.942 71.6297 435.574Z" fill="#00B4C0"/>
<path d="M287.191 437.687C293.975 438.775 320.973 443.265 322.939 450.052C325.052 457.362 317.634 458.571 313.392 460.975C295.529 471.095 268.99 474.031 248.1 475.653L257.61 465.633C262.064 459.918 269.434 442.509 271.346 435.574C276.566 436.62 281.95 436.842 287.197 437.682L287.191 437.687Z" fill="#00B4C0"/>
<path d="M90.6495 475.653C89.6193 475.558 88.4886 475.79 87.4795 475.653C88.3143 473.25 90.1687 475.558 90.6495 475.653Z" fill="#47A2B3"/>
<path d="M-32.9817 496.743C-33.1454 497.715 -32.8496 498.903 -32.9817 499.907C-61.0259 504.291 -101.391 525.054 -51.4894 541.058C-33.6738 546.773 -11.827 549.578 6.82334 552.467C100.841 567.034 196.449 568.608 290.742 581.269C346.091 588.7 401.075 599.438 455.203 612.759C456.344 619.884 457.581 626.619 458.373 633.855C456.36 634.003 454.77 633.189 453.047 632.323C387.555 599.544 270.919 587.792 196.719 579.14C114.974 569.612 13.8239 566.907 -63.8472 542.849C-74.1286 539.664 -101.391 529.147 -85.7468 515.267C-77.4783 507.93 -51.6003 500.271 -40.3731 497.799C-37.9216 497.261 -35.5705 496.384 -32.9764 496.743H-32.9817Z" fill="#D3EEFB"/>
<path d="M447.806 573.737C449.56 582.172 451.483 590.565 453.089 599.048C440.314 596.512 427.402 594.621 414.51 592.683C412.539 592.387 410.225 594.014 410.822 590.612C416.539 587.227 415.06 580.244 411.388 575.813C402.025 564.52 388.484 577.302 396.029 588.505C393.799 588.125 382.107 588.056 381.23 587.443C381.035 587.306 381.346 585.795 381.235 585.341C391.48 582.478 390.867 573.7 387.575 565.302L447.806 573.737Z" fill="#B3E5EC"/>
<path d="M408.709 470.382C404.15 468.776 401.138 462.58 398.142 458.783C401.333 459.369 400.187 457.172 400.256 455.138C402.131 399.134 399.268 341.895 399.748 285.791C399.358 284.661 396.166 284.09 396.018 285.294V455.613C392.832 451.52 389.615 446.846 386.514 442.958L386.017 284.724C384.326 282.078 381.79 285.052 382.234 287.344L382.282 437.682C379.603 434.354 375.709 430.683 372.771 427.134C374.404 426.088 373.981 423.008 373.897 421.297C372.75 399.261 373.807 375.915 373.876 353.879C373.955 329.34 373.522 304.785 374.071 280.25C380.364 263.396 400.615 263.908 407.695 279.96C409.512 343.184 408.73 406.967 408.698 470.376L408.709 470.382Z" fill="#E9F6FD"/>
<path d="M372.782 427.139C375.72 430.689 379.614 434.354 382.292 437.687C383.692 439.425 385.135 441.221 386.519 442.958C389.615 446.846 392.838 451.52 396.029 455.614C396.8 456.607 397.366 457.79 398.142 458.778C401.138 462.58 404.15 468.771 408.709 470.376C408.709 479.329 408.82 488.324 408.725 497.288C408.704 499.073 409.401 501.978 407.652 503.071C405.243 490.036 394.312 465.76 384.221 489.703C379.27 501.45 378.906 514.781 379.122 527.331C378.161 523.005 377.606 519.376 378.071 514.67C372.423 514.76 366.77 514.084 361.159 513.619V512.563C361.322 479.889 360.937 447.152 361.159 414.479C365.893 416.94 369.337 422.977 372.782 427.134V427.139Z" fill="#D3EEFB"/>
<path d="M407.653 503.071C408.482 507.571 408.805 515.262 408.71 519.947C408.556 527.542 407.88 533.679 400.806 537.942C399.347 538.824 397.086 538.739 397.086 538.93V558.969C397.086 559.154 393.763 559.93 393.525 559.877C388.337 558.747 392.21 542.77 390.572 540.15C388.818 537.345 381.912 539.917 379.117 527.325C378.895 514.776 379.26 501.444 384.216 489.697C394.307 465.76 405.244 490.03 407.648 503.066L407.653 503.071Z" fill="#00B4C0"/>
<path d="M361.159 413.427C361.159 413.781 361.159 414.13 361.159 414.484C360.937 447.157 361.322 479.894 361.159 512.568H360.102L346.365 511.511C348.13 480.111 346.45 445.208 346.365 413.427H361.159Z" fill="#8ED2E2"/>
<path d="M11.3986 484.088V485.144C9.66568 484.896 3.32565 485.144 2.90826 486.898C0.78434 495.734 11.6786 518.05 -1.28149 523.633C-8.67295 526.818 -28.6072 526.559 -32.7388 518.119C-35.3488 512.789 -33.7268 505.596 -32.9818 499.902C-32.8497 498.898 -33.1456 497.71 -32.9818 496.738C-31.5394 488.165 -26.2296 469.705 -16.075 468.263C-10.1681 467.423 -5.26516 470.049 -2.1374 474.918C2.43801 482.044 -0.969772 485.736 11.3986 484.082V484.088Z" fill="#B3E5EC"/>
<path d="M143.484 509.404C161.389 509.89 180.52 509.843 198.431 509.404C219.998 508.881 241.565 507.313 262.888 504.133C262.629 505.813 263.258 513.286 262.894 513.63C262.661 513.846 258.598 513.271 256.559 514.168C249.474 517.285 253.267 538.666 252.322 545.263C247.535 545.823 242.336 545.844 237.528 546.319C235.795 538.148 242.822 514.39 229.587 515.647C218.333 516.714 224.129 539.569 222.735 547.375C218.138 547.714 213.631 548.152 208.998 548.432C208.005 540.884 213.034 517.258 201.104 516.91C188.71 516.545 194.389 541.761 193.148 549.488C188.25 549.689 183.257 549.446 178.354 549.488C177.054 542.289 182.607 518.23 171.512 517.961C158.679 517.649 165.035 541.613 163.561 549.488C158.668 549.224 153.665 549.678 148.767 549.488V523.649C148.767 521.737 143.304 516.867 140.842 516.867C138.38 516.867 132.917 521.737 132.917 523.649V548.432H119.18V522.593C119.18 522.287 116.56 517.855 115.978 517.359C112.254 514.174 104.387 516.514 104.387 520.486V547.381C99.9276 545.939 95.2835 546.293 90.65 546.324V519.429C90.65 518.014 85.6783 512.822 83.7235 512.547C80.955 512.151 75.8565 514.665 75.8565 517.322V544.217C71.2335 544.006 66.6634 542.743 62.1197 542.109C60.8358 534.593 66.3306 507.994 55.172 507.328C44.0135 506.663 49.9045 533.12 48.3829 540.002C45.8205 539.437 36.4213 537.873 35.8402 536.173C33.2989 528.688 41.6889 498.814 26.7739 500.948C25.0303 501.196 21.966 504.45 21.966 505.728V533.674L12.4189 529.797L12.4559 486.217C18.5529 488.24 24.2061 491.705 30.6677 493.875C63.1552 504.814 109.078 508.485 143.484 509.415V509.404Z" fill="#FEFEFF"/>
<path d="M324.175 516.783C324.366 520.897 324.239 525.154 323.996 529.264C321.248 530.352 318.506 531.619 315.722 532.602C315.252 527.706 318.538 500.757 309.07 503.187C300.184 505.464 303.676 528.831 303.042 535.766C298.667 536.912 294.879 537.995 290.362 538.93C289.236 533.119 295.566 506.705 283.731 508.517C273.529 510.08 279.066 533.568 277.682 541.037C269.265 542.484 260.817 544.259 252.321 545.257C253.272 538.655 249.474 517.279 256.559 514.163C258.598 513.265 262.661 513.846 262.893 513.624C263.258 513.281 262.624 505.807 262.888 504.127C283.382 501.069 305.425 497.34 323.108 486.201C323.367 495.518 322.812 504.909 323.076 514.232C323.113 515.6 324.17 516.624 324.175 516.783Z" fill="#D3EEFB"/>
<path d="M387.575 565.297C390.867 573.695 391.48 582.473 381.235 585.336C374.721 587.158 368.74 584.929 362.215 584.28C354.491 579.014 352.615 570.499 356.932 562.133C358.189 559.692 364.165 554.432 366.738 553.465C376.565 549.757 384.194 556.666 387.575 565.297Z" fill="#60C4D6"/>
<path d="M356.932 562.133C352.615 570.499 354.491 579.014 362.215 584.28C353.984 583.461 333.046 582.494 326.964 577.815C323.377 575.052 323.874 572.528 326.779 569.464C332.422 563.511 349.001 563.348 356.937 562.133H356.932Z" fill="#B3E5EC"/>
<path d="M208.998 548.426C203.878 548.733 198.489 549.261 193.147 549.483C194.389 541.755 188.715 516.54 201.104 516.904C213.034 517.253 208.004 540.884 208.998 548.426Z" fill="#E5F2FB"/>
<path d="M178.354 549.478C172.875 549.525 169.477 549.795 163.56 549.478C165.039 541.602 158.678 517.639 171.512 517.95C182.607 518.22 177.049 542.279 178.354 549.478Z" fill="#E5F2FB"/>
<path d="M237.528 546.314C232.53 546.805 227.716 547 222.734 547.37C224.124 539.563 218.333 516.709 229.587 515.642C242.822 514.39 235.795 538.148 237.528 546.314Z" fill="#E5F2FB"/>
<path d="M62.1193 542.093C57.4541 541.444 53.0055 541.005 48.3825 539.986C49.9041 533.104 43.8282 506.631 55.1716 507.312C66.5151 507.994 60.8354 534.582 62.1193 542.093Z" fill="#E5F2FB"/>
<path d="M290.361 538.93C286.098 539.812 281.94 540.308 277.681 541.037C279.066 533.568 273.529 510.075 283.731 508.517C295.566 506.705 289.236 533.12 290.361 538.93Z" fill="#B1E6F5"/>
<path d="M315.722 532.602C311.58 534.06 307.247 534.662 303.042 535.766C303.676 528.831 300.183 505.464 309.07 503.187C318.543 500.758 315.252 527.706 315.722 532.602Z" fill="#B1E6F5"/>
<path d="M410.823 590.613C405.46 593.787 400.821 589.318 396.029 588.505C388.485 577.302 402.026 564.52 411.388 575.813C415.06 580.244 416.539 587.227 410.823 590.613Z" fill="#60C4D6"/>
<path d="M361.159 513.619C360.678 513.582 360.203 513.064 360.103 512.562H361.159V513.619Z" fill="#B8E6EF"/>
<path d="M198.431 509.404C180.52 509.842 161.389 509.89 143.483 509.404H198.431Z" fill="#60C4D6"/>
<path d="M386.519 442.958C385.135 441.22 383.692 439.419 382.292 437.687L382.245 287.349C381.801 285.057 384.337 282.083 386.027 284.729L386.524 442.963L386.519 442.958Z" fill="#FEFEFF"/>
</g>
<rect opacity="0.49" x="-554" width="2301" height="1295" fill="#E3F7FF"/>
</g>
<defs>
<clipPath id="clip0_2635_7664">
<rect width="1538.52" height="862" fill="white" transform="translate(-574)"/>
</clipPath>
</defs>
</svg>
