<svg width="389" height="391" viewBox="0 0 389 391" fill="none" xmlns="http://www.w3.org/2000/svg">
<path d="M374.259 53.0859C358.876 32.0547 334.144 16.6058 300.715 7.06388C293.38 4.98672 285.786 3.81832 278.191 3.49376C271.57 3.1692 264.884 3.49376 258.328 4.53234C277.737 17.3848 307.466 38.2862 245.216 39.844C240.607 39.9739 235.479 39.9739 231.065 39.3247C216.266 38.3511 206.269 34.9757 197.701 30.0424H197.571L196.598 29.4582C195.948 29.0039 194.261 27.9653 194.261 27.9653C193.936 27.7706 193.612 27.5758 193.287 27.3811C186.731 23.4215 176.54 18.3584 162.779 12.1919C151.03 6.93405 138.502 4.07796 125.909 3.49376C115.329 3.03938 104.683 4.14287 94.4272 7.06388C65.6716 15.2427 43.3421 27.9004 27.8283 44.7124C21.467 56.3964 11.4707 82.4258 23.1547 116.18C23.6091 117.543 24.0635 118.906 24.5828 120.269C26.0108 123.904 27.6336 127.604 29.5809 131.369C57.8173 185.959 95.4009 212.443 139.865 214.91C139.865 214.91 113.316 226.269 87.2221 218.545C61.1927 210.82 68.0084 219.908 76.5766 239.771C85.1449 259.633 90.2729 317.534 97.0886 342.33C100.139 353.43 102.736 363.232 106.501 369.268C109.941 372.319 113.511 374.202 117.146 374.526C124.741 375.11 132.53 368.554 140.384 354.988C140.384 354.923 140.449 354.858 140.514 354.728C150.9 336.748 156.547 317.924 161.545 301.371C164.921 290.077 168.037 279.821 172.126 271.382C177.579 260.153 184.719 252.298 196.727 249.832C186.601 243.73 173.229 237.564 159.144 235.357L159.663 231.981C182.382 235.486 201.076 248.014 208.996 253.986C221.848 262.295 227.236 280.016 233.597 301.306C238.595 317.989 244.307 336.813 254.758 354.923C262.612 368.425 270.337 375.046 277.996 374.461C286.5 373.812 294.548 364.465 301.754 351.807C307.985 340.902 313.632 327.531 318.501 315.003C329.341 287.156 338.428 245.678 345.114 215.429C349.269 196.41 352.579 181.415 355.046 175.184C356.149 172.458 358.162 168.563 360.823 163.565C373.61 139.223 400.289 88.5274 374.324 53.0859H374.259ZM130.972 132.797C113.771 132.797 99.8149 119.23 99.8149 102.613C99.8149 85.9959 113.771 72.4295 130.972 72.4295C148.174 72.4295 162.13 85.9959 162.13 102.613C162.13 119.23 148.174 132.797 130.972 132.797Z" fill="white"/>
<path d="M50.1589 215.492C56.8447 245.741 65.9323 287.219 76.7725 315.066C77.4216 316.689 78.0707 318.312 78.7198 319.999C65.2832 278.716 55.5465 233.603 47.4326 203.159C48.2765 207.054 49.1852 211.143 50.1589 215.557V215.492Z" fill="white"/>
<path d="M111.173 97.8063C111.173 92.159 113.12 87.0311 116.301 82.7469C116.301 83.0715 116.106 83.3311 116.106 83.5908C116.106 87.1609 119.092 90.017 122.727 90.017C126.362 90.017 129.348 87.1609 129.348 83.5908C129.348 80.0206 126.362 77.1646 122.727 77.1646C122.338 77.1646 122.013 77.2944 121.689 77.3593C120.326 77.6189 119.027 78.1382 118.054 79.047C109.291 83.5259 103.254 92.3538 103.254 102.61C103.254 117.41 115.717 129.418 131.036 129.418C139.604 129.418 147.134 125.588 152.262 119.681C148.172 122.213 143.304 123.706 138.111 123.706C123.311 123.706 111.303 112.087 111.303 97.7414L111.173 97.8063Z" fill="white"/>
<path d="M238.468 97.8063C238.468 92.159 240.416 87.0311 243.596 82.7469C243.596 83.0715 243.402 83.3311 243.402 83.5908C243.402 87.1609 246.388 90.017 250.023 90.017C251.191 90.017 252.23 89.6275 253.203 89.1082C255.216 88.0047 256.644 85.9925 256.644 83.5908C256.644 80.3452 254.112 77.7488 250.867 77.3593C250.542 77.3593 250.282 77.1646 249.958 77.1646C249.568 77.1646 249.244 77.2944 248.919 77.3593C247.556 77.6189 246.258 78.1382 245.284 79.047C236.521 83.5259 230.484 92.3538 230.484 102.61C230.484 117.41 242.947 129.418 258.266 129.418C266.835 129.418 274.364 125.588 279.492 119.681C275.403 122.213 270.535 123.706 265.342 123.706C250.542 123.706 238.533 112.087 238.533 97.7414L238.468 97.8063Z" fill="white"/>
<path d="M144.084 112.155C145.966 112.155 147.524 110.662 147.524 108.845C147.524 107.027 145.966 105.534 144.084 105.534C142.201 105.534 140.644 107.027 140.644 108.845C140.644 110.662 142.201 112.155 144.084 112.155Z" fill="white"/>
<path d="M181.695 153.448C197.664 156.175 211.36 154.357 217.397 153.189C219.084 152.864 219.993 150.917 219.084 149.424C202.078 119.759 185.395 140.985 179.943 149.554C178.969 151.047 179.943 153.059 181.695 153.383V153.448Z" fill="#F0679B"/>
<path d="M194.257 27.9663C194.257 27.9663 194.452 28.0966 194.517 28.0966C194.452 28.0966 194.387 27.9663 194.257 27.9663Z" fill="#9F60A7"/>
<path d="M258.329 4.53418C249.436 5.89732 240.738 8.42885 232.364 12.1937C217.889 18.6848 207.309 23.9426 200.817 27.9671C212.436 34.3933 229.508 39.067 268.779 34.3284L269.169 37.7038C257.874 39.067 248.332 39.6511 240.089 39.6511C236.843 39.6511 233.857 39.5213 231.001 39.3266C235.415 39.9757 239.894 39.6511 244.503 39.5862C308.245 39.002 277.607 17.3217 258.264 4.53418H258.329Z" fill="#CDEDEF"/>
<path d="M87.2864 218.48C113.316 226.205 139.929 214.845 139.929 214.845C95.4652 212.379 57.8167 185.895 29.6452 131.304C27.6979 127.54 26.0751 123.84 24.647 120.205C24.1278 118.841 23.6734 117.478 23.219 116.115C11.5999 82.4263 21.5313 56.3969 27.8926 44.6479C25.426 47.3742 23.0892 50.1005 20.9471 53.0215C-5.01738 88.463 21.6611 139.159 34.4486 163.5C37.0451 168.499 39.1222 172.393 40.2257 175.12C42.1082 179.923 44.5099 189.984 47.4309 203.031C55.4799 233.475 65.2166 278.588 78.7181 319.872C86.5074 339.345 95.9845 359.792 106.63 369.204C102.8 363.102 100.269 353.366 97.2178 342.266C90.4021 317.47 85.2741 259.569 76.7058 239.706C68.1376 219.843 61.3219 210.756 87.3513 218.48H87.2864Z" fill="#CDEDEF"/>
<path d="M130.971 72.4932C113.769 72.4932 99.8135 86.0596 99.8135 102.677C99.8135 119.294 113.769 132.861 130.971 132.861C148.172 132.861 162.128 119.294 162.128 102.677C162.128 86.0596 148.172 72.4932 130.971 72.4932ZM130.971 129.42C115.652 129.42 103.189 117.412 103.189 102.612C103.189 92.356 109.226 83.5281 117.989 79.0492C118.962 78.1404 120.196 77.6212 121.624 77.3615C121.948 77.3615 122.273 77.1668 122.662 77.1668C126.362 77.1668 129.283 80.0229 129.283 83.593C129.283 87.1631 126.297 90.0192 122.662 90.0192C119.027 90.0192 116.041 87.1631 116.041 83.593C116.041 83.2684 116.171 83.0088 116.236 82.7491C113.055 86.9684 111.108 92.1613 111.108 97.8085C111.108 112.154 123.117 123.773 137.916 123.773C143.109 123.773 147.978 122.28 152.067 119.749C147.004 125.655 139.409 129.485 130.841 129.485L130.971 129.42ZM147.523 108.843C147.523 110.661 145.965 112.154 144.083 112.154C142.201 112.154 140.643 110.661 140.643 108.843C140.643 107.026 142.201 105.533 144.083 105.533C145.965 105.533 147.523 107.026 147.523 108.843Z" fill="#221E1F"/>
<circle cx="131" cy="96" r="33" fill="white"/>
<path d="M376.986 51.0748C361.148 29.4594 335.767 13.5561 301.624 3.81944C279.814 -2.34712 256.446 -0.983986 235.155 7.45447C231.195 8.7527 227.301 10.1807 223.471 11.9333C214.643 16.0228 198.675 25.37 197.571 26.084C197.377 25.9542 197.182 25.8243 196.987 25.6945C196.987 25.6945 196.987 25.6945 196.922 25.6945C196.922 25.6945 196.857 25.6945 196.792 25.6296C196.728 25.6296 196.663 25.5647 196.598 25.4998C196.273 25.3051 195.884 25.0454 195.559 24.8507C195.429 24.7858 195.364 24.7209 195.235 24.6559C188.549 20.6314 178.098 15.4385 164.142 9.20707C141.813 -0.789252 116.692 -2.67168 93.5187 3.94927C87.8065 5.57205 82.4838 7.45447 77.2909 9.40181C54.1176 17.321 28.4127 30.8225 11.3411 54.9046C-20.4654 99.7582 24.0637 166.227 30.425 182.845C36.7863 199.462 49.5089 280.861 66.97 327.337C84.0416 372.84 108.059 416.46 134.283 373.229C138.437 366.673 139.606 363.363 143.435 356.807C154.081 338.372 159.858 319.288 164.921 302.476C169.595 286.962 173.684 273.396 180.435 264.373C183.551 260.349 194.845 248.794 210.294 276.576C222.043 297.673 225.808 334.347 245.151 368.88C262.742 400.232 279.879 393.676 293.445 371.931C303.831 356.287 313.308 338.112 321.747 316.432C332.652 288.325 341.804 246.717 348.49 216.339C352.644 197.45 355.89 182.585 358.292 176.613C359.33 174.082 361.342 170.187 363.874 165.319C376.986 140.328 404.314 88.3988 377.116 51.2695L376.986 51.0748ZM345.05 215.43C338.364 245.679 329.276 287.157 318.436 315.004C313.568 327.532 307.92 340.903 301.689 351.808C294.484 364.466 286.5 373.813 277.931 374.462C270.337 375.047 262.547 368.491 254.693 354.924C244.243 336.879 238.53 317.99 233.532 301.308C227.625 281.575 222.497 265.087 211.657 256.129C210.943 255.545 210.099 254.896 208.931 253.987C201.012 247.951 182.317 235.423 159.598 231.982L159.079 235.358C173.23 237.5 186.601 243.666 196.663 249.833C184.719 252.3 177.514 260.219 172.061 271.383C167.972 279.822 164.856 290.078 161.481 301.372C156.483 317.925 150.835 336.749 140.449 354.729C140.449 354.794 140.385 354.859 140.32 354.989C132.465 368.556 124.676 375.112 117.081 374.527C113.446 374.268 109.876 372.32 106.436 369.27C95.7906 359.922 86.3135 339.41 78.5242 319.937C77.8751 318.314 77.226 316.627 76.5768 315.004C65.8016 287.157 56.6491 245.744 49.9632 215.43C48.9896 211.081 48.0808 206.927 47.237 203.032C44.316 189.985 41.9143 179.924 40.0318 175.12C38.9283 172.394 36.9161 168.499 34.2547 163.501C21.4672 139.159 -5.21129 88.4637 20.7532 53.0221C22.8953 50.1011 25.2321 47.31 27.6987 44.6486C43.1476 27.8366 65.477 15.2438 94.2976 7.00009C104.554 4.07909 115.199 2.9756 125.78 3.42998C138.372 4.01418 150.9 6.87027 162.649 12.1281C176.41 18.2946 186.731 24.0717 194.131 28.291C203.478 33.5488 218.732 45.103 269.104 37.6382L268.714 34.2628C229.443 39.0013 212.371 34.3277 200.752 27.9015C207.243 23.877 217.824 18.5543 232.299 12.1281C240.607 8.36323 249.371 5.83169 258.263 4.46856C264.884 3.42998 271.505 3.17033 278.126 3.42998C285.721 3.75453 293.25 4.92293 300.65 7.00009C334.08 16.4771 358.811 31.9909 374.195 53.0221C400.159 88.4637 373.481 139.159 360.693 163.501C358.097 168.499 356.02 172.394 354.916 175.12C352.45 181.352 349.139 196.346 344.985 215.365L345.05 215.43Z" fill="#221E1F"/>
<path d="M106.242 134.323C98.3232 134.323 91.832 137.374 91.832 141.139C91.832 144.904 98.2583 147.955 106.242 147.955C114.226 147.955 120.653 144.904 120.653 141.139C120.653 137.374 114.226 134.323 106.242 134.323Z" fill="#F7B3C9"/>
<path d="M272.802 141.139C272.802 144.904 279.228 147.955 287.212 147.955C295.196 147.955 301.622 144.904 301.622 141.139C301.622 137.374 295.196 134.323 287.212 134.323C279.228 134.323 272.802 137.374 272.802 141.139Z" fill="#F7B3C9"/>
<path d="M289.088 107.09C286.877 121.63 273.915 132.86 258.265 132.86C243.549 132.86 231.21 122.931 227.951 109.657C231.65 117.782 238.547 124.142 247.034 127.132C250.47 128.602 254.27 129.42 258.265 129.42L258.2 129.485C263.059 129.485 267.584 128.252 271.526 126.108C279.674 122.442 286.064 115.566 289.088 107.09Z" fill="#221E1F"/>
</svg>
