<svg width="390" height="853" viewBox="0 0 390 853" fill="none" xmlns="http://www.w3.org/2000/svg">
<mask id="mask0_2551_5646" style="mask-type:alpha" maskUnits="userSpaceOnUse" x="0" y="0" width="390" height="853">
<path d="M0 9C0 9 118.767 0 195 0C271.233 0 390 9 390 9V853C390 853 271.233 844 195 844C118.767 844 0 853 0 853V9Z" fill="#E3F7FF"/>
</mask>
<g mask="url(#mask0_2551_5646)">
<g clip-path="url(#clip0_2551_5646)">
<path d="M-574.001 194.056V0H964.521V210.931C957.145 211.951 949.775 213.43 942.832 216.181C936.202 218.806 931.035 223.872 924.372 224.643C921.678 173.451 880.103 129.142 829.509 121.573C771.434 112.879 711.558 152.857 691.888 206.711C679.408 199.443 667.595 193.432 653.039 191.182C602.144 183.328 553.891 225.007 540.799 272.095L685.558 273.157C639.075 289.647 593.516 309.501 546.626 324.856C535.98 328.342 524.447 332.794 513.32 333.275C512.369 318.824 511.677 301.473 509.056 287.418C508.734 285.696 509.775 285.59 506.985 285.812C504.708 302.64 502.314 319.532 500.64 336.439L461.178 336.275C457.813 335.192 460.745 331.104 460.607 328.453C460.512 326.551 459.429 325.025 459.424 324.835C459.345 321.349 459.318 317.773 459.424 314.287C459.546 310.177 459.466 305.735 459.424 301.631C459.234 283.721 459.561 265.752 459.429 247.836C455.144 248.427 447.034 246.568 443.574 248.897C438.343 246.663 431.723 248.232 426.054 247.883C424.675 247.799 423.692 246.8 423.497 246.784V224.632L415.044 224.638C416.586 222.572 412.212 177.861 410.96 173.293C410.463 171.492 411.726 170.356 408.709 170.858L404.482 225.699C403.167 225.942 398.48 225.345 398.131 225.689C397.381 226.428 398.723 243.467 397.038 246.747C391.643 248.792 364.83 244.677 362.669 247.777C361.634 277.657 362.463 307.605 362.21 337.49H285.072C285.469 332.889 284.629 327.777 285.03 323.208C289.014 277.91 314.501 227.854 301.9 183.064C293.557 153.406 265.598 136.589 235.409 143.434C230.97 143.857 223.695 146.746 219.558 148.706C217.038 150.153 213.266 149.218 211.105 149.762C193.2 145.98 176.525 135.839 157.701 137.07C145.823 137.846 131.717 144.57 120.215 148.22C118.498 148.764 116.448 147.956 117.055 150.818C115.56 150.369 114.06 150.142 112.829 149.762C94.9498 144.264 88.7418 138.052 68.1736 145.795C10.627 167.461 41.1385 253.16 49.1165 296.138C51.98 311.566 53.7711 327.206 55.7682 342.761L16.6711 343.818C16.7504 333.713 16.3541 324.116 15.6145 314.287C15.5405 313.331 16.9459 311.329 16.6711 311.133L-3.4057 311.123L-3.9552 253.139L-40.4158 210.429C-42.8303 209.415 -73.4898 209.421 -75.3178 210.398C-75.8779 210.699 -76.1473 211.396 -76.3164 211.993C-76.3534 237.642 -76.2689 263.338 -76.3164 288.981H-113.305C-113.321 307.241 -113.263 325.558 -113.3 343.823C-118.261 343.701 -123.206 344.235 -128.146 343.347C-141.899 340.876 -165.104 330.866 -179.363 325.912C-222.545 310.917 -268.362 294.39 -310.122 276.02C-311.707 275.322 -313.577 275.866 -313.012 273.157H-151.346C-171.306 208.243 -252.137 175.68 -307.184 221.474C-308.289 221.231 -313.435 203.357 -314.613 200.404C-336.127 146.508 -395.089 99.3835 -455.674 115.472C-493.466 125.508 -530.265 161.873 -534.914 201.445C-538.771 202.068 -541.492 199.301 -544.905 198.234C-554.251 195.318 -564.147 193.712 -574.006 194.056H-574.001Z" fill="#F4F8FE"/>
<path d="M401.313 690.804C398.185 696.456 398.164 704.833 396.029 710.843C393.467 713.136 396.452 719.057 393.937 720.884C392.986 721.581 374.943 727.608 371.726 728.77C344.664 738.531 257.842 763.261 242.272 781.494C238.468 785.951 236.593 789.263 236.471 795.216C231.431 801.945 232.931 812.403 236.471 819.475C237.496 821.52 237.94 821.615 238.584 822.639C238.917 823.167 240.481 825.523 240.698 825.803C241.004 826.194 241.432 826.49 241.754 826.86C243.403 828.74 244.026 829.426 245.981 831.08C247.55 832.405 248.449 832.643 249.151 833.187C263.469 844.305 278.865 851.795 294.588 860.611H84.3097C73.5369 852.999 61.3481 847.047 52.6411 836.848C41.6041 823.923 39.5859 812.915 50.5225 798.934C79.7871 761.539 178.93 743.554 224.599 729.055C242.774 723.288 279.716 714.329 267.115 688.697C258.973 672.143 235.652 664.331 218.56 660.697C196.761 656.06 172.4 653.049 150.204 649.827C117.806 645.121 85.1814 641.239 52.6094 638.075C52.5513 630.395 52.7573 622.663 52.4932 614.983C44.9485 614.581 34.9523 610.879 27.7775 610.879C21.5854 610.879 5.2914 614.296 -1.28113 615.923C-1.85702 616.066 -2.70764 615.77 -3.38391 615.923C-3.45788 620.83 -3.33109 625.779 -3.39449 630.691L-50.9449 624.363C-50.9661 612.426 -50.908 600.442 -50.9449 588.505C-17.0309 594.595 17.0469 600.315 51.1776 605.227C138.723 617.83 228.541 622.409 313.608 647.039C344.754 656.055 378.483 666.845 401.313 690.804Z" fill="#A0E0EE"/>
<path d="M267.115 688.692C268.039 698.109 257.922 703.248 250.488 706.37C215.686 720.985 168.215 726.922 130.793 736.667C100.392 744.584 35.2005 760.889 16.2437 785.809C-8.57236 818.43 34.0381 845.304 57.8926 860.6H44.1558C-2.32214 834.186 -82.4024 779.392 2.23214 738.077C41.4613 718.925 87.9603 714.641 127.913 698.991C156.486 687.799 144.614 679.38 122.577 673.174C100.339 666.909 75.5602 664.025 52.6092 661.274C52.662 653.557 52.6673 645.787 52.6092 638.07C85.1813 641.234 117.806 645.116 150.204 649.822C172.405 653.044 196.766 656.055 218.56 660.693C235.652 664.326 258.973 672.144 267.115 688.692Z" fill="#B3E5EC"/>
<path d="M467.883 736.154C469.4 743.105 471.83 750.532 474.223 757.25C461.004 759.13 447.088 762.041 434.577 766.72C429.933 768.458 416.582 773.254 418.367 779.693C420.57 787.642 453.306 795.206 461.342 796.996C525.007 811.194 595.107 811.294 658.085 794.16C658.096 794.297 659.057 795.332 659.189 796.706C659.395 798.802 658.349 805.996 659.749 806.942L714.089 818.419C711.965 832.263 711.125 846.63 710.919 860.606C675.668 857.315 632.128 865 597.854 860.606C578.126 858.076 546.231 847.765 525.773 842.378C489.852 832.913 451.441 822.624 416.613 810.005C397.419 803.049 339.534 784.055 378.414 760.24C386.773 755.121 397.228 751.651 406.596 748.815C407.304 755.982 411.436 754.678 411.879 746.707L467.883 736.16V736.154Z" fill="#E9F6FD"/>
<path d="M396.029 724.55C390.144 720.874 392.817 729.668 398.143 728.77C401.318 733.83 405.883 733.487 406.48 734.158C407.119 734.881 406.337 746.19 406.596 748.81C397.229 751.646 386.773 755.111 378.414 760.234C339.534 784.055 397.419 803.049 416.613 810C451.441 822.618 489.852 832.907 525.773 842.372C546.231 847.765 578.126 858.07 597.854 860.6H349.535C335.323 855.118 321.084 849.825 307.268 843.725C312.721 845.399 312.161 835.094 310.185 833.43C309.25 832.638 306.856 832.95 305.837 832.226C304.817 831.502 305.033 829.532 304.156 828.418C300.722 824.06 291.418 826.464 291.418 825.798V802.595C291.418 802.246 296.538 802.854 297.589 799.785C298.91 795.929 296.406 785.233 298.244 782.513C299.253 781.018 302.936 781.309 303.861 780.205C304.701 779.207 304.304 776.328 305.398 775.404C306.344 774.601 309.107 774.981 310.216 773.888C311.326 772.795 311.062 769.208 312.51 768.263C314.528 766.942 320.767 768.796 322.606 765.69C324.122 763.123 322.368 754.958 323.182 754.128C324.334 752.951 334.182 753.521 336.163 753.072C337.595 752.75 337.156 748.746 339.677 747.917C344.537 746.317 350.508 750.484 354.206 744.494C356.959 740.036 355.183 738.172 362.67 737.079L371.731 728.76C374.954 727.598 392.991 721.571 393.942 720.874C396.452 719.041 393.472 713.12 396.035 710.833C396.515 715.064 395.353 720.536 396.035 724.545L396.029 724.55Z" fill="#B8E6EF"/>
<path d="M44.1558 860.606H-50.9451V714.008C-38.3653 710.854 -25.495 708.889 -12.8149 706.138C-11.3989 705.831 -10.2049 704.622 -9.73468 704.516C10.6592 700.053 31.3754 696.773 51.579 691.359C53.4546 689.959 52.5776 665.694 52.6093 661.273C75.5656 664.025 100.339 666.909 122.577 673.173C144.614 679.38 156.486 687.804 127.913 698.991C87.9604 714.641 41.4613 718.925 2.2322 738.077C-82.4023 779.392 -2.32209 834.186 44.1558 860.6V860.606Z" fill="#E9F6FD"/>
<path d="M84.3096 860.606H57.8927C34.0382 845.315 -8.567 818.435 16.2438 785.814C35.2005 760.895 100.392 744.584 130.793 736.672C168.21 726.927 215.686 720.99 250.488 706.375C257.922 703.254 268.045 698.114 267.115 688.697C279.721 714.33 242.779 723.282 224.599 729.056C178.93 743.554 79.7817 761.539 50.5224 798.935C39.5858 812.91 41.604 823.918 52.641 836.848C61.348 847.047 73.5368 852.994 84.3096 860.611V860.606Z" fill="#6BC6D8"/>
<path d="M304.098 842.674C304.442 843.751 305.435 843.477 306.212 843.73C306.545 843.841 306.988 843.609 307.268 843.73C321.084 849.831 335.323 855.123 349.535 860.606H294.588C278.865 851.79 263.469 844.301 249.151 833.182L245.981 831.075C244.026 829.422 243.403 828.735 241.754 826.855L240.698 825.798C240.481 825.518 238.917 823.163 238.584 822.634L236.471 819.47C232.931 812.403 231.431 801.945 236.471 795.211C236.091 813.93 264.616 826.247 279.414 833.029C285.881 835.992 297.605 841.522 304.098 842.668V842.674Z" fill="#6BC6D8"/>
<path d="M112.84 149.762C135.178 167.15 160.316 174.148 187.822 165.011C199.937 160.986 208.797 153.803 219.564 148.706C223.701 146.746 230.976 143.857 235.414 143.434C251.138 141.929 265.482 154.378 271.532 168.032C288.169 205.586 265.725 254.85 258.302 292.309C253.262 317.762 256.823 354.265 255.539 381.303C254.683 399.298 253.156 420.246 249.88 437.877C247.286 451.832 243.44 470.809 228.034 475.663C227.748 477.412 230.596 476.799 231.764 476.752C236.825 476.561 242.97 476.049 248.105 475.648C268.996 474.026 295.534 471.089 313.397 460.969C317.645 458.561 325.063 457.357 322.944 450.046C320.979 443.259 293.981 438.77 287.197 437.682L288.306 382.898C302.36 382.882 316.467 382.724 330.521 382.84V516.783C328.561 516.508 326.215 516.973 324.181 516.783V477.766C323.605 477.111 316.134 482.778 314.692 483.581C286.616 499.136 234.189 500.699 202.092 501.972C156.602 503.779 110.103 503.229 65.0728 495.381C46.6391 492.169 26.7789 487.717 11.4042 476.704C10.1468 470.408 6.99262 467.677 8.30819 459.369C8.74671 456.612 14.6958 448.108 16.6876 447.178C17.6703 446.719 22.2827 446.666 24.0844 446.122C18.7164 450.686 16.5027 453.284 22.5099 458.767C34.91 470.091 70.7948 473.371 87.485 475.653C88.4941 475.79 89.6247 475.558 90.655 475.653C91.6219 475.843 101.185 477.734 98.0465 474.612C97.8985 474.464 95.6214 474.185 94.533 473.403C81.7789 464.223 76.2895 450.141 71.6348 435.574C63.8365 411.156 61.0469 386.918 57.898 361.75C57.1108 355.448 56.5877 349.036 55.7847 342.767C53.7875 327.211 51.9965 311.572 49.1329 296.144C41.155 253.165 10.6434 167.467 68.19 145.801C88.7583 138.057 94.9662 144.269 112.845 149.767L112.84 149.762ZM186.807 360.693C181.429 344.525 168.421 322.141 148.017 334.11C122.836 348.883 123.259 412.339 121.283 438.204C120.242 451.811 120.617 471.734 104.397 475.669C104.112 477.406 105.824 476.641 107.012 476.709C112.491 477.037 117.949 477.396 123.407 477.766C156.364 479.984 189.782 478.806 222.729 477.76C223.31 475.246 222.306 476.054 221.355 475.41C205.278 464.461 202.631 452.27 199.487 433.472C195.361 408.821 194.812 384.747 186.807 360.698V360.693Z" fill="#FEFEFF"/>
<path d="M-76.3054 211.987C-74.0018 212.204 -71.4341 216.049 -69.9864 217.813C-59.9903 229.983 -49.9096 242.163 -40.3995 254.723C-40.4629 279.336 -40.2515 303.955 -40.3308 328.569C-40.3836 345.101 -40.3889 362.256 -40.3731 378.62C-40.3308 418.329 -40.4048 458.085 -40.3731 497.794C-51.6003 500.266 -77.4783 507.925 -85.7468 515.261C-101.391 529.142 -74.1339 539.664 -63.8471 542.843C13.8292 566.897 114.98 569.601 196.719 579.135C270.924 587.787 387.555 599.539 453.047 632.318C454.77 633.179 456.365 633.998 458.373 633.85C459.525 644.308 459.799 653.07 460.486 663.381C455.583 661.733 450.02 671.531 448.863 674.98C440.288 663.111 425.199 655.807 411.847 650.229C386.942 639.824 359.241 633.396 332.835 627.844C244.607 609.305 154.262 603.104 64.9142 591.51C26.2187 586.493 -12.35 580.382 -50.9398 574.788C-50.9927 570.23 -50.9028 565.629 -50.9345 561.071C-52.9317 560.833 -55.399 561.409 -57.2799 561.076C-71.3178 558.599 -85.2343 554.754 -99.547 553.692C-99.0767 540.778 -99.8006 527.7 -99.6579 514.781L-121.727 511.495C-121.79 506.943 -121.684 502.347 -121.737 497.794L-87.9077 486.739C-86.0109 485.155 -86.9461 475.706 -86.8668 472.484C-86.8563 472.13 -86.8721 471.781 -86.8668 471.427H-76.2948C-76.2208 410.628 -76.4163 349.775 -76.3001 288.971C-76.2525 263.322 -76.3371 237.626 -76.3001 211.982L-76.3054 211.987Z" fill="#A9DEE8"/>
<path d="M285.078 337.49C284.412 345.265 283.71 353.711 282.965 361.75C280.925 383.664 277.116 414.621 271.341 435.574C269.429 442.504 262.058 459.918 257.605 465.633L248.094 475.653C242.959 476.054 236.814 476.567 231.753 476.757C230.585 476.799 227.738 477.417 228.023 475.669C243.435 470.809 247.276 451.837 249.87 437.882C253.151 420.251 254.672 399.304 255.528 381.308C256.812 354.27 253.251 317.762 258.291 292.314C265.715 254.855 288.158 205.591 271.521 168.037C265.471 154.384 251.132 141.934 235.404 143.44C265.593 136.594 293.553 153.412 301.895 183.069C314.496 227.86 289.009 277.921 285.025 323.213C284.624 327.782 285.464 332.895 285.068 337.495L285.078 337.49Z" fill="#D3EEFB"/>
<path d="M362.216 337.49C362.469 307.605 361.64 277.657 362.675 247.777C364.836 244.677 391.655 248.791 397.044 246.747C398.729 243.467 397.382 226.428 398.137 225.689C398.486 225.345 403.172 225.942 404.488 225.699L408.715 170.858C411.731 170.356 410.469 171.491 410.965 173.293C412.218 177.861 416.592 222.572 415.049 224.638C414.886 224.859 413.11 224.4 412.936 224.632C412.117 225.72 413.544 243.578 412.931 246.795C416.413 246.996 420.032 246.504 423.503 246.79C423.698 246.806 424.681 247.804 426.06 247.888C431.729 248.237 438.349 246.663 443.58 248.902C440.869 250.725 430.017 263.422 427.185 266.818C425.706 268.593 420.655 274.25 420.354 275.819L420.333 521.003C416.159 521.093 412.762 519.952 408.709 519.947C408.804 515.261 408.482 507.571 407.653 503.071C409.402 501.978 408.709 499.067 408.725 497.287C408.82 488.324 408.704 479.329 408.709 470.376C408.741 406.967 409.523 343.184 407.706 279.96C400.631 263.913 380.375 263.396 374.082 280.25C373.533 304.785 373.961 329.335 373.887 353.879C373.818 375.921 372.761 399.261 373.908 421.297C373.998 423.008 374.42 426.088 372.782 427.134C369.338 422.977 365.893 416.934 361.159 414.478C361.159 414.124 361.159 413.776 361.159 413.422C361.275 396.129 362.084 378.905 362.216 361.744C362.279 353.673 362.147 345.555 362.216 337.485V337.49Z" fill="#FEFEFF"/>
<path d="M15.6256 314.287C16.3653 324.116 16.7615 333.713 16.6823 343.817C16.6347 349.437 16.7034 356.246 16.6823 361.744C16.5925 387.974 14.7856 415.043 15.5834 441.421C15.6415 443.428 15.483 445.414 16.6823 447.168C14.6905 448.103 8.73609 456.601 8.30285 459.358C6.98729 467.672 10.1415 470.403 11.3989 476.693C11.8216 478.796 11.1083 481.801 11.3989 484.077C-0.969497 485.731 2.43829 482.039 -2.13712 474.913C-5.26488 470.043 -10.1679 467.418 -16.0747 468.258C-18.019 429.215 -14.9335 389.939 -16.0535 350.684L1.34461 329.023L15.6256 314.271V314.287Z" fill="#D3EEFB"/>
<path d="M-3.39464 311.123L16.6822 311.133C16.957 311.334 15.5569 313.336 15.6255 314.287L1.34454 329.039L-16.0536 350.7C-14.9335 389.955 -18.019 429.231 -16.0748 468.274C-26.2294 469.716 -31.5392 488.176 -32.9816 496.749C-35.5757 496.384 -37.9268 497.266 -40.3783 497.805C-40.41 458.096 -40.3361 418.339 -40.3783 378.63C-40.1089 376.555 -34.0383 371.225 -34.0383 370.718V338.023L-3.39464 311.128V311.123Z" fill="#A0E0EE"/>
<path d="M362.216 337.49C362.147 345.56 362.279 353.679 362.216 361.749H282.965C283.71 353.716 284.412 345.265 285.078 337.49H362.216Z" fill="#DBEFFC"/>
<path d="M211.111 149.762C206.081 151.03 199.947 154.183 194.209 155.572C165.119 162.613 144.989 159.18 117.067 150.818C116.459 147.961 118.509 148.769 120.226 148.22C131.728 144.57 145.835 137.846 157.712 137.07C176.531 135.839 193.211 145.975 211.116 149.762H211.111Z" fill="#FEFEFF"/>
<path d="M55.7794 342.767C56.5824 349.036 57.1055 355.448 57.8927 361.75H16.6823C16.7034 356.251 16.6348 349.443 16.6823 343.823L55.7794 342.767Z" fill="#DBEFFC"/>
<path d="M219.564 148.706C208.797 153.803 199.936 160.986 187.822 165.011C160.316 174.143 135.178 167.15 112.84 149.762C114.071 150.142 115.571 150.369 117.067 150.818C144.989 159.179 165.119 162.613 194.209 155.572C199.942 154.183 206.076 151.03 211.111 149.762C213.272 149.218 217.044 150.153 219.564 148.706Z" fill="#E9F6FD"/>
<path d="M448.863 674.985C446.375 682.406 445.328 696.641 445.693 704.516L422.446 711.9C421.664 702.794 412.64 670.337 401.313 690.804C378.483 666.846 344.754 656.055 313.608 647.039C228.535 622.409 138.723 617.83 51.1775 605.228C17.0521 600.315 -17.031 594.59 -50.9451 588.505C-50.9609 583.947 -50.8922 579.352 -50.9451 574.793C-12.35 580.392 26.2188 586.498 64.909 591.516C154.256 603.11 244.602 609.31 332.829 627.85C359.236 633.401 386.937 639.824 411.842 650.234C425.194 655.812 440.288 663.117 448.858 674.985H448.863Z" fill="#60C4D6"/>
<path d="M371.726 728.771L362.665 737.089C355.178 738.183 356.953 740.047 354.201 744.505C350.497 750.495 344.532 746.327 339.671 747.928C337.156 748.757 337.59 752.755 336.158 753.083C334.171 753.532 324.328 752.961 323.177 754.139C322.368 754.969 324.122 763.134 322.601 765.701C320.762 768.812 314.522 766.953 312.504 768.274C311.062 769.219 311.321 772.811 310.211 773.899C309.102 774.987 306.338 774.612 305.393 775.415C304.299 776.339 304.695 779.212 303.855 780.216C302.925 781.32 299.243 781.029 298.239 782.524C296.406 785.244 298.905 795.94 297.584 799.796C296.533 802.864 291.413 802.252 291.413 802.606V825.809C291.413 826.48 300.717 824.076 304.151 828.429C305.028 829.543 304.822 831.519 305.831 832.237C306.84 832.955 309.239 832.654 310.179 833.441C312.161 835.11 312.715 845.41 307.263 843.736C306.983 843.614 306.539 843.846 306.206 843.736C305.905 842.669 304.959 842.832 304.093 842.679C297.605 841.528 285.881 836.003 279.409 833.04C264.61 826.258 236.085 813.935 236.466 795.222C236.587 789.274 238.463 785.957 242.267 781.499C257.837 763.266 344.659 738.537 371.72 728.776L371.726 728.771Z" fill="#B3E5EC"/>
<path d="M-1.2812 615.923C5.29133 614.291 21.5853 610.879 27.7774 610.879C34.9522 610.879 44.9484 614.581 52.4931 614.983C52.7573 622.657 52.5512 630.39 52.6093 638.075C52.6674 645.792 52.6622 653.562 52.6093 661.278C52.5776 665.699 53.4494 689.964 51.5791 691.364C31.3807 696.778 10.6592 700.058 -9.73462 704.521V666.555C0.752899 665.113 10.7808 661.976 20.909 659.171C22.0027 658.87 23.8624 659.403 25.141 659.176L25.738 621.131C23.9998 618.728 2.3749 619.113 -1.2812 615.928V615.923Z" fill="#FEFEFF"/>
<path d="M-1.28124 615.923C2.36958 619.103 23.9998 618.723 25.738 621.126L25.141 659.171C23.8624 659.393 22.0026 658.86 20.909 659.166C14.6112 656.536 7.0401 656.905 0.509835 655.764C-1.2601 655.453 -2.89267 653.979 -3.39459 653.895C-3.32063 646.178 -3.49498 638.408 -3.39459 630.691C-3.33119 625.785 -3.45798 620.83 -3.38402 615.923C-2.70774 615.77 -1.85713 616.066 -1.28124 615.923Z" fill="#DBEFFC"/>
<path d="M238.584 822.634C237.94 821.609 237.496 821.514 236.471 819.47L238.584 822.634Z" fill="#A9DEE8"/>
<path d="M249.151 833.182C248.449 832.633 247.55 832.395 245.981 831.075L249.151 833.182Z" fill="#A9DEE8"/>
<path d="M241.754 826.854C241.432 826.484 241.004 826.194 240.698 825.798L241.754 826.854Z" fill="#A9DEE8"/>
<path d="M-3.39461 653.889C-2.89269 653.974 -1.26011 655.453 0.509819 655.759C7.0348 656.9 14.6112 656.53 20.909 659.16C10.7807 661.96 0.752846 665.103 -9.73467 666.545L-50.9451 659.16C-50.9451 655.305 -50.9451 651.417 -50.9451 647.562C-35.1953 650.044 -19.1074 651.227 -3.39461 653.889Z" fill="#E9F6FD"/>
<path d="M306.212 843.73C305.435 843.477 304.442 843.751 304.098 842.674C304.965 842.827 305.911 842.663 306.212 843.73Z" fill="#B8E6EF"/>
<path d="M11.3989 485.144C12.5771 485.313 12.3869 486.174 12.4556 486.201L12.4186 529.781L21.9656 533.658V505.712C21.9656 504.434 25.03 501.18 26.7735 500.932C41.6885 498.798 33.2985 528.672 35.8398 536.157C36.4157 537.857 45.8148 539.421 48.3826 539.986C53.0055 541.011 57.4541 541.444 62.1194 542.093C66.6631 542.727 71.2332 543.99 75.8562 544.201V517.306C75.8562 514.649 80.9546 512.135 83.7231 512.531C85.678 512.811 90.6496 517.998 90.6496 519.413V546.308C95.2832 546.277 99.9272 545.918 104.386 547.365V520.47C104.386 516.498 112.253 514.158 115.978 517.343C116.559 517.839 119.18 522.271 119.18 522.577V548.416H132.917V523.633C132.917 521.721 138.38 516.851 140.842 516.851C143.304 516.851 148.767 521.721 148.767 523.633V549.472C153.665 549.662 158.668 549.208 163.56 549.472C169.478 549.789 172.875 549.52 178.354 549.472C183.257 549.43 188.25 549.673 193.147 549.472C198.489 549.25 203.878 548.722 208.997 548.416C213.631 548.136 218.138 547.698 222.734 547.36C227.716 546.99 232.53 546.794 237.528 546.303C242.336 545.833 247.534 545.812 252.321 545.247C260.817 544.249 269.265 542.479 277.681 541.027C281.94 540.292 286.098 539.801 290.362 538.919C294.879 537.984 298.667 536.901 303.042 535.755C307.247 534.651 311.58 534.049 315.722 532.591C318.511 531.609 321.248 530.341 323.996 529.253C324.239 525.144 324.365 520.882 324.175 516.772C326.209 516.962 328.555 516.498 330.515 516.772C333.474 517.184 344.87 519.899 346.217 516.064C346.688 514.723 346.286 512.932 346.365 511.501L360.102 512.557C360.203 513.059 360.678 513.571 361.159 513.614C366.77 514.073 372.423 514.755 378.071 514.665C377.606 519.371 378.161 523 379.122 527.325C381.917 539.912 388.823 537.34 390.577 540.15C392.209 542.764 388.342 558.747 393.53 559.878C393.763 559.93 397.091 559.149 397.091 558.969V538.93C397.091 538.74 399.347 538.819 400.811 537.942C407.885 533.679 408.561 527.547 408.715 519.947C412.767 519.952 416.164 521.093 420.338 521.003C422.282 520.961 423.904 520.163 425.621 519.947C425.019 523.264 427.265 521.753 429.251 522.075C432.257 522.561 440.653 522.788 441.324 524.843C442.512 528.461 441.192 539.532 441.609 544.597C442.428 554.553 445.804 564.071 447.812 573.737L387.581 565.302C384.2 556.666 376.57 549.763 366.743 553.471C364.17 554.442 358.195 559.698 356.937 562.138C349.002 563.353 332.423 563.517 326.78 569.469C323.879 572.528 323.383 575.058 326.965 577.82C333.046 582.505 353.984 583.472 362.216 584.285C368.741 584.935 374.721 587.158 381.236 585.341C381.347 585.796 381.035 587.312 381.23 587.444C382.113 588.056 393.8 588.125 396.029 588.505C400.821 589.319 405.46 593.787 410.823 590.613C410.226 594.014 412.54 592.387 414.51 592.683C427.402 594.627 440.315 596.518 453.09 599.048C453.967 603.669 454.463 608.148 455.203 612.76C401.07 599.439 346.085 588.701 290.742 581.269C196.449 568.608 100.841 567.034 6.82345 552.467C-11.8269 549.578 -33.6684 546.773 -51.4893 541.058C-101.386 525.059 -61.0258 504.291 -32.9816 499.907C-33.7265 505.596 -35.3485 512.79 -32.7385 518.124C-28.6069 526.565 -8.6727 526.824 -1.28124 523.639C11.6789 518.05 0.789871 495.735 2.90851 486.903C3.33118 485.15 9.66592 484.902 11.3989 485.15V485.144Z" fill="#E9F6FD"/>
<path d="M186.807 360.693C183.294 363.508 164.295 360.408 162.625 361.876C152.893 385.027 152.053 410.639 146.654 434.523C142.992 450.712 137.666 467.899 123.407 477.766C117.944 477.396 112.486 477.037 107.012 476.709C105.824 476.641 104.112 477.407 104.397 475.669C120.617 471.734 120.247 451.811 121.283 438.205C123.259 412.339 122.836 348.883 148.017 334.11C168.416 322.141 181.423 344.525 186.807 360.693Z" fill="#D3EEFB"/>
<path d="M57.8926 361.75C61.0415 386.918 63.8311 411.156 71.6293 435.574C55.2561 436.942 39.686 441.448 24.0789 446.122C22.2773 446.661 17.6649 446.714 16.6822 447.178C15.4828 445.419 15.6414 443.439 15.5832 441.432C14.7907 415.054 16.5923 387.979 16.6822 361.755H57.8926V361.75Z" fill="#E9F6FD"/>
<path d="M199.487 433.467C202.631 452.265 205.278 464.461 221.355 475.405C222.301 476.049 223.31 475.241 222.729 477.755C189.782 478.801 156.364 479.979 123.407 477.76C137.667 467.894 142.992 450.707 146.654 434.518L199.487 433.461V433.467Z" fill="#00B4C0"/>
<path d="M199.487 433.467L146.654 434.523C152.053 410.639 152.888 385.032 162.625 361.876C164.295 360.413 183.294 363.509 186.807 360.693C194.812 384.742 195.361 408.811 199.487 433.467Z" fill="#E9F6FD"/>
<path d="M362.216 361.75C362.083 378.91 361.275 396.14 361.159 413.427H346.365C346.339 403.244 346.381 393.018 346.371 382.835C341.098 382.808 335.788 382.882 330.515 382.84C316.461 382.724 302.355 382.877 288.301 382.898L287.191 437.682C281.945 436.842 276.561 436.615 271.341 435.574C277.116 414.616 280.925 383.664 282.965 361.75H362.216Z" fill="#E9F6FD"/>
<path d="M330.515 382.84C335.788 382.882 341.098 382.808 346.371 382.834C346.381 393.018 346.339 403.244 346.365 413.427C346.45 445.208 348.13 480.111 346.365 511.511C346.286 512.943 346.688 514.733 346.217 516.075C344.87 519.909 333.474 517.194 330.515 516.783V382.84Z" fill="#B1E6F5"/>
<path d="M11.3989 476.709C26.7735 487.722 46.6337 492.174 65.0674 495.386C110.098 503.235 156.597 503.784 202.087 501.977C234.183 500.699 286.61 499.136 314.686 483.586C316.134 482.783 323.605 477.116 324.17 477.771V516.788C324.17 516.624 323.113 515.605 323.076 514.237C322.812 504.914 323.367 495.523 323.108 486.206C305.424 497.345 283.382 501.08 262.888 504.132C241.564 507.312 219.997 508.881 198.431 509.404H143.483C109.078 508.469 63.1549 504.798 30.6673 493.864C24.2058 491.688 18.5473 488.229 12.4555 486.206C12.3868 486.185 12.577 485.318 11.3989 485.149V484.093C11.1083 481.822 11.8215 478.811 11.3989 476.709Z" fill="#8ED2E2"/>
<path d="M71.6294 435.574C76.2841 450.142 81.7788 464.223 94.5276 473.403C95.616 474.185 97.8931 474.465 98.0411 474.612C101.179 477.729 91.6165 475.843 90.6496 475.653C90.1688 475.558 88.3144 473.25 87.4796 475.653C70.7894 473.377 34.9047 470.096 22.5046 458.767C16.5026 453.284 18.7111 450.686 24.079 446.122C39.6861 441.448 55.2562 436.942 71.6294 435.574Z" fill="#00B4C0"/>
<path d="M287.192 437.687C293.975 438.775 320.974 443.265 322.939 450.052C325.052 457.362 317.634 458.571 313.392 460.975C295.529 471.095 268.99 474.031 248.1 475.653L257.61 465.633C262.064 459.918 269.434 442.509 271.347 435.574C276.567 436.62 281.95 436.842 287.197 437.682L287.192 437.687Z" fill="#00B4C0"/>
<path d="M90.6495 475.653C89.6193 475.558 88.4886 475.79 87.4795 475.653C88.3143 473.25 90.1687 475.558 90.6495 475.653Z" fill="#47A2B3"/>
<path d="M-32.9815 496.743C-33.1453 497.715 -32.8494 498.903 -32.9815 499.907C-61.0257 504.291 -101.391 525.054 -51.4892 541.058C-33.6737 546.773 -11.8269 549.578 6.82346 552.467C100.841 567.034 196.449 568.608 290.742 581.269C346.091 588.7 401.075 599.438 455.203 612.759C456.344 619.884 457.581 626.619 458.373 633.855C456.36 634.003 454.77 633.189 453.048 632.323C387.555 599.544 270.919 587.792 196.719 579.14C114.974 569.612 13.824 566.907 -63.847 542.849C-74.1285 539.664 -101.391 529.147 -85.7467 515.267C-77.4782 507.93 -51.6002 500.271 -40.373 497.799C-37.9215 497.261 -35.5704 496.384 -32.9762 496.743H-32.9815Z" fill="#D3EEFB"/>
<path d="M447.807 573.737C449.561 582.172 451.484 590.565 453.09 599.048C440.315 596.512 427.402 594.621 414.511 592.683C412.54 592.387 410.226 594.014 410.823 590.612C416.539 587.227 415.06 580.244 411.388 575.813C402.026 564.52 388.485 577.302 396.029 588.505C393.8 588.125 382.108 588.056 381.231 587.443C381.035 587.306 381.347 585.795 381.236 585.341C391.48 582.478 390.867 573.7 387.576 565.302L447.807 573.737Z" fill="#B3E5EC"/>
<path d="M408.709 470.382C404.15 468.776 401.138 462.58 398.143 458.783C401.334 459.369 400.187 457.172 400.256 455.138C402.132 399.134 399.268 341.895 399.749 285.791C399.358 284.661 396.167 284.09 396.019 285.294V455.613C392.833 451.52 389.615 446.846 386.514 442.958L386.017 284.724C384.327 282.078 381.79 285.052 382.234 287.344L382.282 437.682C379.603 434.354 375.709 430.683 372.772 427.134C374.404 426.088 373.982 423.008 373.897 421.297C372.751 399.261 373.807 375.915 373.876 353.879C373.955 329.34 373.522 304.785 374.071 280.25C380.364 263.396 400.615 263.908 407.695 279.96C409.512 343.184 408.73 406.967 408.699 470.376L408.709 470.382Z" fill="#E9F6FD"/>
<path d="M372.782 427.139C375.72 430.689 379.614 434.354 382.292 437.687C383.692 439.425 385.135 441.221 386.519 442.958C389.615 446.846 392.838 451.52 396.029 455.614C396.8 456.607 397.366 457.79 398.142 458.778C401.138 462.58 404.15 468.771 408.709 470.376C408.709 479.329 408.82 488.324 408.725 497.288C408.704 499.073 409.401 501.978 407.652 503.071C405.243 490.036 394.312 465.76 384.221 489.703C379.27 501.45 378.906 514.781 379.122 527.331C378.161 523.005 377.606 519.376 378.071 514.67C372.423 514.76 366.77 514.084 361.159 513.619V512.563C361.322 479.889 360.937 447.152 361.159 414.479C365.893 416.94 369.337 422.977 372.782 427.134V427.139Z" fill="#D3EEFB"/>
<path d="M407.653 503.071C408.482 507.571 408.804 515.262 408.709 519.947C408.556 527.542 407.88 533.679 400.805 537.942C399.347 538.824 397.086 538.739 397.086 538.93V558.969C397.086 559.154 393.763 559.93 393.525 559.877C388.337 558.747 392.209 542.77 390.572 540.15C388.817 537.345 381.912 539.917 379.117 527.325C378.895 514.776 379.26 501.444 384.216 489.697C394.307 465.76 405.243 490.03 407.647 503.066L407.653 503.071Z" fill="#00B4C0"/>
<path d="M361.159 413.427C361.159 413.781 361.159 414.13 361.159 414.484C360.937 447.157 361.322 479.894 361.159 512.568H360.102L346.365 511.511C348.13 480.111 346.45 445.208 346.365 413.427H361.159Z" fill="#8ED2E2"/>
<path d="M11.3989 484.088V485.144C9.66592 484.896 3.32589 485.144 2.9085 486.898C0.784584 495.734 11.6789 518.05 -1.28125 523.633C-8.6727 526.818 -28.6069 526.559 -32.7385 518.119C-35.3485 512.789 -33.7265 505.596 -32.9816 499.902C-32.8495 498.898 -33.1453 497.71 -32.9816 496.738C-31.5392 488.165 -26.2294 469.705 -16.0747 468.263C-10.1679 467.423 -5.26492 470.049 -2.13715 474.918C2.43826 482.044 -0.969528 485.736 11.3989 484.082V484.088Z" fill="#B3E5EC"/>
<path d="M143.483 509.404C161.389 509.89 180.52 509.843 198.431 509.404C219.997 508.881 241.564 507.313 262.888 504.133C262.629 505.813 263.258 513.286 262.893 513.63C262.661 513.846 258.598 513.271 256.558 514.168C249.473 517.285 253.267 538.666 252.321 545.263C247.534 545.823 242.336 545.844 237.528 546.319C235.795 538.148 242.822 514.39 229.587 515.647C218.333 516.714 224.129 539.569 222.734 547.375C218.138 547.714 213.631 548.152 208.997 548.432C208.004 540.884 213.034 517.258 201.104 516.91C188.709 516.545 194.389 541.761 193.147 549.488C188.25 549.689 183.257 549.446 178.354 549.488C177.054 542.289 182.607 518.23 171.512 517.961C158.678 517.649 165.034 541.613 163.56 549.488C158.668 549.224 153.665 549.678 148.767 549.488V523.649C148.767 521.737 143.304 516.867 140.842 516.867C138.38 516.867 132.917 521.737 132.917 523.649V548.432H119.18V522.593C119.18 522.287 116.559 517.855 115.978 517.359C112.253 514.174 104.386 516.514 104.386 520.486V547.381C99.9272 545.939 95.2831 546.293 90.6496 546.324V519.429C90.6496 518.014 85.678 512.822 83.7231 512.547C80.9546 512.151 75.8561 514.665 75.8561 517.322V544.217C71.2332 544.006 66.6631 542.743 62.1193 542.109C60.8355 534.593 66.3302 507.994 55.1717 507.328C44.0132 506.663 49.9042 533.12 48.3825 540.002C45.8201 539.437 36.421 537.873 35.8398 536.173C33.2985 528.688 41.6885 498.814 26.7735 500.948C25.03 501.196 21.9656 504.45 21.9656 505.728V533.674L12.4186 529.797L12.4555 486.217C18.5526 488.24 24.2058 491.705 30.6673 493.875C63.1549 504.814 109.078 508.485 143.483 509.415V509.404Z" fill="#FEFEFF"/>
<path d="M324.175 516.783C324.365 520.897 324.239 525.154 323.996 529.264C321.248 530.352 318.506 531.619 315.722 532.602C315.252 527.706 318.538 500.757 309.07 503.187C300.183 505.464 303.676 528.831 303.042 535.766C298.667 536.912 294.879 537.995 290.361 538.93C289.236 533.119 295.566 506.705 283.731 508.517C273.529 510.08 279.066 533.568 277.681 541.037C269.265 542.484 260.817 544.259 252.321 545.257C253.272 538.655 249.473 517.279 256.558 514.163C258.598 513.265 262.661 513.846 262.893 513.624C263.258 513.281 262.624 505.807 262.888 504.127C283.382 501.069 305.424 497.34 323.108 486.201C323.367 495.518 322.812 504.909 323.076 514.232C323.113 515.6 324.17 516.624 324.175 516.783Z" fill="#D3EEFB"/>
<path d="M387.576 565.297C390.867 573.695 391.48 582.473 381.236 585.336C374.721 587.158 368.741 584.929 362.216 584.28C354.491 579.014 352.616 570.499 356.932 562.133C358.19 559.692 364.165 554.432 366.738 553.465C376.565 549.757 384.194 556.666 387.576 565.297Z" fill="#60C4D6"/>
<path d="M356.932 562.133C352.616 570.499 354.491 579.014 362.216 584.28C353.984 583.461 333.046 582.494 326.965 577.815C323.377 575.052 323.874 572.528 326.78 569.464C332.423 563.511 349.002 563.348 356.937 562.133H356.932Z" fill="#B3E5EC"/>
<path d="M208.998 548.426C203.878 548.733 198.489 549.261 193.147 549.483C194.389 541.755 188.715 516.54 201.104 516.904C213.034 517.253 208.004 540.884 208.998 548.426Z" fill="#E5F2FB"/>
<path d="M178.354 549.478C172.875 549.525 169.478 549.795 163.56 549.478C165.04 541.602 158.678 517.639 171.512 517.95C182.607 518.22 177.049 542.279 178.354 549.478Z" fill="#E5F2FB"/>
<path d="M237.528 546.314C232.53 546.805 227.716 547 222.734 547.37C224.124 539.563 218.333 516.709 229.587 515.642C242.822 514.39 235.795 538.148 237.528 546.314Z" fill="#E5F2FB"/>
<path d="M62.1193 542.093C57.4541 541.444 53.0055 541.005 48.3825 539.986C49.9041 533.104 43.8282 506.631 55.1716 507.312C66.5151 507.994 60.8354 534.582 62.1193 542.093Z" fill="#E5F2FB"/>
<path d="M290.361 538.93C286.098 539.812 281.94 540.308 277.681 541.037C279.066 533.568 273.529 510.075 283.731 508.517C295.566 506.705 289.236 533.12 290.361 538.93Z" fill="#B1E6F5"/>
<path d="M315.722 532.602C311.58 534.06 307.247 534.662 303.042 535.766C303.676 528.831 300.183 505.464 309.07 503.187C318.543 500.758 315.252 527.706 315.722 532.602Z" fill="#B1E6F5"/>
<path d="M410.823 590.613C405.46 593.787 400.821 589.318 396.029 588.505C388.485 577.302 402.026 564.52 411.388 575.813C415.06 580.244 416.539 587.227 410.823 590.613Z" fill="#60C4D6"/>
<path d="M361.159 513.619C360.678 513.582 360.203 513.064 360.102 512.562H361.159V513.619Z" fill="#B8E6EF"/>
<path d="M198.431 509.404C180.52 509.842 161.389 509.89 143.483 509.404H198.431Z" fill="#60C4D6"/>
<path d="M386.519 442.958C385.135 441.22 383.693 439.419 382.292 437.687L382.245 287.349C381.801 285.057 384.337 282.083 386.028 284.729L386.524 442.963L386.519 442.958Z" fill="#FEFEFF"/>
</g>
</g>
<defs>
<clipPath id="clip0_2551_5646">
<rect width="1538.52" height="862" fill="white" transform="translate(-574)"/>
</clipPath>
</defs>
</svg>
