<svg width="80" height="80" viewBox="0 0 80 80" fill="none" xmlns="http://www.w3.org/2000/svg">
<path d="M68.2386 11.7045C60.7386 4.20454 50.5682 0 40 0C29.375 0 19.2045 4.20454 11.7045 11.7045C4.20454 19.2045 0 29.375 0 40C0 50.625 4.20454 60.7955 11.7045 68.2955C19.2045 75.7955 29.375 80 40 80C50.625 80 60.7955 75.7955 68.2955 68.2955C75.7955 60.7955 80 50.625 80 40C80 29.375 75.7955 19.2614 68.2955 11.7614L68.2386 11.7045ZM55.1705 33.75V48.6932L42.1591 56.3068V43.2955L46.9318 38.5227L55.1705 33.75ZM37.7273 47.7273V56.5909L32.1591 53.3523L37.7273 47.7273ZM24.375 48.9205V33.3523L34.9432 39.4318L25.1136 49.2614L24.4318 48.9205H24.375ZM37.8409 36.5341L26.3636 29.9432L39.8864 22.1591L47.7273 26.7045L37.8409 36.5909V36.5341ZM5.79545 29.6591C9.31818 18.2955 18.2386 9.375 29.6023 5.85227C40.9091 2.38636 53.1818 4.60227 62.4432 11.875L50.5682 23.8068L40.8523 18.1818C40.2273 17.8409 39.4886 17.8409 38.9205 18.1818L21.5341 28.2955C20.9659 28.6364 20.5682 29.2614 20.5682 29.9432C20.5682 30.1136 20.5682 30.2273 20.5682 30.3977V50.0568C20.5682 50.7386 20.9659 51.3636 21.5341 51.7045L22.3295 52.1591L11.9318 62.5568C4.65909 53.2386 2.38636 40.9659 5.85227 29.6591H5.79545ZM64.6023 66.3636C57.8977 72.6136 49.1477 76.0795 40 76.0795C31.8182 76.0795 23.8636 73.2955 17.5 68.1818L29.3182 56.25L38.0682 61.3068C38.2955 61.6477 38.5227 61.9318 38.8636 62.1023C39.5455 62.5 40.3977 62.5 41.0795 62.1023L58.6364 51.9886C59.3182 51.5909 59.7727 50.8523 59.7727 50.0568V29.9432C59.7727 29.1477 59.3182 28.3523 58.5795 27.9545C58.5795 27.9545 58.0114 27.7273 57.6705 27.6705L68.0114 17.2727C73.75 24.375 76.5909 33.3523 75.9659 42.4432C75.3409 51.5341 71.25 60.1136 64.6023 66.3068V66.3636Z" fill="black"/>
</svg>
