<svg width="374" height="752" viewBox="0 0 374 752" fill="none" xmlns="http://www.w3.org/2000/svg">
<path d="M205 -0.000976562C265.751 -0.000976562 315 51.2634 315 114.5C315 122.915 314.127 131.118 312.472 139.017C345.828 161.044 368 200.051 368 244.5C368 274.21 358.093 301.489 341.562 322.892C355.097 336.801 363.498 356.21 363.498 377.683C363.498 396.238 357.223 413.252 346.785 426.508C358.258 443.558 365 464.37 365 486.836C365 508.264 358.865 528.186 348.343 544.775C363.751 562.833 373.126 586.7 373.126 612.87C373.126 669.203 329.697 714.87 276.126 714.87C258.616 714.87 242.19 709.99 228.01 701.455C209.666 731.83 177.331 752 140.5 752C83.3387 752 37.0003 703.423 37 643.5C37 634.99 37.9349 626.709 39.7021 618.764C24.1767 608.108 14 590.278 14 570.082C14.0001 553.709 20.6882 538.892 31.4922 528.191C12.1927 510.502 0.00013689 484.495 0 455.5C0 425.003 13.4879 397.809 34.5479 380.125C17.0291 363.644 6.00013 339.678 6 313C6 286.99 16.482 263.556 33.2422 247.125C16.3088 227.364 6.00012 201.199 6 172.5C6 112.444 51.1381 63.4775 107.675 61.0908C126.114 24.7595 162.779 -0.000976562 205 -0.000976562Z" fill="white"/>
</svg>
