<svg width="1760" height="841" viewBox="0 0 1760 841" fill="none" xmlns="http://www.w3.org/2000/svg">
<path d="M977.281 0C1062.13 4.99093e-05 1137.73 41.6286 1186.61 106.517C1208.64 95.9125 1233.14 90 1258.95 90C1323.72 90.0002 1380.22 127.219 1410.17 182.423C1430.31 173.147 1452.57 168 1475.97 168C1566.66 168 1640.18 245.282 1640.18 340.615C1640.18 357.278 1637.93 373.389 1633.74 388.633C1706.13 406.633 1760 475.009 1760 556.615C1760 651.948 1686.48 729.23 1595.8 729.23C1561.63 729.23 1529.9 718.257 1503.62 699.481C1454.46 784.326 1365.51 841 1263.95 841C1198.6 841 1138.47 817.538 1090.81 778.207C1061.48 801.908 1024.75 816 984.896 816C944.029 816 906.456 801.182 876.767 776.382C823.553 808.184 761.998 826.35 696.405 826.35C626.058 826.35 560.356 805.456 504.606 769.254C478.306 786.053 447.433 795.727 414.41 795.727C348.213 795.727 290.655 756.854 261.259 699.639C234.367 718.152 201.726 729 166.535 729C74.5602 729 0 654.903 0 563.5C0 477.632 65.8044 407.039 150.032 398.805C146.094 383.526 143.992 367.452 143.992 350.863C143.992 249.871 221.872 168 317.941 168C326.428 168 334.773 168.642 342.935 169.877C374.491 89.5454 450.286 32.9513 538.771 32.9512C577.168 32.9512 613.177 43.6085 644.217 62.2383C661.262 59.6765 678.686 58.3496 696.405 58.3496C731.469 58.3496 765.38 63.5415 797.479 73.2314C844.913 27.7411 908.016 0 977.281 0Z" fill="white"/>
</svg>
