<svg width="204" height="74" viewBox="0 0 204 74" fill="none" xmlns="http://www.w3.org/2000/svg">
<path d="M14.2932 22.513C14.2932 10.6317 23.9249 1 35.8062 1H38.8794V22.513H14.2932Z" fill="#020203"/>
<path d="M14.2932 22.513H38.8794V53.8605H14.2932V22.513Z" fill="#020203"/>
<path d="M38.8794 53.8605V73.5296H33.7509C28.7672 73.5295 24.2131 71.7062 20.7289 68.6963C17.6714 70.0934 4.15129 69.8416 1.078 67.383C2.41352 67.0016 11.2198 64.3097 12.7565 60.6218C14.2931 56.9338 14.2931 53.8605 14.2931 53.8605H38.8794Z" fill="#020203"/>
<rect x="38.8794" y="1.26477" width="140" height="72" stroke="black" stroke-width="0.6"/>
<rect x="38.8794" y="1.26477" width="140" height="72" fill="#020203"/>
<path d="M203.466 22.513C203.466 10.6317 193.834 1 181.953 1H178.879V22.513H203.466Z" fill="#020203"/>
<rect width="24.5863" height="31.3475" transform="matrix(-1 0 0 1 203.466 22.513)" fill="#020203"/>
<path d="M203.466 53.8605C203.466 64.7234 194.66 73.5295 183.797 73.5295H178.879V53.8605H203.466Z" fill="#020203"/>
<path d="M14.2932 22.7778C14.2932 10.8965 23.9249 1.26477 35.8062 1.26477H38.8794V22.7778H14.2932Z" fill="white" stroke="white" stroke-width="0.614657"/>
<path d="M14.2932 22.7778H38.8794V51.5957H14.2932V22.7778Z" fill="white" stroke="white" stroke-width="0.614657"/>
<path d="M38.8794 51.5958V71.2648H33.7509C28.7672 71.2648 24.2131 69.4414 20.7289 66.4316C17.6714 67.8287 7.69543 68.7618 2 66.97C3.33552 66.5886 11.2199 62.0449 12.7565 58.357C14.2931 54.669 14.2931 51.5958 14.2931 51.5958H38.8794Z" fill="white" stroke="white" stroke-width="0.614657"/>
<rect x="38.8794" y="1.26477" width="140" height="70" fill="white"/>
<rect x="38.8794" y="1.26477" width="140" height="70" stroke="white" stroke-width="0.61"/>
<rect x="38.8794" y="12.2648" width="140" height="49" fill="white"/>
<rect x="38.8794" y="12.2648" width="140" height="49" stroke="white"/>
<path d="M203.466 22.7778C203.466 10.8965 193.834 1.26477 181.953 1.26477H178.879V22.7778H203.466Z" fill="white" stroke="white" stroke-width="0.614657"/>
<rect width="24.5863" height="28.818" transform="matrix(-1 0 0 1 203.466 22.7778)" fill="white" stroke="white" stroke-width="0.614657"/>
<path d="M203.466 51.5957C203.466 62.4586 194.66 71.2648 183.797 71.2648H178.879V51.5957H203.466Z" fill="white" stroke="white" stroke-width="0.614657"/>
</svg>
