<svg width="200" height="34" viewBox="0 0 200 34" fill="none" xmlns="http://www.w3.org/2000/svg">
<path d="M58.3333 0L54.5914 11.5164L42.4824 11.5164L52.2788 18.6339L48.5369 30.1503L58.3333 23.0328L68.1298 30.1503L64.3879 18.6339L74.1843 11.5164L62.0752 11.5164L58.3333 0Z" fill="#FFDD00"/>
<path d="M100 0L96.2581 11.5164L84.149 11.5164L93.9454 18.6339L90.2035 30.1503L100 23.0328L109.796 30.1503L106.054 18.6339L115.851 11.5164L103.742 11.5164L100 0Z" fill="#FFDD00"/>
<path d="M16.6667 0L12.9248 11.5164L0.815765 11.5164L10.6122 18.6339L6.87029 30.1503L16.6667 23.0328L26.4631 30.1503L22.7212 18.6339L32.5176 11.5164L20.4086 11.5164L16.6667 0Z" fill="#FFDD00"/>
<path d="M141.667 0L137.925 11.5164L125.816 11.5164L135.612 18.6339L131.87 30.1503L141.667 23.0328L151.463 30.1503L147.721 18.6339L157.518 11.5164L145.409 11.5164L141.667 0Z" fill="#FFDD00"/>
<path d="M183.333 0L179.591 11.5164L167.482 11.5164L177.279 18.6339L173.537 30.1503L183.333 23.0328L193.13 30.1503L189.388 18.6339L199.184 11.5164L187.075 11.5164L183.333 0Z" fill="#FFDD00"/>
</svg>
