<svg width="1054" height="1089" viewBox="0 0 1054 1089" fill="none" xmlns="http://www.w3.org/2000/svg">
<path d="M222.178 337.983C256.369 291.241 311.334 256.906 385.631 235.699C401.933 231.082 418.812 228.486 435.691 227.764C450.406 227.043 465.265 227.764 479.836 230.073C436.701 258.637 370.627 305.091 508.978 308.553C519.221 308.842 530.618 308.842 540.428 307.399C573.32 305.235 595.537 297.733 614.58 286.769H614.869L617.033 285.471C618.476 284.461 622.227 282.153 622.227 282.153C622.948 281.72 623.669 281.287 624.39 280.854C638.961 272.054 661.611 260.801 692.195 247.096C718.307 235.41 746.151 229.063 774.138 227.764C797.654 226.755 821.313 229.207 844.107 235.699C908.017 253.876 957.644 282.008 992.124 319.373C1006.26 345.341 1028.48 403.191 1002.51 478.21C1001.5 481.239 1000.49 484.269 999.337 487.298C996.163 495.377 992.557 503.6 988.229 511.968C925.473 633.295 841.943 692.156 743.121 697.638C743.121 697.638 802.126 722.884 860.121 705.717C917.971 688.549 902.823 708.746 883.78 752.891C864.737 797.037 853.34 925.722 838.192 980.831C831.412 1005.5 825.641 1027.28 817.274 1040.7C809.628 1047.48 801.693 1051.67 793.614 1052.39C776.735 1053.69 759.423 1039.11 741.967 1008.96C741.967 1008.82 741.823 1008.67 741.679 1008.39C718.596 968.424 706.045 926.587 694.936 889.8C687.435 864.697 680.51 841.903 671.421 823.149C659.303 798.191 643.434 780.735 616.744 775.253C639.25 761.692 668.969 747.986 700.274 743.081L699.12 735.58C648.627 743.37 607.079 771.213 589.478 784.486C560.914 802.952 548.94 842.336 534.801 889.655C523.693 926.732 510.998 968.569 487.771 1008.82C470.315 1038.83 453.147 1053.54 436.124 1052.24C417.225 1050.8 399.336 1030.03 383.323 1001.89C369.473 977.657 356.922 947.939 346.102 920.095C322.01 858.205 301.812 766.02 286.953 698.792C277.72 656.522 270.362 623.197 264.88 609.347C262.428 603.288 257.956 594.632 252.041 583.524C223.62 529.424 164.327 416.752 222.033 337.983H222.178ZM762.886 515.142C801.116 515.142 832.133 484.99 832.133 448.058C832.133 411.126 801.116 380.975 762.886 380.975C724.655 380.975 693.638 411.126 693.638 448.058C693.638 484.99 724.655 515.142 762.886 515.142ZM479.981 515.142C518.067 515.142 549.228 484.99 549.228 448.058C549.228 411.126 518.211 380.975 479.981 380.975C441.75 380.975 410.733 411.126 410.733 448.058C410.733 484.99 441.75 515.142 479.981 515.142Z" fill="white"/>
<path d="M942.493 698.934C927.634 766.162 907.437 858.347 883.344 920.237C881.902 923.844 880.459 927.451 879.016 931.202C908.879 839.449 930.519 739.184 948.552 671.523C946.677 680.179 944.657 689.268 942.493 699.078V698.934Z" fill="white"/>
<path d="M806.889 437.375C806.889 424.823 802.561 413.426 795.492 403.905C795.492 404.626 795.925 405.203 795.925 405.78C795.925 413.715 789.288 420.063 781.209 420.063C773.131 420.063 766.494 413.715 766.494 405.78C766.494 397.846 773.131 391.498 781.209 391.498C782.075 391.498 782.796 391.787 783.518 391.931C786.547 392.508 789.433 393.662 791.597 395.682C811.072 405.636 824.489 425.256 824.489 448.05C824.489 480.943 796.79 507.632 762.743 507.632C743.7 507.632 726.966 499.12 715.569 485.992C724.657 491.618 735.477 494.937 747.018 494.937C779.911 494.937 806.6 469.113 806.6 437.23L806.889 437.375Z" fill="white"/>
<path d="M523.974 437.375C523.974 424.823 519.646 413.426 512.577 403.905C512.577 404.626 513.01 405.203 513.01 405.78C513.01 413.715 506.374 420.063 498.295 420.063C495.698 420.063 493.39 419.197 491.226 418.043C486.754 415.59 483.58 411.118 483.58 405.78C483.58 398.567 489.206 392.796 496.42 391.931C497.141 391.931 497.718 391.498 498.439 391.498C499.305 391.498 500.026 391.787 500.748 391.931C503.777 392.508 506.662 393.662 508.826 395.682C528.302 405.636 541.719 425.256 541.719 448.05C541.719 480.943 514.02 507.632 479.973 507.632C460.93 507.632 444.195 499.12 432.798 485.992C441.887 491.618 452.707 494.937 464.248 494.937C497.141 494.937 523.83 469.113 523.83 437.23L523.974 437.375Z" fill="white"/>
<path d="M733.746 469.26C729.562 469.26 726.1 465.942 726.1 461.902C726.1 457.863 729.562 454.545 733.746 454.545C737.93 454.545 741.392 457.863 741.392 461.902C741.392 465.942 737.93 469.26 733.746 469.26Z" fill="white"/>
<path d="M571.011 521.348C606.5 515.289 636.941 519.328 650.357 521.925C654.108 522.646 656.128 526.974 654.108 530.292C616.311 596.222 579.234 549.047 567.116 530.004C564.952 526.686 567.116 522.214 571.011 521.492V521.348Z" fill="#F0679B"/>
<path d="M622.235 282.158C622.235 282.158 621.801 282.448 621.656 282.448C621.801 282.448 621.946 282.158 622.235 282.158Z" fill="#9F60A7"/>
<path d="M479.837 230.08C499.601 233.11 518.933 238.736 537.543 247.103C569.714 261.53 593.23 273.216 607.656 282.16C581.833 296.442 543.891 306.829 456.61 296.298L455.744 303.8C480.847 306.829 502.054 308.128 520.375 308.128C527.589 308.128 534.225 307.839 540.573 307.406C530.763 308.849 520.808 308.128 510.565 307.984C368.897 306.685 436.99 258.5 479.981 230.08H479.837Z" fill="#CDEDEF"/>
<path d="M859.978 705.576C802.128 722.744 742.979 697.497 742.979 697.497C841.801 692.015 925.475 633.155 988.086 511.827C992.414 503.46 996.021 495.237 999.195 487.158C1000.35 484.128 1001.36 481.099 1002.37 478.069C1028.19 403.195 1006.12 345.345 991.982 319.232C997.464 325.292 1002.66 331.351 1007.42 337.843C1065.12 416.612 1005.83 529.283 977.411 583.383C971.64 594.491 967.024 603.147 964.571 609.206C960.387 619.882 955.05 642.243 948.558 671.241C930.669 738.901 909.029 839.166 879.022 930.919C861.71 974.199 840.647 1019.64 816.987 1040.56C825.499 1027 831.125 1005.36 837.906 980.691C853.054 925.581 864.451 796.896 883.494 752.751C902.537 708.606 917.685 688.408 859.834 705.576H859.978Z" fill="#CDEDEF"/>
<path d="M762.89 381.115C801.121 381.115 832.138 411.267 832.138 448.199C832.138 485.131 801.121 515.282 762.89 515.282C724.66 515.282 693.643 485.131 693.643 448.199C693.643 411.267 724.66 381.115 762.89 381.115ZM762.89 507.636C796.937 507.636 824.636 480.947 824.636 448.055C824.636 425.261 811.219 405.64 791.743 395.686C789.579 393.666 786.838 392.512 783.665 391.935C782.943 391.935 782.222 391.502 781.356 391.502C773.133 391.502 766.641 397.85 766.641 405.785C766.641 413.719 773.277 420.067 781.356 420.067C789.435 420.067 796.071 413.719 796.071 405.785C796.071 405.063 795.783 404.486 795.639 403.909C802.708 413.286 807.036 424.828 807.036 437.379C807.036 469.262 780.346 495.085 747.454 495.085C735.913 495.085 725.093 491.767 716.004 486.141C727.257 499.269 744.136 507.78 763.179 507.78L762.89 507.636ZM726.103 461.904C726.103 465.943 729.565 469.262 733.749 469.262C737.932 469.262 741.395 465.943 741.395 461.904C741.395 457.865 737.932 454.546 733.749 454.546C729.565 454.546 726.103 457.865 726.103 461.904Z" fill="#221E1F"/>
<path d="M479.979 381.115C518.065 381.115 549.227 411.267 549.227 448.199C549.227 485.131 518.209 515.282 479.979 515.282C441.749 515.282 410.732 485.131 410.732 448.199C410.732 411.267 441.749 381.115 479.979 381.115ZM479.979 507.636C514.026 507.636 541.725 480.947 541.725 448.055C541.725 425.261 528.308 405.64 508.832 395.686C506.668 393.666 503.927 392.512 500.753 391.935C500.032 391.935 499.311 391.502 498.445 391.502C497.724 391.502 497.147 391.791 496.425 391.935C489.212 392.945 483.586 398.571 483.586 405.785C483.586 411.122 486.76 415.595 491.232 418.047C493.396 419.201 495.704 420.067 498.301 420.067C506.524 420.067 513.016 413.719 513.016 405.785C513.016 405.063 512.727 404.486 512.583 403.909C519.652 413.286 523.98 424.828 523.98 437.379C523.98 469.262 497.291 495.085 464.398 495.085C452.713 495.085 442.037 491.767 432.948 486.141C444.345 499.269 461.08 507.78 480.123 507.78L479.979 507.636Z" fill="#221E1F"/>
<path d="M216.12 333.514C251.321 285.474 307.729 250.129 383.612 228.489C432.086 214.784 484.021 217.813 531.34 236.568C540.141 239.453 548.797 242.627 557.308 246.522C576.928 255.611 612.418 276.385 614.87 277.972C615.303 277.683 615.736 277.395 616.169 277.106C616.169 277.106 616.169 277.106 616.313 277.106C616.313 277.106 616.457 277.106 616.601 276.962C616.746 276.962 616.89 276.818 617.034 276.673C617.756 276.241 618.621 275.664 619.342 275.231C619.631 275.087 619.775 274.942 620.064 274.798C634.923 265.854 658.15 254.312 689.167 240.463C738.794 218.246 794.625 214.062 846.128 228.777C858.824 232.384 870.653 236.568 882.195 240.896C933.697 258.496 990.827 288.503 1028.77 342.026C1099.46 441.713 1000.49 589.441 986.354 626.374C972.216 663.306 943.94 844.215 905.133 947.509C867.191 1048.64 813.813 1145.59 755.529 1049.5C746.296 1034.93 743.699 1027.58 735.188 1013.01C711.528 972.034 698.689 929.62 687.436 892.255C677.049 857.776 667.96 827.624 652.956 807.571C646.032 798.627 620.929 772.947 586.594 834.693C560.482 881.579 552.115 963.09 509.123 1039.84C470.027 1109.52 431.941 1094.95 401.79 1046.62C378.707 1011.85 357.645 971.457 338.89 923.272C314.653 860.805 294.312 768.331 279.453 700.815C270.22 658.833 263.006 625.796 257.668 612.524C255.36 606.898 250.888 598.242 245.262 587.422C216.12 531.879 155.384 416.467 215.831 333.947L216.12 333.514ZM287.099 698.795C301.958 766.023 322.155 858.208 346.248 920.098C357.067 947.942 369.619 977.66 383.468 1001.9C399.482 1030.03 417.226 1050.8 436.269 1052.25C453.148 1053.54 470.46 1038.97 487.916 1008.82C511.143 968.716 523.839 926.735 534.947 889.658C548.075 845.802 559.472 809.158 583.565 789.249C585.152 787.951 587.027 786.508 589.624 784.489C607.224 771.072 648.773 743.229 699.266 735.583L700.42 743.084C668.97 747.845 639.251 761.55 616.89 775.256C643.435 780.738 659.448 798.338 671.567 823.152C680.655 841.906 687.58 864.7 695.082 889.803C706.19 926.59 718.742 968.427 741.824 1008.39C741.824 1008.53 741.968 1008.68 742.113 1008.97C759.569 1039.12 776.881 1053.69 793.76 1052.39C801.839 1051.81 809.773 1047.49 817.419 1040.7C841.079 1019.93 862.142 974.342 879.454 931.063C880.896 927.456 882.339 923.705 883.781 920.098C907.73 858.208 928.071 766.167 942.93 698.795C945.094 689.129 947.114 679.896 948.99 671.24C955.482 642.243 960.819 619.882 965.003 609.206C967.456 603.147 971.928 594.491 977.843 583.382C1006.26 529.283 1065.56 416.611 1007.85 337.842C1003.09 331.35 997.896 325.147 992.414 319.232C958.078 281.867 908.451 253.88 844.397 235.558C821.603 229.066 797.943 226.613 774.428 227.623C746.441 228.922 718.597 235.269 692.485 246.955C661.901 260.66 638.963 273.5 622.516 282.877C601.742 294.562 567.84 320.242 455.889 303.651L456.755 296.149C544.036 306.681 581.978 296.294 607.801 282.011C593.375 273.067 569.859 261.237 537.688 246.955C519.222 238.587 499.746 232.961 479.982 229.931C465.267 227.623 450.552 227.046 435.837 227.623C418.957 228.344 402.223 230.941 385.776 235.558C311.48 256.621 256.514 291.1 222.323 337.842C164.617 416.611 223.91 529.283 252.331 583.382C258.101 594.491 262.718 603.147 265.17 609.206C270.652 623.055 278.01 656.381 287.243 698.651L287.099 698.795Z" fill="#221E1F"/>
<path d="M817.849 518.533C835.449 518.533 849.876 525.314 849.876 533.681C849.876 542.049 835.594 548.829 817.849 548.829C800.104 548.829 785.822 542.049 785.822 533.681C785.822 525.314 800.104 518.533 817.849 518.533Z" fill="#F7B3C9"/>
<path d="M447.668 533.681C447.668 542.049 433.386 548.829 415.641 548.829C397.896 548.829 383.614 542.049 383.614 533.681C383.614 525.314 397.896 518.533 415.641 518.533C433.386 518.533 447.668 525.314 447.668 533.681Z" fill="#F7B3C9"/>
<path d="M734 0L747.931 43.8575C749.823 49.5332 754.467 54.1769 760.143 56.0688L804 70L760.143 83.9312C754.467 85.8231 749.823 90.4669 747.931 96.1425L734 140L720.069 96.1425C718.177 90.4669 713.533 85.8231 707.858 83.9312L664 70L707.858 56.0688C713.533 54.1769 718.177 49.5332 720.069 43.8575L734 0Z" fill="white"/>
<path d="M161 558L170.752 588.387C172.076 592.319 175.327 595.537 179.3 596.848L210 606.5L179.3 616.152C175.327 617.463 172.076 620.681 170.752 624.613L161 655L151.248 624.613C149.924 620.681 146.673 617.463 142.7 616.152L112 606.5L142.7 596.848C146.673 595.537 149.924 592.319 151.248 588.387L161 558Z" fill="white"/>
<path d="M1014 157L1021.97 182.156C1023.06 185.281 1025.72 188.094 1028.84 189.031L1054 197L1028.84 204.969C1025.72 206.062 1022.91 208.719 1021.97 211.844L1014 237L1006.03 211.844C1004.94 208.719 1002.28 205.906 999.156 204.969L974 197L999.156 189.031C1002.28 187.937 1005.09 185.281 1006.03 182.156L1014 157Z" fill="white"/>
<path d="M17.5 386L20.9863 397.006C21.4648 398.373 22.627 399.604 23.9941 400.014L35 403.5L23.9941 406.986C22.627 407.465 21.3965 408.627 20.9863 409.994L17.5 421L14.0137 409.994C13.5352 408.627 12.373 407.396 11.0059 406.986L0 403.5L11.0059 400.014C12.373 399.535 13.6035 398.373 14.0137 397.006L17.5 386Z" fill="white"/>
</svg>
