<svg width="1012" height="1089" viewBox="0 0 1012 1089" fill="none" xmlns="http://www.w3.org/2000/svg">
<path d="M180.178 337.983C214.369 291.241 269.335 256.906 343.632 235.699C359.934 231.082 376.813 228.486 393.692 227.764C408.407 227.043 423.266 227.764 437.837 230.073C394.702 258.637 328.628 305.091 466.979 308.553C477.222 308.842 488.619 308.842 498.429 307.399C531.321 305.235 553.538 297.733 572.581 286.769H572.87L575.034 285.471C576.476 284.461 580.227 282.153 580.227 282.153C580.949 281.72 581.67 281.287 582.391 280.854C596.962 272.054 619.612 260.801 650.196 247.096C676.308 235.41 704.151 229.063 732.139 227.764C755.654 226.755 779.314 229.207 802.108 235.699C866.018 253.876 915.645 282.008 950.125 319.373C964.263 345.341 986.479 403.191 960.512 478.21C959.502 481.239 958.492 484.269 957.338 487.298C954.164 495.377 950.557 503.6 946.229 511.968C883.474 633.295 799.944 692.156 701.122 697.638C701.122 697.638 760.127 722.884 818.121 705.717C875.972 688.549 860.824 708.746 841.781 752.891C822.738 797.037 811.341 925.722 796.193 980.831C789.413 1005.5 783.642 1027.28 775.274 1040.7C767.628 1047.48 759.694 1051.67 751.615 1052.39C734.736 1053.69 717.424 1039.11 699.968 1008.96C699.968 1008.82 699.824 1008.67 699.679 1008.39C676.597 968.424 664.046 926.587 652.937 889.8C645.435 864.697 638.511 841.903 629.422 823.149C617.304 798.191 601.434 780.735 574.745 775.253C597.251 761.692 626.969 747.986 658.275 743.081L657.121 735.58C606.628 743.37 565.079 771.213 547.479 784.486C518.914 802.952 506.94 842.336 492.802 889.655C481.694 926.732 468.998 968.569 445.772 1008.82C428.315 1038.83 411.148 1053.54 394.124 1052.24C375.226 1050.8 357.337 1030.03 341.323 1001.89C327.474 977.657 314.923 947.939 304.103 920.095C280.01 858.205 259.813 766.02 244.954 698.792C235.721 656.522 228.363 623.197 222.881 609.347C220.429 603.288 215.956 594.632 210.041 583.524C181.621 529.424 122.328 416.752 180.034 337.983H180.178ZM720.886 515.142C759.117 515.142 790.134 484.99 790.134 448.058C790.134 411.126 759.117 380.975 720.886 380.975C682.656 380.975 651.639 411.126 651.639 448.058C651.639 484.99 682.656 515.142 720.886 515.142ZM437.981 515.142C476.067 515.142 507.229 484.99 507.229 448.058C507.229 411.126 476.212 380.975 437.981 380.975C399.751 380.975 368.734 411.126 368.734 448.058C368.734 484.99 399.751 515.142 437.981 515.142Z" fill="white"/>
<path d="M900.494 698.934C885.634 766.162 865.437 858.347 841.345 920.237C839.902 923.844 838.459 927.451 837.017 931.202C866.88 839.449 888.52 739.184 906.553 671.523C904.677 680.179 902.658 689.268 900.494 699.078V698.934Z" fill="white"/>
<path d="M764.89 437.375C764.89 424.823 760.562 413.426 753.493 403.905C753.493 404.626 753.926 405.203 753.926 405.78C753.926 413.715 747.289 420.063 739.211 420.063C731.132 420.063 724.495 413.715 724.495 405.78C724.495 397.846 731.132 391.498 739.211 391.498C740.076 391.498 740.797 391.787 741.519 391.931C744.548 392.508 747.434 393.662 749.598 395.682C769.074 405.636 782.49 425.256 782.49 448.05C782.49 480.943 754.791 507.632 720.745 507.632C701.701 507.632 684.967 499.12 673.57 485.992C682.658 491.618 693.478 494.937 705.02 494.937C737.912 494.937 764.601 469.113 764.601 437.23L764.89 437.375Z" fill="white"/>
<path d="M481.975 437.375C481.975 424.823 477.647 413.426 470.578 403.905C470.578 404.626 471.011 405.203 471.011 405.78C471.011 413.715 464.375 420.063 456.296 420.063C453.699 420.063 451.391 419.197 449.227 418.043C444.755 415.59 441.581 411.118 441.581 405.78C441.581 398.567 447.207 392.796 454.42 391.931C455.142 391.931 455.719 391.498 456.44 391.498C457.306 391.498 458.027 391.787 458.748 391.931C461.778 392.508 464.663 393.662 466.827 395.682C486.303 405.636 499.72 425.256 499.72 448.05C499.72 480.943 472.021 507.632 437.974 507.632C418.931 507.632 402.196 499.12 390.799 485.992C399.888 491.618 410.708 494.937 422.249 494.937C455.142 494.937 481.831 469.113 481.831 437.23L481.975 437.375Z" fill="white"/>
<path d="M691.746 469.26C687.563 469.26 684.1 465.942 684.1 461.902C684.1 457.863 687.563 454.545 691.746 454.545C695.93 454.545 699.393 457.863 699.393 461.902C699.393 465.942 695.93 469.26 691.746 469.26Z" fill="white"/>
<path d="M529.011 521.348C564.501 515.289 594.941 519.328 608.357 521.925C612.108 522.646 614.128 526.974 612.108 530.292C574.311 596.222 537.234 549.047 525.116 530.004C522.952 526.686 525.116 522.214 529.011 521.492V521.348Z" fill="#F0679B"/>
<path d="M580.236 282.158C580.236 282.158 579.802 282.448 579.657 282.448C579.802 282.448 579.947 282.158 580.236 282.158Z" fill="#9F60A7"/>
<path d="M437.837 230.08C457.601 233.11 476.933 238.736 495.543 247.103C527.714 261.53 551.23 273.216 565.656 282.16C539.833 296.442 501.891 306.829 414.61 296.298L413.744 303.8C438.847 306.829 460.054 308.128 478.375 308.128C485.589 308.128 492.225 307.839 498.573 307.406C488.763 308.849 478.808 308.128 468.565 307.984C326.897 306.685 394.99 258.5 437.981 230.08H437.837Z" fill="#CDEDEF"/>
<path d="M817.979 705.576C760.128 722.744 700.979 697.497 700.979 697.497C799.801 692.015 883.476 633.155 946.087 511.827C950.415 503.46 954.021 495.237 957.195 487.158C958.349 484.128 959.359 481.099 960.369 478.069C986.193 403.195 964.12 345.345 949.982 319.232C955.464 325.292 960.658 331.351 965.418 337.843C1023.12 416.612 963.832 529.283 935.411 583.383C929.641 594.491 925.024 603.147 922.572 609.206C918.388 619.882 913.05 642.243 906.558 671.241C888.669 738.901 867.029 839.166 837.022 930.919C819.71 974.199 798.647 1019.64 774.988 1040.56C783.499 1027 789.126 1005.36 795.906 980.691C811.054 925.581 822.451 796.896 841.494 752.751C860.537 708.605 875.685 688.408 817.835 705.576H817.979Z" fill="#CDEDEF"/>
<path d="M720.891 381.115C759.122 381.115 790.139 411.267 790.139 448.199C790.139 485.131 759.122 515.282 720.891 515.282C682.661 515.282 651.644 485.131 651.644 448.199C651.644 411.267 682.661 381.115 720.891 381.115ZM720.891 507.636C754.938 507.636 782.637 480.947 782.637 448.055C782.637 425.261 769.22 405.64 749.744 395.686C747.58 393.666 744.839 392.512 741.665 391.935C740.944 391.935 740.223 391.502 739.357 391.502C731.134 391.502 724.642 397.85 724.642 405.785C724.642 413.719 731.278 420.067 739.357 420.067C747.436 420.067 754.072 413.719 754.072 405.785C754.072 405.063 753.784 404.486 753.639 403.909C760.708 413.286 765.036 424.828 765.036 437.379C765.036 469.262 738.347 495.085 705.455 495.085C693.913 495.085 683.094 491.767 674.005 486.141C685.258 499.269 702.137 507.78 721.18 507.78L720.891 507.636ZM684.103 461.904C684.103 465.943 687.566 469.262 691.749 469.262C695.933 469.262 699.396 465.943 699.396 461.904C699.396 457.865 695.933 454.546 691.749 454.546C687.566 454.546 684.103 457.865 684.103 461.904Z" fill="#221E1F"/>
<path d="M437.979 381.115C476.065 381.115 507.227 411.267 507.227 448.199C507.227 485.131 476.209 515.282 437.979 515.282C399.749 515.282 368.732 485.131 368.732 448.199C368.732 411.267 399.749 381.115 437.979 381.115ZM437.979 507.636C472.026 507.636 499.725 480.947 499.725 448.055C499.725 425.261 486.308 405.64 466.832 395.686C464.668 393.666 461.927 392.512 458.753 391.935C458.032 391.935 457.311 391.502 456.445 391.502C455.724 391.502 455.147 391.791 454.425 391.935C447.212 392.945 441.586 398.571 441.586 405.785C441.586 411.122 444.76 415.595 449.232 418.047C451.396 419.201 453.704 420.067 456.301 420.067C464.524 420.067 471.016 413.719 471.016 405.785C471.016 405.063 470.727 404.486 470.583 403.909C477.652 413.286 481.98 424.828 481.98 437.379C481.98 469.262 455.291 495.085 422.398 495.085C410.713 495.085 400.037 491.767 390.948 486.141C402.345 499.269 419.08 507.78 438.123 507.78L437.979 507.636Z" fill="#221E1F"/>
<path d="M174.12 333.514C209.321 285.474 265.729 250.129 341.613 228.489C390.086 214.784 442.022 217.813 489.341 236.568C498.141 239.453 506.797 242.627 515.309 246.522C534.929 255.611 570.418 276.385 572.871 277.972C573.303 277.683 573.736 277.395 574.169 277.106C574.169 277.106 574.169 277.106 574.313 277.106C574.313 277.106 574.458 277.106 574.602 276.962C574.746 276.962 574.89 276.818 575.035 276.673C575.756 276.241 576.622 275.664 577.343 275.231C577.632 275.087 577.776 274.942 578.064 274.798C592.924 265.854 616.15 254.312 647.168 240.463C696.795 218.246 752.626 214.062 804.129 228.777C816.824 232.384 828.654 236.568 840.195 240.896C891.698 258.496 948.827 288.503 986.769 342.026C1057.46 441.713 958.493 589.441 944.355 626.374C930.217 663.306 901.941 844.215 863.133 947.509C825.191 1048.64 771.813 1145.59 713.53 1049.5C704.297 1034.93 701.7 1027.58 693.188 1013.01C669.529 972.034 656.689 929.62 645.436 892.255C635.049 857.776 625.961 827.624 610.957 807.571C604.032 798.627 578.93 772.947 544.595 834.693C518.483 881.579 510.115 963.09 467.124 1039.84C428.028 1109.52 389.942 1094.95 359.79 1046.62C336.708 1011.85 315.645 971.457 296.891 923.272C272.654 860.805 252.312 768.331 237.453 700.815C228.22 658.833 221.007 625.796 215.669 612.524C213.361 606.898 208.888 598.242 203.262 587.422C174.12 531.879 113.385 416.467 173.832 333.947L174.12 333.514ZM245.099 698.795C259.958 766.023 280.156 858.208 304.248 920.098C315.068 947.942 327.619 977.66 341.469 1001.9C357.482 1030.03 375.227 1050.8 394.27 1052.25C411.149 1053.54 428.461 1038.97 445.917 1008.82C469.144 968.716 481.839 926.735 492.948 889.658C506.076 845.802 517.473 809.158 541.565 789.249C543.152 787.951 545.027 786.508 547.624 784.489C565.225 771.072 606.773 743.229 657.266 735.583L658.42 743.084C626.97 747.845 597.252 761.55 574.89 775.256C601.435 780.738 617.449 798.338 629.567 823.152C638.656 841.906 645.581 864.7 653.082 889.803C664.191 926.59 676.742 968.427 699.825 1008.39C699.825 1008.53 699.969 1008.68 700.113 1008.97C717.569 1039.12 734.881 1053.69 751.76 1052.39C759.839 1051.81 767.774 1047.49 775.42 1040.7C799.079 1019.93 820.142 974.342 837.454 931.063C838.897 927.456 840.339 923.705 841.782 920.098C865.73 858.208 886.072 766.167 900.931 698.795C903.095 689.129 905.115 679.896 906.99 671.24C913.482 642.243 918.82 619.882 923.004 609.206C925.456 603.147 929.928 594.491 935.843 583.382C964.264 529.283 1023.56 416.611 965.85 337.842C961.09 331.35 955.896 325.147 950.414 319.232C916.079 281.867 866.451 253.88 802.397 235.558C779.603 229.066 755.944 226.613 732.429 227.623C704.441 228.922 676.598 235.269 650.486 246.955C619.901 260.66 596.963 273.5 580.517 282.877C559.743 294.562 525.84 320.242 413.89 303.651L414.755 296.149C502.036 306.681 539.978 296.294 565.802 282.011C551.375 273.067 527.86 261.237 495.689 246.955C477.223 238.587 457.747 232.961 437.982 229.931C423.267 227.623 408.552 227.046 393.837 227.623C376.958 228.344 360.223 230.941 343.777 235.558C269.48 256.621 214.515 291.1 180.324 337.842C122.617 416.611 181.911 529.283 210.331 583.382C216.102 594.491 220.718 603.147 223.171 609.206C228.653 623.055 236.01 656.381 245.243 698.651L245.099 698.795Z" fill="#221E1F"/>
<path d="M775.85 518.533C793.45 518.533 807.877 525.314 807.877 533.681C807.877 542.049 793.595 548.829 775.85 548.829C758.105 548.829 743.823 542.049 743.823 533.681C743.823 525.314 758.105 518.533 775.85 518.533Z" fill="#F7B3C9"/>
<path d="M405.668 533.681C405.668 542.049 391.386 548.829 373.641 548.829C355.896 548.829 341.614 542.049 341.614 533.681C341.614 525.314 355.896 518.533 373.641 518.533C391.386 518.533 405.668 525.314 405.668 533.681Z" fill="#F7B3C9"/>
<path d="M692 0L705.931 43.8575C707.823 49.5332 712.467 54.1769 718.143 56.0688L762 70L718.143 83.9312C712.467 85.8231 707.823 90.4669 705.931 96.1425L692 140L678.069 96.1425C676.177 90.4669 671.533 85.8231 665.858 83.9312L622 70L665.858 56.0688C671.533 54.1769 676.177 49.5332 678.069 43.8575L692 0Z" fill="white"/>
<path d="M119 558L128.752 588.387C130.076 592.319 133.327 595.537 137.3 596.848L168 606.5L137.3 616.152C133.327 617.463 130.076 620.681 128.752 624.613L119 655L109.248 624.613C107.924 620.681 104.673 617.463 100.7 616.152L70 606.5L100.7 596.848C104.673 595.537 107.924 592.319 109.248 588.387L119 558Z" fill="white"/>
<path d="M972 157L979.969 182.156C981.062 185.281 983.719 188.094 986.844 189.031L1012 197L986.844 204.969C983.719 206.062 980.906 208.719 979.969 211.844L972 237L964.031 211.844C962.938 208.719 960.281 205.906 957.156 204.969L932 197L957.156 189.031C960.281 187.938 963.094 185.281 964.031 182.156L972 157Z" fill="white"/>
<path d="M17.5 321L20.9863 332.006C21.4648 333.373 22.627 334.604 23.9941 335.014L35 338.5L23.9941 341.986C22.627 342.465 21.3965 343.627 20.9863 344.994L17.5 356L14.0137 344.994C13.5352 343.627 12.373 342.396 11.0059 341.986L0 338.5L11.0059 335.014C12.373 334.535 13.6035 333.373 14.0137 332.006L17.5 321Z" fill="white"/>
</svg>
