<svg width="358" height="197" viewBox="0 0 358 197" fill="none" xmlns="http://www.w3.org/2000/svg">
<path d="M75.4668 61.6773C87.0803 45.8006 105.75 34.138 130.986 26.9347C136.524 25.3666 142.257 24.4846 147.99 24.2396C152.988 23.9946 158.036 24.2396 162.985 25.0236C148.333 34.7261 125.89 50.5048 172.883 51.6808C176.362 51.7788 180.234 51.7788 183.566 51.2888C194.738 50.5538 202.285 48.0057 208.753 44.2815H208.851L209.586 43.8405C210.076 43.4975 211.35 42.7134 211.35 42.7134C211.595 42.5664 211.84 42.4194 212.085 42.2724C217.034 39.2833 224.728 35.4611 235.116 30.8059C243.986 26.8367 253.443 24.6806 262.949 24.2396C270.937 23.8965 278.973 24.7296 286.716 26.9347C308.424 33.109 325.28 42.6644 336.992 55.356C341.794 64.1764 349.34 83.8263 340.52 109.308C340.177 110.337 339.834 111.366 339.442 112.395C338.364 115.139 337.139 117.932 335.669 120.774C314.353 161.985 285.981 181.978 252.414 183.84C252.414 183.84 272.456 192.415 292.155 186.584C311.805 180.753 306.659 187.613 300.191 202.608C293.723 217.603 289.852 261.313 284.706 280.031C282.403 288.411 280.443 295.81 277.601 300.367C275.004 302.67 272.309 304.092 269.565 304.337C263.832 304.778 257.951 299.828 252.022 289.587C252.022 289.538 251.973 289.489 251.924 289.391C244.084 275.817 239.82 261.607 236.047 249.111C233.499 240.585 231.147 232.842 228.06 226.472C223.944 217.995 218.553 212.065 209.488 210.203C217.132 205.597 227.227 200.942 237.86 199.276L237.468 196.728C220.317 199.374 206.205 208.831 200.227 213.339C190.524 219.612 186.457 232.989 181.655 249.062C177.882 261.656 173.569 275.866 165.68 289.538C159.751 299.73 153.919 304.729 148.137 304.288C141.718 303.797 135.642 296.741 130.202 287.186C125.498 278.953 121.235 268.859 117.56 259.401C109.376 238.379 102.516 207.067 97.4688 184.232C94.3327 169.874 91.8335 158.555 89.9715 153.851C89.1384 151.792 87.6194 148.852 85.6103 145.079C75.9568 126.703 55.8169 88.4325 75.4178 61.6773H75.4668ZM259.127 121.852C272.113 121.852 282.648 111.611 282.648 99.066C282.648 86.5214 272.113 76.28 259.127 76.28C246.142 76.28 235.606 86.5214 235.606 99.066C235.606 111.611 246.142 121.852 259.127 121.852ZM163.034 121.852C175.97 121.852 186.555 111.611 186.555 99.066C186.555 86.5214 176.019 76.28 163.034 76.28C150.048 76.28 139.513 86.5214 139.513 99.066C139.513 111.611 150.048 121.852 163.034 121.852Z" fill="white"/>
<path d="M320.134 184.281C315.087 207.116 308.227 238.429 300.043 259.451C299.553 260.676 299.063 261.901 298.573 263.175C308.717 232.009 316.067 197.953 322.192 174.971C321.555 177.911 320.869 180.998 320.134 184.33V184.281Z" fill="white"/>
<path d="M274.073 95.4382C274.073 91.175 272.603 87.3038 270.202 84.0697C270.202 84.3147 270.349 84.5107 270.349 84.7067C270.349 87.4018 268.095 89.5579 265.351 89.5579C262.607 89.5579 260.353 87.4018 260.353 84.7067C260.353 82.0116 262.607 79.8555 265.351 79.8555C265.645 79.8555 265.89 79.9535 266.135 80.0025C267.164 80.1985 268.144 80.5905 268.879 81.2765C275.495 84.6577 280.052 91.322 280.052 99.0644C280.052 110.237 270.643 119.302 259.079 119.302C252.61 119.302 246.926 116.411 243.055 111.952C246.142 113.863 249.817 114.99 253.738 114.99C264.91 114.99 273.975 106.219 273.975 95.3892L274.073 95.4382Z" fill="white"/>
<path d="M177.977 95.4382C177.977 91.175 176.507 87.3038 174.105 84.0697C174.105 84.3147 174.252 84.5107 174.252 84.7067C174.252 87.4018 171.998 89.5579 169.254 89.5579C168.372 89.5579 167.588 89.2639 166.853 88.8719C165.334 88.0388 164.256 86.5198 164.256 84.7067C164.256 82.2566 166.167 80.2965 168.617 80.0025C168.862 80.0025 169.058 79.8555 169.303 79.8555C169.597 79.8555 169.842 79.9535 170.087 80.0025C171.116 80.1985 172.096 80.5905 172.831 81.2765C179.447 84.6577 184.004 91.322 184.004 99.0644C184.004 110.237 174.595 119.302 163.031 119.302C156.563 119.302 150.878 116.411 147.007 111.952C150.094 113.863 153.77 114.99 157.69 114.99C168.862 114.99 177.928 106.219 177.928 95.3892L177.977 95.4382Z" fill="white"/>
<path d="M249.229 106.268C247.808 106.268 246.632 105.141 246.632 103.769C246.632 102.397 247.808 101.27 249.229 101.27C250.65 101.27 251.826 102.397 251.826 103.769C251.826 105.141 250.65 106.268 249.229 106.268Z" fill="white"/>
<path d="M193.953 123.96C206.007 121.902 216.347 123.274 220.904 124.156C222.178 124.401 222.864 125.871 222.178 126.998C209.34 149.392 196.746 133.369 192.63 126.9C191.895 125.773 192.63 124.254 193.953 124.009V123.96Z" fill="#F0679B"/>
<path d="M211.353 42.7148C211.353 42.7148 211.205 42.813 211.156 42.813C211.205 42.813 211.254 42.7148 211.353 42.7148Z" fill="#9F60A7"/>
<path d="M162.984 25.0273C169.698 26.0564 176.264 27.9675 182.585 30.8096C193.513 35.7098 201.5 39.679 206.4 42.7172C197.629 47.5684 184.741 51.0966 155.095 47.5194L154.801 50.0675C163.327 51.0966 170.531 51.5376 176.754 51.5376C179.204 51.5376 181.458 51.4396 183.614 51.2926C180.282 51.7826 176.901 51.5376 173.422 51.4886C125.302 51.0476 148.431 34.6808 163.033 25.0273H162.984Z" fill="#CDEDEF"/>
<path d="M292.106 186.537C272.457 192.368 252.366 183.793 252.366 183.793C285.932 181.93 314.354 161.938 335.62 120.727C337.091 117.884 338.316 115.091 339.394 112.347C339.786 111.318 340.129 110.289 340.472 109.26C349.243 83.8279 341.746 64.178 336.944 55.3086C338.806 57.3667 340.57 59.4248 342.187 61.6299C361.788 88.3851 341.648 126.656 331.994 145.032C330.034 148.805 328.466 151.745 327.633 153.803C326.212 157.429 324.399 165.025 322.194 174.874C316.118 197.856 308.767 231.913 298.575 263.078C292.695 277.779 285.54 293.215 277.504 300.32C280.395 295.714 282.306 288.363 284.609 279.984C289.754 261.265 293.626 217.555 300.094 202.56C306.562 187.566 311.707 180.705 292.057 186.537H292.106Z" fill="#CDEDEF"/>
<path d="M259.128 76.3301C272.114 76.3301 282.649 86.5716 282.649 99.1161C282.649 111.661 272.114 121.902 259.128 121.902C246.143 121.902 235.607 111.661 235.607 99.1161C235.607 86.5716 246.143 76.3301 259.128 76.3301ZM259.128 119.305C270.693 119.305 280.101 110.24 280.101 99.0671C280.101 91.3248 275.544 84.6605 268.929 81.2793C268.194 80.5933 267.263 80.2013 266.185 80.0052C265.94 80.0052 265.695 79.8582 265.401 79.8582C262.607 79.8582 260.402 82.0143 260.402 84.7095C260.402 87.4046 262.656 89.5607 265.401 89.5607C268.145 89.5607 270.399 87.4046 270.399 84.7095C270.399 84.4645 270.301 84.2684 270.252 84.0724C272.653 87.2576 274.123 91.1778 274.123 95.441C274.123 106.27 265.058 115.042 253.885 115.042C249.965 115.042 246.29 113.915 243.203 112.004C247.025 116.463 252.758 119.354 259.226 119.354L259.128 119.305ZM246.633 103.771C246.633 105.143 247.809 106.27 249.23 106.27C250.651 106.27 251.827 105.143 251.827 103.771C251.827 102.399 250.651 101.272 249.23 101.272C247.809 101.272 246.633 102.399 246.633 103.771Z" fill="#221E1F"/>
<path d="M163.033 76.3301C175.969 76.3301 186.554 86.5715 186.554 99.1161C186.554 111.661 176.018 121.902 163.033 121.902C150.047 121.902 139.512 111.661 139.512 99.1161C139.512 86.5715 150.047 76.3301 163.033 76.3301ZM163.033 119.305C174.597 119.305 184.006 110.24 184.006 99.0671C184.006 91.3248 179.448 84.6605 172.833 81.2793C172.098 80.5933 171.167 80.2013 170.089 80.0052C169.844 80.0052 169.599 79.8582 169.305 79.8582C169.06 79.8582 168.864 79.9562 168.619 80.0052C166.169 80.3483 164.258 82.2594 164.258 84.7095C164.258 86.5225 165.336 88.0416 166.855 88.8747C167.59 89.2667 168.374 89.5607 169.256 89.5607C172.049 89.5607 174.254 87.4046 174.254 84.7095C174.254 84.4645 174.156 84.2684 174.107 84.0724C176.508 87.2576 177.978 91.1778 177.978 95.441C177.978 106.27 168.913 115.042 157.74 115.042C153.771 115.042 150.145 113.915 147.058 112.004C150.929 116.463 156.613 119.354 163.082 119.354L163.033 119.305Z" fill="#221E1F"/>
<path d="M73.4087 60.1586C85.3652 43.8408 104.525 31.8352 130.3 24.4849C146.765 19.8297 164.406 20.8587 180.479 27.229C183.468 28.2091 186.408 29.2871 189.299 30.6102C195.963 33.6973 208.018 40.7537 208.851 41.2927C208.998 41.1947 209.145 41.0967 209.292 40.9987C209.292 40.9987 209.292 40.9987 209.341 40.9987C209.341 40.9987 209.39 40.9987 209.439 40.9497C209.488 40.9497 209.537 40.9007 209.586 40.8517C209.831 40.7047 210.125 40.5086 210.37 40.3616C210.468 40.3126 210.517 40.2636 210.615 40.2146C215.662 37.1765 223.552 33.2563 234.087 28.5521C250.944 21.0057 269.908 19.5847 287.402 24.5829C291.714 25.808 295.732 27.229 299.652 28.6991C317.146 34.6774 336.551 44.8699 349.438 63.0497C373.45 96.9103 339.834 147.089 335.032 159.633C330.23 172.178 320.625 233.627 307.444 268.712C294.556 303.063 276.425 335.992 256.628 303.357C253.492 298.408 252.61 295.908 249.719 290.959C241.682 277.043 237.321 262.636 233.499 249.944C229.971 238.233 226.884 227.991 221.788 221.18C219.435 218.142 210.909 209.419 199.247 230.392C190.377 246.318 187.535 274.004 172.932 300.074C159.653 323.742 146.716 318.793 136.475 302.377C128.634 290.567 121.48 276.847 115.11 260.48C106.877 239.262 99.9679 207.851 94.9207 184.918C91.7845 170.659 89.3344 159.437 87.5214 154.929C86.7373 153.018 85.2182 150.078 83.3072 146.403C73.4087 127.537 52.7787 88.3349 73.3107 60.3056L73.4087 60.1586ZM97.5178 184.232C102.565 207.067 109.425 238.38 117.609 259.402C121.284 268.859 125.547 278.954 130.251 287.186C135.691 296.741 141.718 303.798 148.186 304.288C153.919 304.729 159.8 299.78 165.729 289.538C173.618 275.916 177.931 261.656 181.704 249.062C186.163 234.166 190.034 221.719 198.217 214.957C198.757 214.516 199.394 214.026 200.276 213.34C206.254 208.782 220.367 199.325 237.517 196.728L237.909 199.276C227.227 200.893 217.132 205.548 209.537 210.203C218.553 212.066 223.993 218.044 228.109 226.472C231.196 232.843 233.548 240.585 236.096 249.111C239.869 261.607 244.133 275.818 251.973 289.391C251.973 289.44 252.022 289.489 252.071 289.587C258 299.829 263.881 304.778 269.614 304.337C272.358 304.141 275.053 302.671 277.65 300.368C285.687 293.311 292.841 277.827 298.721 263.126C299.211 261.901 299.701 260.627 300.191 259.402C308.326 238.38 315.235 207.116 320.282 184.232C321.017 180.949 321.703 177.813 322.34 174.873C324.545 165.023 326.358 157.428 327.779 153.802C328.613 151.744 330.132 148.804 332.141 145.03C341.794 126.655 361.934 88.3839 342.333 61.6286C340.716 59.4235 338.952 57.3164 337.09 55.3073C325.427 42.6157 308.571 33.1093 286.814 26.886C279.071 24.6809 271.035 23.8479 263.047 24.1909C253.541 24.6319 244.084 26.788 235.214 30.7572C224.826 35.4124 217.034 39.7736 211.448 42.9588C204.392 46.9279 192.876 55.6503 154.85 50.0151L155.144 47.467C184.791 51.0441 197.678 47.516 206.45 42.6647C201.55 39.6266 193.562 35.6084 182.635 30.7572C176.362 27.9151 169.747 26.004 163.034 24.9749C158.036 24.1909 153.037 23.9949 148.039 24.1909C142.306 24.4359 136.622 25.3179 131.035 26.886C105.799 34.0403 87.1293 45.7519 75.5158 61.6286C55.9149 88.3839 76.0548 126.655 85.7083 145.03C87.6684 148.804 89.2364 151.744 90.0695 153.802C91.9315 158.506 94.4307 169.826 97.5668 184.183L97.5178 184.232Z" fill="#221E1F"/>
<path d="M277.796 123.004C283.775 123.004 288.675 125.307 288.675 128.149C288.675 130.991 283.824 133.294 277.796 133.294C271.769 133.294 266.918 130.991 266.918 128.149C266.918 125.307 271.769 123.004 277.796 123.004Z" fill="#F7B3C9"/>
<path d="M152.059 128.149C152.059 130.991 147.207 133.294 141.18 133.294C135.153 133.294 130.302 130.991 130.302 128.149C130.302 125.307 135.153 123.004 141.18 123.004C147.207 123.004 152.059 125.307 152.059 128.149Z" fill="#F7B3C9"/>
<path d="M51.7977 1.39258L56.5339 16.3027C57.177 18.2322 58.7558 19.811 60.6853 20.4541L75.5954 25.1903L60.6853 29.9264C58.7558 30.5696 57.177 32.1483 56.5339 34.0779L51.7977 48.988L47.0616 34.0779C46.4184 32.1483 44.8397 30.5696 42.9101 29.9264L28 25.1903L42.9101 20.4541C44.8397 19.811 46.4184 18.2322 47.0616 16.3027L51.7977 1.39258Z" fill="white"/>
<path d="M53.803 136.74L57.0977 146.788C57.5451 148.089 58.6434 149.153 59.9857 149.586L70.3579 152.778L59.9857 155.97C58.6434 156.403 57.5451 157.467 57.0977 158.767L53.803 168.815L50.5083 158.767C50.0608 157.467 48.9626 156.403 47.6203 155.97L37.248 152.778L47.6203 149.586C48.9626 149.153 50.0608 148.089 50.5083 146.788L53.803 136.74Z" fill="white"/>
<path d="M344.032 0.162109L346.814 8.62144C347.196 9.67229 348.124 10.6181 349.215 10.9333L358 13.613L349.215 16.2926C348.124 16.6604 347.142 17.5537 346.814 18.6045L344.032 27.0638L341.249 18.6045C340.867 17.5537 339.939 16.6079 338.848 16.2926L330.063 13.613L338.848 10.9333C339.939 10.5655 340.922 9.67229 341.249 8.62144L344.032 0.162109Z" fill="white"/>
<path d="M5.69076 77.7637L6.82445 81.3426C6.98006 81.7872 7.35796 82.1873 7.80255 82.3207L11.3815 83.4544L7.80255 84.5881C7.35796 84.7437 6.95783 85.1216 6.82445 85.5662L5.69076 89.1452L4.55705 85.5662C4.40144 85.1216 4.02354 84.7215 3.57895 84.5881L0 83.4544L3.57895 82.3207C4.02354 82.1651 4.42367 81.7872 4.55705 81.3426L5.69076 77.7637Z" fill="white"/>
</svg>
