<svg width="141" height="64" viewBox="0 0 141 64" fill="none" xmlns="http://www.w3.org/2000/svg">
<path d="M82.5095 39.9371C82.6331 40.5242 82.7258 41.2657 82.8803 42.1616C83.0348 43.0576 83.1584 44.1081 83.3129 45.2512L83.8072 48.8042C83.9926 50.0091 84.1471 51.2141 84.3016 52.419C84.4561 53.6239 84.5797 54.7053 84.7342 55.663C84.8578 56.6208 84.9813 57.455 85.074 58.1656C85.1667 58.8453 85.2285 59.3087 85.2903 59.4941C85.2903 59.6795 85.1667 59.8339 84.8886 60.0193C84.5797 60.1738 84.2089 60.3283 83.7454 60.4827C83.282 60.6063 82.7567 60.7299 82.2005 60.8535C81.6444 60.9462 81.1191 61.0389 80.6556 61.1007C80.1922 61.1624 79.7596 61.1624 79.4506 61.1316C79.1107 61.1316 78.9562 61.0389 78.9254 60.8844C78.8636 60.421 78.7709 59.5868 78.5855 58.4436L77.9984 54.489L77.3187 49.9782C77.1024 48.4334 76.8861 47.0431 76.7625 45.8073C76.1445 45.8691 75.3103 45.9618 74.2289 46.0545L70.9537 46.3634C69.8105 46.4561 68.729 46.5797 67.7094 46.7033C66.6898 46.8269 65.8864 46.9505 65.2994 47.1049L65.6701 51.7084C65.7937 53.2532 65.9173 54.6744 66.0409 56.0029C66.1645 57.3314 66.2572 58.5054 66.3499 59.4941C66.4426 60.4827 66.5044 61.2242 66.5662 61.6568C66.5662 61.873 66.4426 62.0584 66.1645 62.2438C65.8555 62.4292 65.4848 62.6145 65.0213 62.7381C64.5578 62.8926 64.0634 63.0162 63.5073 63.078C62.982 63.1707 62.4567 63.2016 61.9933 63.2016C61.4989 63.2016 61.0972 63.1707 60.7574 63.078C60.4175 62.9853 60.263 62.8308 60.2321 62.5836L59.954 60.3283L59.5214 56.559C59.367 55.1378 59.1816 53.6239 59.0271 52.0482C58.8726 50.4726 58.7181 48.9587 58.5945 47.5684C58.4709 46.1781 58.3473 44.9731 58.2855 43.9536C58.2237 42.934 58.1928 42.2543 58.2546 41.9454C58.2546 41.8218 58.6254 41.6673 59.2743 41.4819C59.954 41.2966 60.8501 41.1421 61.9624 40.9258C63.0747 40.7404 64.3415 40.5242 65.7319 40.3388C67.1532 40.1225 68.5745 39.9371 70.0576 39.7518C71.5098 39.5664 72.962 39.4119 74.4142 39.2574C75.8356 39.1339 77.1333 39.0103 78.2765 38.9176C79.4197 38.8249 80.3467 38.794 81.1191 38.794C81.8607 38.794 82.2932 38.8249 82.3859 38.9176C82.4477 38.9485 82.5404 39.2883 82.6331 39.8445L82.5095 39.9371Z" fill="#00B4C0"/>
<path d="M93.8177 59.5869C92.6436 58.8454 91.7166 57.8568 90.9751 56.6209C90.2335 55.3851 89.7392 53.9948 89.4302 52.45C89.1212 50.9052 89.0285 49.3296 89.183 47.6921C89.3066 46.0855 89.6465 44.5098 90.1717 42.996C90.697 41.4512 91.4695 40.1227 92.4273 38.9486C93.3851 37.7746 94.5592 36.8477 95.9497 36.1989C97.3401 35.5192 98.9159 35.2411 100.708 35.3647C102.562 35.4574 104.107 35.9209 105.374 36.6932C106.64 37.4656 107.66 38.4852 108.402 39.721C109.143 40.9568 109.637 42.3162 109.885 43.8301C110.132 45.344 110.132 46.8888 109.916 48.4336C109.699 49.9784 109.267 51.5231 108.618 53.0061C107.969 54.4891 107.166 55.8176 106.146 56.9608C105.126 58.1348 103.921 59.0617 102.562 59.7414C101.202 60.4211 99.6883 60.7609 98.0198 60.7609C96.3822 60.7609 94.9918 60.3593 93.8177 59.5869ZM101.635 52.9443C102.315 52.3573 102.871 51.6158 103.272 50.7508C103.674 49.8548 103.952 48.897 104.076 47.8157C104.199 46.7652 104.138 45.7457 103.89 44.8497C103.643 43.9228 103.242 43.1195 102.624 42.4707C102.006 41.8219 101.202 41.4512 100.152 41.3276C99.163 41.2658 98.3288 41.513 97.649 42.1C96.9693 42.687 96.444 43.4285 96.0732 44.3554C95.7025 45.2513 95.4862 46.2709 95.4553 47.3522C95.3935 48.4336 95.4862 49.4531 95.7334 50.4109C95.9805 51.3687 96.4131 52.1411 96.9693 52.7899C97.5563 53.4387 98.2979 53.7476 99.1939 53.7785C100.121 53.7785 100.924 53.5314 101.604 52.9443H101.635Z" fill="#00B4C0"/>
<path d="M139.301 35.7661C139.362 36.3531 139.455 37.0946 139.548 38.0215C139.641 38.9174 139.733 39.9679 139.826 41.1419L140.135 44.7258C140.228 45.9616 140.32 47.1666 140.413 48.3715C140.506 49.5764 140.567 50.6578 140.66 51.6464C140.753 52.6351 140.784 53.4693 140.846 54.149C140.907 54.8287 140.938 55.2921 141 55.5084C141 55.6938 140.876 55.8482 140.567 56.0027C140.258 56.1572 139.857 56.2808 139.393 56.3735C138.899 56.497 138.405 56.5588 137.848 56.6515C137.292 56.7133 136.767 56.7751 136.273 56.806C135.778 56.806 135.377 56.806 135.037 56.806C134.697 56.7751 134.542 56.6824 134.542 56.5279C134.542 56.0645 134.45 55.2303 134.326 54.0563L133.955 50.1016L133.523 45.56C133.368 44.0152 133.276 42.594 133.183 41.3582C132.565 41.3891 131.7 41.42 130.649 41.4818L127.343 41.6053C126.2 41.6362 125.118 41.698 124.099 41.7598C123.079 41.8216 122.245 41.9143 121.658 42.0379L121.781 46.6722C121.812 48.217 121.874 49.6382 121.905 50.9976C121.936 52.3261 121.998 53.5002 122.029 54.5197C122.06 55.5393 122.09 56.2499 122.121 56.6824C122.121 56.8987 121.998 57.0841 121.689 57.2694C121.38 57.4548 120.978 57.5784 120.515 57.702C120.051 57.8256 119.526 57.9182 119.001 57.98C118.475 58.0418 117.95 58.0727 117.456 58.0418C116.961 58.0418 116.56 57.9491 116.251 57.8565C115.942 57.7638 115.756 57.5784 115.756 57.3312L115.633 55.0449L115.386 51.2448C115.293 49.8236 115.231 48.3097 115.138 46.7031C115.077 45.0966 115.015 43.6136 114.953 42.2233C114.891 40.833 114.86 39.628 114.86 38.6085C114.86 37.5889 114.86 36.9092 114.922 36.6003C114.922 36.4767 115.293 36.3222 115.973 36.1986C116.652 36.075 117.548 35.9206 118.692 35.797C119.804 35.6734 121.071 35.5498 122.492 35.3953C123.913 35.2717 125.366 35.1482 126.849 35.0555C128.332 34.9628 129.784 34.8701 131.205 34.8083C132.658 34.7465 133.924 34.7156 135.068 34.6847C136.211 34.6847 137.138 34.6847 137.91 34.6847C138.652 34.7156 139.084 34.7774 139.177 34.8701C139.239 34.9319 139.301 35.2408 139.362 35.8279L139.301 35.7661Z" fill="#00B4C0"/>
<path d="M26.4293 31.9033C26.4293 32.305 26.2748 32.7066 25.9968 33.1083C25.7187 33.5099 25.4097 33.9115 25.008 34.3132C24.6063 34.7148 24.1738 35.0238 23.7103 35.271C23.2468 35.5181 22.8143 35.6726 22.3817 35.7344C21.9491 35.7962 21.6092 35.6726 21.3003 35.3636C21.0531 35.1165 20.6205 34.7457 20.0644 34.2514C19.4773 33.7571 18.8284 33.2009 18.056 32.583C17.2835 31.996 16.4802 31.3472 15.5841 30.7293C14.6881 30.0805 13.7921 29.4935 12.8651 28.9682C11.9382 28.4121 11.0422 27.9487 10.1461 27.5779C9.25007 27.2072 8.44672 26.9909 7.73607 26.8982C7.89056 28.1341 8.04505 29.2772 8.16864 30.3894C8.32313 31.5017 8.44672 32.5212 8.57032 33.4172C8.69391 34.3132 8.7866 35.0547 8.8793 35.6726C8.94109 36.2905 9.00289 36.6922 9.03379 36.8466C9.09558 37.2792 8.8793 37.6808 8.35403 38.0207C7.82877 38.3605 7.21081 38.6077 6.53105 38.7313C5.8513 38.8857 5.20244 38.8857 4.58448 38.7622C3.96652 38.6386 3.65754 38.3605 3.56485 37.928L3.31767 36.445L2.8542 33.6644C2.66881 32.5521 2.48342 31.3163 2.26714 29.9569L1.61828 25.8169C1.40199 24.3957 1.18571 23.0054 0.969423 21.646C0.784035 20.2866 0.598648 19.0198 0.444158 17.9076C0.289668 16.7645 0.196974 15.8067 0.104281 14.9725C0.0115867 14.1383 -0.0193112 13.5822 0.0115867 13.3042C0.0115867 12.9334 0.289668 12.6245 0.814933 12.4082C1.3402 12.161 1.89636 12.0065 2.51432 11.9139C3.13228 11.8212 3.75024 11.8212 4.3373 11.9139C4.92436 12.0065 5.29513 12.161 5.48052 12.4082C5.57322 12.5318 5.69681 12.9025 5.8204 13.5513C5.94399 14.2001 6.09848 15.0343 6.25297 16.0539C6.43836 17.0734 6.59285 18.2166 6.77824 19.5142C6.96362 20.8118 7.14901 22.1094 7.3344 23.4688C7.79787 23.2834 8.32313 22.8818 8.91019 22.233C9.46636 21.5842 10.0534 20.8427 10.6096 19.9776C11.1966 19.1125 11.7528 18.1857 12.2781 17.2279L13.7612 14.4782C14.1937 13.6131 14.5645 12.8716 14.8426 12.2228C15.1207 11.574 15.337 11.1415 15.4297 10.9561C15.8004 10.0292 16.3257 9.4113 16.9746 9.10235C17.6234 8.79339 18.2723 8.7007 18.8902 8.85518C19.5082 8.97877 20.0952 9.31862 20.5587 9.84384C21.0531 10.3691 21.3003 11.0179 21.3621 11.7903C21.3621 12.161 21.2385 12.6553 20.9913 13.2733C20.7132 13.8912 20.3733 14.6018 19.9099 15.3742C19.4464 16.1466 18.952 16.9498 18.365 17.784L16.6656 20.163C16.1094 20.9354 15.5533 21.646 15.0589 22.2639C14.5336 22.8818 14.101 23.3761 13.7612 23.716C14.2864 23.7778 14.9044 23.994 15.615 24.303C16.3566 24.612 17.0981 25.0136 17.9015 25.477C18.7048 25.9405 19.5391 26.4348 20.3733 26.9909L22.6907 28.5666L24.6681 29.9569L25.9968 30.9147C26.3057 31.1309 26.4293 31.4399 26.3984 31.8106L26.4293 31.9033Z" fill="#00B4C0"/>
<path d="M40.8281 26.7426C41.3533 26.9589 41.7859 27.3296 42.0949 27.8858C42.4348 28.411 42.6201 29.0598 42.6819 29.7704C42.7437 30.5119 42.5583 31.1916 42.0949 31.8404C41.8168 32.2112 41.3842 32.5819 40.7663 32.8909C40.1483 33.1998 39.4068 33.4779 38.5725 33.6632C37.7383 33.8486 36.8422 33.9722 35.8535 33.9722C34.8648 33.9722 33.9069 33.8795 32.9491 33.6015C31.9913 33.3543 31.0334 32.9526 30.1374 32.3656C29.2413 31.8095 28.438 31.0371 27.7273 30.1103C27.0167 29.1525 26.4914 27.9785 26.0897 26.5881C25.6881 25.1978 25.5027 23.5295 25.5336 21.6448C25.5336 19.3586 25.9662 17.3504 26.7077 15.682C27.4493 13.9827 28.4071 12.5924 29.5194 11.4802C30.6626 10.3679 31.8986 9.50286 33.2272 8.94674C34.5867 8.35972 35.8844 8.05077 37.1512 7.92718C38.418 7.8345 39.5303 7.98898 40.5191 8.35972C41.5078 8.73047 42.2185 9.31749 42.6201 10.059C43.2999 11.2948 43.578 12.3453 43.4544 13.2412C43.3308 14.1372 43.0218 14.8478 42.5274 15.373C42.0331 15.8983 41.4769 16.2381 40.8281 16.3926C40.1792 16.5471 39.6848 16.4853 39.2832 16.1763C38.727 15.7438 38.0163 15.5275 37.1821 15.5275C36.3479 15.5275 35.5445 15.7438 34.7412 16.2072C33.9378 16.6707 33.2581 17.3504 32.671 18.2772C32.0839 19.2041 31.775 20.3472 31.7441 21.7375C31.6823 23.1278 31.8059 24.2401 32.0839 25.0743C32.362 25.9084 32.7328 26.5881 33.1654 27.0516C33.6288 27.515 34.1541 27.824 34.7412 27.9785C35.3282 28.1329 35.9153 28.1638 36.4715 28.102C37.0276 28.0402 37.5838 27.8858 38.0781 27.7004C38.5725 27.4841 38.9742 27.2679 39.2832 26.9898C39.7466 26.619 40.2101 26.5264 40.7354 26.7426H40.8281Z" fill="#00B4C0"/>
<path d="M47.7791 8.63902C48.0881 8.48455 48.4279 8.29917 48.7987 8.14469C49.2004 7.99022 49.633 7.83574 50.0964 7.71216C50.5599 7.58857 51.0234 7.49589 51.4559 7.46499C52.043 7.4032 52.5683 7.4032 52.9699 7.49589C53.4025 7.58857 53.6188 7.83574 53.6497 8.17559C53.7115 8.57723 53.7115 9.19515 53.7424 10.0293C53.7424 10.8326 53.7424 11.7286 53.7424 12.6864V15.6214C53.7424 16.6101 53.7424 17.5061 53.7424 18.3094C53.7424 18.3711 53.7424 18.4329 53.7424 18.4947C53.7424 18.5565 53.7424 18.6183 53.7424 18.6801C53.7424 18.8964 53.8351 18.9891 53.9278 18.9891C54.1132 18.9891 54.5148 18.6492 55.1019 18.0622L57.2339 15.8686L59.8911 13.0262L62.6101 10.1838C63.4752 9.31873 64.2477 8.57723 64.8965 7.95932C65.5763 7.3723 66.0707 7.03245 66.3796 7.00156C66.5341 7.00156 66.7813 7.24872 67.0903 7.77395C67.4302 8.33007 67.8009 9.07156 68.2644 9.99843C68.7279 10.9562 69.2531 12.0684 69.8402 13.3352L71.6941 17.4752L73.7024 22.0786C74.3822 23.6543 75.0929 25.1991 75.8344 26.7439V26.8675C75.8653 27.1146 75.7108 27.3927 75.4018 27.7325C75.062 28.0724 74.6603 28.4122 74.1659 28.7521C73.6716 29.0919 73.1154 29.37 72.5283 29.6172C71.9413 29.8643 71.3851 30.0188 70.8907 30.0806C70.1492 30.1733 69.6857 29.9879 69.5003 29.5554C69.4385 29.4318 69.2222 28.9375 68.8515 28.0415L67.5847 24.8901L66.0707 20.9973C65.5454 19.6379 65.1128 18.3712 64.742 17.228C64.6494 16.95 64.5876 16.7337 64.5258 16.5483C64.464 16.3938 64.3713 16.3011 64.2477 16.332C64.0932 16.332 63.8769 16.5174 63.5988 16.8264L58.1917 22.851L54.3912 26.8675C53.3716 27.9179 52.5683 28.6594 51.9503 29.1537C51.3632 29.6172 50.9307 29.8952 50.6217 29.9261C50.22 29.957 49.9728 29.679 49.8183 29.0301C49.6639 28.3813 49.4785 27.4545 49.2622 26.2495C49.0459 25.0446 48.8296 23.7161 48.5824 22.264C48.3661 20.8428 48.1499 19.3598 47.9336 17.8459C47.7482 16.332 47.5628 14.9417 47.4083 13.6441C47.2538 12.4083 47.1611 11.3578 47.0993 10.5237C47.0375 9.68948 47.0375 9.19515 47.0993 9.07156C47.1611 8.91708 47.3465 8.73171 47.6246 8.57723L47.7791 8.63902Z" fill="#00B4C0"/>
<path d="M81.458 20.2859C81.6743 20.3476 81.9524 20.3476 82.2613 20.3167C82.7557 20.2859 83.3119 20.0696 83.9298 19.6679C84.5478 19.2972 85.1039 18.5557 85.6601 17.4744C86.2163 16.393 86.6797 14.91 87.0505 12.9636C87.4213 11.0172 87.6067 8.48372 87.6067 5.36326C87.6067 4.74535 87.6067 4.22012 87.6067 3.81848C87.6067 3.41684 87.6376 3.10788 87.6994 2.82982C87.7303 2.58265 87.7921 2.39728 87.8848 2.2737C87.9774 2.15012 88.0701 2.05743 88.2246 1.99564C88.4409 1.93385 89.0898 1.81026 90.1712 1.68668C91.2217 1.5631 92.4885 1.40862 93.9098 1.28504C94.9913 1.19235 96.1345 1.09966 97.3086 1.00698C98.4827 0.914291 99.5642 0.883394 100.522 0.821603C101.48 0.790707 102.314 0.790707 102.963 0.821603C103.612 0.821603 103.983 0.883395 104.075 1.00698C104.137 1.06877 104.199 1.31593 104.23 1.74847C104.292 2.18101 104.353 2.73713 104.415 3.41684C104.508 4.31281 104.57 5.42505 104.662 6.69177C104.755 7.95849 104.848 9.3179 104.91 10.6773L105.126 14.8173C105.188 16.2076 105.249 17.4435 105.311 18.5866C105.373 19.7297 105.404 20.6566 105.404 21.3981C105.404 22.1396 105.404 22.5721 105.435 22.6648C105.435 22.9429 105.311 23.2209 105.033 23.499C104.786 23.7462 104.415 23.9933 104.013 24.1787C103.612 24.3641 103.148 24.5495 102.623 24.673C102.098 24.7966 101.603 24.8893 101.109 24.9511C100.398 25.0129 99.7805 24.9511 99.2552 24.8275C98.7299 24.673 98.4518 24.395 98.4209 23.9315C98.4209 23.7153 98.4209 23.1591 98.3901 22.2941C98.3901 21.3981 98.3901 20.3476 98.3901 19.1427V15.2808C98.3901 13.9214 98.421 12.6237 98.4518 11.4497L98.5136 8.42193C98.5136 7.58775 98.5445 7.12431 98.5445 6.96983C98.2974 7.03163 98.0193 7.06252 97.7721 7.09342L96.9996 7.15521C96.3199 7.217 95.671 7.27879 95.0531 7.30969C94.4351 7.34058 93.8481 7.40237 93.3228 7.43327L92.2723 7.52596C92.3341 10.3375 92.1796 12.9018 91.7779 15.2808C91.3762 17.6288 90.7274 19.6988 89.8622 21.429C88.9971 23.19 87.8848 24.5803 86.5561 25.5999C85.2275 26.6504 83.6826 27.2374 81.9215 27.3918C80.9327 27.4845 80.0676 27.4227 79.326 27.2683C78.5845 27.0829 77.9665 26.8048 77.4721 26.4341C76.9778 26.0633 76.607 25.6308 76.3598 25.1056C76.1126 24.6112 75.9581 24.086 75.8964 23.5299C75.8655 23.0665 75.8964 22.603 75.989 22.1705C76.0817 21.7379 76.2671 21.3363 76.5143 20.9965C76.7615 20.6257 77.0705 20.3476 77.4412 20.1005C77.812 19.8842 78.2446 19.7297 78.7081 19.6988C79.326 19.637 80.0676 19.7606 80.8709 20.1005C80.9945 20.1314 81.149 20.1932 81.3653 20.255L81.458 20.2859Z" fill="#00B4C0"/>
<path d="M109.7 2.49121C110.009 2.33673 110.349 2.18225 110.751 2.02777C111.152 1.87329 111.585 1.74971 112.048 1.65702C112.512 1.56434 112.975 1.50255 113.439 1.44075C114.026 1.40986 114.551 1.44075 114.953 1.53344C115.354 1.65702 115.601 1.87329 115.601 2.24404C115.632 2.67658 115.632 3.2636 115.601 4.09778C115.601 4.90107 115.54 5.79704 115.509 6.7548L115.385 9.68989C115.354 10.6785 115.323 11.5745 115.293 12.3778C115.293 12.4396 115.293 12.5014 115.293 12.5632C115.293 12.625 115.293 12.6868 115.293 12.7486C115.293 12.9648 115.354 13.0575 115.478 13.0575C115.663 13.0575 116.065 12.7486 116.683 12.1924L118.908 10.0606L121.688 7.34182L124.5 4.62301C125.396 3.78882 126.199 3.07822 126.879 2.49121C127.559 1.90419 128.084 1.62613 128.393 1.59523C128.548 1.59523 128.764 1.8424 129.073 2.39852C129.382 2.95464 129.753 3.72703 130.185 4.6848C130.618 5.64256 131.081 6.7857 131.607 8.08332L133.306 12.2851L135.16 16.9504C135.809 18.5569 136.458 20.1326 137.106 21.6774V21.801C137.106 22.0481 136.983 22.3262 136.643 22.6352C136.303 22.9441 135.871 23.284 135.345 23.5929C134.82 23.9019 134.264 24.1799 133.677 24.3962C133.09 24.6125 132.534 24.767 132.039 24.7979C131.298 24.8596 130.834 24.6743 130.649 24.2417C130.587 24.1181 130.402 23.5929 130.062 22.6969L128.918 19.4838L127.559 15.5601C127.096 14.1698 126.694 12.903 126.354 11.7599C126.292 11.4818 126.23 11.2656 126.169 11.0802C126.107 10.9257 126.014 10.833 125.891 10.833C125.736 10.833 125.52 11.0184 125.211 11.3274L119.587 17.1357L115.663 21.0286C114.613 22.0172 113.748 22.7587 113.161 23.1913C112.543 23.6547 112.11 23.871 111.832 23.9019C111.43 23.9019 111.183 23.6238 111.059 22.975C110.936 22.3262 110.781 21.3993 110.627 20.1635C110.442 18.9277 110.287 17.5992 110.102 16.178C109.916 14.7259 109.762 13.2429 109.638 11.729C109.484 10.2151 109.391 8.79391 109.267 7.52719C109.175 6.26047 109.113 5.24092 109.082 4.37584C109.082 3.54166 109.082 3.04733 109.144 2.92375C109.206 2.76927 109.391 2.61479 109.7 2.46031V2.49121Z" fill="#00B4C0"/>
</svg>
