<svg width="24" height="24" viewBox="0 0 24 24" fill="none" xmlns="http://www.w3.org/2000/svg">
<mask id="path-1-inside-1_4002_156" fill="white">
<path d="M0 12C0 5.37258 5.37258 0 12 0C18.6274 0 24 5.37258 24 12C24 18.6274 18.6274 24 12 24C5.37258 24 0 18.6274 0 12Z"/>
</mask>
<path d="M0 12C0 5.37258 5.37258 0 12 0C18.6274 0 24 5.37258 24 12C24 18.6274 18.6274 24 12 24C5.37258 24 0 18.6274 0 12Z" fill="#F7A4BC"/>
<path d="M-1 12C-1 4.8203 4.8203 -1 12 -1C19.1797 -1 25 4.8203 25 12H23C23 5.92487 18.0751 1 12 1C5.92487 1 1 5.92487 1 12H-1ZM25 13C25 20.1797 19.1797 26 12 26C4.8203 26 -1 20.1797 -1 13L1 12C1 17.5228 5.92487 22 12 22C18.0751 22 23 17.5228 23 12L25 13ZM12 26C4.8203 26 -1 20.1797 -1 13V12C-1 4.8203 4.8203 -1 12 -1V1C5.92487 1 1 5.92487 1 12C1 17.5228 5.92487 22 12 22V26ZM12 -1C19.1797 -1 25 4.8203 25 12V13C25 20.1797 19.1797 26 12 26V22C18.0751 22 23 17.5228 23 12C23 5.92487 18.0751 1 12 1V-1Z" fill="black" mask="url(#path-1-inside-1_4002_156)"/>
<path d="M12.0043 17.274C11.7696 17.274 11.5936 17.208 11.4763 17.076C11.359 16.944 11.3003 16.768 11.3003 16.548V12.368H7.1863C6.9663 12.368 6.7903 12.3093 6.6583 12.192C6.54096 12.0747 6.4823 11.906 6.4823 11.686C6.4823 11.466 6.54096 11.2973 6.6583 11.18C6.7903 11.0627 6.9663 11.004 7.1863 11.004H11.3003V6.956C11.3003 6.72133 11.359 6.54533 11.4763 6.428C11.5936 6.296 11.7696 6.23 12.0043 6.23C12.239 6.23 12.415 6.296 12.5323 6.428C12.6496 6.54533 12.7083 6.72133 12.7083 6.956V11.004H16.8223C17.0423 11.004 17.211 11.0627 17.3283 11.18C17.4603 11.2973 17.5263 11.466 17.5263 11.686C17.5263 11.906 17.4603 12.0747 17.3283 12.192C17.211 12.3093 17.0423 12.368 16.8223 12.368H12.7083V16.548C12.7083 16.768 12.6496 16.944 12.5323 17.076C12.415 17.208 12.239 17.274 12.0043 17.274Z" fill="#020203"/>
</svg>
