<svg width="55" height="55" viewBox="0 0 55 55" fill="none" xmlns="http://www.w3.org/2000/svg">
<mask id="path-1-inside-1_2635_6811" fill="white">
<path d="M0 27.5C0 12.3122 12.3122 0 27.5 0C42.6878 0 55 12.3122 55 27.5C55 42.6878 42.6878 55 27.5 55C12.3122 55 0 42.6878 0 27.5Z"/>
</mask>
<path d="M0 27.5C0 12.3122 12.3122 0 27.5 0C42.6878 0 55 12.3122 55 27.5C55 42.6878 42.6878 55 27.5 55C12.3122 55 0 42.6878 0 27.5Z" fill="#F7A4BC"/>
<path d="M-1 27.5C-1 11.7599 11.7599 -1 27.5 -1C43.2401 -1 56 11.7599 56 27.5H54C54 12.8645 42.1355 1 27.5 1C12.8645 1 1 12.8645 1 27.5H-1ZM56 29.5C56 45.2401 43.2401 58 27.5 58C11.7599 58 -1 45.2401 -1 29.5L1 27.5C1 41.031 12.8645 52 27.5 52C42.1355 52 54 41.031 54 27.5L56 29.5ZM27.5 58C11.7599 58 -1 45.2401 -1 29.5V27.5C-1 11.7599 11.7599 -1 27.5 -1V1C12.8645 1 1 12.8645 1 27.5C1 41.031 12.8645 52 27.5 52V58ZM27.5 -1C43.2401 -1 56 11.7599 56 27.5V29.5C56 45.2401 43.2401 58 27.5 58V52C42.1355 52 54 41.031 54 27.5C54 12.8645 42.1355 1 27.5 1V-1Z" fill="black" mask="url(#path-1-inside-1_2635_6811)"/>
<path d="M26.182 32.856C26.182 32.1227 26.1673 30.8467 26.138 29.028C24.3927 29.0427 23.1753 29.05 22.486 29.05C22.1193 29.05 21.848 28.9473 21.672 28.742C21.496 28.5367 21.408 28.302 21.408 28.038C21.408 27.774 21.496 27.5393 21.672 27.334C21.848 27.1287 22.1193 27.026 22.486 27.026C23.1753 27.026 24.3853 27.0187 26.116 27.004C26.116 25.552 26.1307 24.3053 26.16 23.264C26.1747 22.912 26.2993 22.648 26.534 22.472C26.7687 22.296 27.0253 22.2153 27.304 22.23C27.5973 22.23 27.8467 22.3253 28.052 22.516C28.272 22.7067 28.3747 22.9853 28.36 23.352C28.3307 24.364 28.316 25.574 28.316 26.982C29.7827 26.982 31.066 26.9967 32.166 27.026C32.5327 27.0407 32.7967 27.1507 32.958 27.356C33.134 27.5613 33.2147 27.796 33.2 28.06C33.2 28.324 33.1047 28.5587 32.914 28.764C32.738 28.9547 32.474 29.05 32.122 29.05C31.0367 29.0207 29.7753 29.006 28.338 29.006C28.3673 30.8393 28.382 32.1227 28.382 32.856C28.382 33.2227 28.272 33.5013 28.052 33.692C27.832 33.868 27.5753 33.956 27.282 33.956C26.9887 33.956 26.732 33.868 26.512 33.692C26.292 33.5013 26.182 33.2227 26.182 32.856Z" fill="#020203"/>
</svg>
