<svg width="53" height="53" viewBox="0 0 53 53" fill="none" xmlns="http://www.w3.org/2000/svg">
<mask id="path-1-inside-1_4004_7194" fill="white">
<path d="M0.107422 26.2485C0.107422 11.7556 11.8562 0.00683594 26.3491 0.00683594C40.8419 0.00683594 52.5907 11.7556 52.5907 26.2485C52.5907 40.7413 40.8419 52.4901 26.3491 52.4901C11.8562 52.4901 0.107422 40.7413 0.107422 26.2485Z"/>
</mask>
<path d="M0.107422 26.2485C0.107422 11.7556 11.8562 0.00683594 26.3491 0.00683594C40.8419 0.00683594 52.5907 11.7556 52.5907 26.2485C52.5907 40.7413 40.8419 52.4901 26.3491 52.4901C11.8562 52.4901 0.107422 40.7413 0.107422 26.2485Z" fill="#B2E9FF"/>
<path d="M0.107422 0.00683594H52.5907H0.107422ZM52.5907 29.1112C52.5907 43.604 40.8419 55.3528 26.3491 55.3528C11.8562 55.3528 0.107422 43.604 0.107422 29.1112V26.2485C0.107422 39.1603 11.8562 49.6274 26.3491 49.6274C40.8419 49.6274 52.5907 39.1603 52.5907 26.2485V29.1112ZM0.107422 52.4901V0.00683594V52.4901ZM52.5907 0.00683594V52.4901V0.00683594Z" fill="black" mask="url(#path-1-inside-1_4004_7194)"/>
<path d="M26.3527 31.9503C26.1084 31.9503 25.9252 31.8816 25.803 31.7442C25.6809 31.6068 25.6198 31.4236 25.6198 31.1945V26.8432H21.3372C21.1082 26.8432 20.925 26.7821 20.7876 26.66C20.6654 26.5378 20.6043 26.3623 20.6043 26.1332C20.6043 25.9042 20.6654 25.7286 20.7876 25.6065C20.925 25.4844 21.1082 25.4233 21.3372 25.4233H25.6198V21.2094C25.6198 20.9651 25.6809 20.7819 25.803 20.6597C25.9252 20.5223 26.1084 20.4536 26.3527 20.4536C26.597 20.4536 26.7802 20.5223 26.9023 20.6597C27.0245 20.7819 27.0855 20.9651 27.0855 21.2094V25.4233H31.3682C31.5972 25.4233 31.7728 25.4844 31.8949 25.6065C32.0323 25.7286 32.101 25.9042 32.101 26.1332C32.101 26.3623 32.0323 26.5378 31.8949 26.66C31.7728 26.7821 31.5972 26.8432 31.3682 26.8432H27.0855V31.1945C27.0855 31.4236 27.0245 31.6068 26.9023 31.7442C26.7802 31.8816 26.597 31.9503 26.3527 31.9503Z" fill="#020203"/>
</svg>
