<svg width="55" height="55" viewBox="0 0 55 55" fill="none" xmlns="http://www.w3.org/2000/svg">
<mask id="path-1-inside-1_2635_6487" fill="white">
<path d="M0 27.5C0 12.3122 12.3122 0 27.5 0C42.6878 0 55 12.3122 55 27.5C55 42.6878 42.6878 55 27.5 55C12.3122 55 0 42.6878 0 27.5Z"/>
</mask>
<path d="M0 27.5C0 12.3122 12.3122 0 27.5 0C42.6878 0 55 12.3122 55 27.5C55 42.6878 42.6878 55 27.5 55C12.3122 55 0 42.6878 0 27.5Z" fill="#F7A4BC"/>
<path d="M0 0H55H0ZM55 30.5C55 45.6878 42.6878 58 27.5 58C12.3122 58 0 45.6878 0 30.5V27.5C0 41.031 12.3122 52 27.5 52C42.6878 52 55 41.031 55 27.5V30.5ZM0 55V0V55ZM55 0V55V0Z" fill="black" mask="url(#path-1-inside-1_2635_6487)"/>
<path d="M27.5047 33.708C27.2487 33.708 27.0567 33.636 26.9287 33.492C26.8007 33.348 26.7367 33.156 26.7367 32.916V28.356H22.2487C22.0087 28.356 21.8167 28.292 21.6727 28.164C21.5447 28.036 21.4807 27.852 21.4807 27.612C21.4807 27.372 21.5447 27.188 21.6727 27.06C21.8167 26.932 22.0087 26.868 22.2487 26.868H26.7367V22.452C26.7367 22.196 26.8007 22.004 26.9287 21.876C27.0567 21.732 27.2487 21.66 27.5047 21.66C27.7607 21.66 27.9527 21.732 28.0807 21.876C28.2087 22.004 28.2727 22.196 28.2727 22.452V26.868H32.7607C33.0007 26.868 33.1847 26.932 33.3127 27.06C33.4567 27.188 33.5287 27.372 33.5287 27.612C33.5287 27.852 33.4567 28.036 33.3127 28.164C33.1847 28.292 33.0007 28.356 32.7607 28.356H28.2727V32.916C28.2727 33.156 28.2087 33.348 28.0807 33.492C27.9527 33.636 27.7607 33.708 27.5047 33.708Z" fill="#020203"/>
</svg>
