<svg width="100" height="100" viewBox="0 0 100 100" fill="none" xmlns="http://www.w3.org/2000/svg">
<circle cx="50" cy="50" r="50" fill="#9A41FE"/>
<path d="M42.0767 58.4408L36.0242 43.1484H31.3913L25.3011 58.4408L19.2108 43.1484H12L22.6486 70.0369H27.2814L33.6706 54.0198L40.0968 70.0369H44.7297L55.3405 43.1484H48.1671L42.0767 58.4408Z" fill="white"/>
<path fill-rule="evenodd" clip-rule="evenodd" d="M73.0925 41.7411C69.9913 41.7411 67.1891 42.6471 64.7981 44.2053V30H58.1848V56.2C58.1848 64.1724 64.8727 70.5866 73.0552 70.5866C81.2378 70.5866 88.0001 64.2086 88.0001 56.1276C88.0001 48.0468 81.387 41.7411 73.0925 41.7411ZM64.7976 56.1638C64.7976 60.6933 68.5711 64.1724 73.0548 64.1724C77.6131 64.1724 81.3864 60.5487 81.3864 56.1638C81.3864 51.779 77.8368 48.1915 73.0921 48.1915C68.3474 48.1915 64.7976 51.6343 64.7976 56.1638Z" fill="white"/>
</svg>
