<svg width="40" height="40" viewBox="0 0 40 40" fill="none" xmlns="http://www.w3.org/2000/svg">
<mask id="path-1-inside-1_4048_3035" fill="white">
<path d="M0 20C0 8.95431 8.95431 0 20 0V0C31.0457 0 40 8.95431 40 20V20C40 31.0457 31.0457 40 20 40V40C8.95431 40 0 31.0457 0 20V20Z"/>
</mask>
<path d="M0 20C0 8.95431 8.95431 0 20 0V0C31.0457 0 40 8.95431 40 20V20C40 31.0457 31.0457 40 20 40V40C8.95431 40 0 31.0457 0 20V20Z" fill="#F7A4BC"/>
<path d="M-1 20C-1 8.40202 8.40202 -1 20 -1C31.598 -1 41 8.40202 41 20H39C39 9.50659 30.4934 1 20 1C9.50659 1 1 9.50659 1 20H-1ZM41 22C41 33.598 31.598 43 20 43C8.40202 43 -1 33.598 -1 22L1 20C1 29.3888 9.50659 37 20 37C30.4934 37 39 29.3888 39 20L41 22ZM20 43C8.40202 43 -1 33.598 -1 22V20C-1 8.40202 8.40202 -1 20 -1V1C9.50659 1 1 9.50659 1 20C1 29.3888 9.50659 37 20 37V43ZM20 -1C31.598 -1 41 8.40202 41 20V22C41 33.598 31.598 43 20 43V37C30.4934 37 39 29.3888 39 20C39 9.50659 30.4934 1 20 1V-1Z" fill="black" mask="url(#path-1-inside-1_4048_3035)"/>
<path d="M22.134 23.726C21.724 23.3349 21.0028 22.6625 19.9702 21.7088C19.0475 22.6925 18.4023 23.3771 18.0347 23.7625C17.8391 23.9675 17.637 24.0645 17.4283 24.0533C17.2196 24.0422 17.0415 23.9663 16.8939 23.8255C16.7462 23.6846 16.662 23.5103 16.641 23.3023C16.6201 23.0944 16.7074 22.888 16.903 22.6829C17.2707 22.2975 17.912 21.6171 18.8269 20.6416C18.015 19.8671 17.3258 19.194 16.7592 18.6222C16.5702 18.4262 16.4891 18.2157 16.5159 17.9906C16.5426 17.7655 16.6344 17.579 16.7913 17.431C16.9477 17.267 17.134 17.1785 17.3501 17.1653C17.5741 17.144 17.7846 17.2353 17.9818 17.439C18.532 17.9952 19.2007 18.6488 19.988 19.3998C20.7703 18.5797 21.463 17.87 22.0661 17.2706C22.2698 17.0735 22.4722 16.9845 22.673 17.0038C22.8817 17.0149 23.0559 17.095 23.1957 17.244C23.3433 17.3848 23.4237 17.5633 23.4368 17.7794C23.4495 17.9795 23.362 18.178 23.1743 18.3748C22.579 18.966 21.898 19.6634 21.1314 20.467C22.1721 21.4285 22.8974 22.1048 23.3075 22.4959C23.5125 22.6915 23.6096 22.9017 23.5989 23.1264C23.5799 23.3432 23.4922 23.5337 23.3358 23.6977C23.1793 23.8617 22.9932 23.9583 22.7775 23.9874C22.5535 24.0087 22.339 23.9216 22.134 23.726Z" fill="#020203"/>
</svg>
