<svg width="80" height="80" viewBox="0 0 80 80" fill="none" xmlns="http://www.w3.org/2000/svg">
<path d="M0 40C0 17.9086 17.9086 0 40 0C62.0914 0 80 17.9086 80 40C80 62.0914 62.0914 80 40 80C17.9086 80 0 62.0914 0 40Z" fill="#00B4C0"/>
<path d="M25.1575 39.2929C24.767 39.6834 24.767 40.3166 25.1575 40.7071L31.5215 47.0711C31.912 47.4616 32.5452 47.4616 32.9357 47.0711C33.3262 46.6805 33.3262 46.0474 32.9357 45.6569L27.2788 40L32.9357 34.3431C33.3262 33.9526 33.3262 33.3195 32.9357 32.9289C32.5452 32.5384 31.912 32.5384 31.5215 32.9289L25.1575 39.2929ZM25.8646 40V41H54.1354V40V39H25.8646V40Z" fill="white"/>
</svg>
