<svg width="439" height="460" viewBox="0 0 439 460" fill="none" xmlns="http://www.w3.org/2000/svg">
<path d="M166.308 96.7539C166.308 96.7539 166.137 96.9064 166.047 96.9512C166.101 96.8794 166.218 96.7987 166.308 96.7539Z" stroke="#221E1F" stroke-width="1.02989" stroke-miterlimit="10"/>
<path d="M164.511 98.3262C164.511 98.3262 164.511 98.3262 164.485 98.3609C164.485 98.3609 164.485 98.3609 164.511 98.3262Z" stroke="#221E1F" stroke-width="1.02989" stroke-miterlimit="10"/>
<path d="M164.509 98.3296C165.005 97.7454 165.491 97.3231 166.023 96.9908C166.077 96.9189 166.194 96.838 166.284 96.7932C171.066 93.8028 176.087 100.45 178.686 108.596C179.197 110.162 179.618 111.774 179.904 113.34C180.244 115.059 180.386 116.741 180.429 118.406C180.41 118.73 180.491 119.072 180.473 119.396L184.545 115.028C184.478 111.375 192.998 97.5734 205.047 89.8592C212.909 84.7942 215.878 77.6265 216.963 73.2639C230.821 94.2105 256.098 106.857 273.584 104.414C273.398 109.227 273.023 114.068 272.388 118.881C272.342 119.241 272.333 119.628 272.287 119.988C272.269 120.087 272.287 120.213 272.269 120.312C272.242 120.572 272.178 120.806 272.151 121.067C272.06 121.562 271.97 122.057 271.906 122.516C266.585 117.614 257.011 110.584 241.11 104.706C241.21 104.499 241.084 104.292 240.877 104.193C239.474 103.588 238.08 103.047 236.677 102.442C233.673 101.197 230.588 100.059 227.485 99.0203C225.831 98.4513 224.212 97.9094 222.539 97.4394C218.716 96.3099 214.767 95.4232 210.754 94.9952C208.379 94.7853 205.968 94.7733 203.529 95.2471C203.403 95.265 203.313 95.3099 203.187 95.3277C202.062 95.5512 200.738 96.4134 200.161 97.3305C199.458 98.2654 198.692 99.2092 198.025 100.171C195.293 104.028 192.967 108.245 191.53 112.85C190.121 117.419 189.674 122.431 191.017 127.156C191.313 128.335 191.761 129.461 192.273 130.577L193.117 132.225C193.494 132.846 194.015 133.351 194.617 133.747C195.22 134.144 195.894 134.37 196.614 134.461L198.368 134.598C199.538 134.689 200.654 134.853 201.796 134.98C207.005 135.688 212.151 136.631 217.314 137.699C219.266 138.097 221.155 138.505 223.081 138.939C224.888 139.454 226.669 140.005 228.459 140.619C228.9 140.782 229.323 140.593 229.665 140.288C229.801 140.108 230.017 140.045 230.08 139.811C230.08 139.811 230.071 139.748 230.062 139.685C230.666 139.182 231.341 138.733 232.052 138.311C232.944 137.799 233.907 137.342 234.861 137.046C235.509 136.858 236.193 136.697 236.859 136.635C239.199 136.143 240.952 138.079 241.021 140.383C241.153 142.678 239.549 144.736 237.289 145.57C235.002 146.44 232.294 146.374 229.703 146.002C229.343 145.956 229.019 146.163 228.974 146.523C228.892 146.855 229.162 147.171 229.432 147.261C232.094 147.912 235.036 148.267 237.926 147.344C239.132 147.012 240.24 146.213 241.132 145.251C241.401 145.341 241.707 145.459 242.148 145.621C242.795 145.883 243.578 146.19 244.531 146.569C245.35 146.903 246.276 147.318 247.238 147.76C251.402 149.709 256.707 152.685 260.778 156.478C260.49 156.937 260.237 157.422 259.949 157.881C259.759 158.132 259.642 158.438 259.453 158.69C259.263 158.942 259.074 159.193 258.885 159.445C258.01 160.758 257.1 162.043 256.118 163.275C252.495 167.868 247.955 171.66 242.778 174.353C238.763 175.949 233.839 177.482 231.283 178.036C229.168 178.529 227.008 178.706 224.866 178.784C224.326 178.828 223.805 178.774 223.256 178.755C222.482 178.736 221.654 178.789 220.844 178.743C214.564 178.186 208.494 175.704 203.252 172.27C197.687 168.591 192.852 163.717 188.891 158.206C187.292 155.99 185.81 153.694 184.509 151.308C184.159 150.651 183.781 150.029 183.467 149.399C182.794 148.048 182.121 146.698 181.538 145.302C178.353 138.01 176.635 129.739 177.401 121.759C177.584 119.869 177.856 117.935 178.362 116.064C178.543 115.299 177.383 115.046 177.166 115.784C176.949 116.521 176.795 117.25 176.605 117.951C176.334 119.211 176.062 120.47 175.926 121.775C175.898 122.036 175.835 122.269 175.835 122.494C172.099 124.019 166.573 124.48 162.523 118.339C160.071 114.637 159.879 109.877 160.892 105.685C161.253 104.606 161.632 103.653 162.029 102.825C162.859 100.973 163.698 99.4084 164.581 98.3837C164.581 98.3837 164.581 98.3837 164.608 98.3477L164.509 98.3296ZM215.858 93.148C218.388 91.9545 229.014 92.7956 229.014 92.7956C220.153 83.7685 213.301 94.3776 215.858 93.148ZM259.389 108.769C262.142 109.375 269.997 116.521 269.997 116.521C268.51 103.976 256.637 108.163 259.389 108.769ZM235.581 165.508C236.176 165.166 236.761 164.762 237.382 164.385C237.41 164.349 237.437 164.313 237.5 164.304C238.085 163.9 238.634 163.469 239.211 163.002C239.265 162.93 239.355 162.885 239.472 162.804C240.021 162.373 240.562 161.879 241.066 161.357C241.175 161.214 241.292 161.133 241.436 161.016C241.94 160.495 242.445 159.973 242.976 159.416C243.112 159.236 243.256 159.12 243.427 158.967C243.895 158.419 244.418 157.798 244.914 157.214C245.076 156.998 245.211 156.819 245.373 156.603C245.806 156.027 246.266 155.416 246.698 154.841C246.914 154.778 247.076 154.787 247.256 154.698C247.562 154.59 247.707 154.248 247.635 153.969C247.564 153.69 247.285 153.537 246.97 153.581L246.934 153.554C245.467 153.859 243.964 153.911 242.488 153.927L235.138 153.297C232.178 152.816 229.255 152.138 226.367 151.261C223.012 150.258 219.658 149.03 216.339 147.829C214.675 147.197 213.074 146.557 211.464 145.853C209.954 145.167 208.128 144.301 207.139 143.445L206.888 143.256C206.663 143.03 206.276 143.021 206.024 143.282C205.835 143.533 205.825 143.92 206.05 144.145C207.326 145.443 208.674 146.344 210.077 147.174C210.005 147.57 209.932 147.965 209.887 148.325C209.869 148.424 209.85 148.523 209.841 148.685C209.804 149.333 209.768 149.981 209.803 150.683C209.821 150.809 209.803 150.908 209.82 151.034C209.899 152.5 210.24 153.994 210.742 155.498C210.742 155.498 210.75 155.561 210.786 155.588C211.055 156.353 211.351 157.082 211.746 157.829C211.746 157.829 211.782 157.856 211.791 157.919C213.739 161.917 217.1 165.457 221.318 167.109L221.39 167.163C221.965 167.371 222.541 167.579 223.17 167.715C223.17 167.715 223.206 167.742 223.242 167.769C224.538 168.067 225.878 168.231 227.282 168.161C227.282 168.161 227.345 168.152 227.408 168.143C228.047 168.117 228.713 168.054 229.37 167.929C229.46 167.884 229.559 167.902 229.649 167.858C231.521 167.464 233.447 166.774 235.5 165.615L235.581 165.508ZM173.601 109.894C173.107 108.904 172.398 107.976 171.526 107.264C170.699 106.643 169.539 105.939 168.459 106.028C167.982 106.063 167.774 106.639 168.08 106.981C168.385 107.323 168.763 107.495 169.069 107.837C169.401 108.144 169.707 108.486 170.039 108.792C170.417 109.189 170.605 109.387 170.884 109.765C171.162 110.143 171.441 110.522 171.692 110.936C172.078 111.62 172.419 112.439 172.562 113.222C172.687 114.104 172.587 114.986 172.253 115.804C171.811 116.767 173.133 117.479 173.71 116.562C174.9 114.53 174.741 112.046 173.673 109.948L173.601 109.894Z" fill="#FBC3AE"/>
<path d="M218.555 160.751C229.825 165.003 232.398 165.024 232.225 166.302C232.144 166.635 232.054 166.904 231.9 167.183C231.162 167.416 230.451 167.613 229.767 167.774C229.677 167.819 229.578 167.801 229.488 167.846C228.831 167.971 228.165 168.033 227.526 168.06C227.526 168.06 227.463 168.068 227.4 168.077C225.997 168.148 224.656 167.984 223.361 167.685C223.361 167.685 223.325 167.658 223.289 167.631C222.686 167.46 222.083 167.288 221.508 167.08L221.436 167.026C219.601 166.322 217.938 165.24 216.5 163.934C211.559 157.854 214.823 159.352 218.627 160.805L218.555 160.751Z" fill="#ED1B23"/>
<path d="M176.493 285.779C178.777 287.383 184.755 291.485 192.407 296.281C193.216 296.777 194.025 297.273 194.87 297.796C194.942 297.85 194.978 297.877 195.05 297.931C191.512 306.754 187.423 316.457 183.146 326.638C182.857 327.321 182.595 327.969 182.306 328.652C182.343 328.454 182.343 328.229 182.343 328.004C182.526 325.665 182.628 322.984 182.379 320.545C181.988 316.649 180.859 313.435 177.925 313.593C173.084 313.893 162.398 325.109 155.838 332.56C155.568 332.92 155.199 333.261 154.955 333.585C154.685 333.945 154.406 334.241 154.126 334.538C153.243 335.562 152.441 336.479 151.837 337.207C151.81 337.243 151.783 337.279 151.756 337.315C151.756 337.315 151.729 337.351 151.702 337.387C151.702 337.387 151.729 337.351 151.72 337.288C151.83 335.795 151.877 334.31 151.987 332.816C152.015 332.331 152.042 331.845 152.097 331.323C152.151 330.801 152.17 330.252 152.198 329.766C152.858 319.455 153.492 309.405 154.025 300.462C154.025 300.462 154.115 300.417 154.151 300.444C162.658 297.216 170.268 291.736 176.538 285.869L176.493 285.779Z" fill="#294190"/>
<path d="M219.753 259.092C219.753 259.092 219.412 258.947 219.241 258.875C219.403 258.885 219.627 258.885 219.816 258.858C219.762 258.93 219.807 259.02 219.78 259.056L219.753 259.092Z" fill="#294190"/>
<path d="M165.602 152.118C174.565 150.978 181.996 151.725 181.996 151.725C181.996 151.725 181.996 151.725 182.032 151.752C182.032 151.752 182.104 151.806 182.077 151.842C183.442 154.444 184.95 156.93 186.666 159.289C193.995 169.529 204.458 178.072 217.143 180.068C217.773 180.203 218.421 180.24 219.077 180.34C220.382 180.477 221.705 180.514 222.991 180.525C223.504 180.517 224.026 180.571 224.539 180.563C224.953 180.536 225.331 180.483 225.745 180.456C225.807 180.672 225.87 180.888 225.96 181.068C226.13 181.591 226.301 182.113 226.444 182.671C226.802 183.841 227.161 185.011 227.519 186.181C228.021 187.91 228.46 189.647 228.835 191.393C228.871 191.645 229.159 191.636 229.348 191.609C229.501 191.556 229.609 191.412 229.591 191.286C229.261 189.18 228.868 187.083 228.411 184.995C228.125 183.654 227.776 182.321 227.4 181.025C227.337 180.809 227.301 180.557 227.239 180.341C227.491 180.306 227.778 180.297 228.03 180.261C228.03 180.261 228.066 180.288 228.138 180.342C228.813 180.118 229.677 180.317 230.765 180.742C237.384 183.467 251.241 197.827 265.233 205.421C265.448 205.583 265.727 205.737 266.006 205.89C266.157 206.961 266.318 208.32 266.622 209.787C267.793 215.79 270.464 224.44 276.495 229.595C277.52 230.478 278.625 231.253 279.875 231.912C272.614 232.136 261.286 231.105 244.556 226.406C243.441 226.017 241.894 225.529 240.239 224.961C239.735 224.807 239.258 224.617 238.755 224.464C238.251 224.31 237.81 224.148 237.307 223.994C235.688 223.452 234.168 222.928 232.98 222.486C232.873 222.405 232.774 222.387 232.675 222.369C232.675 222.369 232.639 222.342 232.603 222.315C232.603 222.315 232.531 222.26 232.495 222.233C232.495 222.233 232.522 222.197 232.549 222.162C232.576 222.126 232.558 222 232.585 221.964C232.585 221.964 232.639 221.892 232.603 221.865C232.622 221.541 232.703 221.208 232.722 220.884C232.758 220.461 232.858 220.029 232.894 219.607C232.921 219.571 232.939 219.472 232.93 219.409C233.968 209.719 233.647 200.415 232.318 191.028C232.247 190.524 231.5 190.694 231.571 191.198C231.81 194.249 231.959 197.344 232.009 200.422C232.036 200.611 232 200.809 232.027 200.998C232.069 203.337 232.048 205.686 231.928 208.016C231.9 208.727 231.845 209.473 231.817 210.184C231.698 212.29 231.542 214.368 231.323 216.455C231.287 216.653 231.314 216.842 231.278 217.04C231.241 217.688 231.141 218.345 231.041 219.001C231.005 219.424 230.905 219.856 230.869 220.279C230.842 220.315 230.851 220.378 230.86 220.441C230.814 220.801 230.742 221.196 230.696 221.556C230.614 222.339 230.496 223.095 230.378 223.85C230.378 223.85 230.378 223.85 230.351 223.886C230.315 224.309 230.251 224.768 230.179 225.164C230.151 225.425 230.097 225.722 230.07 225.983C230.025 226.117 230.042 226.243 229.997 226.378C229.997 226.378 229.97 226.414 229.943 226.45C228.946 232.343 227.58 238.127 225.818 243.838C225.818 243.838 224.495 244.026 222.408 244.032C221.994 244.058 221.544 244.058 221.058 244.03C220.608 244.03 220.185 243.993 219.736 243.993C216.793 243.863 213.06 243.363 209.156 242.117L221.632 224.253L222.443 223.175L223.128 222.114C223.128 222.114 223.155 222.078 223.182 222.042C223.651 221.269 224.084 220.468 224.517 219.668C224.715 219.254 224.887 218.877 225.058 218.499C225.23 218.121 225.428 217.708 225.6 217.33C226.565 215.073 227.297 212.752 227.714 210.476C227.859 209.684 227.977 208.929 228.031 208.182C228.104 207.561 228.114 206.949 228.16 206.365C228.198 204.817 228.173 203.278 227.931 201.802C227.789 201.019 227.681 200.263 227.475 199.489C226.204 194.593 223.311 190.729 219.274 188.537C198.575 177.138 177.435 165.576 156.169 154.032C159.347 153.1 162.533 152.456 165.593 152.055L165.602 152.118Z" fill="#294190"/>
<path d="M252.404 143.648C252.404 143.648 252.404 143.648 252.341 143.657C252.234 143.576 252.09 143.467 251.982 143.386C251.73 143.197 251.478 143.008 251.227 142.818C250.975 142.629 250.759 142.467 250.535 142.242C250.247 142.025 250.013 141.737 249.816 141.476C249.627 141.278 249.501 141.071 249.313 140.873C249.043 140.557 248.836 140.233 248.594 139.882C248.504 139.702 248.351 139.531 248.262 139.351C248.046 138.963 247.831 138.576 247.678 138.18C247.642 138.153 247.597 138.063 247.553 137.973C247.732 138.108 247.912 138.243 248.092 138.379C251.544 140.524 256.081 139.432 258.227 135.98C259.164 134.433 259.436 132.724 259.205 131.086C259.592 130.871 259.943 130.628 260.177 130.242C260.854 129.118 260.514 127.624 259.39 126.947C258.652 126.505 257.789 126.531 257.068 126.89C256.691 126.494 256.259 126.17 255.774 125.917C253.805 124.718 251.529 124.526 249.476 125.234C249.476 125.234 249.503 125.198 249.53 125.162C249.665 124.983 249.872 124.857 250.044 124.704C250.53 124.282 250.989 123.895 251.521 123.563C251.782 123.366 252.052 123.231 252.322 123.096C252.799 122.836 253.313 122.603 253.835 122.432C254.114 122.361 254.384 122.226 254.663 122.154C255.437 121.948 256.22 121.805 257.048 121.752C257.605 122.059 258.136 122.402 258.675 122.807C259.682 123.564 260.581 124.465 261.389 125.411C262.234 126.384 262.961 127.438 263.455 128.653C265.689 133.992 262.639 140.592 257.318 142.727C255.707 143.373 253.979 143.65 252.251 143.702L252.404 143.648Z" fill="#294190"/>
<path d="M215.458 129.154C215.458 129.154 215.458 129.154 215.395 129.163C215.251 129.054 215.143 128.973 215 128.865C214.712 128.649 214.46 128.46 214.173 128.243C213.921 128.054 213.669 127.865 213.471 127.603C213.184 127.387 212.914 127.072 212.681 126.784C212.492 126.585 212.33 126.351 212.142 126.153C211.872 125.838 211.63 125.487 211.414 125.099C211.288 124.892 211.199 124.712 211.073 124.505C210.821 124.091 210.633 123.668 210.418 123.281C210.346 123.227 210.337 123.164 210.292 123.073C210.472 123.209 210.651 123.344 210.867 123.506C214.563 125.778 219.414 124.642 221.686 120.946C222.678 119.328 222.995 117.484 222.745 115.72C223.168 115.531 223.547 115.253 223.808 114.83C224.538 113.634 224.154 112.05 222.985 111.284C222.212 110.815 221.285 110.85 220.501 111.218C220.088 110.795 219.657 110.47 219.135 110.19C217.058 108.91 214.557 108.718 212.414 109.471C212.414 109.471 212.441 109.435 212.468 109.399C212.604 109.219 212.811 109.094 213.009 108.905C213.495 108.483 214.009 108.025 214.54 107.692C214.837 107.522 215.134 107.351 215.432 107.18C215.972 106.911 216.485 106.678 217.061 106.436C217.367 106.328 217.637 106.193 217.952 106.149C218.789 105.934 219.635 105.782 220.499 105.756C221.093 106.09 221.686 106.423 222.261 106.856C223.34 107.667 224.311 108.622 225.164 109.658C226.054 110.721 226.853 111.829 227.356 113.107C229.742 118.842 226.494 125.856 220.84 128.135C219.139 128.825 217.285 129.12 215.431 129.19L215.458 129.154Z" fill="#294190"/>
<path d="M199.238 294.605C198.878 294.334 198.465 294.136 198.114 293.928C197.755 293.658 197.341 293.46 196.954 293.225C196.882 293.171 196.846 293.144 196.775 293.09C195.929 292.567 195.084 292.044 194.275 291.548C187.676 287.374 182.515 283.831 180.133 282.209C180.187 282.137 180.268 282.029 180.322 281.957L180.376 281.885C180.376 281.885 180.376 281.885 180.403 281.849C181.8 280.366 183.142 278.955 184.359 277.562L191.254 267.718L199.214 256.309L200.16 255.051L200.26 254.844L200.719 254.233L204.264 254.984L205.991 255.382C205.441 255.798 206.168 256.585 206.508 256.672L207.131 256.754C211.683 257.813 216.082 259.086 220.452 260.909C230.147 264.934 239.279 271.2 246.261 278.983C250.915 284.172 254.546 291.106 256.698 297.453C256.482 297.515 255.534 297.815 255.291 297.914C254.922 298.031 254.499 298.219 254.112 298.434C253.752 298.614 253.329 298.802 252.914 299.054C242.965 304.35 222.49 322.447 212.285 330.478C212.917 328.814 213.576 327.114 214.172 325.423C215.653 321.133 217.098 316.816 218.139 312.363C219.215 307.938 220.012 303.359 219.685 298.778C219.668 298.427 219.38 298.211 219.029 298.229C218.741 298.237 218.99 298.623 218.963 298.884C218.56 300.942 218.116 303.526 217.488 305.401C217.111 305.229 216.52 304.56 216.142 304.389C215.728 304.19 215.342 303.956 214.892 303.73C209.479 300.898 204.084 297.742 199.193 294.74L199.238 294.605Z" fill="#294190"/>
<path d="M200.829 347.136C200.163 346.748 199.48 346.459 198.733 346.179C196.665 345.187 194.794 344.906 193.165 345.426C190.554 346.277 189.237 348.777 188.443 350.881C184.836 349.464 181.302 347.876 177.849 346.18C180.439 339.966 183.03 333.751 185.602 327.636C189.834 317.591 193.85 308.058 197.37 299.334C202.711 302.562 208.583 305.908 214.401 308.875C212.069 324.403 203.445 342.01 200.793 347.109L200.829 347.136Z" fill="white"/>
<path d="M143.569 303.07C145.18 302.874 146.737 302.525 148.258 302.149C149.221 301.916 150.211 301.647 151.201 301.379C150.669 309.422 150.1 318.339 149.567 327.507C149.567 327.507 149.567 327.507 149.531 327.48C148.614 326.678 147.706 325.939 146.79 325.137C139.276 318.361 132.546 310.767 126.645 302.446C132.106 302.669 137.631 302.882 143.092 303.105L143.542 303.106L143.569 303.07Z" fill="white"/>
<path d="M234.137 227.913C235.72 228.428 237.303 228.943 238.814 229.403C249.557 265.346 276.045 296.071 293.83 313.666C301.639 321.396 307.806 326.596 310.197 328.506C309.476 329.315 308.746 330.061 308.025 330.87C303.061 336.2 297.494 340.908 291.334 344.832C271.919 357.252 247.177 362.458 220.916 359.204C221.295 358.7 221.7 358.161 222.115 357.685C231.596 345.45 240.538 332.81 249.12 319.9L255.458 310.199C256.441 308.518 257.648 307.062 258.479 304.984C259.255 302.978 259.519 300.756 259.215 298.614C256.868 290.657 252.836 283.967 247.589 277.994C240.302 269.869 231.095 263.847 221.095 259.704C222.563 258.276 223.52 256.18 224.341 254.265C225.252 252.079 226.02 249.786 226.788 247.492C228.829 241.259 230.43 234.864 231.607 228.432C231.68 228.036 231.752 227.64 231.825 227.244C232.095 227.334 232.365 227.425 232.634 227.515C233.174 227.696 233.642 227.822 234.145 227.976L234.137 227.913Z" fill="white"/>
<path d="M254.697 69.2681C254.697 69.2681 246.209 64.0117 236.974 59.6001C227.738 55.1885 223.438 54.5443 223.438 54.5443C223.438 54.5443 231.063 51.8904 240.107 58.3533C240.107 58.3533 236.469 52.86 230.309 50.4228C230.309 50.4228 233.648 49.9501 239.16 52.3505C239.16 52.3505 250.782 55.4603 263.405 70.8627L247.949 61.3235L254.76 69.2592L254.697 69.2681Z" fill="white"/>
<path d="M199.086 59.9834C201.906 56.9816 205.82 57.3914 205.82 57.3914C197.338 55.3472 190.644 61.4035 190.644 61.4035C190.644 61.4035 192.628 58.1667 198.832 54.7822C204.973 51.4067 207.363 54.217 208.962 56.2076C209.429 56.784 210.525 58.1711 211.226 59.0358C211.54 59.4411 211.774 59.7293 211.774 59.7293C211.63 59.6211 211.432 59.5849 211.225 59.4857C205.281 56.5359 199.086 59.9834 199.086 59.9834Z" fill="white"/>
<path d="M236.652 153.529C236.193 153.465 235.725 153.339 235.204 153.284L242.554 153.914C240.566 153.939 238.559 153.837 236.625 153.565L236.652 153.529Z" fill="white"/>
<path d="M242.252 155.659C240.747 157.51 237.765 160.278 233.24 160.083C226.455 159.823 221.347 157.558 219.408 154.523C218.456 153.019 218.071 151.66 218 150.706C220.554 151.726 223.099 152.683 225.725 153.532C229.179 154.553 232.76 155.332 236.403 155.651C238.347 155.762 240.317 155.836 242.288 155.686L242.252 155.659Z" fill="white"/>
<path d="M255.048 144.787C254.112 144.534 253.249 144.11 252.413 143.65C254.14 143.599 255.868 143.322 257.48 142.676C262.8 140.541 265.823 133.976 263.616 128.602C263.096 127.422 262.368 126.369 261.551 125.36C260.742 124.414 259.843 123.513 258.836 122.756C258.333 122.378 257.767 122.008 257.209 121.701C259.189 121.614 261.276 122.057 263.227 123.131C267.579 125.502 270.146 130.473 269.285 135.285C269.222 135.519 269.258 135.771 269.167 136.041C269.104 136.275 269.005 136.482 268.942 136.716C267.153 142.238 261.344 146.37 255.111 144.779L255.048 144.787Z" fill="white"/>
<path d="M259.423 126.914C260.547 127.591 260.887 129.085 260.211 130.208C259.94 130.568 259.598 130.874 259.238 131.053C258.518 131.412 257.654 131.438 256.917 130.996C255.793 130.32 255.453 128.826 256.129 127.702C256.399 127.342 256.742 127.037 257.102 126.857C257.822 126.498 258.686 126.472 259.423 126.914Z" fill="white"/>
<path d="M218.241 130.397C217.242 130.153 216.343 129.702 215.435 129.188C217.289 129.118 219.143 128.824 220.844 128.133C226.498 125.855 229.773 118.804 227.36 113.106C226.83 111.863 226.022 110.692 225.168 109.657C224.315 108.621 223.344 107.666 222.266 106.855C221.726 106.449 221.124 106.052 220.503 105.755C222.609 105.649 224.831 106.138 226.953 107.283C231.827 109.935 234.636 115.706 233.27 121.04C231.679 127.274 225.203 132.143 218.205 130.37L218.241 130.397Z" fill="white"/>
<path d="M219.418 112.145C219.68 111.722 220.058 111.444 220.481 111.255C221.265 110.887 222.191 110.852 222.965 111.321C224.16 112.052 224.545 113.636 223.788 114.868C223.491 115.263 223.148 115.569 222.725 115.757C221.942 116.125 221.015 116.16 220.242 115.691C219.046 114.961 218.661 113.376 219.418 112.145Z" fill="white"/>
<path d="M130.559 143.776C132.026 143.922 133.528 144.32 135.02 145.104C139.651 147.629 144.282 150.155 148.913 152.68C149.434 152.959 149.992 153.266 150.513 153.546C151.071 153.852 151.592 154.132 152.15 154.439C152.501 154.646 152.914 154.844 153.265 155.052C174.252 166.443 195.185 177.905 215.785 189.286C216.379 189.62 216.945 189.99 217.484 190.395C218.132 190.882 218.761 191.468 219.291 192.035C220.89 193.801 222.03 195.953 222.639 198.437C223.445 201.632 223.198 205.105 222.204 208.523C221.535 210.835 220.551 213.191 219.091 215.358L219.01 215.466L218.234 216.571L217.423 217.65L215.701 220.239L214.89 221.318L214.151 222.451L202.414 239.406L193.292 252.586L192.409 253.836L191.489 255.058L190.678 256.362L186.089 262.988L181.528 269.578C178.879 272.652 176.212 275.375 173.537 277.81C173.537 277.81 173.537 277.81 173.51 277.846C173.483 277.882 173.429 277.954 173.402 277.99C167.321 283.606 161.143 287.629 154.806 290.069C154.806 290.069 154.716 290.113 154.68 290.086C154.22 290.248 153.761 290.409 153.302 290.571C152.843 290.732 152.384 290.893 151.925 291.055C150.971 291.351 149.981 291.619 148.982 291.825C145.93 292.514 142.844 292.951 139.694 292.947C133.279 292.795 126.81 292.715 120.367 292.599C119.854 292.607 119.305 292.589 118.819 292.561C118.307 292.569 117.821 292.542 117.308 292.55C115.634 292.53 114.024 292.501 112.35 292.481C111.837 292.489 111.351 292.462 110.838 292.47C110.353 292.442 109.84 292.451 109.39 292.45C106.33 292.401 103.307 292.38 100.248 292.331C96.2067 286.027 92.1296 279.696 88.1154 273.357C86.0948 270.205 84.1101 267.08 82.0895 263.928C72.6062 249.142 71.7291 238.181 78.7337 220.482L78.9413 219.906C80.9275 214.645 96.9512 172.824 109.55 156.968C114.02 151.323 122.165 143.037 130.568 143.839L130.559 143.776ZM138.716 276.956C141.505 277.14 144.303 277.161 147.048 277.03C148.037 276.986 148.982 276.852 149.927 276.718C150.935 276.576 151.907 276.406 152.843 276.209C153.311 276.111 153.779 276.012 154.211 275.887C154.553 275.806 154.931 275.753 155.301 275.636C155.391 275.592 155.481 275.547 155.607 275.529C155.607 275.529 155.661 275.457 155.76 275.475C158.334 274.596 160.334 273.06 161.74 270.966C161.74 270.966 161.74 270.966 161.767 270.93C161.956 270.678 162.146 270.426 162.263 270.12C162.371 269.977 162.479 269.833 162.551 269.662C163.075 268.592 163.346 267.782 163.428 267L163.437 266.388C163.317 261.907 162.981 257.263 162.465 252.71C162.215 250.496 162.011 248.147 161.87 245.789C161.792 244.098 161.731 242.307 161.706 240.543C161.68 239.904 161.627 239.301 161.663 238.654L161.628 238.177L161.494 237.007C161.494 237.007 161.963 236.908 162.206 236.81C162.89 236.649 163.511 236.496 164.159 236.308C170.891 234.616 176.652 232.869 180.793 231.479C184.934 230.09 187.491 229.085 187.707 229.022C188.589 228.673 189.381 228.143 190.102 227.559C191.282 226.588 192.201 225.366 192.806 223.963C193.663 221.849 194.152 219.628 194.443 217.369C194.515 216.974 194.588 216.578 194.633 216.218C194.633 216.218 194.66 216.182 194.651 216.119C194.688 215.696 194.688 215.246 194.689 214.796C194.762 213.501 194.827 212.142 194.811 210.891C194.811 210.441 194.749 210 194.749 209.551C194.75 209.101 194.715 208.624 194.688 208.21C194.653 207.733 194.671 207.184 194.6 206.68C194.298 203.638 193.834 200.812 193.252 198.292C192.384 194.656 189.94 191.917 186.765 190.6C185.426 189.311 183.645 188.535 181.548 188.704C176.815 189.085 172.144 189.682 167.572 190.522C162.523 191.397 157.438 192.696 152.379 194.183C152.309 192.779 152.239 191.15 152.178 189.135L151.71 175.16C151.738 174.225 151.614 172.893 151.265 171.336C150.55 167.646 148.176 166.311 146.917 165.814C146.647 165.724 146.35 165.67 146.08 165.579C145.793 164.913 145.434 164.418 144.858 164.21C143.977 163.885 142.456 163.811 140.387 163.944C139.874 163.952 139.37 164.023 138.794 164.041C137.75 164.156 136.679 164.308 135.581 164.496C134.951 164.585 134.321 164.674 133.727 164.79C133.16 164.87 132.602 165.014 132.044 165.157C131.297 165.327 130.541 165.434 129.767 165.64C126.662 166.401 123.844 167.378 121.35 168.599C119.216 169.64 117.838 170.799 117.153 172.085C115.351 173.432 114.099 175.023 113.512 176.777L113.123 178.117C112.57 181.698 113.095 192.901 115.706 206.572C102.664 209.318 94.0534 216.353 92.7026 217.251C92.3784 217.458 92.0542 217.664 91.73 217.871L91.2617 218.194C81.8244 224.157 88.8728 243.305 92.3476 249.239C93.4969 251.229 94.674 252.508 95.7887 253.346C98.0541 255.049 100.034 254.737 101.393 254.127C101.916 253.956 102.582 253.669 103.347 253.4C103.833 253.203 104.382 252.997 104.958 252.755C105.445 252.557 105.994 252.351 106.57 252.109C106.624 252.037 106.723 252.055 106.813 252.01C107.299 251.813 107.785 251.615 108.298 251.382C108.785 251.185 109.271 250.987 109.757 250.79C111.395 250.108 113.124 249.382 114.915 248.646C117.436 247.614 120.434 246.322 122.865 245.336C122.953 246.64 123.023 248.269 123.11 250.249C123.164 250.852 123.591 254.55 123.964 258.096C124.294 260.877 124.606 263.532 124.703 264.45C124.934 266.762 125.364 268.886 125.991 270.822C127.766 276.322 138.742 277.145 138.841 277.163L138.716 276.956Z" fill="white"/>
<path d="M171.526 107.262C172.425 107.938 173.108 108.902 173.602 109.892C174.634 111.963 174.829 114.474 173.638 116.506C173.124 117.414 171.766 116.674 172.182 115.748C172.551 114.957 172.652 114.075 172.491 113.166C172.384 112.41 172.034 111.528 171.621 110.879C171.369 110.465 171.091 110.087 170.812 109.709C170.534 109.33 170.345 109.132 169.968 108.736C169.662 108.393 169.33 108.087 168.997 107.781C168.665 107.474 168.314 107.267 168.009 106.925C167.703 106.582 167.884 106.043 168.388 105.971C169.467 105.883 170.654 106.55 171.454 107.208L171.526 107.262Z" fill="#221E1F"/>
<path d="M229.013 92.7962C229.013 92.7962 218.387 91.9551 215.857 93.1486C213.327 94.3422 220.152 83.7691 229.013 92.7962Z" fill="#221E1F"/>
<path d="M269.997 116.519C269.997 116.519 262.105 109.347 259.389 108.768C256.636 108.161 268.537 103.938 269.997 116.519Z" fill="#221E1F"/>
<path d="M218.554 165.538C219.471 166.115 220.379 166.629 221.368 167.035C220.379 166.629 219.444 166.151 218.554 165.538Z" fill="#221E1F"/>
<path d="M206.968 143.148L207.219 143.337C208.217 144.256 210.007 145.095 211.517 145.781C213.127 146.485 214.737 147.189 216.392 147.758C219.711 148.958 223.038 150.222 226.42 151.189C229.308 152.066 232.204 152.78 235.191 153.225C235.686 153.315 236.153 153.442 236.639 153.47C238.609 153.769 240.58 153.843 242.568 153.819C244.044 153.803 245.547 153.751 246.96 153.518L246.996 153.546C247.302 153.438 247.581 153.591 247.688 153.897C247.796 154.203 247.615 154.518 247.309 154.626C247.129 154.715 246.904 154.715 246.751 154.769C246.292 155.38 245.832 155.992 245.426 156.531C245.264 156.747 245.129 156.926 244.967 157.142C244.48 157.789 243.948 158.347 243.48 158.895C243.345 159.075 243.201 159.192 243.029 159.344C242.498 159.901 241.993 160.423 241.489 160.944C241.381 161.088 241.264 161.169 241.119 161.285C240.579 161.78 240.038 162.274 239.525 162.732C239.471 162.804 239.381 162.849 239.264 162.93C238.687 163.397 238.138 163.828 237.553 164.232C237.525 164.268 237.498 164.304 237.435 164.313C236.85 164.717 236.229 165.094 235.634 165.436C234.473 166.082 233.384 166.558 232.285 166.97C232.195 167.015 232.078 167.096 231.952 167.114C231.214 167.347 230.503 167.544 229.819 167.705C230.539 167.571 231.241 167.311 231.979 167.078C232.16 166.763 232.25 166.493 232.313 166.259C232.486 164.982 229.948 164.988 218.643 160.708C214.875 159.282 211.682 157.838 216.354 163.603C216.83 164.017 217.307 164.432 217.81 164.81C217.379 164.486 216.947 164.162 216.516 163.837C216.408 163.756 216.327 163.639 216.246 163.522C215.617 162.936 215.078 162.306 214.566 161.639C214.332 161.351 214.072 161.099 213.838 160.81C213.12 159.82 212.491 158.784 211.952 157.704C211.952 157.704 211.916 157.677 211.908 157.614C211.549 156.893 211.217 156.137 210.948 155.372C210.948 155.372 210.939 155.309 210.903 155.282C210.401 153.779 210.097 152.312 209.981 150.818C209.964 150.692 209.982 150.593 209.964 150.467C209.929 149.765 209.966 149.117 210.002 148.469C210.021 148.37 210.003 148.244 210.048 148.11C210.12 147.714 210.166 147.354 210.238 146.958C208.872 146.155 207.487 145.227 206.211 143.93C205.986 143.704 205.969 143.353 206.185 143.066C206.374 142.814 206.788 142.788 207.049 143.04L206.968 143.148ZM219.407 154.528C221.347 157.563 226.455 159.827 233.239 160.088C237.764 160.282 240.746 157.515 242.251 155.663C240.28 155.814 238.31 155.739 236.367 155.629C232.723 155.309 229.179 154.558 225.689 153.51C223.062 152.661 220.517 151.704 217.963 150.684C218.07 151.665 218.419 152.997 219.371 154.501L219.407 154.528Z" fill="#221E1F"/>
<path d="M255.831 125.849C256.29 126.138 256.694 126.498 257.126 126.823C256.738 127.038 256.387 127.281 256.153 127.667C255.477 128.791 255.817 130.285 256.941 130.962C257.678 131.404 258.542 131.378 259.262 131.019C259.494 132.657 259.195 134.402 258.284 135.912C256.138 139.365 251.629 140.421 248.149 138.311C247.969 138.176 247.79 138.041 247.61 137.905C247.538 137.851 247.556 137.752 247.547 137.689C247.305 137.113 247.117 136.465 246.965 135.844C246.911 135.691 246.884 135.502 246.83 135.349C246.66 134.602 246.553 133.846 246.572 133.072C246.564 132.109 246.692 131.192 246.918 130.292C247.008 130.022 247.071 129.789 247.161 129.519C247.36 128.88 247.595 128.269 247.902 127.711C248.064 127.495 248.127 127.261 248.253 127.019C248.668 126.317 249.155 125.67 249.686 125.113C251.676 124.414 254.015 124.596 255.984 125.796L255.831 125.849Z" fill="#221E1F"/>
<path d="M210.871 123.511C210.691 123.375 210.511 123.24 210.295 123.078C210.223 123.024 210.242 122.925 210.197 122.835C209.946 122.196 209.721 121.521 209.533 120.873C209.507 120.684 209.453 120.531 209.426 120.342C209.247 119.532 209.131 118.713 209.15 117.939C209.133 116.913 209.279 115.896 209.532 114.961C209.586 114.664 209.676 114.394 209.767 114.124C209.992 113.45 210.254 112.802 210.552 112.182C210.678 111.939 210.804 111.696 210.931 111.453C211.373 110.716 211.886 110.033 212.472 109.404C214.614 108.651 217.08 108.816 219.193 110.123C219.687 110.439 220.127 110.826 220.559 111.151C220.136 111.339 219.758 111.617 219.496 112.04C218.766 113.236 219.151 114.82 220.319 115.586C221.093 116.055 222.02 116.02 222.803 115.652C223.053 117.416 222.735 119.26 221.744 120.879C219.471 124.574 214.62 125.711 210.925 123.439L210.871 123.511Z" fill="#221E1F"/>
<path d="M91.1325 217.99L91.6008 217.666C91.925 217.46 92.2492 217.253 92.5734 217.047C92.5734 217.047 92.5463 217.083 92.5193 217.119C89.0162 219.382 89.4304 226.392 91.1588 232.926C93.1203 240.199 96.7651 246.88 98.674 245.839C100.204 245.301 103.571 243.893 107.424 242.287C108.064 242.036 108.73 241.749 109.396 241.461C109.513 241.381 109.639 241.363 109.756 241.282C110.269 241.049 110.819 240.842 111.332 240.609C111.386 240.537 111.485 240.555 111.575 240.51C112.178 240.232 112.754 239.99 113.393 239.739C114.789 239.156 116.184 238.573 117.454 238.007C118.516 237.568 119.515 237.137 120.46 236.778C121.127 236.491 121.766 236.24 122.315 236.034C123.8 235.406 124.899 234.993 125.394 234.859C125.52 234.841 125.583 234.832 125.709 234.814C125.709 234.814 125.754 234.904 125.79 234.931C125.897 235.013 126.005 235.094 126.005 235.319C126.014 235.607 126.058 236.146 126.165 236.902C126.21 237.217 126.2 237.604 126.227 238.018C126.244 238.369 126.271 238.783 126.333 239.224C126.378 239.539 126.386 239.827 126.404 240.178C126.501 241.321 126.526 242.86 126.614 244.614C126.605 245.001 126.649 245.316 126.676 245.73C126.72 246.72 128.073 257.87 128.296 259.895C128.429 261.29 128.679 262.604 128.984 263.846C129.091 264.377 129.234 264.935 129.369 265.43C129.897 267.122 135.861 268.623 138.452 268.771C141.08 268.945 143.653 268.966 146.299 268.816C147.828 268.728 149.214 268.532 150.555 268.246C151.554 268.04 152.553 267.835 153.472 267.512C153.967 267.377 154.417 267.153 154.84 266.965C155.2 266.785 155.551 266.543 155.903 266.3C156.047 266.183 156.227 266.094 156.371 265.977C157.118 265.357 157.686 264.602 158.074 263.711C158.345 263.127 158.508 262.686 158.535 262.425C158.414 257.944 158.105 253.49 157.589 248.936C157.429 247.577 157.358 246.173 157.225 244.779C156.969 241.377 156.766 237.904 156.717 234.151C156.681 233.899 156.645 233.647 156.637 233.359C156.539 232.441 156.477 231.551 156.352 230.669C156.317 230.192 156.245 229.688 156.21 229.211L156.192 229.085C156.183 229.022 156.273 228.977 156.3 228.941C156.426 228.923 156.552 228.905 156.669 228.824C157.353 228.663 158.037 228.502 158.721 228.341C171.25 225.378 181.216 221.783 184.663 220.491C185.123 220.33 185.519 220.177 185.726 220.052C186.914 219.594 187.896 218.588 188.366 217.365C188.582 216.852 188.7 216.321 188.88 215.782C189.016 215.377 189.151 214.972 189.251 214.54C189.35 214.109 189.423 213.713 189.522 213.281C189.685 212.39 189.857 211.563 189.922 210.654C189.949 210.168 189.95 209.718 189.977 209.232C190.014 208.81 190.014 208.36 190.015 207.91C190.016 207.46 190.079 207.001 190.053 206.587C190.044 206.524 190.062 206.425 190.053 206.362C190.055 204.788 189.994 203.222 189.843 201.701C189.559 198.785 189.121 196.148 188.593 193.781C188.235 192.386 187.534 191.296 186.6 190.368C189.774 191.686 192.218 194.425 193.087 198.061C193.668 200.581 194.133 203.407 194.435 206.449C194.47 206.926 194.479 207.439 194.523 207.978C194.558 208.455 194.585 208.869 194.584 209.319C194.584 209.769 194.646 210.21 194.646 210.66C194.671 211.974 194.597 213.269 194.524 214.565C194.487 214.988 194.487 215.438 194.486 215.888C194.486 215.888 194.459 215.924 194.468 215.987C194.431 216.409 194.323 216.778 194.278 217.138C193.987 219.396 193.471 221.654 192.641 223.732C192.072 225.162 191.153 226.384 189.937 227.327C189.216 227.911 188.424 228.441 187.541 228.791C187.298 228.89 184.742 229.894 180.628 231.248C176.487 232.637 170.726 234.385 163.994 236.077C163.346 236.265 162.724 236.417 162.04 236.578C161.788 236.614 161.572 236.677 161.329 236.775L161.463 237.945L161.498 238.422C161.524 239.061 161.551 239.7 161.541 240.312C161.566 242.076 161.59 243.839 161.705 245.558C161.819 247.952 162.05 250.264 162.299 252.478C162.852 257.059 163.152 261.675 163.272 266.156L163.262 266.768C163.18 267.551 162.936 268.324 162.386 269.43C162.278 269.574 162.17 269.718 162.098 269.889C161.944 270.168 161.755 270.419 161.602 270.698C161.602 270.698 161.602 270.698 161.575 270.734C160.196 272.793 158.169 274.365 155.594 275.244C155.594 275.244 155.54 275.316 155.441 275.297C155.351 275.342 155.261 275.387 155.135 275.405C154.793 275.486 154.388 275.575 154.046 275.656C153.614 275.781 153.146 275.879 152.678 275.978C151.742 276.175 150.77 276.344 149.762 276.487C148.817 276.621 147.872 276.755 146.882 276.798C144.138 276.93 141.313 276.944 138.55 276.725C138.55 276.725 127.475 275.883 125.7 270.383C125.073 268.448 124.671 266.288 124.412 264.011C124.351 263.12 124.003 260.438 123.674 257.658C123.264 254.085 122.81 250.422 122.82 249.81C122.732 247.831 122.662 246.202 122.574 244.897C120.116 245.92 117.109 247.149 114.624 248.207C112.833 248.943 111.104 249.67 109.466 250.352C108.98 250.549 108.494 250.746 108.008 250.944C107.494 251.177 106.972 251.347 106.522 251.572C106.468 251.643 106.369 251.625 106.279 251.67C105.703 251.912 105.217 252.11 104.668 252.316C104.091 252.558 103.542 252.765 103.056 252.962C102.327 253.258 101.625 253.518 101.103 253.688C99.7702 254.263 97.7632 254.611 95.4978 252.907C94.3831 252.069 93.233 250.754 92.0567 248.8C88.5819 242.866 81.5335 223.719 90.9708 217.756L91.1325 217.99Z" fill="#221E1F"/>
<path d="M148.118 195.207C148.118 195.207 148.055 194.991 148.046 194.928C148.001 194.838 147.983 194.712 147.93 194.559C147.885 194.469 147.885 194.469 147.867 194.343C147.741 193.911 147.626 192.867 147.52 191.211C147.414 189.555 147.318 187.063 147.205 183.769C147.11 180.827 146.98 176.733 146.798 171.586C146.762 170.884 146.736 170.245 146.728 169.507C146.738 168.67 146.623 167.626 146.381 166.375C146.292 165.97 146.157 165.7 145.986 165.403C146.283 165.457 146.58 165.512 146.823 165.638C148.145 166.125 150.456 167.469 151.171 171.159C151.484 172.689 151.608 174.021 151.616 174.984L152.085 188.958C152.145 190.974 152.215 192.603 152.285 194.006C151.7 194.186 151.079 194.338 150.467 194.553C149.666 194.795 148.856 194.974 148.064 195.279L148.118 195.207Z" fill="#221E1F"/>
<path d="M119.788 205.034C119.68 205.403 119.464 205.69 119.086 205.744C117.889 205.913 116.728 206.11 115.576 206.369C112.929 192.671 112.439 181.495 112.993 177.914L113.381 176.574C113.995 174.784 115.221 173.229 117.022 171.882C116.887 172.062 116.761 172.304 116.698 172.538C116.634 172.772 116.562 172.943 116.499 173.177C116.082 175.903 116.466 185.198 118.503 197.087C118.904 199.472 119.351 201.947 119.942 204.53C119.969 204.719 119.896 204.89 119.851 205.025L119.788 205.034Z" fill="#221E1F"/>
<path d="M221.075 244.154C221.561 244.182 222.011 244.182 222.425 244.156C224.539 244.113 225.835 243.962 225.835 243.962C225.049 246.579 224.2 249.206 223.243 251.751C222.286 254.296 221.023 256.499 219.824 258.918C219.662 258.909 219.437 258.909 219.248 258.935C216.559 257.87 213.762 256.949 210.955 256.19C209.651 255.828 208.41 255.458 207.114 255.159C206.745 255.051 206.376 255.167 206.115 255.365L204.388 254.967L200.808 254.188L201.132 253.757L209.146 242.276C213.113 243.514 216.81 243.987 219.725 244.152C220.211 244.18 220.634 244.216 221.048 244.19L221.075 244.154Z" fill="#F7A4BC"/>
<path d="M242.607 143.883C242.607 143.883 242.301 143.765 242.202 143.747C242.789 142.668 243.177 141.553 243.124 140.275C243.072 138.772 242.507 137.278 241.447 136.143C241.375 136.089 241.33 135.999 241.222 135.918C240 134.774 238.075 134.339 236.608 134.643C235.852 134.75 235.114 134.983 234.412 135.243C232.638 135.88 231.062 137.003 229.738 138.315C229.711 138.351 229.684 138.387 229.63 138.459C229.522 138.378 229.504 138.252 229.342 138.242C220.366 135.433 211.136 133.559 201.824 132.467L198.388 132.022C197.398 131.841 196.463 131.363 195.726 130.696C195.474 130.507 195.34 130.237 195.142 129.975C194.747 129.453 194.406 128.859 194.2 128.085C193.796 127.049 193.51 125.933 193.358 124.862C192.509 120.452 193.27 115.846 194.958 111.655C194.958 111.655 195.012 111.583 195.039 111.547C196.664 107.365 199.17 103.508 202.081 100.012C203.541 98.0701 205 97.0282 207.277 96.995C209.535 96.8359 211.803 96.9647 214.061 97.2554C220.583 98.1634 226.978 99.989 233.265 102.183C234.686 102.689 236.143 103.222 237.564 103.727C237.564 103.727 237.564 103.727 237.6 103.754C238.653 104.152 239.669 104.522 240.721 104.919C240.928 105.018 241.135 104.893 241.234 104.686C257.136 110.563 266.71 117.594 272.03 122.495C272.435 122.856 272.911 123.27 273.253 123.64C273.513 123.892 273.702 124.09 273.963 124.342C274.106 124.451 274.223 124.595 274.376 124.766C275.391 125.811 276.2 126.757 276.739 127.387C277.287 128.081 277.592 128.873 277.591 129.773C277.88 143.387 273.227 151.596 269.117 156.837C267.54 158.86 266.135 159.605 264.455 157.722C264.257 157.461 263.997 157.209 263.763 156.92C263.502 156.668 263.305 156.407 263.044 156.155C262.703 155.785 262.334 155.452 261.966 155.118C261.894 155.064 261.822 155.01 261.75 154.956C255.773 149.505 247.643 145.869 243.596 144.289C243.255 144.145 242.949 144.027 242.679 143.937L242.607 143.883ZM226.951 107.286C224.829 106.141 222.643 105.679 220.502 105.758C219.638 105.784 218.792 105.935 217.955 106.15C217.649 106.258 217.343 106.366 217.064 106.437C216.515 106.643 215.938 106.886 215.434 107.182C215.137 107.353 214.84 107.523 214.543 107.694C213.984 108.062 213.462 108.457 213.011 108.907C212.876 109.086 212.633 109.185 212.471 109.401C212.471 109.401 212.444 109.437 212.417 109.473C211.831 110.102 211.317 110.785 210.876 111.522C210.713 111.738 210.623 112.008 210.497 112.251C210.199 112.871 209.901 113.492 209.712 114.193C209.621 114.463 209.531 114.733 209.477 115.03C209.259 115.992 209.105 116.946 209.095 118.008C209.112 118.808 209.228 119.627 209.371 120.41C209.398 120.599 209.451 120.752 209.478 120.941C209.639 121.625 209.854 122.238 210.142 122.904C210.186 122.994 210.195 123.057 210.24 123.147C210.312 123.201 210.321 123.264 210.366 123.354C210.554 123.777 210.77 124.164 211.021 124.579C211.147 124.786 211.237 124.966 211.362 125.173C211.605 125.524 211.847 125.875 212.09 126.227C212.252 126.461 212.44 126.659 212.629 126.857C212.863 127.145 213.123 127.398 213.42 127.677C213.672 127.866 213.896 128.091 214.121 128.317C214.409 128.533 214.66 128.722 214.948 128.938C215.092 129.047 215.236 129.155 215.343 129.236C215.343 129.236 215.343 129.236 215.406 129.227C216.252 129.75 217.214 130.192 218.212 130.436C225.175 132.182 231.623 127.349 233.278 121.106C234.67 115.736 231.834 110.001 226.96 107.349L226.951 107.286ZM248.263 139.355C248.263 139.355 248.479 139.742 248.596 139.886C248.802 140.21 249.045 140.562 249.314 140.877C249.476 141.111 249.629 141.282 249.817 141.48C250.051 141.769 250.276 141.994 250.536 142.246C250.788 142.435 250.977 142.634 251.228 142.823C251.48 143.012 251.732 143.201 251.984 143.391C252.091 143.472 252.235 143.58 252.343 143.661C252.343 143.661 252.343 143.661 252.406 143.652C253.215 144.148 254.079 144.572 255.041 144.789C261.275 146.381 267.084 142.249 268.872 136.726C268.935 136.492 269.035 136.286 269.098 136.052C269.161 135.818 269.189 135.557 269.216 135.296C270.077 130.483 267.509 125.513 263.157 123.141C261.17 122.041 259.119 121.624 257.14 121.712C256.312 121.765 255.529 121.908 254.755 122.114C254.476 122.185 254.205 122.32 253.926 122.392C253.404 122.562 252.891 122.795 252.414 123.056C252.144 123.19 251.847 123.361 251.613 123.523C251.081 123.855 250.622 124.241 250.135 124.663C250 124.843 249.757 124.942 249.622 125.122C249.622 125.122 249.595 125.158 249.568 125.194C249.036 125.751 248.55 126.398 248.135 127.099C247.973 127.315 247.909 127.549 247.783 127.792C247.476 128.349 247.242 128.961 247.043 129.599C246.953 129.869 246.889 130.103 246.799 130.373C246.573 131.273 246.446 132.19 246.454 133.153C246.462 133.891 246.569 134.647 246.712 135.43C246.766 135.583 246.792 135.772 246.846 135.925C246.998 136.546 247.213 137.158 247.429 137.77C247.501 137.824 247.482 137.923 247.491 137.986C247.527 138.013 247.572 138.103 247.617 138.193C247.805 138.616 247.985 138.977 248.2 139.364L248.263 139.355Z" fill="#F7A4BC"/>
<path d="M273.506 173.534C273.46 174.119 273.469 174.632 273.576 174.938C273.702 175.37 273.827 175.802 274.07 176.154C274.195 176.361 274.348 176.532 274.537 176.73C274.609 176.784 274.681 176.838 274.753 176.892C274.59 177.108 274.428 177.324 274.266 177.54C273.716 178.421 273.382 179.464 273.533 180.535C273.649 181.354 274.017 182.137 274.529 182.804C274.844 183.209 275.365 183.713 275.922 184.02C275.138 185.063 274.714 186.376 274.775 187.717C274.846 188.446 275.115 189.211 275.474 189.931C274.943 190.264 274.006 190.685 272.504 190.287C270.103 189.664 268.22 184.307 268.037 179.16C267.993 178.171 268.273 177.424 268.598 176.768C269.554 174.897 271.616 174.027 273.011 173.669C273.164 173.615 273.317 173.561 273.443 173.543L273.506 173.534Z" fill="#F7A4BC"/>
<path d="M276.523 229.559C270.492 224.404 267.785 215.727 266.65 209.751C266.373 208.248 266.149 206.898 266.034 205.854C265.98 205.476 265.972 205.188 265.927 204.873C265.838 203.793 265.776 203.127 265.776 203.127C265.776 203.127 272.2 210.603 279.301 202.433C280.572 200.968 281.374 200.051 281.887 199.368C282.293 198.829 282.563 198.469 282.699 198.289C283.509 198.11 284.283 197.904 285.003 197.77C285.003 197.77 285.129 197.752 285.192 197.744C286.668 197.502 288.179 197.513 289.655 197.722C290.374 197.813 291.04 197.976 291.706 198.139C292.443 198.355 293.154 198.608 293.919 198.564C294.558 198.538 294.622 197.629 294.163 197.341C293.336 196.719 292.005 196.618 290.979 196.41C289.927 196.238 288.883 196.129 287.83 196.181C286.588 196.261 285.364 196.466 284.149 196.734C283.213 196.931 282.304 197.092 281.35 197.163C280.333 197.243 279.272 197.007 278.58 196.206C277.915 195.368 277.953 194.27 278.368 193.344C278.692 192.688 279.098 192.148 279.639 191.654C281.143 190.252 283.393 189.58 285.301 189.214C286.552 188.972 287.821 188.857 289.063 188.777C290.278 188.734 291.493 188.465 292.681 188.458C293.032 188.44 293.311 187.919 292.898 187.72C290.578 186.539 287.986 186.841 285.475 187.261C282.991 187.645 280.416 188.524 278.507 190.24C278.308 190.429 278.083 190.653 277.921 190.869C277.553 190.086 277.131 189.374 276.916 188.537C276.844 188.258 276.764 187.916 276.782 187.592C276.82 186.27 277.424 185.092 278.46 184.238C279.964 183.061 281.9 182.209 283.7 181.536C285.807 180.756 287.994 180.093 290.262 179.997C290.838 179.98 290.884 179.17 290.299 179.124C287.771 178.968 285.323 179.154 282.928 179.943C280.876 180.651 278.499 181.566 276.815 183.057C276.536 182.679 276.222 182.274 275.953 181.958C275.557 181.436 275.252 180.869 275.19 180.203C275.057 178.808 276.012 177.613 277.012 176.732C278.471 175.465 280.137 174.522 281.848 173.67C283.675 172.736 285.566 172.019 287.627 171.823C288.293 171.761 288.078 170.699 287.412 170.761C285.144 171.082 282.912 171.88 280.823 172.787C279.067 173.549 277.347 174.564 275.852 175.804C275.681 175.956 275.438 176.055 275.303 176.235C275.303 176.235 275.276 176.271 275.249 176.307C275.024 175.857 274.89 175.362 274.855 174.885C274.756 174.192 274.784 173.481 274.884 172.824C275.011 172.132 275.165 171.403 275.463 170.782C275.562 170.576 275.625 170.342 275.751 170.099C275.842 169.829 275.968 169.586 276.13 169.371C277.581 167.591 280.175 165.713 283.848 164.422C288.997 162.665 299.103 161.202 301.432 169.933C308.731 197.206 304.555 212.641 298.722 221.821C294.385 228.636 289.108 231.986 286.838 234.106C284.139 233.878 281.818 233.146 279.741 232.091C278.491 231.433 277.385 230.657 276.361 229.774L276.523 229.559Z" fill="#F7A4BC"/>
<path d="M151.83 337.148C152.433 336.419 153.208 335.539 154.118 334.478C154.362 334.154 154.641 333.858 154.948 333.525C155.218 333.166 155.56 332.86 155.831 332.501C162.417 325.013 173.076 313.833 177.917 313.533C180.878 313.339 181.981 316.589 182.372 320.485C182.594 322.96 182.491 325.641 182.335 327.945C182.335 328.17 182.299 328.368 182.299 328.593C180.015 334.024 177.705 339.492 175.431 344.987C175.259 345.365 175.124 345.77 174.952 346.147C174.781 346.525 174.618 346.966 174.447 347.344C174.068 348.297 173.653 349.223 173.274 350.176C173.102 350.554 172.967 350.959 172.795 351.337C172.597 351.75 172.461 352.155 172.299 352.596C169.862 358.531 167.488 364.458 165.285 370.232C164.987 371.077 157.296 390.962 153.391 398.102C150.604 403.155 149.146 403.747 148.696 403.747C148.633 403.756 148.57 403.765 148.534 403.737C146.222 403.069 144.429 391.081 145.652 370.216C145.688 369.794 145.823 369.614 147.219 369.256C147.84 369.103 148.641 368.861 149.271 368.322C149.469 368.134 149.596 367.891 149.749 367.612C149.848 367.405 149.903 367.108 149.957 366.812C150.408 358.426 150.96 349.384 151.502 340.278C151.529 339.793 151.557 339.307 151.585 338.821C151.612 338.335 151.64 337.849 151.667 337.363C151.667 337.363 151.694 337.327 151.722 337.291C151.722 337.291 151.776 337.219 151.803 337.183L151.83 337.148Z" fill="#F7A4BC"/>
<path d="M197.383 348.431C198.786 348.811 200.261 349.694 201.564 350.731C201.636 350.785 201.726 350.74 201.798 350.794C202.32 351.073 202.985 351.011 203.364 350.508C203.418 350.436 203.472 350.364 203.526 350.292C206.747 343.764 209.76 337.136 212.369 330.373C222.61 322.368 243.076 304.209 252.998 298.949C253.449 298.724 253.836 298.509 254.196 298.329C254.619 298.141 255.015 297.988 255.375 297.809C255.618 297.71 256.481 297.516 256.697 297.454C256.858 297.913 256.725 298.109 256.86 298.604C256.985 299.486 257.011 300.844 256.911 301.726C256.802 302.544 256.34 303.263 256.06 304.009C256.06 304.009 256.033 304.045 256.006 304.081C255.889 304.387 255.673 304.675 255.528 305.016C255.213 305.511 254.717 306.32 254.203 307.228C253.86 307.759 253.581 308.28 253.265 308.775L253.157 308.918L246.954 318.44C238.426 331.278 229.547 343.909 220.057 356.081C219.354 357.015 218.606 357.86 217.903 358.795C217.606 359.191 217.309 359.586 217.038 359.946C216.741 360.341 216.416 360.773 216.083 361.141C215.731 361.609 215.407 362.04 215.019 362.481C214.722 362.876 214.425 363.272 214.127 363.667C213.83 364.063 213.532 364.458 213.235 364.854C212.856 365.357 212.379 365.843 212 366.346C204.971 374.795 197.574 382.911 189.296 390.027C187.45 390.835 186.227 390.366 185.906 388.098C185.513 386.001 185.876 383.572 186.211 381.179C186.937 376.321 187.798 371.508 188.785 366.677C189.265 364.392 189.736 362.044 190.242 359.723C190.342 359.292 190.414 358.896 190.55 358.491C190.649 358.059 190.722 357.663 190.857 357.259C191.038 356.494 191.246 355.694 191.463 354.956C191.563 354.524 191.698 354.119 191.861 353.679C191.969 353.31 192.077 352.941 192.186 352.572L192.24 352.5C192.999 350.369 194.251 348.553 195.97 348.438C196.483 348.43 197.005 348.484 197.572 348.629L197.383 348.431Z" fill="#F7A4BC"/>
<path d="M121.211 168.33C123.732 167.074 126.549 166.097 129.628 165.372C130.402 165.166 131.158 165.059 131.905 164.889C132.463 164.745 133.057 164.629 133.588 164.522C134.245 164.397 134.848 164.343 135.442 164.227C136.513 164.075 137.611 163.888 138.655 163.772C139.222 163.692 139.734 163.684 140.247 163.675C142.317 163.543 143.811 163.653 144.719 163.942C145.295 164.149 145.654 164.645 145.941 165.311C146.049 165.617 146.246 165.878 146.336 166.283C146.577 167.534 146.693 168.578 146.683 169.415C146.691 170.153 146.717 170.792 146.752 171.494C146.935 176.641 147.064 180.735 147.16 183.677C147.273 186.971 147.368 189.463 147.474 191.119C147.58 192.775 147.696 193.819 147.821 194.251C147.839 194.377 147.875 194.404 147.884 194.467C147.938 194.62 147.983 194.71 148.001 194.836C148.037 194.863 148.063 195.052 148.072 195.115C148.873 194.873 149.647 194.667 150.476 194.389C151.061 194.21 151.682 194.058 152.294 193.843C157.353 192.355 162.438 191.057 167.487 190.181C172.095 189.368 176.73 188.744 181.463 188.363C183.56 188.195 185.305 188.944 186.68 190.259C187.578 191.16 188.342 192.241 188.673 193.672C189.237 196.066 189.674 198.703 189.923 201.592C190.074 203.113 190.135 204.678 190.133 206.253C190.142 206.316 190.124 206.415 190.133 206.478C190.132 206.928 190.096 207.351 190.095 207.801C190.094 208.251 190.058 208.674 190.057 209.123C190.03 209.609 190.029 210.059 190.002 210.545C189.937 211.454 189.738 212.317 189.602 213.172C189.503 213.604 189.43 214 189.331 214.431C189.231 214.863 189.06 215.241 188.96 215.673C188.78 216.212 188.662 216.743 188.446 217.256C187.976 218.479 186.994 219.485 185.806 219.943C185.59 220.005 185.23 220.185 184.743 220.382C181.332 221.701 171.366 225.296 158.801 228.232C158.117 228.393 157.433 228.554 156.749 228.715C156.623 228.733 156.497 228.751 156.38 228.832C156.317 228.841 156.263 228.913 156.272 228.976L156.29 229.102C156.325 229.579 156.397 230.083 156.432 230.56C156.53 231.477 156.592 232.368 156.717 233.25C156.752 233.502 156.788 233.754 156.797 234.042C156.81 237.767 157.013 241.241 157.305 244.669C157.438 246.064 157.509 247.468 157.669 248.827C158.185 253.381 158.53 257.862 158.615 262.316C158.587 262.577 158.425 263.018 158.154 263.602C157.73 264.466 157.135 265.257 156.451 265.868C156.343 266.012 156.163 266.101 155.983 266.191C155.631 266.434 155.343 266.667 154.92 266.856C154.497 267.044 154.047 267.268 153.552 267.403C152.597 267.698 151.634 267.931 150.635 268.137C149.258 268.396 147.872 268.592 146.379 268.707C143.733 268.857 141.132 268.872 138.532 268.662C135.941 268.514 129.977 267.013 129.449 265.321C129.278 264.799 129.171 264.268 129.064 263.737C128.759 262.495 128.509 261.181 128.376 259.786C128.153 257.761 126.836 246.638 126.756 245.621C126.729 245.207 126.748 244.883 126.694 244.505C126.606 242.75 126.554 241.248 126.484 240.069C126.466 239.718 126.458 239.43 126.413 239.115C126.387 238.701 126.36 238.287 126.307 237.909C126.28 237.495 126.227 237.117 126.245 236.793C126.201 236.028 126.13 235.525 126.085 235.21C126.085 234.985 125.977 234.903 125.87 234.822C125.87 234.822 125.852 234.696 125.789 234.705C125.663 234.723 125.6 234.732 125.474 234.75C124.979 234.884 123.88 235.297 122.395 235.925C121.819 236.167 121.18 236.418 120.54 236.669C119.631 237.055 118.596 237.459 117.534 237.898C116.228 238.436 114.869 239.047 113.473 239.63C112.897 239.872 112.294 240.15 111.655 240.401C111.601 240.473 111.502 240.455 111.412 240.5C110.898 240.733 110.349 240.94 109.836 241.173C109.719 241.254 109.593 241.272 109.476 241.352C108.81 241.639 108.144 241.927 107.504 242.178C103.651 243.784 100.284 245.192 98.7539 245.73C96.8451 246.771 93.2002 240.09 91.2388 232.817C89.4744 226.256 89.0602 219.246 92.5993 217.01C92.5993 217.01 92.6263 216.974 92.6533 216.938C94.0312 216.004 102.615 209.005 115.657 206.259C116.782 206.035 117.97 205.803 119.167 205.633C119.545 205.58 119.725 205.265 119.869 204.924C119.941 204.753 120.014 204.582 119.96 204.429C119.432 201.837 118.958 199.398 118.521 196.986C116.511 185.061 116.127 175.765 116.517 173.075C116.58 172.842 116.652 172.671 116.716 172.437C116.779 172.203 116.941 171.987 117.04 171.78C117.726 170.495 119.104 169.335 121.238 168.294L121.211 168.33Z" fill="#F7A4BC"/>
<path d="M105.948 156.739C119.856 137.645 130.085 138.863 135.919 143.081C141.278 145.986 146.638 148.89 151.961 151.767C163.041 148.784 175.08 148.943 180.838 149.22C180.049 147.501 179.286 145.745 178.65 143.972C176.489 137.787 175.237 130.992 175.615 124.352C173.652 125.241 170.305 124.751 168.749 124.425C165.34 123.719 162.922 121.619 161.333 118.567C159.116 114.254 158.808 108.675 160.146 103.827C160.951 100.21 162.873 96.0827 167.428 94.6668C168.841 94.2096 170.074 94.2922 171.953 94.8614C171.953 94.8614 168.2 88.774 181.786 67.8617C194.633 48.0822 205.658 46.0715 211.9 55.2122C212.785 53.0628 219.641 38.4047 242.015 49.1493C266.115 60.7419 271.71 76.4324 280.857 72.5027C290.454 68.3486 279.976 64.4664 274.876 63.6142C274.282 63.5055 274.166 62.6865 274.706 62.4172C277.614 60.9452 282.827 58.2793 286.132 56.6548C311.612 43.9546 302.492 90.9666 281.531 101.999C279.856 102.879 278.011 103.461 276.085 103.927C275.901 107.391 275.644 110.801 275.235 114.264C275.143 116.334 274.978 118.574 274.696 120.895C277.572 123.508 279.315 125.607 280.213 126.733C280.725 127.399 280.994 128.164 281.02 129.028C281.329 141.194 277.473 152.086 269.66 161.353C268.174 163.106 265.636 163.561 263.648 162.461C262.884 162.055 262.111 161.586 261.338 161.117C260.67 162.304 260.093 163.446 259.327 164.615C255.197 171.304 245.804 177.582 234.968 180.016C238.097 181.694 241.845 184.794 246.699 188.894C251.733 193.129 257.315 197.833 263.078 201.548C263.312 201.386 263.609 201.215 263.879 201.081C265.184 200.542 266.714 200.904 267.666 201.958C267.666 201.958 269.49 203.949 271.677 203.961C272.927 203.944 274.215 203.28 275.566 201.932C273.984 200.967 273.005 199.499 272.566 197.762C272.306 196.835 272.263 195.845 272.381 194.865C271.958 194.828 271.526 194.729 271.13 194.656C265.958 193.3 264.34 185.047 264.193 180.377C264.045 176.606 266.307 173.523 270.106 171.989C270.431 171.108 270.882 170.208 271.468 169.354C271.468 169.354 272.387 168.132 273.729 167.396C275.765 165.212 278.782 163.371 282.338 162.16C284.606 161.389 292.41 159.096 298.354 162.271C301.276 163.849 303.351 166.479 304.229 169.953C316.23 214.778 298.27 229.53 290.551 235.828C289.83 236.412 289.199 236.951 288.686 237.41C288.01 238.084 287.056 238.379 286.12 238.351C283.457 238.15 280.885 237.454 278.547 236.371C271.879 236.48 261.496 235.54 246.583 231.643C245.08 231.245 243.47 230.766 241.869 230.351C258.781 284.666 312.14 326.816 312.751 327.276L313.83 328.087L312.983 329.138C307.269 335.988 300.613 341.846 293.138 346.696C272.622 361.778 245.305 368.537 216.11 365.216C214.335 367.427 212.524 369.612 210.676 371.769C203.512 380.398 196.196 388.181 189.35 393.841C189.197 393.895 185.524 395.636 182.8 393.644C180.715 392.076 179.99 388.773 180.716 383.915C182.068 374.63 184.555 364.736 186.326 358.412C182.405 357.04 178.619 355.487 174.878 353.8C172.468 359.7 170.085 365.563 167.909 371.301C167.088 373.442 159.776 392.374 155.835 399.486C154.789 401.401 153.427 403.586 151.86 404.997C150.202 406.677 148.284 407.656 146.108 407.032C145.703 406.897 145.136 406.752 144.525 406.292C142.044 404.427 138.507 397.602 140.171 369.188C140.373 365.85 143.065 364.891 144.55 364.488C145.047 355.517 145.617 345.926 146.214 336.299C134.097 326.737 123.53 315.188 115.079 302.023C109.941 301.818 104.831 301.578 99.6302 301.383L98.0826 301.345L97.2834 300.012C92.3988 291.836 87.5411 283.623 82.6746 275.348C68.013 249.632 68.613 237.53 75.4643 220.11L75.5362 220.164C76.1698 217.15 78.544 210.998 84.4639 197.212C89.5356 185.377 97.4386 168.804 106.074 156.946L105.948 156.739ZM293.791 313.638C276.015 296.106 249.492 265.353 238.775 229.375C237.264 228.914 235.681 228.399 234.098 227.884C233.594 227.731 233.091 227.577 232.587 227.424C232.317 227.333 232.047 227.243 231.778 227.153C231.705 227.548 231.633 227.944 231.56 228.34C230.418 234.799 228.818 241.195 226.74 247.401C226 249.658 225.232 251.952 224.293 254.173C223.445 256.125 222.516 258.184 221.047 259.613C231.048 263.756 240.227 269.814 247.541 277.903C252.789 283.875 256.857 290.593 259.168 298.523C259.471 300.665 259.235 302.851 258.431 304.893C257.601 306.97 256.366 308.462 255.41 310.108L249.073 319.809C240.518 332.683 231.612 345.35 222.067 357.593C221.689 358.097 221.283 358.636 220.869 359.112C247.13 362.367 271.872 357.161 291.287 344.741C297.447 340.816 303.013 336.108 307.978 330.779C308.699 329.97 309.464 329.251 310.149 328.415C307.785 326.469 301.655 321.296 293.783 313.575L293.791 313.638ZM148.559 403.697C148.559 403.697 148.595 403.724 148.721 403.706C149.162 403.644 150.629 403.115 153.416 398.061C157.33 390.985 164.985 371.073 165.31 370.191C167.513 364.418 169.923 358.518 172.324 352.555C172.522 352.142 172.658 351.737 172.82 351.296C172.992 350.918 173.127 350.514 173.299 350.136C173.678 349.183 174.093 348.256 174.472 347.303C174.643 346.925 174.806 346.485 174.977 346.107C175.149 345.729 175.284 345.325 175.456 344.947C177.73 339.452 180.04 333.984 182.324 328.552C182.612 327.869 182.874 327.221 183.163 326.538C187.441 316.357 191.529 306.653 195.067 297.831C194.995 297.777 194.959 297.75 194.888 297.696C194.042 297.173 193.233 296.677 192.424 296.181C184.809 291.412 178.83 287.31 176.511 285.678C170.268 291.51 162.631 297.025 154.123 300.254C154.123 300.254 154.033 300.299 153.997 300.272C153.401 309.224 152.768 319.274 152.17 329.576C152.115 330.098 152.097 330.647 152.069 331.133C152.042 331.618 152.014 332.104 151.959 332.626C151.85 334.12 151.767 335.577 151.693 337.098C151.693 337.098 151.666 337.134 151.675 337.197C151.647 337.683 151.62 338.168 151.592 338.654C151.564 339.14 151.537 339.626 151.509 340.112C150.94 349.253 150.398 358.358 149.955 366.807C149.928 367.068 149.856 367.239 149.756 367.446C149.63 367.688 149.477 367.967 149.279 368.156C148.684 368.722 147.847 368.937 147.226 369.089C145.795 369.42 145.66 369.6 145.659 370.05C144.436 390.915 146.23 402.902 148.541 403.571L148.559 403.697ZM146.813 325.097C147.73 325.899 148.611 326.674 149.554 327.44C149.554 327.44 149.554 327.44 149.59 327.467C150.16 318.326 150.729 309.41 151.225 301.339C150.271 301.635 149.307 301.868 148.281 302.109C146.724 302.458 145.203 302.834 143.592 303.03L143.142 303.03C137.708 302.771 132.156 302.593 126.695 302.37C132.596 310.692 139.326 318.286 146.84 325.061L146.813 325.097ZM200.827 347.138C203.479 342.04 212.103 324.432 214.435 308.905C208.617 305.937 202.746 302.591 197.405 299.363C193.885 308.087 189.905 317.647 185.636 327.665C183.064 333.781 180.447 340.031 177.884 346.21C181.337 347.906 184.871 349.494 188.477 350.911C189.272 348.806 190.589 346.306 193.199 345.455C194.828 344.935 196.7 345.216 198.768 346.209C199.514 346.489 200.198 346.777 200.863 347.165L200.827 347.138ZM82.0771 263.866C84.0977 267.018 86.1183 270.17 88.1029 273.295C92.1441 279.598 96.1942 285.965 100.235 292.268C103.259 292.29 106.318 292.339 109.377 292.388C109.863 292.415 110.376 292.407 110.826 292.408C111.339 292.399 111.825 292.427 112.338 292.419C114.011 292.439 115.622 292.468 117.295 292.488C117.808 292.479 118.294 292.507 118.807 292.499C119.32 292.49 119.869 292.509 120.355 292.537C126.824 292.617 133.302 292.76 139.682 292.885C142.831 292.889 145.891 292.488 148.969 291.763C149.932 291.53 150.922 291.261 151.913 290.992C152.372 290.831 152.831 290.67 153.29 290.508C153.749 290.347 154.244 290.212 154.667 290.024C154.667 290.024 154.757 289.979 154.793 290.006C161.131 287.567 167.308 283.543 173.389 277.927C173.416 277.891 173.47 277.819 173.497 277.783C173.497 277.783 173.497 277.783 173.524 277.747C176.191 275.249 178.867 272.589 181.516 269.515L186.077 262.925L190.665 256.3L191.585 255.077L192.396 253.773L193.315 252.551L193.279 252.524L202.402 239.344L214.138 222.389L214.95 221.31L215.689 220.177L217.447 217.615L218.258 216.536L218.997 215.403L219.078 215.295C220.539 213.129 221.495 210.808 222.191 208.461C223.185 205.043 223.405 201.606 222.627 198.375C222.018 195.89 220.842 193.711 219.278 191.973C218.712 191.378 218.119 190.82 217.472 190.333C216.932 189.927 216.366 189.558 215.773 189.224C195.172 177.843 174.176 166.389 153.252 154.99C152.902 154.782 152.488 154.584 152.137 154.376C151.58 154.07 151.058 153.79 150.501 153.483C149.979 153.204 149.422 152.897 148.9 152.618C144.27 150.092 139.639 147.567 135.008 145.042C133.515 144.257 132.013 143.859 130.547 143.714C122.17 142.875 114.035 151.224 109.529 156.842C96.9028 172.735 80.879 214.556 78.9199 219.781L78.7123 220.357C71.7077 238.056 72.5848 249.017 82.0681 263.803L82.0771 263.866ZM166.021 96.9865C165.499 97.3817 165.012 97.804 164.508 98.3253C164.508 98.3253 164.508 98.3253 164.481 98.3612C163.598 99.3859 162.759 100.951 161.929 102.803C161.541 103.693 161.162 104.647 160.791 105.663C159.751 109.891 159.97 114.615 162.422 118.316C166.473 124.458 171.998 123.997 175.734 122.472C175.761 122.211 175.825 121.977 175.825 121.752C175.997 120.475 176.233 119.188 176.505 117.929C176.658 117.2 176.812 116.472 177.065 115.761C177.282 115.024 178.442 115.277 178.262 116.042C177.755 117.912 177.51 119.811 177.301 121.736C176.571 129.743 178.252 137.988 181.437 145.28C182.047 146.639 182.694 148.026 183.367 149.376C183.681 150.007 184.058 150.628 184.408 151.285C185.71 153.671 187.192 155.968 188.79 158.183C192.779 163.659 197.587 168.569 203.152 172.247C208.393 175.682 214.464 178.164 220.744 178.721C221.526 178.803 222.354 178.75 223.155 178.733C223.704 178.751 224.253 178.77 224.766 178.762C226.907 178.683 229.067 178.506 231.182 178.014C233.738 177.459 238.662 175.927 242.677 174.33C247.854 171.637 252.394 167.846 256.017 163.252C256.999 162.021 257.91 160.735 258.784 159.423C258.974 159.171 259.163 158.919 259.352 158.667C259.541 158.416 259.659 158.11 259.848 157.858C260.136 157.4 260.389 156.914 260.678 156.456C256.57 152.635 251.301 149.686 247.137 147.738C246.175 147.296 245.249 146.88 244.431 146.547C243.54 146.158 242.722 145.825 242.047 145.599C241.643 145.463 241.301 145.319 241.031 145.229C240.139 146.19 239.031 146.99 237.825 147.321C234.944 148.307 231.994 147.89 229.331 147.238C228.998 147.157 228.792 146.833 228.873 146.5C228.919 146.14 229.306 145.925 229.603 145.979C232.194 146.351 234.902 146.418 237.188 145.548C239.448 144.714 241.052 142.655 240.92 140.361C240.851 138.057 239.072 136.156 236.759 136.612C236.093 136.674 235.409 136.835 234.761 137.024C233.806 137.319 232.843 137.777 231.952 138.289C231.24 138.711 230.565 139.16 229.961 139.663C229.961 139.663 230.006 139.753 229.979 139.789C229.916 140.023 229.736 140.113 229.565 140.265C229.222 140.571 228.826 140.723 228.359 140.597C226.569 139.983 224.788 139.432 222.98 138.916C221.055 138.482 219.103 138.084 217.214 137.676C212.05 136.608 206.905 135.666 201.696 134.958C200.553 134.83 199.374 134.676 198.268 134.575L196.513 134.438C195.794 134.347 195.119 134.122 194.517 133.725C193.914 133.328 193.393 132.824 193.016 132.202L192.172 130.555C191.661 129.438 191.212 128.313 190.917 127.134C189.573 122.408 190.02 117.397 191.43 112.828C192.866 108.223 195.166 104.041 197.924 100.149C198.627 99.2138 199.357 98.2429 200.06 97.308C200.637 96.3909 201.961 95.5288 203.086 95.3052C203.212 95.2874 203.329 95.2066 203.428 95.2247C205.858 94.6878 208.278 94.7629 210.654 94.9728C214.693 95.3648 218.615 96.2875 222.438 97.417C224.111 97.887 225.73 98.4289 227.385 98.9978C230.515 100.001 233.573 101.174 236.577 102.42C238.007 102.988 239.373 103.566 240.776 104.17C240.983 104.27 241.046 104.486 241.01 104.684C240.91 104.89 240.703 105.016 240.497 104.917C239.444 104.52 238.428 104.15 237.376 103.752C237.376 103.752 237.376 103.752 237.34 103.725C235.919 103.22 234.489 102.651 233.041 102.181C226.754 99.9868 220.386 98.1253 213.836 97.2533C211.578 96.9625 209.275 96.8066 207.052 96.9928C204.748 97.0619 203.289 98.1039 201.856 100.01C198.973 103.47 196.466 107.327 194.814 111.545C194.814 111.545 194.76 111.617 194.733 111.653C193.045 115.844 192.32 120.477 193.133 124.86C193.321 125.958 193.598 127.011 193.975 128.083C194.181 128.857 194.522 129.451 194.917 129.973C195.115 130.234 195.277 130.469 195.501 130.694C196.238 131.361 197.174 131.839 198.163 132.02L201.6 132.465C210.875 133.529 220.141 135.431 229.117 138.24C229.225 138.321 229.297 138.375 229.405 138.457C229.432 138.421 229.459 138.385 229.513 138.313C230.829 136.938 232.414 135.878 234.187 135.241C234.889 134.981 235.663 134.775 236.383 134.641C237.877 134.301 239.802 134.735 240.998 135.916C241.07 135.97 241.114 136.06 241.222 136.141C242.346 137.267 242.884 138.797 242.9 140.273C242.979 141.515 242.564 142.666 241.978 143.745C242.085 143.826 242.247 143.835 242.382 143.881C242.652 143.971 242.958 144.088 243.3 144.233C247.347 145.812 255.441 149.422 261.453 154.9C261.525 154.954 261.597 155.008 261.669 155.062C262.038 155.396 262.379 155.765 262.748 156.098C263.008 156.351 263.242 156.639 263.466 156.864C263.727 157.116 263.925 157.378 264.158 157.666C265.839 159.548 267.243 158.803 268.82 156.781C272.93 151.54 277.556 143.367 277.294 129.716C277.268 128.853 276.955 127.997 276.442 127.331C275.966 126.691 275.095 125.755 274.079 124.71C273.935 124.601 273.819 124.457 273.666 124.286C273.405 124.034 273.253 123.863 272.956 123.583C272.587 123.25 272.111 122.835 271.734 122.439C271.824 121.944 271.915 121.45 271.978 120.991C272.006 120.73 272.069 120.496 272.096 120.235C272.114 120.136 272.097 120.01 272.115 119.911C272.16 119.551 272.17 119.164 272.215 118.805C272.851 113.991 273.199 109.187 273.412 104.337C255.863 106.79 230.648 94.134 216.791 73.1873C215.669 77.523 212.763 84.6817 204.874 89.7827C192.888 97.488 184.341 111.325 184.373 114.951L180.3 119.319C180.318 118.995 180.274 118.68 180.256 118.33C180.213 116.665 180.071 114.982 179.732 113.263C179.437 111.634 178.989 110.059 178.514 108.52C175.951 100.4 170.929 93.7533 166.111 96.7166C166.057 96.7886 165.94 96.8694 165.85 96.9143L166.021 96.9865ZM208.957 56.2073C207.357 54.2168 205.003 51.4335 198.827 54.782C192.686 58.1575 190.639 61.4033 190.639 61.4033C190.639 61.4033 197.296 55.3199 205.815 57.3911C205.815 57.3911 201.901 56.9813 199.081 59.9831C199.081 59.9831 205.276 56.5357 211.22 59.4854C211.364 59.5936 211.562 59.6298 211.769 59.7291C211.769 59.7291 211.535 59.4408 211.221 59.0355C210.556 58.1979 209.46 56.8108 208.957 56.2073ZM239.123 52.322C233.61 49.9216 230.271 50.3943 230.271 50.3943C236.459 52.7955 240.069 58.3248 240.069 58.3248C230.998 51.8979 223.4 54.5158 223.4 54.5158C223.4 54.5158 227.701 55.16 236.936 59.5716C246.172 63.9832 254.659 69.2396 254.659 69.2396L247.848 61.3039L263.304 70.8431C250.708 55.4048 239.06 52.3309 239.06 52.3309L239.123 52.322ZM268.66 176.756C268.309 177.449 268.029 178.195 268.099 179.149C268.282 184.296 270.165 189.652 272.567 190.276C274.069 190.674 274.978 190.288 275.536 189.92C275.15 189.235 274.908 188.434 274.837 187.705C274.776 186.365 275.201 185.051 275.985 184.009C275.427 183.702 274.906 183.197 274.591 182.792C274.079 182.126 273.711 181.342 273.596 180.523C273.408 179.425 273.778 178.409 274.328 177.528C274.49 177.312 274.653 177.097 274.815 176.881C274.743 176.827 274.671 176.773 274.599 176.719C274.419 176.583 274.258 176.349 274.132 176.142C273.916 175.755 273.764 175.359 273.639 174.927C273.567 174.648 273.523 174.108 273.568 173.523C273.442 173.541 273.289 173.595 273.136 173.648C271.741 174.007 269.715 174.904 268.723 176.747L268.66 176.756ZM301.53 169.725C299.201 160.994 289.095 162.457 283.946 164.214C280.273 165.505 277.679 167.382 276.228 169.162C276.066 169.378 275.94 169.621 275.849 169.891C275.75 170.097 275.66 170.367 275.561 170.574C275.272 171.258 275.109 171.923 274.982 172.616C274.855 173.309 274.854 173.983 274.953 174.676C275.024 175.18 275.158 175.675 275.347 176.099C275.347 176.099 275.374 176.063 275.401 176.027C275.536 175.847 275.779 175.748 275.95 175.595C277.409 174.329 279.165 173.341 280.921 172.578C283.009 171.672 285.242 170.874 287.51 170.553C288.203 170.455 288.417 171.517 287.725 171.615C285.673 171.873 283.809 172.555 281.946 173.461C280.235 174.314 278.542 175.293 277.11 176.524C276.11 177.404 275.155 178.6 275.288 179.995C275.35 180.661 275.655 181.228 276.05 181.75C276.293 182.101 276.634 182.471 276.913 182.849C278.57 181.393 280.974 180.443 283.026 179.734C285.448 178.91 287.896 178.724 290.397 178.916C290.982 178.962 290.873 179.78 290.36 179.789C288.092 179.885 285.905 180.548 283.798 181.328C281.998 182.001 280.062 182.853 278.558 184.03C277.513 184.82 276.918 186.061 276.88 187.384C276.862 187.708 276.942 188.05 277.014 188.329C277.229 189.166 277.624 189.913 278.019 190.661C278.181 190.445 278.406 190.22 278.605 190.032C280.487 188.351 283.098 187.5 285.573 187.053C288.057 186.669 290.675 186.331 292.995 187.512C293.409 187.711 293.102 188.268 292.779 188.25C291.591 188.257 290.34 188.499 289.161 188.569C287.883 188.622 286.65 188.764 285.399 189.005C283.491 189.372 281.241 190.044 279.736 191.446C279.223 191.904 278.79 192.479 278.466 193.136C278.051 194.062 277.986 195.196 278.678 195.997C279.343 196.835 280.404 197.07 281.448 196.955C282.402 196.884 283.338 196.687 284.247 196.526C285.462 196.258 286.686 196.052 287.928 195.973C288.981 195.92 290.051 195.994 291.077 196.202C292.103 196.41 293.407 196.547 294.261 197.133C294.693 197.457 294.656 198.33 294.017 198.356C293.252 198.4 292.541 198.147 291.804 197.93C291.102 197.741 290.436 197.578 289.753 197.514C288.277 197.305 286.739 197.33 285.29 197.535C285.29 197.535 285.164 197.553 285.101 197.562C284.381 197.696 283.571 197.875 282.796 198.081C282.661 198.261 282.391 198.62 281.985 199.16C281.472 199.843 280.67 200.76 279.399 202.225C272.262 210.368 265.874 202.919 265.874 202.919C265.874 202.919 265.909 203.621 266.025 204.665C266.07 204.98 266.078 205.267 266.132 205.645C265.889 205.519 265.61 205.366 265.359 205.177C251.367 197.583 237.51 183.223 230.891 180.497C229.866 180.064 228.939 179.874 228.264 180.098C228.228 180.071 228.192 180.044 228.156 180.017C227.904 180.052 227.616 180.061 227.364 180.097C227.427 180.313 227.463 180.565 227.526 180.781C227.875 182.113 228.224 183.445 228.537 184.75C228.994 186.838 229.351 188.908 229.717 191.041C229.744 191.23 229.627 191.311 229.474 191.365C229.258 191.428 228.997 191.4 228.961 191.148C228.585 189.402 228.147 187.665 227.645 185.937C227.35 184.758 226.928 183.596 226.57 182.426C226.399 181.904 226.256 181.346 226.086 180.824C226.023 180.608 225.96 180.392 225.871 180.212C225.457 180.238 225.052 180.328 224.665 180.318C224.152 180.327 223.63 180.272 223.117 180.28C221.578 180.305 220.031 180.267 218.528 180.095C218.106 180.058 217.701 179.923 217.305 179.85C204.62 177.855 194.157 169.311 186.828 159.072C185.139 156.676 183.568 154.2 182.239 151.625C182.239 151.625 182.167 151.57 182.194 151.534C182.194 151.534 182.194 151.534 182.158 151.507C182.158 151.507 174.727 150.76 165.763 151.901C162.704 152.302 159.518 152.946 156.34 153.878C177.606 165.422 198.746 176.984 219.445 188.383C223.482 190.574 226.348 194.474 227.646 199.335C227.852 200.109 227.959 200.865 228.102 201.648L228.331 206.21C228.321 206.822 228.275 207.407 228.202 208.027C228.12 208.81 228.002 209.566 227.884 210.322C227.468 212.598 226.736 214.918 225.77 217.175C225.599 217.553 225.4 217.967 225.229 218.344C225.058 218.722 224.859 219.136 224.688 219.513C224.255 220.314 223.822 221.114 223.353 221.887C223.353 221.887 223.326 221.923 223.299 221.959L222.542 222.966L221.803 224.099L209.327 241.962L201.313 253.443L200.989 253.874L200.565 254.512L200.43 254.692L199.52 255.978L191.56 267.386L184.664 277.23C183.448 278.624 182.114 280.098 180.709 281.518C180.709 281.518 180.709 281.518 180.682 281.554L180.628 281.625C180.574 281.697 180.493 281.805 180.439 281.877C182.794 283.536 187.981 287.042 194.581 291.217C195.39 291.713 196.235 292.236 197.08 292.759C197.152 292.813 197.188 292.84 197.26 292.894C197.62 293.164 198.033 293.363 198.42 293.597C198.779 293.867 199.193 294.066 199.544 294.273C204.435 297.276 209.857 300.396 215.243 303.264C215.657 303.462 216.043 303.697 216.493 303.922C216.844 304.13 217.185 304.274 217.563 304.446C217.608 304.311 217.59 304.185 217.635 304.05C217.69 303.753 217.744 303.456 217.826 303.123C218.17 301.468 218.522 299.876 218.839 298.257C218.867 297.996 219.092 297.771 219.38 297.762C219.731 297.745 219.992 297.997 220.036 298.312C220.363 302.892 219.602 307.498 218.489 311.897C217.413 316.323 216.004 320.667 214.523 324.957C213.927 326.648 213.268 328.348 212.636 330.012C210.027 336.775 207.014 343.403 203.793 349.931C203.739 350.003 203.685 350.075 203.631 350.147C203.252 350.65 202.613 350.677 202.065 350.433C201.993 350.379 201.903 350.424 201.831 350.37C200.501 349.369 199.053 348.45 197.65 348.07C197.083 347.925 196.588 347.835 196.048 347.879C194.33 347.994 193.05 349.846 192.318 351.941L192.264 352.013C192.156 352.382 192.047 352.751 191.939 353.12C191.803 353.524 191.704 353.956 191.541 354.397C191.324 355.134 191.116 355.935 190.936 356.7C190.836 357.131 190.728 357.5 190.628 357.932C190.529 358.364 190.42 358.732 190.321 359.164C189.814 361.485 189.343 363.833 188.863 366.118C187.903 370.913 187.052 375.788 186.29 380.619C185.954 383.012 185.555 385.414 185.984 387.538C186.305 389.806 187.564 390.303 189.374 389.468C197.652 382.352 205.085 374.263 212.078 365.787C212.457 365.284 212.934 364.798 213.313 364.295C213.61 363.899 213.908 363.504 214.205 363.108C214.503 362.713 214.8 362.317 215.098 361.922C215.449 361.454 215.774 361.023 216.161 360.582C216.458 360.187 216.783 359.755 217.116 359.387C217.414 358.991 217.711 358.596 217.982 358.236C218.685 357.301 219.432 356.456 220.135 355.521C229.563 343.359 238.477 330.755 247.033 317.88L253.235 308.359L253.343 308.216C254.119 306.885 254.975 305.671 255.633 304.421C255.814 304.107 255.994 303.792 256.112 303.486C256.112 303.486 256.139 303.45 256.166 303.414C256.473 302.632 256.68 301.831 256.762 301.048C256.863 300.167 256.864 299.267 256.739 298.385C256.577 297.926 256.38 297.44 256.219 296.981C254.067 290.634 250.332 284.223 245.713 279.061C238.732 271.278 229.804 265.41 220.073 261.357C215.703 259.534 211.25 258.044 206.699 256.986L206.627 256.932L206.6 256.967C206.033 256.823 205.701 256.292 205.684 255.716C205.711 255.68 205.639 255.626 205.657 255.527C205.657 255.527 205.612 255.437 205.639 255.401C205.72 255.068 205.91 254.816 206.18 254.681C206.441 254.484 206.81 254.367 207.179 254.476C208.474 254.774 209.751 255.172 211.02 255.506C213.826 256.266 216.596 257.223 219.312 258.252C219.483 258.324 219.654 258.396 219.825 258.469C219.879 258.397 219.834 258.307 219.861 258.271C221.034 255.888 222.359 253.676 223.28 251.104C224.237 248.558 225.087 245.932 225.873 243.315C227.607 237.639 229 231.819 229.997 225.927C229.997 225.927 230.024 225.891 230.052 225.855C230.097 225.72 230.079 225.594 230.124 225.459C230.151 225.198 230.206 224.901 230.233 224.64C230.305 224.244 230.369 223.786 230.406 223.363C230.406 223.363 230.406 223.363 230.433 223.327C230.551 222.571 230.632 221.788 230.75 221.033C230.796 220.673 230.868 220.277 230.914 219.917C230.941 219.881 230.932 219.818 230.923 219.755C230.96 219.332 231.059 218.901 231.096 218.478C231.195 217.821 231.268 217.2 231.332 216.516C231.368 216.319 231.341 216.13 231.378 215.932C231.596 213.844 231.752 211.766 231.871 209.661C231.899 208.95 231.954 208.203 231.982 207.492C232.066 205.135 232.087 202.786 232.081 200.474C232.054 200.285 232.09 200.087 232.064 199.898C232.04 196.785 231.891 193.689 231.625 190.675C231.554 190.171 232.301 190.001 232.372 190.505C233.701 199.891 233.987 209.168 232.985 218.885C232.958 218.921 232.939 219.02 232.948 219.083C232.912 219.506 232.812 219.938 232.776 220.36C232.757 220.684 232.676 221.017 232.658 221.341C232.658 221.341 232.604 221.413 232.639 221.44C232.612 221.476 232.63 221.602 232.603 221.638C232.603 221.638 232.576 221.674 232.549 221.71C232.549 221.71 232.621 221.764 232.657 221.791C232.657 221.791 232.693 221.818 232.729 221.845C232.801 221.899 232.936 221.944 233.035 221.962C234.222 222.405 235.742 222.929 237.361 223.47C237.838 223.66 238.305 223.787 238.809 223.94C239.313 224.094 239.789 224.283 240.293 224.437C241.948 225.006 243.495 225.494 244.61 225.882C261.341 230.582 272.668 231.613 279.929 231.388C281.98 232.479 284.3 233.211 287.026 233.403C289.261 231.256 294.538 227.906 298.91 221.118C304.779 211.965 308.92 196.503 301.62 169.23L301.53 169.725Z" fill="#221E1F"/>
</svg>
