<svg width="235" height="104" viewBox="0 0 235 104" fill="none" xmlns="http://www.w3.org/2000/svg">
<path d="M137.517 65.2314C137.723 66.2098 137.877 67.4456 138.135 68.9389C138.392 70.4322 138.598 72.1829 138.856 74.0882L139.679 80.0098C139.988 82.018 140.246 84.0263 140.503 86.0345C140.761 88.0427 140.967 89.8449 141.224 91.4412C141.43 93.0375 141.636 94.4278 141.791 95.6121C141.945 96.745 142.048 97.5173 142.151 97.8263C142.151 98.1353 141.945 98.3927 141.482 98.7017C140.967 98.9591 140.349 99.2166 139.576 99.4741C138.804 99.68 137.929 99.886 137.002 100.092C136.075 100.246 135.199 100.401 134.427 100.504C133.654 100.607 132.933 100.607 132.418 100.555C131.852 100.555 131.594 100.401 131.543 100.143C131.44 99.3711 131.286 97.9808 130.977 96.0756L129.998 89.4845L128.865 81.9665C128.505 79.3919 128.144 77.0747 127.938 75.015C126.908 75.118 125.518 75.2725 123.716 75.427L118.257 75.9419C116.352 76.0964 114.549 76.3023 112.85 76.5083C111.15 76.7143 109.811 76.9203 108.833 77.1777L109.451 84.8501C109.657 87.4248 109.863 89.7934 110.069 92.0076C110.275 94.2218 110.429 96.1785 110.584 97.8263C110.738 99.4741 110.841 100.71 110.944 101.431C110.944 101.791 110.738 102.1 110.275 102.409C109.76 102.718 109.142 103.027 108.37 103.233C107.597 103.491 106.773 103.696 105.846 103.799C104.971 103.954 104.095 104.005 103.323 104.005C102.499 104.005 101.829 103.954 101.263 103.799C100.697 103.645 100.439 103.388 100.388 102.976L99.9241 99.2166L99.2031 92.9345C98.9457 90.5658 98.6367 88.0427 98.3792 85.4166C98.1217 82.7904 97.8642 80.2673 97.6582 77.9501C97.4523 75.6329 97.2463 73.6247 97.1433 71.9255C97.0403 70.2262 96.9888 69.0934 97.0918 68.5784C97.0918 68.3725 97.7097 68.115 98.7912 67.806C99.9241 67.4971 101.418 67.2396 103.271 66.8792C105.125 66.5702 107.237 66.2098 109.554 65.9008C111.923 65.5404 114.292 65.2314 116.763 64.9224C119.184 64.6135 121.604 64.356 124.024 64.0986C126.393 63.8926 128.556 63.6866 130.462 63.5321C132.367 63.3777 133.912 63.3262 135.199 63.3262C136.435 63.3262 137.156 63.3777 137.311 63.5321C137.414 63.5836 137.568 64.1501 137.723 65.0769L137.517 65.2314Z" fill="white"/>
<path d="M156.364 97.9823C154.407 96.7465 152.862 95.0987 151.626 93.039C150.39 90.9793 149.566 88.6621 149.051 86.0875C148.536 83.5128 148.382 80.8867 148.639 78.1576C148.845 75.48 149.412 72.8538 150.287 70.3307C151.163 67.7561 152.45 65.5419 154.047 63.5851C155.643 61.6284 157.6 60.0836 159.917 59.0023C162.235 57.8695 164.861 57.406 167.848 57.612C170.937 57.7665 173.512 58.5389 175.624 59.8262C177.735 61.1135 179.434 62.8128 180.67 64.8725C181.906 66.9322 182.73 69.1979 183.142 71.721C183.554 74.2441 183.554 76.8188 183.194 79.3934C182.833 81.9681 182.112 84.5427 181.031 87.0143C179.949 89.486 178.61 91.7002 176.911 93.6054C175.212 95.5621 173.203 97.1069 170.937 98.2398C168.672 99.3726 166.148 99.939 163.367 99.939C160.638 99.939 158.321 99.2696 156.364 97.9823ZM169.393 86.9114C170.525 85.933 171.452 84.6972 172.122 83.2554C172.791 81.7621 173.255 80.1658 173.461 78.3636C173.667 76.6128 173.564 74.9135 173.152 73.4203C172.74 71.8755 172.07 70.5367 171.04 69.4553C170.01 68.374 168.672 67.7561 166.921 67.5501C165.273 67.4471 163.882 67.859 162.749 68.8374C161.617 69.8158 160.741 71.0516 160.123 72.5964C159.505 74.0897 159.145 75.7889 159.093 77.5912C158.99 79.3934 159.145 81.0927 159.557 82.689C159.969 84.2852 160.69 85.5725 161.617 86.6539C162.595 87.7352 163.831 88.2502 165.324 88.3017C166.869 88.3017 168.208 87.8897 169.341 86.9114H169.393Z" fill="white"/>
<path d="M232.168 58.2788C232.271 59.2572 232.425 60.493 232.58 62.0378C232.734 63.5311 232.889 65.2818 233.043 67.2386L233.558 73.2117C233.713 75.2714 233.867 77.2796 234.022 79.2878C234.176 81.2961 234.279 83.0983 234.434 84.7461C234.588 86.3939 234.64 87.7842 234.743 88.917C234.846 90.0498 234.897 90.8222 235 91.1827C235 91.4916 234.794 91.7491 234.279 92.0066C233.764 92.264 233.095 92.47 232.322 92.6245C231.498 92.8304 230.674 92.9334 229.748 93.0879C228.821 93.1909 227.945 93.2939 227.121 93.3454C226.297 93.3454 225.628 93.3454 225.061 93.3454C224.495 93.2939 224.237 93.1394 224.237 92.8819C224.237 92.1095 224.083 90.7192 223.877 88.7625L223.259 82.1714L222.538 74.602C222.281 72.0274 222.126 69.6587 221.972 67.599C220.942 67.6505 219.5 67.702 217.749 67.805L212.239 68.0109C210.333 68.0624 208.531 68.1654 206.832 68.2684C205.132 68.3714 203.742 68.5259 202.763 68.7318L202.969 76.4557C203.021 79.0304 203.124 81.399 203.175 83.6647C203.227 85.8789 203.33 87.8356 203.381 89.5349C203.433 91.2342 203.484 92.4185 203.536 93.1394C203.536 93.4998 203.33 93.8088 202.815 94.1178C202.3 94.4267 201.63 94.6327 200.858 94.8387C200.086 95.0446 199.21 95.1991 198.335 95.3021C197.459 95.4051 196.584 95.4566 195.76 95.4051C194.936 95.4051 194.266 95.2506 193.751 95.0961C193.236 94.9416 192.927 94.6327 192.927 94.2207L192.721 90.4103L192.31 84.0767C192.155 81.708 192.052 79.1849 191.898 76.5072C191.795 73.8296 191.692 71.358 191.589 69.0408C191.486 66.7236 191.434 64.7154 191.434 63.0161C191.434 61.3169 191.434 60.184 191.537 59.6691C191.537 59.4631 192.155 59.2057 193.288 58.9997C194.421 58.7937 195.914 58.5363 197.82 58.3303C199.674 58.1243 201.785 57.9184 204.154 57.6609C206.523 57.4549 208.943 57.249 211.415 57.0945C213.887 56.94 216.307 56.7855 218.676 56.6825C221.096 56.5795 223.207 56.5281 225.113 56.4766C227.018 56.4766 228.563 56.4766 229.851 56.4766C231.086 56.5281 231.807 56.631 231.962 56.7855C232.065 56.8885 232.168 57.4034 232.271 58.3818L232.168 58.2788Z" fill="white"/>
<path d="M44.0489 51.8425C44.0489 52.5119 43.7914 53.1813 43.3279 53.8508C42.8645 54.5202 42.3495 55.1896 41.68 55.859C41.0106 56.5284 40.2896 57.0433 39.5172 57.4552C38.7447 57.8672 38.0238 58.1246 37.3028 58.2276C36.5819 58.3306 36.0154 58.1246 35.5005 57.6097C35.0885 57.1978 34.3675 56.5799 33.4406 55.756C32.4622 54.9321 31.3807 54.0052 30.0933 52.9754C28.8059 51.997 27.467 50.9157 25.9736 49.8858C24.4802 48.8045 22.9868 47.8261 21.4419 46.9507C19.897 46.0239 18.4036 45.2515 16.9102 44.6335C15.4168 44.0156 14.0779 43.6552 12.8935 43.5007C13.1509 45.5604 13.4084 47.4657 13.6144 49.3194C13.8719 51.1731 14.0779 52.8724 14.2839 54.3657C14.4899 55.859 14.6443 57.0948 14.7988 58.1246C14.9018 59.1545 15.0048 59.8239 15.0563 60.0814C15.1593 60.8023 14.7988 61.4717 13.9234 62.0381C13.0479 62.6045 12.018 63.0165 10.8851 63.2224C9.75216 63.4799 8.67074 63.4799 7.6408 63.2739C6.61087 63.068 6.09591 62.6045 5.94142 61.8836L5.52944 59.412L4.757 54.7776C4.44802 52.9239 4.13904 50.8642 3.77856 48.5985L2.69713 41.6985C2.33666 39.3298 1.97618 37.0126 1.61571 34.7469C1.30673 32.4813 0.997746 30.3701 0.740263 28.5163C0.48278 26.6111 0.328291 25.0148 0.173801 23.6245C0.0193112 22.2342 -0.0321854 21.3073 0.0193112 20.8439C0.0193112 20.226 0.48278 19.7111 1.35822 19.3506C2.23366 18.9387 3.1606 18.6812 4.19053 18.5267C5.22047 18.3722 6.2504 18.3722 7.22883 18.5267C8.20727 18.6812 8.82523 18.9387 9.1342 19.3506C9.28869 19.5566 9.49468 20.1745 9.70067 21.2558C9.90665 22.3372 10.1641 23.7275 10.4216 25.4268C10.7306 27.126 10.9881 29.0312 11.2971 31.1939C11.606 33.3566 11.915 35.5193 12.224 37.785C12.9964 37.4761 13.8719 36.8067 14.8503 35.7253C15.7773 34.644 16.7557 33.4081 17.6826 31.9663C18.6611 30.5245 19.588 28.9798 20.4635 27.3835L22.9353 22.8006C23.6562 21.3588 24.2742 20.123 24.7377 19.0417C25.2011 17.9603 25.5616 17.2394 25.7161 16.9305C26.3341 15.3857 27.2095 14.3558 28.2909 13.8409C29.3724 13.326 30.4538 13.1715 31.4837 13.4289C32.5137 13.6349 33.4921 14.2013 34.2645 15.0767C35.0885 15.9521 35.5005 17.0334 35.6034 18.3208C35.6034 18.9387 35.3975 19.7626 34.9855 20.7924C34.522 21.8223 33.9556 23.0066 33.1831 24.2939C32.4107 25.5812 31.5867 26.92 30.6083 28.3104L27.776 32.2753C26.849 33.5626 25.9221 34.7469 25.0981 35.7768C24.2227 36.8067 23.5018 37.6305 22.9353 38.197C23.8107 38.2999 24.8407 38.6604 26.0251 39.1753C27.261 39.6902 28.4969 40.3597 29.8358 41.132C31.1747 41.9044 32.5651 42.7283 33.9556 43.6552L37.8178 46.2813L41.1136 48.5985L43.3279 50.1948C43.8429 50.5552 44.0489 51.0701 43.9974 51.6881L44.0489 51.8425Z" fill="white"/>
<path d="M68.0469 43.2427C68.9223 43.6032 69.6432 44.2211 70.1582 45.1479C70.7247 46.0233 71.0337 47.1047 71.1367 48.289C71.2396 49.5248 70.9307 50.6577 70.1582 51.739C69.6947 52.3569 68.9738 52.9748 67.9439 53.4898C66.9139 54.0047 65.678 54.4681 64.2876 54.7771C62.8972 55.086 61.4038 55.292 59.7559 55.292C58.108 55.292 56.5116 55.1375 54.9152 54.6741C53.3188 54.2622 51.7224 53.5928 50.229 52.6144C48.7356 51.6875 47.3967 50.4002 46.2123 48.8554C45.0279 47.2591 44.1524 45.3024 43.483 42.9852C42.8135 40.6681 42.5046 37.8875 42.5561 34.7464C42.5561 30.936 43.277 27.5889 44.5129 24.8083C45.7488 21.9762 47.3452 19.659 49.1991 17.8053C51.1045 15.9516 53.1643 14.5098 55.3787 13.5829C57.6445 12.6045 59.8074 12.0896 61.9188 11.8836C64.0301 11.7292 65.884 11.9866 67.5319 12.6045C69.1798 13.2224 70.3642 14.2008 71.0337 15.4366C72.1666 17.4963 72.6301 19.2471 72.4241 20.7404C72.2181 22.2337 71.7031 23.418 70.8792 24.2934C70.0552 25.1688 69.1283 25.7352 68.0469 25.9926C66.9654 26.2501 66.1415 26.1471 65.472 25.6322C64.5451 24.9113 63.3607 24.5508 61.9703 24.5508C60.5799 24.5508 59.2409 24.9113 57.902 25.6837C56.5631 26.4561 55.4302 27.5889 54.4518 29.1337C53.4733 30.6785 52.9584 32.5837 52.9069 34.9009C52.8039 37.2181 53.0099 39.0718 53.4733 40.4621C53.9368 41.8524 54.5548 42.9853 55.2757 43.7576C56.0482 44.53 56.9236 45.045 57.902 45.3024C58.8805 45.5599 59.8589 45.6114 60.7858 45.5084C61.7128 45.4054 62.6397 45.1479 63.4637 44.839C64.2876 44.4785 64.9571 44.1181 65.472 43.6547C66.2445 43.0367 67.0169 42.8823 67.8924 43.2427H68.0469Z" fill="white"/>
<path d="M79.6311 13.069C80.146 12.8115 80.7125 12.5025 81.3305 12.2451C81.9999 11.9876 82.7209 11.7301 83.4933 11.5242C84.2658 11.3182 85.0382 11.1637 85.7592 11.1122C86.7376 11.0092 87.613 11.0092 88.2825 11.1637C89.0034 11.3182 89.3639 11.7301 89.4154 12.2966C89.5184 12.966 89.5184 13.9958 89.5699 15.3861C89.5699 16.7249 89.5699 18.2182 89.5699 19.8145V24.7063C89.5699 26.3541 89.5699 27.8474 89.5699 29.1862C89.5699 29.2892 89.5699 29.3922 89.5699 29.4951C89.5699 29.5981 89.5699 29.7011 89.5699 29.8041C89.5699 30.1646 89.7244 30.319 89.8789 30.319C90.1879 30.319 90.8573 29.7526 91.8358 28.7742L95.389 25.1183L99.8177 20.3809L104.349 15.6436C105.791 14.2018 107.079 12.966 108.16 11.9361C109.293 10.9578 110.117 10.3913 110.632 10.3398C110.889 10.3398 111.301 10.7518 111.816 11.6272C112.383 12.554 113.001 13.7899 113.773 15.3346C114.546 16.9309 115.421 18.7847 116.4 20.8959L119.489 27.7959L122.837 35.4683C123.97 38.0944 125.154 40.6691 126.39 43.2437V43.4497C126.441 43.8616 126.184 44.3251 125.669 44.8915C125.103 45.4579 124.433 46.0243 123.609 46.5907C122.785 47.1572 121.858 47.6206 120.88 48.0325C119.901 48.4445 118.974 48.7019 118.151 48.8049C116.915 48.9594 116.142 48.6504 115.833 47.9295C115.73 47.7236 115.37 46.8997 114.752 45.4064L112.64 40.1541L110.117 33.6661C109.242 31.4004 108.521 29.2892 107.903 27.3839C107.748 26.9205 107.645 26.5601 107.542 26.2511C107.439 25.9936 107.285 25.8392 107.079 25.8907C106.821 25.8907 106.461 26.1996 105.997 26.7145L96.9854 36.7556L90.6513 43.4497C88.952 45.2004 87.613 46.4363 86.5831 47.2601C85.6047 48.0325 84.8837 48.496 84.3688 48.5475C83.6993 48.5989 83.2873 48.1355 83.0298 47.0542C82.7724 45.9728 82.4634 44.428 82.1029 42.4198C81.7424 40.4116 81.382 38.1974 80.97 35.7773C80.6095 33.4086 80.249 30.9369 79.8886 28.4138C79.5796 25.8907 79.2706 23.5735 79.0131 21.4108C78.7556 19.3511 78.6011 17.6003 78.4981 16.21C78.3952 14.8197 78.3952 13.9958 78.4981 13.7899C78.6011 13.5324 78.9101 13.2234 79.3736 12.966L79.6311 13.069Z" fill="white"/>
<path d="M135.762 32.479C136.123 32.582 136.586 32.582 137.101 32.5305C137.925 32.479 138.852 32.1186 139.882 31.4492C140.912 30.8313 141.839 29.5955 142.766 27.7932C143.693 25.991 144.465 23.5193 145.083 20.2753C145.701 17.0312 146.01 12.8088 146.01 7.60805C146.01 6.5782 146.01 5.70282 146.01 5.03342C146.01 4.36401 146.061 3.84908 146.164 3.38565C146.216 2.97371 146.319 2.66475 146.473 2.45878C146.628 2.25281 146.782 2.09833 147.04 1.99534C147.4 1.89236 148.482 1.68639 150.284 1.48042C152.035 1.27445 154.146 1.01698 156.515 0.811011C158.318 0.656533 160.223 0.502055 162.18 0.347577C164.137 0.193099 165.939 0.141605 167.535 0.0386196C169.132 -0.0128732 170.522 -0.0128732 171.604 0.0386196C172.685 0.0386196 173.303 0.141606 173.458 0.347577C173.561 0.450562 173.664 0.862503 173.715 1.5834C173.818 2.3043 173.921 3.23117 174.024 4.36401C174.179 5.8573 174.282 7.71104 174.436 9.82224C174.591 11.9334 174.745 14.1991 174.848 16.4648L175.208 23.3648C175.311 25.682 175.414 27.7417 175.517 29.6469C175.62 31.5522 175.672 33.097 175.672 34.3328C175.672 35.5686 175.672 36.2895 175.723 36.444C175.723 36.9074 175.517 37.3709 175.054 37.8343C174.642 38.2462 174.024 38.6582 173.355 38.9671C172.685 39.2761 171.913 39.585 171.037 39.791C170.162 39.997 169.338 40.1515 168.514 40.2545C167.329 40.3574 166.3 40.2545 165.424 40.0485C164.549 39.791 164.085 39.3276 164.034 38.5552C164.034 38.1947 164.034 37.2679 163.982 35.8261C163.982 34.3328 163.982 32.582 163.982 30.5738V24.1372C163.982 21.8715 164.034 19.7089 164.085 17.7521L164.188 12.7058C164.188 11.3155 164.24 10.5431 164.24 10.2857C163.828 10.3887 163.364 10.4402 162.952 10.4916L161.665 10.5946C160.532 10.6976 159.451 10.8006 158.421 10.8521C157.391 10.9036 156.412 11.0066 155.537 11.0581L153.786 11.2125C153.889 15.8984 153.631 20.1723 152.962 24.1372C152.292 28.0507 151.211 31.5007 149.769 34.3843C148.327 37.3194 146.473 39.6365 144.259 41.3358C142.045 43.0866 139.47 44.0649 136.535 44.3224C134.887 44.4769 133.445 44.3739 132.209 44.1164C130.973 43.8075 129.943 43.344 129.119 42.7261C128.295 42.1082 127.677 41.3873 127.265 40.5119C126.853 39.688 126.596 38.8127 126.493 37.8858C126.441 37.1134 126.493 36.341 126.647 35.6201C126.802 34.8992 127.111 34.2298 127.523 33.6634C127.935 33.0455 128.45 32.582 129.068 32.1701C129.685 31.8096 130.406 31.5522 131.179 31.5007C132.209 31.3977 133.445 31.6037 134.784 32.1701C134.99 32.2216 135.247 32.3246 135.608 32.4276L135.762 32.479Z" fill="white"/>
<path d="M182.833 2.82475C183.348 2.56729 183.915 2.30982 184.584 2.05236C185.253 1.7949 185.974 1.58892 186.747 1.43445C187.519 1.27997 188.292 1.17698 189.064 1.074C190.043 1.0225 190.918 1.074 191.588 1.22848C192.257 1.43445 192.669 1.7949 192.669 2.41281C192.72 3.13371 192.72 4.11207 192.669 5.50237C192.669 6.84119 192.566 8.33447 192.514 9.93075L192.309 14.8226C192.257 16.4703 192.206 17.9636 192.154 19.3024C192.154 19.4054 192.154 19.5084 192.154 19.6114C192.154 19.7144 192.154 19.8174 192.154 19.9203C192.154 20.2808 192.257 20.4353 192.463 20.4353C192.772 20.4353 193.441 19.9203 194.471 18.9935L198.179 15.4405L202.814 10.9091L207.5 6.37775C208.993 4.98745 210.332 3.80311 211.465 2.82475C212.598 1.84639 213.474 1.38295 213.989 1.33146C214.246 1.33146 214.607 1.7434 215.121 2.67027C215.636 3.59714 216.254 4.88446 216.975 6.48074C217.696 8.07701 218.469 9.98224 219.344 12.1449L222.177 19.148L225.266 26.9234C226.348 29.601 227.429 32.2271 228.511 34.8017V35.0077C228.511 35.4197 228.305 35.8831 227.738 36.398C227.172 36.9129 226.451 37.4794 225.575 37.9943C224.7 38.5092 223.773 38.9727 222.794 39.3331C221.816 39.6936 220.889 39.951 220.065 40.0025C218.829 40.1055 218.057 39.7965 217.748 39.0756C217.645 38.8697 217.336 37.9943 216.769 36.501L214.864 31.1458L212.598 24.6062C211.826 22.289 211.156 20.1778 210.59 18.2726C210.487 17.8091 210.384 17.4487 210.281 17.1397C210.178 16.8823 210.023 16.7278 209.817 16.7278C209.56 16.7278 209.199 17.0367 208.684 17.5517L199.312 27.2323L192.772 33.7204C191.021 35.3682 189.579 36.604 188.601 37.3249C187.571 38.0973 186.85 38.4577 186.386 38.5092C185.717 38.5092 185.305 38.0458 185.099 36.9644C184.893 35.8831 184.636 34.3383 184.378 32.2786C184.069 30.2189 183.812 28.0047 183.503 25.636C183.194 23.2159 182.936 20.7442 182.73 18.2211C182.473 15.6979 182.318 13.3293 182.112 11.2181C181.958 9.10686 181.855 7.4076 181.803 5.96581C181.803 4.5755 181.803 3.75162 181.906 3.54565C182.009 3.28819 182.318 3.03072 182.833 2.77326V2.82475Z" fill="white"/>
</svg>
