<svg width="80" height="80" viewBox="0 0 80 80" fill="none" xmlns="http://www.w3.org/2000/svg">
<path d="M40 0C17.8977 0 0 17.8977 0 40C0 62.1023 17.8977 80 40 80C62.1023 80 80 62.1023 80 40C80 17.8977 62.1023 0 40 0ZM44.1477 75.5114C44.5455 72.2727 45 66.25 44.2614 59.6591C51.7614 58.6932 58.3523 53.6932 62.6705 45.5682C67.6704 36.1364 68.0114 24.9432 63.4659 18.4091C63.0682 17.7841 62.3295 17.4432 61.5909 17.5C61.4204 17.5 42.8409 19.3182 38.6932 36.4773C38.4091 37.6136 39.0909 38.6932 40.2273 38.9773C41.3636 39.2614 42.4432 38.5795 42.7273 37.4432C45.625 25.4545 56.875 22.5 60.6818 21.8182C63.5795 27.2159 62.8977 36.0795 58.9773 43.5795C55.3409 50.4545 49.8295 54.7159 43.6932 55.5114C42.6136 49.6591 40.5114 43.6364 36.5341 38.8636C31.5341 32.8977 24.375 29.8864 15.2841 29.8864C14.6591 29.8864 14.0909 30.1705 13.6932 30.625C13.2955 31.0795 13.125 31.7045 13.2386 32.3295C13.2386 32.6136 17.7841 58.6364 40.0568 59.7727C40.7955 66.6477 40.2273 72.8977 39.8864 75.7386C20.1705 75.7386 4.14773 59.6591 4.14773 39.9432C4.14773 20.2273 20.2273 4.14772 39.9432 4.14772C59.6591 4.14772 75.7386 20.2273 75.7386 39.9432C75.7386 58.2954 61.875 73.4091 44.0909 75.5114H44.1477ZM39.4318 55.625C24.7159 54.3182 19.4886 40.1704 17.8977 34.2614C24.4318 34.7727 29.6023 37.2727 33.2955 41.6477C36.5909 45.5682 38.4091 50.5682 39.4318 55.625Z" fill="#020203"/>
</svg>
