<svg width="136" height="136" viewBox="0 0 136 136" fill="none" xmlns="http://www.w3.org/2000/svg">
<path d="M63.3225 136C62.3435 136 61.5821 135.24 61.3645 134.371L51.0306 92.2236C49.8341 87.4441 46.2444 83.4249 41.6757 81.4697L1.31913 65.5016C0.448904 65.1757 -0.0949857 64.3067 0.0137923 63.3291C0.12257 62.3514 0.775239 61.5911 1.64546 61.3738L43.8513 51.0543C48.6375 49.8594 52.6623 46.2748 54.6203 41.7125L70.6107 1.41214C70.937 0.543131 71.6984 0 72.5687 0C72.5687 0 72.5687 0 72.6775 0C73.6564 0 74.4179 0.760385 74.6355 1.62939L84.9694 43.7764C86.1659 48.5559 89.7556 52.5751 94.3243 54.5304L134.681 70.4984C135.551 70.8243 136.095 71.6933 135.986 72.6709C135.877 73.6486 135.225 74.409 134.355 74.6262L92.1487 84.9457C87.3625 86.1406 83.3377 89.7252 81.3797 94.2875L65.3893 134.588C65.063 135.457 64.3016 136 63.4313 136C63.4313 136 63.4313 136 63.3225 136Z" fill="white"/>
</svg>
