<svg width="63" height="63" viewBox="0 0 63 63" fill="none" xmlns="http://www.w3.org/2000/svg">
<path d="M29.3332 63C28.8797 63 28.527 62.6478 28.4262 62.2452L23.6392 42.7212C23.0849 40.5072 21.422 38.6454 19.3057 37.7396L0.611066 30.3427C0.207948 30.1917 -0.0440007 29.7891 0.00638906 29.3363C0.0567788 28.8834 0.359118 28.5312 0.762236 28.4305L20.3135 23.6502C22.5306 23.0966 24.395 21.4361 25.3021 19.3227L32.7094 0.654153C32.8605 0.251597 33.2133 0 33.6164 0C33.6164 0 33.6164 0 33.6668 0C34.1203 0 34.473 0.352237 34.5738 0.754793L39.3608 20.2788C39.9151 22.4928 41.578 24.3546 43.6943 25.2604L62.3889 32.6574C62.7921 32.8083 63.044 33.2109 62.9936 33.6637C62.9432 34.1166 62.6409 34.4689 62.2378 34.5695L42.6865 39.3498C40.4694 39.9034 38.605 41.5639 37.6979 43.6773L30.2906 62.3458C30.1395 62.7484 29.7867 63 29.3836 63C29.3836 63 29.3836 63 29.3332 63Z" fill="white"/>
</svg>
