<svg width="39" height="39" viewBox="0 0 39 39" fill="none" xmlns="http://www.w3.org/2000/svg">
<path d="M18.1587 39C17.8779 39 17.6596 38.782 17.5972 38.5327L14.6338 26.4465C14.2907 25.0759 13.2613 23.9233 11.9511 23.3626L0.378279 18.7835C0.12873 18.6901 -0.0272385 18.4409 0.00395513 18.1605C0.0351488 17.8802 0.222311 17.6621 0.47186 17.5998L12.575 14.6406C13.9475 14.2979 15.1017 13.27 15.6632 11.9617L20.2486 0.404952C20.3422 0.155751 20.5606 0 20.8101 0C20.8101 0 20.8101 0 20.8413 0C21.1221 0 21.3404 0.218051 21.4028 0.467253L24.3662 12.5535C24.7093 13.9241 25.7387 15.0767 27.0489 15.6374L38.6217 20.2165C38.8713 20.3099 39.0272 20.5591 38.996 20.8395C38.9648 21.1198 38.7777 21.3379 38.5281 21.4002L26.425 24.3594C25.0525 24.7021 23.8983 25.73 23.3368 27.0383L18.7513 38.595C18.6578 38.8442 18.4394 39 18.1899 39C18.1899 39 18.1899 39 18.1587 39Z" fill="white"/>
</svg>
