<svg width="55" height="55" viewBox="0 0 55 55" fill="none" xmlns="http://www.w3.org/2000/svg">
<path d="M25.6084 55C25.2125 55 24.9045 54.6925 24.8165 54.3411L20.6374 37.2963C20.1535 35.3634 18.7018 33.738 16.8542 32.9473L0.533471 26.4896C0.181542 26.3578 -0.0384133 26.0064 0.00557775 25.611C0.0495688 25.2157 0.313516 24.9081 0.665444 24.8203L17.734 20.647C19.6696 20.1637 21.2973 18.7141 22.0891 16.869L28.5558 0.571086C28.6878 0.219649 28.9957 0 29.3476 0C29.3476 0 29.3476 0 29.3916 0C29.7875 0 30.0955 0.307508 30.1835 0.658946L34.3626 17.7037C34.8465 19.6366 36.2982 21.262 38.1458 22.0527L54.4665 28.5104C54.8185 28.6422 55.0384 28.9936 54.9944 29.389C54.9504 29.7843 54.6865 30.0919 54.3346 30.1797L37.266 34.353C35.3304 34.8363 33.7027 36.2859 32.9109 38.131L26.4442 54.4289C26.3122 54.7804 26.0043 55 25.6524 55C25.6524 55 25.6524 55 25.6084 55Z" fill="white"/>
</svg>
