<svg width="64" height="64" viewBox="0 0 64 64" fill="none" xmlns="http://www.w3.org/2000/svg">
<path d="M29.3432 63.0214C28.8896 63.0214 28.5367 62.6691 28.4359 62.2664L23.6472 42.7358C23.0928 40.521 21.4293 38.6585 19.3122 37.7525L0.611274 30.353C0.208019 30.202 -0.0440157 29.7993 0.00639123 29.3462C0.0567981 28.8932 0.35924 28.5409 0.762495 28.4402L20.3204 23.6582C22.5383 23.1045 24.4033 21.4434 25.3107 19.3293L32.7205 0.654376C32.8717 0.251683 33.2246 0 33.6278 0C33.6278 0 33.6278 0 33.6782 0C34.1319 0 34.4847 0.352357 34.5855 0.75505L39.3742 20.2857C39.9287 22.5005 41.5921 24.3629 43.7092 25.269L62.4102 32.6685C62.8134 32.8195 63.0654 33.2222 63.015 33.6752C62.9646 34.1282 62.6622 34.4806 62.2589 34.5813L42.701 39.3632C40.4831 39.9169 38.6181 41.578 37.7108 43.6922L30.3009 62.3671C30.1497 62.7697 29.7969 63.0214 29.3936 63.0214C29.3936 63.0214 29.3936 63.0214 29.3432 63.0214Z" fill="white"/>
</svg>
