<svg width="63" height="73" viewBox="0 0 63 73" fill="none" xmlns="http://www.w3.org/2000/svg">
<g clip-path="url(#clip0_1954_2131)">
<path d="M21.1347 70.5896C20.489 70.5466 19.9295 70.1161 19.6712 69.5135L1.8947 25.9115C1.72253 25.4381 1.72253 24.9216 1.93775 24.4911C2.15296 24.0607 2.58338 23.7164 3.05685 23.5872L12.0958 21.1338C12.0958 21.1338 12.3971 21.0908 12.5692 21.0908C13.2149 21.0908 13.8175 21.4351 14.1188 22.0808L25.1376 44.1615L40.5899 2.88383C40.762 2.41036 41.1064 2.06602 41.5798 1.85081C41.7951 1.76472 42.0103 1.72168 42.2255 1.72168C42.4837 1.72168 42.742 1.76472 43.0002 1.89385L60.1311 10.3302C60.5616 10.5454 60.8629 10.9328 61.035 11.3632C61.1642 11.8367 61.1211 12.3101 60.9059 12.7405L29.6571 70.2883C29.3558 70.8479 28.7532 71.1922 28.1076 71.1922C28.0645 71.1922 21.1347 70.5466 21.1347 70.5466V70.5896Z" fill="#020203"/>
<path d="M42.225 3.48644L59.3559 11.9228L28.1071 69.4705L21.3064 68.8249L3.48682 25.2229L12.5257 22.7695L25.3524 48.4228L42.225 3.48644ZM42.225 0C41.7946 0 41.3642 0.0860849 40.9338 0.258255C40.0299 0.602594 39.2981 1.37736 38.9538 2.28125L24.922 39.6851L15.7109 21.2199C15.1083 20.0147 13.86 19.283 12.5688 19.283C12.2675 19.283 11.9662 19.283 11.6649 19.4121L2.62597 21.8656C1.67903 22.1238 0.861228 22.8125 0.387762 23.7164C-0.042663 24.6203 -0.0857055 25.6533 0.301677 26.6002L18.1213 70.2022C18.5947 71.4074 19.7138 72.2252 21.0481 72.3544L27.8488 73C27.8488 73 28.0641 73 28.1932 73C29.4845 73 30.6466 72.3113 31.2922 71.1492L62.455 13.6445C62.9284 12.8267 63.0145 11.8367 62.7132 10.8897C62.4119 9.94281 61.7663 9.21109 60.9054 8.8237L43.7746 0.34434C43.3011 0.0860849 42.7415 0 42.225 0Z" fill="#020203"/>
<path d="M12.0084 20.2729L2.53906 24.7923L20.703 61.8949L27.1593 62.5406L56.1269 11.0618L42.2242 3.48633L24.2755 43.4728L12.0084 20.2729Z" fill="#F7A4BC"/>
</g>
<defs>
<clipPath id="clip0_1954_2131">
<rect width="62.885" height="73" fill="white"/>
</clipPath>
</defs>
</svg>
