<svg width="178" height="166" viewBox="0 0 178 166" fill="none" xmlns="http://www.w3.org/2000/svg">
<path d="M177.765 35.3063C177.714 38.384 176.338 40.5327 174.309 42.2817C169.446 46.4805 163.622 48.1569 157.342 48.3905C154.701 48.4891 153.777 47.5133 154.353 45.1415C156.029 38.2075 159.527 32.5192 166.285 29.4466C169.866 27.817 173.432 28.4761 175.897 30.931C177.184 32.213 177.931 33.7129 177.771 35.3063H177.765Z" fill="black"/>
<path d="M143.88 0.00290695C146.252 -0.0593741 147.534 0.880031 148.177 2.73289C149.719 7.16522 145.722 13.1131 141.062 13.3622C138.814 13.4816 137.507 12.511 137.019 10.2793C135.955 5.4006 139.707 0.0444276 143.88 0.00290695Z" fill="black"/>
<path d="M53.2558 10.4969C53.3596 11.7062 53.0482 13.1127 52.1607 14.3687C51.3199 15.5624 50.2144 15.9932 48.7767 15.6299C44.8738 14.6489 41.7546 9.61976 42.6524 5.71162C43.4932 2.04742 47.474 0.72914 50.2663 3.2619C52.28 5.08881 53.2662 7.44511 53.2506 10.4969H53.2558Z" fill="black"/>
<path d="M9.36294 90.6938C9.29546 92.9359 7.39589 94.7213 5.11226 94.6798C2.39265 94.633 -0.0103467 92.5155 3.35055e-05 90.1748C0.0104137 87.5901 2.08126 85.6386 4.70225 85.7528C7.30767 85.867 9.44598 88.1299 9.36813 90.6938H9.36294Z" fill="black"/>
<path d="M173.801 83.7816C173.733 85.9458 171.491 87.97 169.285 87.861C166.737 87.7364 164.967 86.2261 165.081 84.2798C165.227 81.799 167.417 79.9305 170.012 80.0655C172.29 80.1848 173.863 81.7315 173.801 83.7816Z" fill="black"/>
<path d="M171.983 115.544C170.623 111.429 167.426 109.706 163.367 109.145C159.21 108.569 157.518 106.81 156.833 102.689C156.574 101.121 156.719 99.585 156.807 98.0383C157.16 91.8154 157.357 85.5873 156.19 79.4215C150.683 50.2999 128.506 28.3666 99.3167 23.1194C93.9968 22.1645 93.4986 21.6091 93.2079 16.2997C92.9536 11.5767 89.8396 7.82944 85.3709 6.86928C78.1307 5.31744 72.1102 10.4971 72.4632 17.9709C72.65 21.9776 71.7418 23.4049 68.0308 24.8685C67.3094 25.1539 66.5672 25.3823 65.8251 25.6159C57.1524 28.2939 49.606 32.8353 43.2741 39.3488C41.4213 41.2536 39.2155 42.2189 36.5634 42.1826C33.5894 42.1463 31.3888 40.7657 29.4114 38.5911C26.0586 34.9113 20.5364 34.1795 16.3532 36.6033C12.3983 38.8973 10.3949 43.8227 11.7392 48.2394C12.9744 52.2929 16.021 54.5246 19.7578 56.1388C24.1071 58.0176 25.6123 61.4742 24.0033 65.8338C22.2647 70.5516 20.9049 75.368 20.225 80.3401C18.2891 94.5558 18.9274 108.444 25.7109 121.513C28.5135 126.906 27.6675 129.506 22.1505 132.314C19.6333 133.596 17.4119 135.179 15.8809 137.582C12.1751 143.394 15.2165 150.993 21.9429 152.477C26.8579 153.562 30.6674 151.735 33.6154 147.676C37.0356 142.958 40.7102 142.616 45.3138 146.213C47.7584 148.128 50.2548 150.017 52.8861 151.652C61.7301 157.148 71.2227 160.854 81.7378 161.492C85.7031 162.006 89.6631 162.027 93.6283 161.492C94.5729 161.43 95.5175 161.414 96.4569 161.3C102.327 160.574 107.891 158.773 113.377 156.629C117.892 154.865 120.477 155.866 122.999 159.925C123.679 161.015 124.452 162.089 125.371 162.982C128.36 165.899 132.995 166.579 136.665 164.762C140.469 162.878 142.394 159.338 141.99 154.968C141.756 152.42 140.344 150.505 138.709 148.657C135.829 145.393 135.813 142.642 138.761 139.492C141.901 136.139 144.782 132.609 147.289 128.748C149.199 125.81 151.306 125.151 154.659 126.21C156.465 126.781 158.198 127.627 160.025 128.089C163.736 129.028 167.089 128.255 169.736 125.364C172.32 122.541 173.218 119.224 171.993 115.524L171.983 115.544Z" fill="black"/>
<path d="M111.535 87.6416C117.628 86.2766 123.711 84.6833 129.716 82.7993C131.117 82.3581 131.839 82.8875 131.995 84.3511C133.074 94.5496 128.668 103.767 119.066 106.892C109.672 109.943 99.3281 105.376 94.901 96.2675C91.7973 89.8785 92.0516 89.5049 98.9544 89.3388C100.543 89.3024 100.947 89.8111 101.212 91.2902C102.032 95.8731 106.381 98.1619 110.653 96.4025C112.802 95.515 114.146 93.9735 114.545 91.6172C115.064 88.5395 114.644 87.9478 111.54 87.6468L111.535 87.6416Z" fill="white"/>
<path d="M67.9745 88.6698C66.1112 88.5401 64.2532 88.3273 62.39 88.2962C59.5769 88.2494 58.3832 90.066 59.3434 92.7752C60.4073 95.7699 64.248 97.4982 67.7825 96.5743C71.2858 95.6557 72.9206 92.8375 72.1318 88.8878C72.9725 88.9086 74.2389 88.9345 75.7804 88.9397C80.2698 88.9605 82.0708 88.7996 82.6469 89.8065C82.979 90.3878 82.7091 91.0884 82.6313 91.4517C80.7577 100.394 72.2148 106.871 62.6391 106.617C53.9042 106.389 46.8405 99.7922 45.517 90.5019C45.2523 88.6335 45.3042 86.7132 45.2835 84.8136C45.2731 83.8846 45.5793 82.9037 46.7678 83.267C53.7485 85.4053 60.8329 87.1128 67.9797 88.6595L67.9745 88.6698Z" fill="white"/>
<path d="M88.6983 116.282C95.3053 116.485 101.398 119.069 104.668 122.983C105.099 123.496 106.417 125.074 105.997 125.692C105.467 126.47 102.551 125.168 100.059 124.306C99.6286 124.161 90.546 121.119 81.837 122.458C75.4169 123.445 71.4828 126.46 70.7666 125.401C70.232 124.612 72.0589 122.407 73.2422 121.239C78.5828 115.966 86.4977 116.21 88.7035 116.277L88.6983 116.282Z" fill="white"/>
<path d="M164.391 40.5625C163.379 40.5002 163.01 39.7995 163.317 38.6577C163.716 37.1578 167.754 33.8206 169.353 33.7064C170.915 33.5922 171.029 34.5679 170.733 35.7305C170.359 37.1837 166.109 40.521 164.396 40.5625H164.391Z" fill="white"/>
</svg>
