<svg width="146" height="147" viewBox="0 0 146 147" fill="none" xmlns="http://www.w3.org/2000/svg">
<g clip-path="url(#clip0_2173_2479)">
<path d="M87.3638 138.532C87.7288 141.393 86.862 144.114 84.0502 145.909C81.6822 147.419 79.1981 147.29 76.7844 145.951C74.5284 144.698 73.5455 142.691 73.4294 140.153C73.222 135.45 71.5134 133.543 66.8893 132.987C56.8408 131.776 47.547 128.757 39.5388 122.275C36.6649 119.948 33.5047 120.612 30.8132 123.676C27.8522 127.052 23.8502 127.824 19.9975 125.758C14.4112 122.764 13.9219 115.162 19.0768 111.505C19.5247 111.185 20.0057 110.907 20.4619 110.596C24.5676 107.801 25.1399 105.591 22.9917 101.17C20.296 95.6169 18.1229 89.9104 17.9819 83.6233C17.9695 83.08 17.7912 82.5409 17.675 82.0018C16.6631 77.2533 15.2241 75.8266 10.5046 75.1133C7.17446 74.6074 5.16724 72.6665 4.3378 69.5147C3.0273 64.5339 6.40723 59.9762 11.5663 59.661C12.7441 59.5905 13.897 59.7398 15.0623 59.9638C18.6165 60.6522 21.0384 59.3044 22.5314 55.9867C27.6282 44.6649 35.7898 36.2794 46.8752 30.7388C49.2183 29.5651 51.6941 28.715 54.2695 28.1468C59.0056 27.0976 60.2331 25.024 58.877 20.429C57.8195 16.8458 58.4913 13.6815 61.3404 11.2223C64.0527 8.88329 67.2252 8.49761 70.431 10.0445C73.7902 11.6619 75.4159 14.4819 75.3163 18.2434C75.2997 18.8655 75.2583 19.4876 75.2583 20.1096C75.2583 23.1993 76.6268 24.9701 79.7165 25.2811C85.0331 25.8203 90.1963 26.8612 95.1231 28.9928C99.9753 31.0954 104.4 33.8492 108.319 37.4074C112.28 40.9988 115.266 40.5924 118.065 36.1052C119.782 33.3515 123.241 31.8544 126.268 32.5469C129.851 33.3681 132.369 36.1591 132.742 39.7298C133.09 43.0641 131.091 46.7178 128.122 48.0905C127.5 48.3808 126.832 48.5715 126.181 48.7872C122.187 50.1226 120.869 53.0546 122.681 56.8949C124.925 61.6558 126.704 66.5495 127.616 71.75C129.424 82.0806 128.317 92.0835 124.365 101.784C124.103 102.422 123.821 103.049 123.564 103.687C121.852 107.917 123.096 111.165 127.293 112.964C130.382 114.287 132.51 116.311 132.883 119.766C133.24 123.046 131.913 125.634 129.101 127.251C126.198 128.918 123.262 128.516 120.508 126.691C119.401 125.957 118.596 124.904 117.721 123.925C114.913 120.79 112.172 120.512 108.858 123.063C103.77 126.978 98.2003 129.885 91.9423 131.461C87.9361 132.468 87.0279 133.903 87.3596 138.54L87.3638 138.532Z" fill="#020203"/>
<path d="M16.3607 47.3072C11.0689 46.5898 6.23335 44.8024 2.41382 40.9082C-0.0744718 38.3701 -0.534806 35.3012 0.958169 32.8254C2.51335 30.25 5.80204 29.1344 9.14465 30.0302C12.8771 31.0297 15.4815 33.5097 17.6753 36.5246C19.3052 38.7641 20.5244 41.2026 21.4161 43.8361C21.8971 45.2586 21.499 45.9967 20.2093 46.5483C18.9776 47.075 17.7251 47.3404 16.3648 47.3114L16.3607 47.3072Z" fill="#020203"/>
<path d="M109.788 5.76931C109.784 7.17935 109.456 8.51058 108.817 9.75473C106.827 13.6323 104.011 16.7717 100.407 19.2351C99.4322 19.8987 98.9512 19.8572 98.354 18.7789C95.8159 14.1756 97.0808 5.49975 100.929 1.98711C102.63 0.431928 104.595 -0.650479 106.934 0.456811C109.116 1.48945 109.788 3.49253 109.788 5.77346V5.76931Z" fill="#020203"/>
<path d="M11.2841 92.5941C11.1679 96.8159 5.46145 99.9345 1.9737 97.8029C-0.373593 96.368 -0.705365 93.4774 1.38895 91.6983C3.42935 89.9689 5.88446 89.2846 8.53449 89.633C10.2473 89.8569 11.2301 90.9228 11.2841 92.5941Z" fill="#020203"/>
<path d="M141.045 72.8656C143.993 72.8822 146.067 74.595 146.001 76.9547C145.942 79.1029 143.786 80.8281 141.202 80.7908C138.316 80.7493 136.13 79.0034 136.151 76.7432C136.172 74.4374 138.179 72.8449 141.041 72.8615L141.045 72.8656Z" fill="#020203"/>
<path d="M35.4996 15.1037C35.4664 17.4136 33.9195 19.1015 31.904 19.031C29.7848 18.9564 27.1514 15.875 27.1804 13.5153C27.2011 11.6408 28.7563 10.0151 30.5438 9.99439C33.0611 9.96536 35.5369 12.52 35.4996 15.1078V15.1037Z" fill="#020203"/>
<path d="M48.8244 135.559C50.4293 135.579 51.6984 137.068 51.7025 138.943C51.7108 141.091 50.1722 143.032 48.4636 143.028C46.5766 143.028 44.9758 141.493 44.9717 139.698C44.9717 137.732 47.0121 135.538 48.8244 135.559Z" fill="#020203"/>
<path d="M76.4857 75.4121C76.4194 81.919 72.7409 87.2522 67.0551 89.0728C60.9629 91.0261 53.9625 88.9401 50.2923 83.6856C45.8092 77.2741 45.5231 70.3857 48.8159 63.3314C49.3385 62.2158 49.832 61.6311 51.4203 62.4066C59.134 66.1764 66.7773 70.1659 75.1047 72.4966C76.9046 73.0026 76.4111 74.2592 76.4857 75.4038V75.4121Z" fill="white"/>
<path d="M91.7518 73.0529C91.0468 77.0341 92.6974 79.7712 96.1603 80.5634C99.1006 81.2352 102.037 79.4519 102.858 76.495C103.762 73.2395 101.846 70.5189 97.5993 69.1794C101.253 66.6414 104.844 64.1531 108.423 61.6482C108.88 61.3289 109.22 61.1754 109.593 61.7477C113.508 67.7279 114.134 76.889 108.195 81.7619C102.398 86.5228 92.3158 83.8603 90.3501 77.0466C89.9064 75.5163 89.4751 73.8533 91.7518 73.0487V73.0529Z" fill="white"/>
<path d="M90.1052 94.1312C94.2192 94.2971 98.2461 96.0804 101.398 99.734C102.36 100.85 102.816 102.106 101.572 103.184C100.324 104.271 99.2912 103.628 98.2627 102.471C94.0326 97.7143 87.7206 97.0632 82.2049 100.742C78.7462 103.048 76.1833 106.158 74.2465 109.812C73.6825 110.877 72.9236 111.682 71.6214 111.135C70.2736 110.571 70.1989 109.472 70.5846 108.194C72.7038 101.202 82.1966 94.098 90.1052 94.127V94.1312Z" fill="white"/>
<path d="M8.2446 31.9495C10.7287 32.3269 13.0346 33.9235 14.7059 36.474C14.8759 36.7353 15.0045 37.2122 14.88 37.432C14.6478 37.8426 14.1418 37.7057 13.752 37.5896C11.3757 36.8804 8.9745 36.2376 6.75162 35.1013C5.93878 34.6866 5.40795 34.0687 5.73142 33.1024C6.03002 32.1983 6.74333 31.8375 8.25289 31.9495H8.2446Z" fill="white"/>
<path d="M105.532 7.73097C105.831 6.66101 105.723 5.2883 107.059 5.09338C107.78 4.9897 107.689 5.99332 107.652 6.57392C107.585 7.58997 107.556 8.80923 106.341 9.05392C105.487 9.22395 105.773 8.19545 105.528 7.73097H105.532Z" fill="#020203"/>
<path d="M67.6648 84.6685C63.754 84.6105 60.6478 81.4711 60.7557 77.6847C60.8593 73.9979 63.8743 71.1447 67.6358 71.182C71.5922 71.2193 74.4993 74.0767 74.4786 77.9087C74.4578 81.778 71.4843 84.7266 67.6648 84.6727V84.6685Z" fill="#020203"/>
</g>
<defs>
<clipPath id="clip0_2173_2479">
<rect width="146.005" height="147" fill="white"/>
</clipPath>
</defs>
</svg>
