<svg width="264" height="151" viewBox="0 0 264 151" fill="none" xmlns="http://www.w3.org/2000/svg">
<path d="M249.586 71.513C249.586 59.6317 239.955 50 228.073 50H225V71.513H249.586Z" fill="#020203"/>
<path d="M249.586 71.513H225V128.331H249.586V71.513Z" fill="#020203"/>
<path d="M225 128.331V148H230.129C235.112 148 239.666 146.177 243.151 143.167C246.208 144.564 259.728 144.312 262.801 141.853C261.466 141.472 252.66 138.78 251.123 135.092C249.586 131.404 249.586 128.331 249.586 128.331H225Z" fill="#020203"/>
<rect width="199" height="98" transform="matrix(-1 0 0 1 225 50)" fill="#020203"/>
<path d="M1.4137 71.513C1.4137 59.6317 11.0454 50 22.9267 50H26V71.513H1.4137Z" fill="#020203"/>
<rect x="1.4137" y="71.513" width="24.5863" height="56.818" fill="#020203"/>
<path d="M1.4137 128.331C1.4137 139.194 10.2198 148 21.0827 148H26V128.331H1.4137Z" fill="#020203"/>
<path d="M1 40.2009C1 28.3196 10.6317 18.6879 22.513 18.6879H25.5863V40.2009H1Z" fill="white" stroke="white" stroke-width="0.614657"/>
<rect x="1" y="40.2009" width="24.5863" height="85.4043" fill="white" stroke="white" stroke-width="0.614657"/>
<path d="M1 125.605C1 136.468 9.80613 145.274 20.669 145.274H25.5863V125.605H1Z" fill="white" stroke="white" stroke-width="0.614657"/>
<rect x="25.5863" y="18.6879" width="200" height="126.586" fill="white"/>
<rect x="25.5863" y="18.6879" width="200" height="126.586" stroke="white" stroke-width="0.614657"/>
<path d="M250.173 40.2009C250.173 28.3196 240.541 18.6879 228.66 18.6879H225.586V40.2009H250.173Z" fill="white" stroke="white" stroke-width="0.614657"/>
<path d="M250.173 40.2009H225.586V125.605H250.173V40.2009Z" fill="white" stroke="white" stroke-width="0.614657"/>
<path d="M225.586 125.605V145.274H230.715C235.699 145.274 240.253 143.451 243.737 140.441C246.794 141.838 256.77 142.771 262.466 140.979C261.13 140.598 253.246 136.054 251.709 132.366C250.173 128.678 250.173 125.605 250.173 125.605H225.586Z" fill="white" stroke="white" stroke-width="0.614657"/>
</svg>
