<svg width="263" height="94" viewBox="0 0 263 94" fill="none" xmlns="http://www.w3.org/2000/svg">
<path d="M14.4137 43.2009C14.4137 31.3196 24.0454 21.6879 35.9267 21.6879H39V43.2009H14.4137Z" fill="#020203"/>
<path d="M14.4137 43.2009H39V75.6879H14.4137V43.2009Z" fill="#020203"/>
<path d="M39 75.6879V93.6879H33.8445C28.8346 93.6879 24.2566 92.0193 20.7541 89.2648C17.6806 90.5434 4.08943 90.3129 1 88.0629C2.34253 87.7139 11.1951 85.2504 12.7398 81.8754C14.2846 78.5004 14.2846 75.6879 14.2846 75.6879H39Z" fill="#020203"/>
<rect x="39" y="21.6879" width="198" height="72" fill="#020203"/>
<path d="M261.586 43.2009C261.586 31.3196 251.955 21.6879 240.073 21.6879H237V43.2009H261.586Z" fill="#020203"/>
<rect width="24.5863" height="30.818" transform="matrix(-1 0 0 1 261.586 43.2009)" fill="#020203"/>
<path d="M261.586 74.0189C261.586 84.8818 252.78 93.6879 241.917 93.6879H237V74.0189H261.586Z" fill="#020203"/>
<path d="M14.2932 40.2009C14.2932 28.3196 23.9249 18.6879 35.8062 18.6879H38.8794V40.2009H14.2932Z" fill="white" stroke="white" stroke-width="0.614657"/>
<path d="M14.2932 40.2009H38.8794V72.0189H14.2932V40.2009Z" fill="white" stroke="white" stroke-width="0.614657"/>
<path d="M38.8794 72.0189V91.688H33.7509C28.7672 91.6879 24.2131 89.8646 20.7289 86.8547C17.6714 88.2518 7.69543 89.185 2 87.3932C3.33552 87.0118 11.2199 82.4681 12.7565 78.7801C14.2931 75.0922 14.2931 72.0189 14.2931 72.0189H38.8794Z" fill="white" stroke="white" stroke-width="0.614657"/>
<rect x="38.8794" y="18.6879" width="198.369" height="73" fill="white"/>
<rect x="38.8794" y="18.6879" width="198.369" height="73" stroke="white" stroke-width="0.614657"/>
<path d="M261.835 40.2009C261.835 28.3196 252.203 18.6879 240.322 18.6879H237.249V40.2009H261.835Z" fill="white" stroke="white" stroke-width="0.614657"/>
<rect width="24.5863" height="31.818" transform="matrix(-1 0 0 1 261.835 40.2009)" fill="white" stroke="white" stroke-width="0.614657"/>
<path d="M261.835 72.0189C261.835 82.8818 253.029 91.6879 242.166 91.6879H237.249V72.0189H261.835Z" fill="white" stroke="white" stroke-width="0.614657"/>
</svg>
