<svg width="559" height="606" viewBox="0 0 559 606" fill="none" xmlns="http://www.w3.org/2000/svg">
<path d="M190.229 135.566C190.229 135.566 190.026 135.791 189.914 135.863C189.975 135.76 190.117 135.637 190.229 135.566Z" stroke="#221E1F" stroke-width="1.02989" stroke-miterlimit="10"/>
<path d="M188.087 137.892C188.087 137.892 188.087 137.892 188.058 137.941C188.058 137.941 188.058 137.941 188.087 137.892Z" stroke="#221E1F" stroke-width="1.02989" stroke-miterlimit="10"/>
<path d="M188.087 137.897C188.656 137.057 189.236 136.432 189.888 135.918C189.949 135.816 190.091 135.693 190.204 135.621C196.071 131.002 203.63 139.034 208.214 149.386C209.11 151.375 209.894 153.436 210.495 155.456C211.187 157.67 211.614 159.865 211.908 162.05C211.93 162.479 212.085 162.918 212.107 163.347L216.844 157.016C216.234 152.217 225.479 132.834 240.237 120.959C249.862 113.169 252.748 103.31 253.553 97.4129C274.785 123.006 309.864 136.044 332.532 130.331C332.974 136.694 333.172 143.119 333.022 149.545C333.014 150.025 333.057 150.536 333.048 151.016C333.038 151.149 333.08 151.312 333.07 151.445C333.071 151.792 333.022 152.109 333.023 152.457C332.974 153.121 332.926 153.785 332.907 154.398C325.204 148.706 311.598 140.819 289.828 135.353C289.929 135.066 289.734 134.811 289.447 134.71C287.514 134.115 285.602 133.601 283.669 133.005C279.537 131.795 275.314 130.738 271.081 129.814C268.822 129.301 266.613 128.819 264.344 128.439C259.151 127.498 253.826 126.895 248.483 126.905C245.327 126.967 242.151 127.296 239.008 128.268C238.845 128.309 238.733 128.381 238.569 128.423C237.12 128.878 235.501 130.201 234.872 131.491C234.081 132.822 233.207 134.174 232.466 135.535C229.422 141.002 226.961 146.885 225.728 153.152C224.525 159.368 224.652 166.028 227.096 172.057C227.653 173.566 228.404 174.984 229.237 176.38L230.583 178.428C231.168 179.193 231.926 179.782 232.776 180.218C233.625 180.654 234.545 180.855 235.506 180.872L237.835 180.802C239.387 180.756 240.879 180.811 242.401 180.816C249.359 181.005 256.267 181.51 263.216 182.179C265.842 182.425 268.387 182.691 270.983 182.988C273.436 183.408 275.859 183.879 278.303 184.432C278.906 184.583 279.436 184.274 279.843 183.823C279.996 183.567 280.271 183.454 280.321 183.137C280.321 183.137 280.3 183.055 280.279 182.974C281.002 182.225 281.827 181.538 282.703 180.881C283.803 180.08 285.006 179.34 286.22 178.814C287.046 178.474 287.923 178.164 288.791 177.987C291.801 177.006 294.384 179.305 294.804 182.327C295.306 185.329 293.488 188.267 290.633 189.688C287.747 191.159 284.173 191.459 280.709 191.339C280.229 191.33 279.832 191.649 279.823 192.129C279.763 192.578 280.163 192.955 280.531 193.035C284.129 193.512 288.052 193.559 291.724 191.931C293.264 191.323 294.608 190.112 295.645 188.719C296.013 188.799 296.432 188.91 297.036 189.061C297.925 189.313 298.999 189.606 300.308 189.968C301.433 190.291 302.712 190.705 304.041 191.15C309.8 193.121 317.208 196.28 323.109 200.692C322.795 201.337 322.532 202.012 322.217 202.657C322.004 203.015 321.893 203.434 321.68 203.793C321.467 204.151 321.254 204.509 321.04 204.868C320.077 206.72 319.062 208.543 317.945 210.304C313.832 216.868 308.398 222.507 301.967 226.791C296.91 229.465 290.648 232.186 287.362 233.281C284.648 234.231 281.831 234.773 279.023 235.181C278.319 235.317 277.624 235.319 276.899 235.373C275.878 235.459 274.795 235.647 273.723 235.702C265.377 235.866 257.032 233.465 249.642 229.692C241.791 225.645 234.731 219.92 228.73 213.231C226.309 210.543 224.031 207.732 221.977 204.777C221.422 203.961 220.837 203.197 220.333 202.413C219.255 200.731 218.176 199.049 217.209 197.296C211.975 188.152 208.533 177.509 208.402 166.896C208.372 164.383 208.455 161.798 208.854 159.263C208.983 158.23 207.419 158.062 207.239 159.064C207.059 160.066 206.96 161.047 206.81 161.998C206.633 163.694 206.455 165.391 206.462 167.128C206.463 167.475 206.413 167.792 206.445 168.088C201.745 170.629 194.538 172.024 188.329 164.518C184.573 159.997 183.641 153.758 184.376 148.096C184.697 146.623 185.06 145.315 185.464 144.169C186.293 141.612 187.173 139.433 188.189 137.958C188.189 137.958 188.189 137.958 188.22 137.906L188.087 137.897ZM254.938 123.744C258.098 121.812 272.205 121.402 272.205 121.402C259.252 110.785 251.748 125.728 254.938 123.744ZM314.468 138.091C318.178 138.496 329.539 146.779 329.539 146.779C325.79 130.479 310.759 137.686 314.468 138.091ZM291.232 216.175C291.965 215.641 292.678 215.026 293.442 214.441C293.473 214.389 293.503 214.338 293.585 214.317C294.298 213.702 294.959 213.056 295.651 212.359C295.712 212.256 295.824 212.184 295.967 212.061C296.628 211.415 297.269 210.687 297.859 209.929C297.981 209.724 298.123 209.601 298.296 209.427C298.886 208.669 299.476 207.911 300.096 207.101C300.248 206.845 300.421 206.671 300.625 206.445C301.163 205.657 301.763 204.766 302.332 203.926C302.514 203.619 302.667 203.363 302.849 203.056C303.337 202.237 303.855 201.366 304.342 200.547C304.617 200.434 304.832 200.423 305.056 200.279C305.443 200.094 305.585 199.623 305.451 199.266C305.317 198.909 304.928 198.747 304.519 198.851L304.468 198.82C302.581 199.43 300.61 199.713 298.67 199.945L288.904 200.165C284.94 199.955 280.995 199.48 277.069 198.738C272.51 197.897 267.918 196.76 263.378 195.653C261.098 195.059 258.899 194.444 256.68 193.747C254.593 193.06 252.067 192.181 250.643 191.195L250.285 190.982C249.957 190.718 249.446 190.76 249.151 191.139C248.938 191.498 248.981 192.008 249.309 192.273C251.174 193.798 253.078 194.792 255.042 195.684C255.004 196.215 254.965 196.747 254.956 197.227C254.946 197.36 254.937 197.493 254.948 197.707C254.992 198.565 255.036 199.423 255.182 200.342C255.224 200.505 255.214 200.638 255.256 200.801C255.569 202.721 256.23 204.639 257.106 206.546C257.106 206.546 257.126 206.628 257.177 206.658C257.641 207.627 258.135 208.545 258.761 209.472C258.761 209.472 258.812 209.502 258.833 209.584C261.967 214.568 266.897 218.748 272.685 220.32L272.787 220.381C273.575 220.573 274.362 220.764 275.21 220.852C275.21 220.852 275.261 220.883 275.313 220.913C277.06 221.121 278.848 221.145 280.686 220.853C280.686 220.853 280.768 220.832 280.849 220.811C281.686 220.685 282.554 220.508 283.401 220.25C283.513 220.178 283.646 220.188 283.758 220.116C286.166 219.33 288.603 218.147 291.14 216.329L291.232 216.175ZM201.706 151.821C200.914 150.588 199.848 149.468 198.598 148.656C197.421 147.955 195.794 147.195 194.385 147.466C193.762 147.581 193.571 148.368 194.022 148.775C194.473 149.182 194.995 149.354 195.446 149.761C195.927 150.116 196.378 150.523 196.86 150.879C197.413 151.347 197.69 151.581 198.11 152.039C198.531 152.497 198.952 152.955 199.342 153.465C199.947 154.31 200.513 155.34 200.813 156.35C201.104 157.493 201.098 158.668 200.775 159.793C200.33 161.123 202.172 161.872 202.801 160.583C204.077 157.738 203.513 154.491 201.808 151.882L201.706 151.821Z" fill="#FBC3AE"/>
<path d="M268.139 212.346C283.58 216.334 286.97 215.994 286.925 217.7C286.866 218.15 286.786 218.518 286.623 218.907C285.685 219.319 284.777 219.68 283.9 219.99C283.788 220.062 283.655 220.052 283.543 220.124C282.696 220.383 281.828 220.559 280.991 220.685C280.991 220.685 280.909 220.706 280.828 220.727C278.99 221.02 277.202 220.996 275.454 220.787C275.454 220.787 275.403 220.757 275.352 220.727C274.534 220.587 273.716 220.447 272.929 220.255L272.827 220.195C270.311 219.53 267.967 218.343 265.888 216.829C258.515 209.531 263.026 211.037 268.241 212.407L268.139 212.346Z" fill="#ED1B23"/>
<path d="M230.624 382.928C233.858 384.714 242.314 389.26 253.07 394.481C254.206 395.018 255.342 395.555 256.529 396.123C256.631 396.184 256.683 396.214 256.785 396.275C253.387 408.394 249.392 421.75 245.214 435.762C244.932 436.703 244.68 437.592 244.397 438.533C244.417 438.268 244.385 437.971 244.353 437.675C244.26 434.57 244.012 431.026 243.336 427.851C242.265 422.778 240.319 418.709 236.48 419.336C230.15 420.422 217.686 436.712 210.115 447.457C209.811 447.969 209.373 448.471 209.099 448.932C208.795 449.443 208.469 449.874 208.144 450.304C207.128 451.779 206.203 453.1 205.512 454.145C205.482 454.196 205.451 454.247 205.421 454.298C205.421 454.298 205.39 454.35 205.36 454.401C205.36 454.401 205.39 454.35 205.37 454.268C205.301 452.286 205.151 450.325 205.082 448.344C205.049 447.7 205.016 447.057 205.013 446.362C205.011 445.667 204.957 444.942 204.924 444.299C204.321 430.632 203.72 417.313 203.145 405.465C203.145 405.465 203.257 405.393 203.308 405.423C214.045 399.959 223.28 391.66 230.696 383.04L230.624 382.928Z" fill="#294190"/>
<path d="M283.757 341.624C283.757 341.624 283.287 341.483 283.052 341.412C283.266 341.401 283.562 341.369 283.806 341.307C283.746 341.409 283.817 341.521 283.787 341.572L283.757 341.624Z" fill="#294190"/>
<path d="M197.203 208.545C208.838 205.764 218.727 205.686 218.727 205.686C218.727 205.686 218.727 205.686 218.778 205.717C218.778 205.717 218.881 205.778 218.85 205.829C221.018 209.059 223.358 212.115 225.953 214.976C237.064 227.408 252.056 237.16 269.038 237.975C269.886 238.064 270.744 238.02 271.623 238.058C273.359 238.051 275.106 237.912 276.801 237.742C277.475 237.658 278.169 237.655 278.843 237.571C279.384 237.477 279.874 237.353 280.415 237.259C280.529 237.534 280.642 237.81 280.786 238.034C281.085 238.697 281.384 239.36 281.652 240.074C282.291 241.563 282.93 243.052 283.569 244.541C284.476 246.744 285.301 248.968 286.045 251.213C286.128 251.54 286.506 251.487 286.751 251.425C286.945 251.332 287.067 251.128 287.025 250.964C286.29 248.239 285.472 245.535 284.574 242.852C284.005 241.127 283.355 239.424 282.675 237.771C282.562 237.496 282.479 237.169 282.365 236.894C282.692 236.811 283.07 236.759 283.396 236.676C283.396 236.676 283.448 236.706 283.55 236.767C284.407 236.376 285.572 236.514 287.065 236.917C296.167 239.56 316.457 256.484 335.958 264.482C336.265 264.664 336.654 264.827 337.043 264.989C337.396 266.377 337.801 268.142 338.41 270.03C340.809 277.765 345.56 288.77 354.235 294.694C355.709 295.71 357.276 296.572 359.015 297.26C349.488 298.593 334.431 298.854 311.738 295.056C310.214 294.704 308.108 294.283 305.849 293.77C305.164 293.64 304.509 293.459 303.824 293.328C303.139 293.198 302.536 293.047 301.851 292.917C299.643 292.435 297.567 291.962 295.941 291.549C295.788 291.458 295.655 291.448 295.522 291.439C295.522 291.439 295.471 291.408 295.42 291.378C295.42 291.378 295.317 291.317 295.266 291.286C295.266 291.286 295.296 291.235 295.327 291.184C295.357 291.133 295.316 290.969 295.346 290.918C295.346 290.918 295.407 290.816 295.356 290.785C295.334 290.356 295.394 289.907 295.372 289.478C295.359 288.916 295.429 288.333 295.416 287.772C295.447 287.72 295.457 287.587 295.436 287.506C295.419 274.603 293.667 262.402 290.577 250.236C290.412 249.583 289.453 249.913 289.618 250.566C290.369 254.548 291.007 258.601 291.512 262.645C291.575 262.89 291.555 263.155 291.617 263.4C292.007 266.474 292.315 269.568 292.49 272.653C292.554 273.592 292.589 274.583 292.653 275.523C292.797 278.311 292.889 281.069 292.899 283.848C292.879 284.113 292.942 284.358 292.922 284.624C292.966 285.482 292.929 286.361 292.891 287.239C292.903 287.801 292.834 288.384 292.846 288.946C292.816 288.997 292.837 289.079 292.857 289.16C292.849 289.64 292.81 290.172 292.802 290.652C292.806 291.694 292.758 292.705 292.711 293.717C292.711 293.717 292.711 293.717 292.68 293.768C292.693 294.33 292.675 294.943 292.636 295.474C292.637 295.822 292.608 296.22 292.609 296.568C292.569 296.752 292.61 296.915 292.57 297.099C292.57 297.099 292.54 297.15 292.509 297.201C292.038 305.1 291.066 312.909 289.563 320.678C289.563 320.678 287.848 321.114 285.101 321.42C284.56 321.514 283.968 321.578 283.324 321.611C282.732 321.674 282.17 321.686 281.578 321.75C277.686 321.999 272.701 321.875 267.384 320.791L281.255 295.496L282.169 293.961L282.919 292.466C282.919 292.466 282.95 292.415 282.98 292.364C283.487 291.279 283.943 290.164 284.398 289.049C284.6 288.476 284.772 287.954 284.944 287.433C285.116 286.911 285.318 286.338 285.49 285.816C286.438 282.707 287.07 279.548 287.294 276.493C287.371 275.43 287.419 274.418 287.384 273.428C287.392 272.6 287.317 271.793 287.294 271.017C287.123 268.975 286.87 266.953 286.342 265.044C286.042 264.034 285.793 263.054 285.411 262.065C283.038 255.801 278.679 251.128 273.052 248.82C244.178 236.77 214.701 224.57 185.06 212.411C189.109 210.731 193.211 209.428 197.182 208.463L197.203 208.545Z" fill="#294190"/>
<path d="M310.254 185.003C310.254 185.003 310.254 185.003 310.172 185.024C310.019 184.932 309.814 184.81 309.66 184.719C309.302 184.506 308.944 184.293 308.585 184.079C308.227 183.866 307.92 183.684 307.592 183.419C307.182 183.176 306.834 182.829 306.536 182.514C306.26 182.28 306.065 182.025 305.788 181.791C305.388 181.415 305.07 181.018 304.7 180.59C304.557 180.366 304.331 180.162 304.187 179.938C303.848 179.459 303.509 178.98 303.252 178.481C303.201 178.45 303.129 178.338 303.057 178.226C303.313 178.378 303.569 178.531 303.825 178.683C308.676 181.014 314.491 178.929 316.823 174.078C317.836 171.909 317.951 169.62 317.411 167.497C317.89 167.158 318.318 166.789 318.571 166.246C319.301 164.67 318.64 162.752 317.064 162.023C316.031 161.546 314.897 161.704 314 162.279C313.447 161.811 312.833 161.446 312.157 161.183C309.394 159.885 306.371 159.958 303.77 161.183C303.77 161.183 303.801 161.132 303.831 161.081C303.983 160.825 304.238 160.63 304.441 160.404C305.021 159.779 305.571 159.205 306.223 158.692C306.538 158.394 306.875 158.178 307.211 157.963C307.802 157.552 308.444 157.171 309.107 156.873C309.464 156.739 309.801 156.523 310.158 156.389C311.147 156.007 312.157 155.707 313.24 155.519C314.017 155.843 314.764 156.218 315.532 156.675C316.966 157.528 318.277 158.585 319.477 159.715C320.727 160.875 321.835 162.158 322.658 163.687C326.361 170.396 323.289 179.52 316.591 183.089C314.562 184.17 312.327 184.781 310.06 185.096L310.254 185.003Z" fill="#294190"/>
<path d="M259.551 171.197C259.551 171.197 259.551 171.197 259.469 171.218C259.264 171.096 259.111 171.005 258.906 170.883C258.496 170.639 258.138 170.426 257.728 170.182C257.37 169.969 257.012 169.756 256.714 169.44C256.305 169.197 255.905 168.82 255.556 168.474C255.28 168.24 255.033 167.955 254.757 167.721C254.357 167.345 253.987 166.917 253.649 166.438C253.454 166.183 253.31 165.959 253.115 165.704C252.725 165.195 252.416 164.665 252.077 164.186C251.975 164.125 251.954 164.044 251.882 163.931C252.138 164.084 252.394 164.236 252.701 164.419C257.89 166.882 264.113 164.693 266.577 159.504C267.651 157.232 267.805 154.76 267.225 152.473C267.755 152.165 268.213 151.744 268.497 151.151C269.287 149.473 268.554 147.442 266.907 146.6C265.822 146.094 264.607 146.272 263.628 146.868C263.024 146.37 262.409 146.004 261.683 145.711C258.766 144.322 255.446 144.426 252.734 145.724C252.734 145.724 252.764 145.672 252.795 145.621C252.947 145.365 253.202 145.17 253.436 144.893C254.016 144.268 254.626 143.592 255.278 143.078C255.645 142.811 256.011 142.544 256.378 142.277C257.051 141.846 257.693 141.466 258.417 141.064C258.804 140.879 259.141 140.663 259.549 140.56C260.62 140.157 261.712 139.836 262.845 139.679C263.674 140.033 264.503 140.388 265.322 140.875C266.858 141.789 268.272 142.907 269.543 144.149C270.866 145.421 272.076 146.765 272.92 148.376C276.88 155.584 273.606 165.281 266.49 169.087C264.349 170.239 261.95 170.892 259.52 171.248L259.551 171.197Z" fill="#294190"/>
<path d="M261.825 391.299C261.313 390.994 260.74 390.792 260.249 390.569C259.737 390.265 259.164 390.063 258.622 389.809C258.519 389.748 258.468 389.718 258.366 389.657C257.179 389.089 255.991 388.522 254.855 387.984C245.573 383.432 238.274 379.506 234.906 377.71C234.967 377.607 235.059 377.454 235.12 377.352L235.181 377.249C235.181 377.249 235.181 377.249 235.211 377.198C236.838 375.047 238.403 372.998 239.806 370.99L247.477 357.047L256.325 340.894L257.391 339.102L257.492 338.816L258.01 337.945L262.783 338.428L265.113 338.706C264.448 339.332 265.517 340.264 265.978 340.33L266.81 340.349C272.953 341.093 278.924 342.14 284.938 343.916C298.274 347.83 311.189 354.774 321.491 364.022C328.358 370.187 334.128 378.797 337.866 386.843C337.591 386.957 336.387 387.487 336.081 387.652C335.611 387.858 335.081 388.166 334.603 388.505C334.154 388.793 333.624 389.101 333.115 389.491C320.774 397.883 296.407 424.627 284.121 436.656C284.715 434.376 285.34 432.044 285.883 429.734C287.22 423.875 288.506 417.986 289.239 411.976C290.024 405.997 290.42 399.856 289.336 393.873C289.262 393.414 288.853 393.17 288.393 393.243C288.016 393.296 288.398 393.768 288.4 394.115C288.163 396.882 287.947 400.347 287.389 402.904C286.868 402.733 285.994 401.936 285.473 401.764C284.9 401.562 284.357 401.308 283.733 401.076C276.203 398.121 268.652 394.737 261.785 391.483L261.825 391.299Z" fill="#294190"/>
<path d="M271.422 460.22C270.49 459.804 269.549 459.522 268.527 459.26C265.663 458.249 263.159 458.146 261.089 459.063C257.774 460.557 256.398 464.035 255.653 466.919C250.703 465.568 245.824 463.982 241.037 462.243C243.559 453.693 246.081 445.143 248.594 436.726C252.731 422.899 256.656 409.778 260.044 397.792C267.535 401.278 275.741 404.844 283.823 407.919C282.971 428.691 274.133 453.099 271.37 460.189L271.422 460.22Z" fill="white"/>
<path d="M189.757 410.389C191.85 409.901 193.85 409.219 195.798 408.507C197.033 408.063 198.298 407.568 199.562 407.073C200.011 417.737 200.535 429.555 201.142 441.699C201.142 441.699 201.142 441.699 201.091 441.669C199.769 440.744 198.469 439.901 197.148 438.976C186.29 431.13 176.347 422.095 167.39 411.984C174.611 411.497 181.914 410.99 189.135 410.504L189.727 410.44L189.757 410.389Z" fill="white"/>
<path d="M298.24 298.527C300.397 298.979 302.554 299.431 304.609 299.822C323.883 345.599 363.136 382.261 389.059 402.882C400.442 411.942 409.301 417.906 412.721 420.079C411.888 421.247 411.034 422.333 410.201 423.501C404.427 431.225 397.772 438.217 390.224 444.262C366.441 463.383 334.616 473.768 299.584 473.234C300.011 472.518 300.468 471.75 300.945 471.064C311.678 453.606 321.644 435.691 331.097 417.471L338.054 403.797C339.108 401.443 340.49 399.354 341.286 396.501C342.022 393.75 342.051 390.787 341.346 388.011C337.12 377.873 330.858 369.641 323.098 362.529C312.346 352.874 299.367 346.262 285.612 342.237C287.341 340.147 288.301 337.252 289.108 334.613C289.996 331.606 290.679 328.478 291.362 325.349C293.159 316.853 294.353 308.206 294.985 299.571C295.024 299.04 295.062 298.509 295.101 297.977C295.469 298.058 295.837 298.138 296.206 298.218C296.942 298.379 297.575 298.479 298.26 298.609L298.24 298.527Z" fill="white"/>
<path d="M302.65 86.7651C302.65 86.7651 290.728 81.058 277.941 76.5697C265.154 72.0814 259.402 71.8474 259.402 71.8474C259.402 71.8474 269.059 67.2654 281.887 74.4812C281.887 74.4812 276.315 67.7696 267.857 65.4412C267.857 65.4412 272.185 64.3423 279.784 66.7147C279.784 66.7147 295.526 69.1488 314.34 87.6207L292.634 77.271L302.732 86.7444L302.65 86.7651Z" fill="white"/>
<path d="M228.125 82.4875C231.408 78.1336 236.618 78.1142 236.618 78.1142C225.161 76.6347 217.215 85.5622 217.215 85.5622C217.215 85.5622 219.364 81.0184 227.047 75.6776C234.648 70.3575 238.196 73.7155 240.585 76.1073C241.282 76.7994 242.923 78.4687 243.969 79.5069C244.44 79.9955 244.789 80.3415 244.789 80.3415C244.584 80.2197 244.319 80.2002 244.032 80.0991C235.787 77.065 228.125 82.4875 228.125 82.4875Z" fill="white"/>
<path d="M290.929 200.256C290.316 200.237 289.683 200.138 288.988 200.14L298.754 199.92C296.139 200.236 293.484 200.389 290.899 200.307L290.929 200.256Z" fill="white"/>
<path d="M298.606 202.261C296.889 204.913 293.359 208.982 287.374 209.372C278.407 209.998 271.36 207.746 268.373 204.029C266.906 202.185 266.204 200.451 265.975 199.205C269.483 200.183 272.97 201.08 276.548 201.822C281.24 202.673 286.064 203.186 290.906 203.087C293.48 202.954 296.084 202.771 298.657 202.292L298.606 202.261Z" fill="white"/>
<path d="M313.896 186.125C312.629 185.925 311.432 185.491 310.265 185.005C312.532 184.69 314.767 184.079 316.796 182.998C323.495 179.429 326.536 170.356 322.864 163.596C322.01 162.118 320.902 160.835 319.682 159.624C318.482 158.494 317.171 157.437 315.737 156.584C315.021 156.158 314.222 155.752 313.445 155.428C316.038 155.03 318.849 155.316 321.57 156.45C327.638 158.951 331.726 165.126 331.281 171.585C331.231 171.901 331.314 172.228 331.233 172.596C331.183 172.913 331.082 173.199 331.032 173.516C329.467 181.041 322.41 187.309 313.978 186.104L313.896 186.125Z" fill="white"/>
<path d="M317.103 161.972C318.679 162.701 319.34 164.619 318.61 166.195C318.306 166.707 317.899 167.158 317.45 167.446C316.554 168.021 315.42 168.179 314.387 167.703C312.811 166.973 312.15 165.055 312.879 163.479C313.184 162.967 313.591 162.516 314.039 162.228C314.936 161.653 316.07 161.495 317.103 161.972Z" fill="white"/>
<path d="M263.393 172.438C262.044 172.26 260.796 171.794 259.527 171.247C261.957 170.891 264.355 170.238 266.496 169.086C273.613 165.28 276.917 155.532 272.927 148.375C272.053 146.815 270.822 145.39 269.55 144.148C268.279 142.907 266.865 141.788 265.329 140.874C264.561 140.418 263.712 139.981 262.852 139.678C265.609 139.239 268.603 139.565 271.56 140.769C278.354 143.564 282.876 150.759 281.84 157.976C280.635 166.408 272.807 173.742 263.342 172.408L263.393 172.438Z" fill="white"/>
<path d="M262.336 148.244C262.62 147.651 263.078 147.23 263.608 146.922C264.586 146.326 265.801 146.148 266.886 146.654C268.564 147.445 269.297 149.475 268.476 151.205C268.141 151.768 267.734 152.219 267.204 152.527C266.226 153.123 265.011 153.302 263.926 152.795C262.247 152.004 261.515 149.974 262.336 148.244Z" fill="white"/>
<path d="M149.886 202.567C151.837 202.55 153.871 202.859 155.948 203.679C162.404 206.342 168.861 209.004 175.317 211.667C176.043 211.961 176.821 212.285 177.547 212.578C178.325 212.902 179.051 213.196 179.829 213.52C180.32 213.743 180.893 213.945 181.384 214.168C210.636 226.165 239.827 238.264 268.568 250.304C269.397 250.659 270.195 251.064 270.963 251.521C271.884 252.069 272.796 252.75 273.575 253.422C275.933 255.517 277.74 258.187 278.896 261.37C280.413 265.461 280.584 270.068 279.763 274.709C279.213 277.847 278.255 281.089 276.642 284.15L276.55 284.303L275.688 285.87L274.774 287.405L272.877 291.06L271.964 292.595L271.152 294.192L258.124 318.187L247.998 336.838L247.014 338.609L245.978 340.349L245.097 342.181L240.003 351.558L234.94 360.883C231.892 365.308 228.77 369.273 225.596 372.86C225.596 372.86 225.596 372.86 225.566 372.912C225.535 372.963 225.474 373.065 225.444 373.116C218.242 381.377 210.685 387.555 202.691 391.671C202.691 391.671 202.579 391.743 202.527 391.713C201.946 391.991 201.365 392.269 200.784 392.547C200.202 392.825 199.621 393.103 199.04 393.381C197.826 393.906 196.561 394.401 195.275 394.815C191.357 396.157 187.357 397.173 183.211 397.618C174.744 398.334 166.217 399.152 157.72 399.919C157.046 400.004 156.321 400.057 155.678 400.09C155.004 400.175 154.36 400.208 153.686 400.292C151.481 400.504 149.356 400.696 147.151 400.909C146.477 400.993 145.833 401.026 145.159 401.11C144.516 401.143 143.842 401.227 143.25 401.291C139.216 401.664 135.233 402.067 131.199 402.439C124.98 394.719 118.709 386.968 112.52 379.196C109.41 375.336 106.351 371.506 103.242 367.646C88.6472 349.536 85.9277 335.234 92.6207 310.936L92.8118 310.149C94.675 302.94 109.796 245.603 124.116 222.932C129.194 214.863 138.731 202.793 149.907 202.649L149.886 202.567ZM179.639 376.709C183.337 376.552 187.023 376.181 190.617 375.616C191.914 375.417 193.138 375.106 194.363 374.795C195.67 374.463 196.925 374.101 198.129 373.708C198.731 373.512 199.333 373.316 199.884 373.089C200.322 372.934 200.812 372.81 201.281 372.603C201.394 372.532 201.506 372.46 201.669 372.418C201.669 372.418 201.73 372.316 201.863 372.325C205.126 370.801 207.539 368.494 209.091 365.536C209.091 365.536 209.091 365.536 209.121 365.484C209.334 365.126 209.548 364.768 209.658 364.349C209.78 364.144 209.902 363.939 209.973 363.704C210.509 362.22 210.75 361.116 210.746 360.074L210.671 359.267C209.873 353.386 208.768 347.322 207.438 341.402C206.794 338.523 206.19 335.461 205.668 332.377C205.322 330.162 204.987 327.813 204.702 325.496C204.576 324.658 204.42 323.872 204.376 323.014L204.262 322.392L203.919 320.871C203.919 320.871 204.521 320.674 204.827 320.51C205.704 320.2 206.5 319.911 207.326 319.571C215.947 316.382 223.28 313.259 228.532 310.839C233.785 308.419 237.006 306.731 237.282 306.618C238.393 306.032 239.361 305.221 240.226 304.349C241.64 302.904 242.676 301.163 243.272 299.23C244.098 296.326 244.424 293.331 244.485 290.317C244.524 289.786 244.562 289.255 244.571 288.774C244.571 288.774 244.601 288.723 244.581 288.642C244.568 288.08 244.505 287.487 244.441 286.895C244.353 285.179 244.244 283.382 244.044 281.738C243.981 281.145 243.836 280.574 243.772 279.981C243.709 279.389 243.594 278.766 243.5 278.225C243.385 277.603 243.331 276.877 243.166 276.224C242.334 272.264 241.319 268.61 240.193 265.376C238.531 260.713 234.923 257.458 230.556 256.177C228.609 254.672 226.155 253.905 223.419 254.426C217.243 255.603 211.18 257.056 205.282 258.814C198.761 260.688 192.252 263.123 185.805 265.803C185.513 263.965 185.188 261.831 184.821 259.187L182.209 240.859C182.112 239.623 181.758 237.888 181.077 235.888C179.608 231.133 176.293 229.715 174.565 229.241C174.197 229.161 173.798 229.132 173.43 229.051C172.957 228.215 172.413 227.615 171.626 227.424C170.419 227.122 168.407 227.241 165.702 227.711C165.028 227.795 164.375 227.961 163.619 228.066C162.262 228.368 160.874 228.72 159.455 229.124C158.639 229.331 157.822 229.539 157.057 229.776C156.322 229.963 155.608 230.231 154.894 230.499C153.935 230.83 152.955 231.079 151.965 231.46C147.986 232.905 144.417 234.594 141.309 236.557C138.649 238.232 137 239.954 136.281 241.745C134.103 243.776 132.681 246.049 132.159 248.441L131.838 250.261C131.621 255.053 133.913 269.725 139.301 287.348C122.527 292.824 112.197 303.314 110.547 304.689C110.149 305.007 109.752 305.325 109.355 305.643L108.785 306.136C97.2137 315.332 109.226 339.53 114.647 346.845C116.444 349.3 118.176 350.816 119.763 351.76C122.988 353.679 125.55 352.985 127.252 351.987C127.915 351.689 128.751 351.216 129.72 350.752C130.331 350.423 131.025 350.073 131.749 349.672C132.36 349.343 133.054 348.993 133.777 348.592C133.838 348.489 133.971 348.499 134.083 348.427C134.695 348.098 135.307 347.769 135.949 347.389C136.561 347.059 137.172 346.73 137.784 346.401C139.844 345.27 142.015 344.066 144.268 342.842C147.439 341.124 151.201 338.996 154.259 337.35C154.562 339.055 154.887 341.189 155.284 343.782C155.441 344.568 156.531 349.376 157.529 353.989C158.36 357.603 159.149 361.053 159.409 362.247C160.043 365.258 160.912 367.993 162.014 370.451C165.135 377.437 179.701 376.954 179.834 376.964L179.639 376.709Z" fill="white"/>
<path d="M198.598 148.652C199.878 149.413 200.914 150.584 201.705 151.818C203.36 154.396 203.975 157.673 202.698 160.518C202.151 161.787 200.258 161.007 200.672 159.729C201.046 158.634 201.052 157.459 200.711 156.286C200.462 155.306 199.875 154.194 199.239 153.4C198.849 152.891 198.428 152.432 198.008 151.974C197.587 151.516 197.311 151.282 196.757 150.814C196.306 150.407 195.825 150.052 195.343 149.696C194.862 149.34 194.371 149.117 193.92 148.71C193.469 148.303 193.629 147.567 194.283 147.401C195.691 147.13 197.349 147.839 198.496 148.591L198.598 148.652Z" fill="#221E1F"/>
<path d="M272.202 121.402C272.202 121.402 258.095 121.812 254.936 123.745C251.776 125.677 259.249 110.785 272.202 121.402Z" fill="#221E1F"/>
<path d="M329.536 146.778C329.536 146.778 318.125 138.464 314.466 138.089C310.756 137.684 325.818 130.426 329.536 146.778Z" fill="#221E1F"/>
<path d="M268.822 218.646C270.112 219.275 271.381 219.822 272.741 220.215C271.381 219.822 270.081 219.326 268.822 218.646Z" fill="#221E1F"/>
<path d="M250.375 190.828L250.733 191.042C252.178 192.109 254.653 192.958 256.74 193.645C258.959 194.341 261.179 195.038 263.438 195.551C267.978 196.657 272.539 197.846 277.129 198.636C281.054 199.377 284.969 199.904 288.964 200.063C289.628 200.112 290.262 200.211 290.906 200.178C293.542 200.291 296.146 200.108 298.76 199.792C300.7 199.56 302.671 199.276 304.498 198.769L304.549 198.8C304.936 198.614 305.325 198.776 305.51 199.164C305.696 199.551 305.503 199.991 305.116 200.177C304.892 200.32 304.595 200.352 304.402 200.445C303.884 201.315 303.366 202.185 302.909 202.953C302.727 203.26 302.574 203.516 302.392 203.824C301.843 204.745 301.223 205.554 300.685 206.343C300.532 206.599 300.359 206.773 300.156 206.999C299.536 207.808 298.946 208.566 298.356 209.324C298.234 209.529 298.092 209.652 297.919 209.827C297.278 210.554 296.637 211.282 296.027 211.959C295.966 212.061 295.854 212.133 295.711 212.256C295.019 212.953 294.357 213.599 293.645 214.215C293.614 214.266 293.584 214.317 293.502 214.338C292.789 214.954 292.025 215.539 291.292 216.073C289.855 217.09 288.489 217.871 287.102 218.571C286.99 218.643 286.847 218.766 286.684 218.807C285.746 219.22 284.838 219.58 283.961 219.89C284.889 219.611 285.776 219.168 286.715 218.756C286.907 218.316 286.987 217.948 287.037 217.631C287.082 215.925 283.743 216.295 268.251 212.276C263.087 210.937 258.678 209.493 265.651 216.413C266.337 216.891 267.023 217.369 267.74 217.795C267.126 217.429 266.512 217.064 265.897 216.699C265.744 216.607 265.621 216.465 265.497 216.322C264.586 215.641 263.786 214.888 263.017 214.084C262.668 213.738 262.289 213.443 261.94 213.097C260.853 211.895 259.878 210.622 259.015 209.277C259.015 209.277 258.964 209.246 258.943 209.165C258.367 208.268 257.822 207.32 257.359 206.351C257.359 206.351 257.338 206.269 257.287 206.239C256.412 204.332 255.802 202.444 255.437 200.494C255.396 200.331 255.405 200.198 255.364 200.035C255.218 199.116 255.173 198.258 255.129 197.4C255.139 197.267 255.098 197.104 255.138 196.92C255.177 196.388 255.185 195.908 255.224 195.377C253.31 194.516 251.355 193.491 249.49 191.966C249.163 191.701 249.089 191.242 249.333 190.832C249.546 190.474 250.087 190.38 250.466 190.675L250.375 190.828ZM268.373 204.032C271.36 207.75 278.407 210.001 287.374 209.376C293.359 208.986 296.889 204.917 298.606 202.264C296.033 202.744 293.429 202.927 290.855 203.059C286.013 203.159 281.24 202.676 276.497 201.795C272.919 201.052 269.432 200.156 265.924 199.178C266.205 200.454 266.854 202.158 268.322 204.001L268.373 204.032Z" fill="#221E1F"/>
<path d="M312.224 161.083C312.868 161.397 313.452 161.814 314.066 162.18C313.588 162.519 313.16 162.888 312.906 163.43C312.177 165.006 312.838 166.924 314.414 167.654C315.447 168.13 316.581 167.973 317.478 167.397C318.017 169.52 317.872 171.86 316.889 173.979C314.557 178.83 308.773 180.864 303.891 178.583C303.635 178.431 303.379 178.279 303.123 178.126C303.021 178.066 303.031 177.933 303.01 177.851C302.609 177.127 302.269 176.301 301.98 175.505C301.887 175.311 301.825 175.067 301.732 174.873C301.402 173.914 301.153 172.934 301.067 171.913C300.919 170.646 300.956 169.42 301.125 168.204C301.205 167.836 301.255 167.519 301.336 167.151C301.506 166.282 301.728 165.444 302.052 164.666C302.234 164.359 302.284 164.042 302.416 163.704C302.862 162.722 303.41 161.8 304.03 160.991C306.549 159.786 309.654 159.693 312.417 160.991L312.224 161.083Z" fill="#221E1F"/>
<path d="M252.707 164.422C252.451 164.269 252.195 164.117 251.888 163.934C251.786 163.874 251.795 163.741 251.724 163.629C251.302 162.823 250.91 161.966 250.57 161.14C250.508 160.895 250.415 160.701 250.353 160.457C250.002 159.416 249.732 158.354 249.647 157.333C249.478 155.985 249.524 154.626 249.724 153.359C249.753 152.96 249.833 152.592 249.914 152.224C250.115 151.304 250.367 150.414 250.67 149.555C250.802 149.217 250.933 148.88 251.065 148.542C251.541 147.509 252.12 146.536 252.801 145.624C255.513 144.327 258.782 144.192 261.75 145.611C262.446 145.956 263.081 146.403 263.695 146.769C263.165 147.077 262.707 147.498 262.423 148.091C261.632 149.77 262.365 151.8 264.013 152.642C265.098 153.148 266.313 152.97 267.292 152.374C267.872 154.66 267.718 157.133 266.643 159.405C264.18 164.594 257.957 166.783 252.768 164.319L252.707 164.422Z" fill="#221E1F"/>
<path d="M108.587 305.885L109.157 305.392C109.554 305.074 109.951 304.756 110.349 304.438C110.349 304.438 110.318 304.489 110.288 304.54C106 308.019 107.546 317.187 110.754 325.542C114.374 334.835 120.126 343.109 122.49 341.466C124.428 340.539 128.659 338.204 133.501 335.54C134.307 335.119 135.143 334.646 135.979 334.173C136.121 334.049 136.284 334.008 136.427 333.885C137.069 333.504 137.763 333.155 138.405 332.774C138.466 332.672 138.599 332.681 138.711 332.61C139.465 332.157 140.189 331.756 140.994 331.334C142.748 330.367 144.501 329.401 146.092 328.475C147.427 327.745 148.681 327.035 149.874 326.428C150.71 325.955 151.515 325.533 152.209 325.183C154.074 324.145 155.461 323.445 156.094 323.197C156.257 323.156 156.339 323.135 156.502 323.094C156.502 323.094 156.574 323.206 156.625 323.236C156.779 323.328 156.932 323.419 156.964 323.715C157.016 324.093 157.152 324.797 157.401 325.777C157.504 326.185 157.547 326.696 157.641 327.237C157.714 327.697 157.808 328.238 157.953 328.809C158.057 329.217 158.11 329.595 158.183 330.055C158.474 331.545 158.727 333.567 159.093 335.864C159.136 336.375 159.24 336.783 159.334 337.324C159.533 338.621 162.907 353.105 163.488 355.738C163.863 357.555 164.38 359.249 164.958 360.841C165.175 361.524 165.443 362.238 165.691 362.871C166.629 365.023 174.693 366.147 178.125 365.971C181.608 365.825 184.998 365.486 188.46 364.911C190.461 364.577 192.257 364.12 193.981 363.552C195.267 363.139 196.553 362.725 197.715 362.169C198.348 361.922 198.908 361.562 199.438 361.254C199.887 360.966 200.314 360.597 200.742 360.227C200.915 360.053 201.139 359.909 201.312 359.735C202.208 358.812 202.847 357.737 203.231 356.51C203.504 355.702 203.655 355.098 203.654 354.751C202.855 348.87 201.812 343.05 200.482 337.13C200.077 335.364 199.785 333.527 199.41 331.71C198.586 327.269 197.824 322.725 197.223 317.793C197.14 317.467 197.057 317.14 197.005 316.762C196.745 315.568 196.536 314.404 196.246 313.261C196.131 312.638 195.965 311.985 195.851 311.363L195.809 311.199C195.789 311.118 195.901 311.046 195.931 310.994C196.094 310.953 196.258 310.911 196.4 310.788C197.278 310.479 198.155 310.169 199.032 309.859C215.101 304.17 227.705 298.014 232.059 295.822C232.641 295.544 233.14 295.287 233.395 295.092C234.894 294.32 236.043 292.855 236.486 291.178C236.698 290.472 236.777 289.757 236.938 289.021C237.058 288.469 237.179 287.917 237.248 287.334C237.317 286.751 237.356 286.22 237.426 285.638C237.513 284.442 237.621 283.328 237.576 282.123C237.543 281.479 237.479 280.887 237.446 280.243C237.434 279.682 237.371 279.089 237.307 278.497C237.244 277.905 237.262 277.292 237.168 276.751C237.147 276.669 237.157 276.536 237.136 276.455C236.914 274.382 236.61 272.329 236.194 270.349C235.403 266.552 234.451 263.143 233.418 260.103C232.747 258.317 231.67 256.983 230.307 255.895C234.674 257.176 238.282 260.432 239.944 265.094C241.07 268.328 242.084 271.982 242.916 275.943C243.031 276.565 243.115 277.239 243.251 277.944C243.365 278.566 243.459 279.108 243.523 279.7C243.586 280.292 243.731 280.864 243.795 281.456C244.016 283.182 244.104 284.898 244.192 286.613C244.204 287.175 244.268 287.768 244.331 288.36C244.331 288.36 244.301 288.411 244.322 288.493C244.334 289.055 244.244 289.555 244.235 290.036C244.175 293.05 243.819 296.095 243.022 298.948C242.478 300.912 241.442 302.652 239.977 304.068C239.111 304.939 238.144 305.75 237.033 306.336C236.727 306.501 233.505 308.188 228.283 310.557C223.031 312.978 215.697 316.1 207.077 319.289C206.251 319.629 205.455 319.918 204.577 320.228C204.251 320.311 203.975 320.424 203.67 320.589L204.012 322.11L204.127 322.733C204.253 323.57 204.378 324.407 204.453 325.214C204.737 327.532 205.022 329.85 205.418 332.096C205.91 335.23 206.545 338.242 207.189 341.12C208.57 347.071 209.624 353.104 210.422 358.986L210.497 359.793C210.5 360.835 210.29 361.888 209.723 363.422C209.602 363.627 209.48 363.832 209.409 364.067C209.247 364.456 209.034 364.814 208.872 365.203C208.872 365.203 208.872 365.203 208.841 365.254C207.32 368.161 204.877 370.52 201.613 372.044C201.613 372.044 201.553 372.146 201.42 372.136C201.308 372.208 201.196 372.28 201.032 372.322C200.593 372.477 200.073 372.652 199.634 372.807C199.084 373.034 198.482 373.23 197.88 373.427C196.676 373.819 195.42 374.182 194.114 374.513C192.889 374.824 191.664 375.135 190.368 375.334C186.774 375.899 183.057 376.322 179.39 376.427C179.39 376.427 164.691 376.901 161.57 369.915C160.467 367.457 159.629 364.671 158.965 361.711C158.756 360.547 157.916 357.066 157.085 353.453C156.036 348.809 154.915 344.052 154.84 343.246C154.442 340.652 154.118 338.518 153.815 336.813C150.726 338.511 146.944 340.558 143.824 342.306C141.571 343.53 139.399 344.733 137.34 345.865C136.728 346.194 136.116 346.523 135.505 346.852C134.863 347.233 134.2 347.531 133.639 347.891C133.578 347.993 133.445 347.984 133.333 348.056C132.609 348.457 131.998 348.786 131.304 349.136C130.58 349.537 129.887 349.887 129.275 350.216C128.358 350.71 127.471 351.152 126.808 351.451C125.136 352.397 122.544 353.142 119.319 351.224C117.732 350.279 116.03 348.712 114.203 346.308C108.781 338.993 96.7694 314.796 108.34 305.599L108.587 305.885Z" fill="#221E1F"/>
<path d="M180.342 267.754C180.342 267.754 180.229 267.479 180.208 267.397C180.136 267.285 180.094 267.122 180.002 266.928C179.93 266.816 179.93 266.816 179.888 266.652C179.662 266.102 179.36 264.744 178.984 262.58C178.609 260.415 178.127 257.148 177.508 252.829C176.962 248.969 176.207 243.599 175.231 236.85C175.085 235.931 174.959 235.093 174.843 234.123C174.737 233.02 174.436 231.663 173.939 230.051C173.764 229.53 173.548 229.194 173.281 228.827C173.68 228.856 174.078 228.886 174.416 229.017C176.226 229.47 179.459 230.909 180.928 235.664C181.558 237.633 181.912 239.369 182.06 240.635L184.671 258.963C185.039 261.607 185.364 263.741 185.656 265.579C184.912 265.898 184.116 266.187 183.341 266.558C182.321 266.991 181.28 267.342 180.281 267.856L180.342 267.754Z" fill="#221E1F"/>
<path d="M144.455 284.736C144.365 285.237 144.122 285.646 143.632 285.771C142.08 286.165 140.58 286.589 139.101 287.095C133.662 269.442 131.421 254.801 131.638 250.009L131.958 248.189C132.511 245.746 133.902 243.523 136.081 241.493C135.929 241.749 135.797 242.086 135.747 242.403C135.697 242.72 135.627 242.955 135.577 243.272C135.417 246.92 137.25 259.1 141.628 274.459C142.498 277.541 143.439 280.735 144.586 284.051C144.648 284.296 144.577 284.531 144.537 284.715L144.455 284.736Z" fill="#221E1F"/>
<path d="M283.367 321.772C284.01 321.739 284.602 321.675 285.144 321.581C287.921 321.224 289.605 320.839 289.605 320.839C288.944 324.397 288.201 327.975 287.305 331.462C286.409 334.949 285.062 338.029 283.828 341.385C283.613 341.396 283.317 341.427 283.072 341.49C279.381 340.471 275.567 339.658 271.765 339.059C269.996 338.77 268.309 338.459 266.562 338.251C266.061 338.161 265.592 338.367 265.276 338.665L262.946 338.387L258.122 337.874L258.487 337.26L267.396 321.004C272.794 322.067 277.729 322.161 281.59 321.962C282.233 321.929 282.795 321.917 283.336 321.823L283.367 321.772Z" fill="#F7A4BC"/>
<path d="M297.391 186.706C297.391 186.706 296.972 186.595 296.839 186.585C297.457 185.081 297.809 183.558 297.557 181.883C297.274 179.913 296.317 178.026 294.759 176.684C294.657 176.623 294.585 176.511 294.431 176.419C292.659 175.088 290.063 174.791 288.175 175.401C287.195 175.649 286.257 176.062 285.37 176.504C283.127 177.595 281.212 179.298 279.656 181.214C279.626 181.266 279.596 181.317 279.535 181.419C279.381 181.328 279.34 181.165 279.125 181.176C266.908 178.759 254.492 177.61 242.079 177.503L237.492 177.408C236.163 177.31 234.864 176.815 233.799 176.042C233.44 175.829 233.224 175.493 232.927 175.177C232.332 174.546 231.798 173.812 231.416 172.823C230.737 171.518 230.201 170.089 229.848 168.701C228.101 163.018 228.446 156.846 230.069 151.088C230.069 151.088 230.13 150.986 230.16 150.935C231.702 145.198 234.45 139.763 237.782 134.745C239.427 131.981 241.199 130.401 244.191 130.032C247.141 129.5 250.144 129.346 253.158 129.406C261.873 129.67 270.552 131.16 279.14 133.151C281.083 133.613 283.077 134.107 285.02 134.569C285.02 134.569 285.02 134.569 285.071 134.6C286.513 134.972 287.904 135.315 289.345 135.687C289.632 135.788 289.886 135.593 289.988 135.307C311.757 140.773 325.364 148.66 333.067 154.352C333.651 154.769 334.337 155.247 334.84 155.684C335.219 155.979 335.495 156.213 335.874 156.508C336.079 156.629 336.254 156.803 336.479 157.006C337.965 158.237 339.164 159.366 339.964 160.119C340.784 160.954 341.299 161.953 341.426 163.138C343.75 181.017 338.797 192.487 334.136 199.972C332.349 202.86 330.606 204.041 328.126 201.803C327.828 201.487 327.449 201.193 327.1 200.847C326.721 200.552 326.424 200.236 326.045 199.941C325.543 199.504 325.01 199.118 324.477 198.731C324.375 198.671 324.273 198.61 324.17 198.549C315.524 192.227 304.304 188.601 298.751 187.099C298.281 186.958 297.862 186.847 297.494 186.767L297.391 186.706ZM271.558 140.769C268.601 139.565 265.658 139.269 262.85 139.678C261.717 139.835 260.625 140.156 259.554 140.559C259.166 140.744 258.779 140.929 258.421 141.063C257.728 141.413 257.004 141.814 256.383 142.276C256.016 142.543 255.649 142.81 255.282 143.077C254.6 143.642 253.969 144.237 253.44 144.892C253.288 145.148 252.982 145.313 252.799 145.62C252.799 145.62 252.769 145.671 252.738 145.722C252.057 146.634 251.479 147.607 251.002 148.64C250.82 148.948 250.739 149.316 250.608 149.653C250.304 150.513 250.001 151.372 249.851 152.322C249.771 152.691 249.691 153.059 249.662 153.457C249.513 154.755 249.446 156.032 249.584 157.431C249.721 158.483 249.991 159.545 250.291 160.555C250.353 160.8 250.446 160.994 250.508 161.239C250.817 162.116 251.188 162.891 251.661 163.727C251.733 163.839 251.754 163.921 251.826 164.033C251.928 164.094 251.949 164.175 252.021 164.287C252.329 164.817 252.668 165.296 253.058 165.806C253.253 166.06 253.397 166.285 253.592 166.539C253.962 166.967 254.331 167.395 254.7 167.822C254.947 168.107 255.223 168.341 255.5 168.575C255.849 168.921 256.228 169.216 256.658 169.542C257.016 169.755 257.344 170.019 257.672 170.284C258.082 170.527 258.44 170.74 258.849 170.984C259.054 171.106 259.259 171.228 259.413 171.319C259.413 171.319 259.413 171.319 259.494 171.298C260.681 171.866 262.011 172.311 263.36 172.489C272.774 173.793 280.572 166.51 281.859 158.057C282.925 150.79 278.372 143.645 271.579 140.851L271.558 140.769ZM304.19 179.938C304.19 179.938 304.529 180.417 304.703 180.59C305.022 180.987 305.391 181.415 305.791 181.792C306.037 182.077 306.263 182.28 306.539 182.514C306.888 182.86 307.216 183.124 307.595 183.419C307.953 183.633 308.23 183.866 308.588 184.08C308.947 184.293 309.305 184.506 309.663 184.719C309.817 184.811 310.022 184.932 310.175 185.024C310.175 185.024 310.175 185.024 310.257 185.003C311.393 185.54 312.59 185.975 313.888 186.124C322.32 187.328 329.377 181.06 330.942 173.535C330.992 173.219 331.093 172.932 331.143 172.615C331.193 172.298 331.192 171.951 331.19 171.604C331.636 165.146 327.547 158.97 321.48 156.469C318.707 155.305 315.948 155.049 313.355 155.447C312.273 155.635 311.262 155.935 310.273 156.317C309.916 156.451 309.579 156.667 309.222 156.801C308.559 157.1 307.917 157.48 307.326 157.891C306.99 158.107 306.623 158.374 306.338 158.62C305.686 159.133 305.137 159.707 304.557 160.333C304.404 160.588 304.098 160.753 303.946 161.009C303.946 161.009 303.916 161.06 303.885 161.111C303.265 161.921 302.717 162.842 302.271 163.825C302.088 164.132 302.038 164.449 301.907 164.786C301.583 165.564 301.361 166.402 301.191 167.271C301.11 167.639 301.06 167.956 300.98 168.324C300.811 169.541 300.775 170.767 300.922 172.033C301.038 173.003 301.287 173.983 301.587 174.993C301.68 175.187 301.742 175.432 301.835 175.626C302.124 176.421 302.494 177.196 302.865 177.971C302.967 178.032 302.958 178.165 302.978 178.247C303.03 178.277 303.102 178.389 303.173 178.502C303.482 179.032 303.77 179.48 304.109 179.959L304.19 179.938Z" fill="#F7A4BC"/>
<path d="M342.299 221.327C342.322 222.104 342.406 222.777 342.592 223.165C342.818 223.716 343.045 224.267 343.415 224.694C343.61 224.949 343.835 225.152 344.112 225.386C344.214 225.447 344.317 225.508 344.419 225.569C344.236 225.876 344.053 226.183 343.871 226.491C343.273 227.729 342.982 229.15 343.334 230.538C343.604 231.6 344.2 232.578 344.969 233.382C345.441 233.871 346.199 234.461 346.977 234.785C346.093 236.269 345.722 238.058 345.994 239.814C346.192 240.764 346.655 241.733 347.23 242.629C346.579 243.143 345.406 243.831 343.372 243.522C340.122 243.044 336.879 236.263 335.903 229.514C335.704 228.217 335.966 227.194 336.3 226.284C337.291 223.685 339.881 222.245 341.666 221.575C341.86 221.482 342.054 221.389 342.217 221.348L342.299 221.327Z" fill="#F7A4BC"/>
<path d="M354.267 294.639C345.592 288.715 340.791 277.68 338.443 269.975C337.864 268.037 337.377 266.292 337.076 264.934C336.951 264.444 336.899 264.066 336.795 263.658C336.524 262.249 336.347 261.382 336.347 261.382C336.347 261.382 345.871 270.305 354.051 258.537C355.514 256.427 356.439 255.106 357.018 254.133C357.475 253.365 357.779 252.853 357.932 252.597C358.972 252.246 359.962 251.864 360.89 251.585C360.89 251.585 361.054 251.544 361.135 251.523C363.044 250.995 365.035 250.793 367.007 250.857C367.967 250.874 368.867 250.994 369.766 251.113C370.768 251.293 371.739 251.524 372.74 251.357C373.577 251.231 373.532 250.026 372.887 249.712C371.71 249.011 369.943 249.069 368.563 248.941C367.153 248.865 365.764 248.87 364.385 249.09C362.762 249.372 361.18 249.817 359.619 250.344C358.415 250.736 357.241 251.078 355.996 251.307C354.669 251.557 353.238 251.399 352.213 250.443C351.218 249.435 351.111 247.985 351.525 246.706C351.858 245.796 352.315 245.028 352.956 244.3C354.736 242.24 357.603 241.034 360.062 240.279C361.674 239.783 363.328 239.45 364.951 239.168C366.544 238.937 368.105 238.41 369.667 238.231C370.127 238.158 370.42 237.431 369.847 237.229C366.625 236.005 363.256 236.774 360.011 237.685C356.796 238.544 353.533 240.069 351.264 242.6C351.03 242.877 350.766 243.205 350.583 243.512C349.987 242.534 349.33 241.657 348.928 240.586C348.793 240.229 348.639 239.79 348.617 239.362C348.477 237.615 349.105 235.978 350.346 234.707C352.158 232.943 354.584 231.545 356.858 230.402C359.519 229.074 362.304 227.889 365.275 227.439C366.031 227.334 365.976 226.261 365.199 226.285C361.849 226.44 358.654 227.034 355.615 228.415C353.014 229.64 350.016 231.184 348.012 233.387C347.591 232.929 347.12 232.441 346.72 232.064C346.125 231.433 345.642 230.73 345.465 229.862C345.091 228.045 346.178 226.335 347.368 225.033C349.108 223.157 351.166 221.679 353.296 220.312C355.569 218.822 357.955 217.608 360.639 217.056C361.507 216.879 361.073 215.512 360.205 215.689C357.266 216.436 354.441 217.805 351.821 219.296C349.619 220.55 347.5 222.131 345.709 223.977C345.506 224.203 345.2 224.367 345.047 224.623C345.047 224.623 345.017 224.674 344.987 224.725C344.627 224.165 344.379 223.532 344.265 222.91C344.037 222.012 343.972 221.072 344.009 220.193C344.077 219.263 344.176 218.282 344.479 217.423C344.58 217.137 344.63 216.82 344.762 216.482C344.842 216.114 344.974 215.776 345.156 215.469C346.812 212.919 349.958 210.078 354.608 207.854C361.135 204.806 374.23 201.437 378.541 212.597C392.044 247.454 388.75 268.368 382.383 281.284C377.648 290.874 371.18 296.037 368.494 299.153C364.909 299.237 361.75 298.606 358.865 297.513C357.126 296.825 355.559 295.962 354.084 294.946L354.267 294.639Z" fill="#F7A4BC"/>
<path d="M205.497 454.065C206.188 453.02 207.082 451.75 208.128 450.224C208.403 449.763 208.728 449.333 209.084 448.851C209.388 448.339 209.795 447.888 210.1 447.377C217.701 436.581 230.135 420.342 236.464 419.256C240.334 418.578 242.249 422.698 243.32 427.771C243.966 430.997 244.214 434.541 244.338 437.595C244.369 437.891 244.35 438.157 244.382 438.453C242.152 445.929 239.891 453.457 237.682 461.014C237.511 461.536 237.39 462.088 237.218 462.61C237.047 463.131 236.896 463.735 236.724 464.256C236.361 465.565 235.947 466.844 235.584 468.153C235.412 468.674 235.292 469.227 235.12 469.748C234.918 470.321 234.797 470.873 234.646 471.476C232.286 479.637 230.008 487.778 227.933 495.693C227.661 496.848 220.376 524.121 216.256 534.076C213.309 541.126 211.474 542.113 210.881 542.177C210.8 542.198 210.718 542.218 210.667 542.188C207.529 541.638 203.456 526.115 202.086 498.475C202.074 497.914 202.226 497.658 204.012 496.987C204.808 496.698 205.827 496.265 206.58 495.466C206.814 495.189 206.946 494.851 207.108 494.462C207.209 494.176 207.238 493.777 207.267 493.379C206.664 482.277 206.099 470.295 205.512 458.233C205.479 457.589 205.446 456.946 205.413 456.302C205.38 455.659 205.347 455.015 205.314 454.372C205.314 454.372 205.345 454.321 205.375 454.269C205.375 454.269 205.436 454.167 205.466 454.116L205.497 454.065Z" fill="#F7A4BC"/>
<path d="M267.07 462.414C268.971 462.713 271.039 463.666 272.902 464.844C273.005 464.905 273.117 464.833 273.219 464.894C273.946 465.188 274.813 465.011 275.24 464.294C275.301 464.192 275.361 464.089 275.422 463.987C278.729 454.934 281.75 445.779 284.218 436.504C296.555 424.506 320.902 397.68 333.212 389.339C333.772 388.979 334.251 388.64 334.7 388.353C335.23 388.044 335.729 387.787 336.178 387.499C336.484 387.335 337.591 386.957 337.867 386.843C338.145 387.425 337.998 387.702 338.245 388.334C338.535 389.477 338.764 391.261 338.758 392.436C338.731 393.529 338.227 394.541 337.965 395.563C337.965 395.563 337.934 395.614 337.904 395.666C337.793 396.085 337.549 396.494 337.408 396.965C337.063 397.661 336.526 398.797 335.979 400.066C335.604 400.813 335.311 401.539 334.966 402.235L334.844 402.44L328.039 415.858C318.646 433.975 308.763 451.869 298.009 469.246C297.217 470.577 296.353 471.796 295.561 473.127C295.226 473.69 294.891 474.253 294.587 474.765C294.252 475.328 293.886 475.942 293.5 476.475C293.104 477.14 292.738 477.755 292.291 478.39C291.956 478.953 291.621 479.516 291.286 480.079C290.951 480.642 290.616 481.205 290.281 481.769C289.855 482.485 289.295 483.192 288.869 483.909C280.823 496.034 272.245 507.774 262.364 518.323C260.05 519.649 258.373 519.206 257.627 516.266C256.81 513.562 256.941 510.313 257.041 507.115C257.303 500.617 257.749 494.159 258.358 487.659C258.663 484.583 258.948 481.425 259.283 478.298C259.353 477.716 259.392 477.184 259.512 476.632C259.582 476.049 259.62 475.518 259.741 474.966C259.87 473.934 260.029 472.85 260.21 471.848C260.279 471.266 260.399 470.714 260.55 470.11C260.64 469.61 260.731 469.109 260.821 468.608L260.882 468.505C261.576 465.591 262.966 463.022 265.212 462.625C265.886 462.541 266.58 462.539 267.347 462.648L267.07 462.414Z" fill="#F7A4BC"/>
<path d="M141.088 236.222C144.227 234.208 147.796 232.519 151.745 231.125C152.734 230.744 153.714 230.495 154.673 230.165C155.387 229.896 156.152 229.658 156.836 229.441C157.683 229.183 158.469 229.027 159.234 228.789C160.622 228.436 162.041 228.033 163.399 227.731C164.133 227.545 164.807 227.46 165.481 227.376C168.187 226.906 170.168 226.838 171.405 227.089C172.193 227.28 172.736 227.88 173.209 228.716C173.395 229.104 173.692 229.42 173.868 229.94C174.364 231.552 174.665 232.91 174.772 234.013C174.888 234.983 175.013 235.82 175.16 236.739C176.135 243.488 176.891 248.859 177.436 252.718C178.055 257.037 178.537 260.305 178.913 262.469C179.289 264.633 179.59 265.991 179.817 266.542C179.858 266.705 179.909 266.735 179.93 266.817C180.023 267.011 180.095 267.123 180.136 267.286C180.187 267.317 180.25 267.562 180.27 267.643C181.29 267.21 182.28 266.829 183.33 266.345C184.075 266.025 184.871 265.736 185.646 265.366C192.092 262.685 198.601 260.25 205.122 258.377C211.071 256.649 217.083 255.166 223.259 253.988C225.995 253.467 228.398 254.204 230.396 255.739C231.708 256.797 232.867 258.11 233.507 259.947C234.591 263.018 235.544 266.426 236.283 270.193C236.699 272.174 237.003 274.226 237.225 276.299C237.246 276.38 237.236 276.513 237.257 276.595C237.321 277.187 237.333 277.749 237.397 278.341C237.46 278.934 237.472 279.495 237.536 280.088C237.569 280.731 237.632 281.323 237.665 281.967C237.711 283.172 237.572 284.337 237.515 285.482C237.446 286.064 237.407 286.596 237.337 287.178C237.268 287.761 237.096 288.283 237.027 288.865C236.866 289.601 236.787 290.317 236.575 291.022C236.132 292.699 234.983 294.165 233.484 294.936C233.209 295.05 232.76 295.337 232.149 295.667C227.846 297.889 215.242 304.045 199.122 309.703C198.244 310.013 197.367 310.323 196.49 310.633C196.326 310.674 196.163 310.716 196.021 310.839C195.939 310.859 195.878 310.962 195.899 311.044L195.94 311.207C196.055 311.83 196.221 312.483 196.335 313.105C196.595 314.3 196.804 315.464 197.094 316.607C197.177 316.933 197.26 317.26 197.313 317.638C197.862 322.539 198.625 327.083 199.499 331.554C199.874 333.371 200.167 335.209 200.572 336.974C201.902 342.895 202.996 348.744 203.743 354.595C203.744 354.943 203.593 355.546 203.321 356.354C202.886 357.551 202.216 358.677 201.402 359.579C201.28 359.784 201.056 359.928 200.831 360.072C200.404 360.441 200.058 360.79 199.528 361.098C198.998 361.406 198.437 361.766 197.805 362.014C196.591 362.539 195.356 362.983 194.071 363.396C192.295 363.934 190.499 364.39 188.549 364.755C185.088 365.33 181.667 365.721 178.214 365.815C174.783 365.992 166.718 364.867 165.78 362.715C165.482 362.052 165.265 361.369 165.048 360.685C164.47 359.093 163.952 357.399 163.578 355.582C162.996 352.949 159.673 338.496 159.423 337.168C159.329 336.627 159.307 336.198 159.183 335.708C158.817 333.411 158.533 331.441 158.272 329.899C158.199 329.44 158.147 329.062 158.043 328.654C157.949 328.112 157.855 327.571 157.731 327.081C157.637 326.54 157.512 326.05 157.49 325.621C157.323 324.621 157.157 323.968 157.053 323.559C157.022 323.263 156.868 323.172 156.714 323.081C156.714 323.081 156.673 322.917 156.591 322.938C156.428 322.979 156.346 323 156.183 323.042C155.551 323.289 154.164 323.989 152.298 325.028C151.574 325.429 150.769 325.851 149.963 326.273C148.822 326.91 147.517 327.589 146.181 328.32C144.54 329.215 142.837 330.212 141.084 331.179C140.36 331.58 139.606 332.032 138.8 332.454C138.739 332.556 138.606 332.547 138.494 332.618C137.852 332.999 137.159 333.349 136.516 333.729C136.374 333.852 136.211 333.894 136.068 334.017C135.232 334.49 134.396 334.963 133.591 335.385C128.748 338.049 124.517 340.383 122.58 341.31C120.216 342.953 114.464 334.68 110.844 325.386C107.584 317.001 106.038 307.833 110.377 304.384C110.377 304.384 110.408 304.333 110.438 304.282C112.118 302.856 122.418 292.418 139.193 286.941C140.642 286.486 142.172 286.01 143.724 285.616C144.213 285.492 144.406 285.052 144.547 284.581C144.618 284.346 144.688 284.111 144.596 283.917C143.531 280.58 142.559 277.438 141.638 274.325C137.29 258.915 135.457 246.735 135.587 243.138C135.637 242.821 135.707 242.586 135.757 242.269C135.807 241.952 135.99 241.645 136.091 241.359C136.81 239.568 138.458 237.846 141.118 236.171L141.088 236.222Z" fill="#F7A4BC"/>
<path d="M119.343 223.145C134.924 196.026 148.563 196.169 156.845 200.889C164.314 203.946 171.783 207.003 179.2 210.03C193.36 204.522 209.229 203.013 216.849 202.555C215.564 200.404 214.309 198.203 213.218 195.959C209.491 188.127 206.873 179.361 206.422 170.567C203.965 172.017 199.49 171.85 197.395 171.643C192.807 171.2 189.324 168.782 186.797 164.991C183.263 159.63 182.061 152.331 183.129 145.758C183.673 140.883 185.613 135.175 191.407 132.661C193.202 131.857 194.836 131.79 197.392 132.271C197.392 132.271 191.582 124.794 206.479 95.3271C220.565 67.4569 234.791 63.2358 244.312 74.3766C245.17 71.421 252.102 51.1474 283.087 62.0959C316.465 73.9141 326.071 93.7687 337.55 87.29C349.589 80.4516 335.243 76.8375 328.407 76.4441C327.61 76.3857 327.34 75.3243 328.013 74.8927C331.631 72.5398 338.112 68.2863 342.23 65.6762C373.956 45.3205 368.664 108.505 342.648 126.02C340.57 127.417 338.224 128.447 335.755 129.335C336.007 133.921 336.156 138.446 336.112 143.064C336.286 145.801 336.389 148.773 336.349 151.869C340.508 154.898 343.102 157.412 344.446 158.765C345.215 159.569 345.678 160.538 345.836 161.672C347.979 177.641 344.459 192.529 335.498 205.843C333.791 208.362 330.515 209.324 327.743 208.16C326.678 207.735 325.594 207.228 324.509 206.721C323.8 208.379 323.203 209.965 322.361 211.612C317.881 221.007 306.414 230.612 292.497 235.363C296.855 237.124 302.232 240.67 309.206 245.374C316.437 250.23 324.456 255.625 332.572 259.691C332.857 259.445 333.224 259.178 333.56 258.962C335.202 258.067 337.266 258.325 338.671 259.577C338.671 259.577 341.356 261.937 344.236 261.64C345.88 261.44 347.48 260.381 349.066 258.414C346.845 257.37 345.347 255.578 344.522 253.354C344.047 252.17 343.848 250.874 343.864 249.566C343.302 249.578 342.72 249.509 342.188 249.47C335.186 248.424 331.878 237.791 331.017 231.665C330.284 226.723 332.821 222.341 337.603 219.779C337.905 218.573 338.37 217.325 339.02 216.117C339.02 216.117 340.055 214.376 341.716 213.216C344.085 210.05 347.793 207.196 352.3 205.096C355.176 203.757 365.121 199.623 373.398 202.954C377.47 204.614 380.578 207.779 382.229 212.227C404.426 269.517 382.891 291.5 373.63 300.892C372.765 301.764 372.012 302.564 371.401 303.24C370.608 304.224 369.394 304.749 368.159 304.846C364.624 304.961 361.139 304.412 357.906 303.321C349.145 304.416 335.345 304.661 315.157 301.662C313.123 301.352 310.935 300.952 308.768 300.633C338.784 369.713 415.04 417.577 415.91 418.095L417.446 419.009L416.481 420.514C409.939 430.346 402.013 439.008 392.866 446.458C368.014 469.24 333.021 482.038 294.119 481.835C292.097 485 290.025 488.133 287.901 491.237C279.703 503.618 271.184 514.908 262.982 523.336C262.788 523.428 258.201 526.245 254.331 524.012C251.362 522.245 249.937 518.001 250.199 511.502C250.653 499.088 252.514 485.709 253.942 477.132C248.585 475.886 243.379 474.383 238.214 472.696C235.884 480.806 233.585 488.864 231.54 496.728C230.765 499.663 223.843 525.627 219.671 535.552C218.567 538.222 217.087 541.292 215.226 543.373C213.283 545.822 210.899 547.384 207.944 546.874C207.392 546.753 206.626 546.644 205.755 546.126C202.223 544.024 196.593 535.546 194.727 497.907C194.516 493.484 197.922 491.837 199.82 491.094C199.193 479.216 198.574 466.51 197.985 453.752C180.669 442.896 165.111 429.203 152.107 413.08C145.315 413.544 138.554 413.958 131.681 414.443L129.638 414.614L128.396 412.974C120.799 402.909 113.232 392.793 105.644 382.595C82.6734 350.837 81.7352 334.822 88.2662 310.913L88.3686 310.974C88.7723 306.917 91.0191 298.48 96.843 279.488C101.829 263.185 109.865 240.241 119.538 223.4L119.343 223.145ZM389.006 402.851C363.104 382.311 323.8 345.619 304.556 299.791C302.501 299.4 300.344 298.948 298.187 298.496C297.502 298.366 296.817 298.236 296.132 298.106C295.764 298.025 295.396 297.945 295.028 297.865C294.989 298.396 294.95 298.927 294.911 299.459C294.331 308.124 293.137 316.771 291.289 325.237C290.636 328.314 289.953 331.443 289.035 334.501C288.197 337.19 287.267 340.034 285.539 342.124C299.294 346.149 312.242 352.813 323.025 362.417C330.784 369.529 337.098 377.79 341.273 387.899C341.978 390.675 341.979 393.586 341.213 396.388C340.416 399.242 339.004 401.382 337.981 403.684L331.024 417.359C321.601 435.527 311.687 453.472 300.872 470.951C300.445 471.668 299.988 472.435 299.511 473.122C334.543 473.655 366.368 463.27 390.151 444.149C397.698 438.104 404.353 431.112 410.127 423.388C410.961 422.22 411.866 421.165 412.648 419.966C409.258 417.742 400.451 411.808 388.985 402.769L389.006 402.851ZM210.695 542.133C210.695 542.133 210.747 542.164 210.91 542.122C211.481 541.977 213.337 541.071 216.284 534.022C220.425 524.148 227.659 496.845 227.961 495.638C230.036 487.723 232.366 479.613 234.675 471.422C234.877 470.849 234.997 470.297 235.148 469.694C235.32 469.172 235.441 468.62 235.612 468.098C235.975 466.789 236.389 465.511 236.752 464.202C236.924 463.68 237.075 463.077 237.247 462.555C237.418 462.034 237.539 461.481 237.711 460.96C239.92 453.402 242.18 445.875 244.41 438.399C244.693 437.458 244.945 436.568 245.227 435.627C249.404 421.616 253.4 408.259 256.798 396.14C256.696 396.08 256.644 396.049 256.542 395.988C255.355 395.421 254.219 394.883 253.083 394.346C242.378 389.155 233.923 384.61 230.636 382.794C223.252 391.362 213.986 399.712 203.249 405.176C203.249 405.176 203.137 405.248 203.086 405.218C203.58 417.087 204.181 430.406 204.865 444.052C204.868 444.747 204.921 445.472 204.954 446.115C204.987 446.759 205.02 447.402 205.023 448.097C205.092 450.079 205.191 452.009 205.311 454.021C205.311 454.021 205.28 454.072 205.301 454.154C205.334 454.797 205.367 455.441 205.4 456.084C205.433 456.728 205.466 457.371 205.499 458.015C206.055 470.129 206.641 482.192 207.265 493.376C207.267 493.723 207.196 493.958 207.095 494.245C206.963 494.582 206.801 494.971 206.567 495.248C205.866 496.078 204.794 496.48 203.999 496.769C202.162 497.409 202.01 497.665 202.073 498.258C203.443 525.897 207.516 541.42 210.654 541.97L210.695 542.133ZM197.174 438.922C198.495 439.846 199.765 440.741 201.117 441.614C201.117 441.614 201.117 441.614 201.168 441.645C200.612 429.531 200.088 417.713 199.589 407.019C198.375 407.544 197.14 407.988 195.824 408.453C193.824 409.134 191.876 409.847 189.783 410.334L189.191 410.398C182.001 410.833 174.668 411.392 167.447 411.878C176.403 421.99 186.346 431.024 197.204 438.87L197.174 438.922ZM271.42 460.221C274.183 453.132 283.021 428.724 283.873 407.952C275.791 404.876 267.585 401.31 260.094 397.824C256.706 409.81 252.832 422.962 248.643 436.759C246.131 445.176 243.578 453.777 241.087 462.275C245.874 464.015 250.753 465.6 255.703 466.951C256.448 464.067 257.824 460.589 261.139 459.095C263.209 458.178 265.713 458.281 268.577 459.292C269.599 459.554 270.54 459.836 271.471 460.252L271.42 460.221ZM103.218 367.566C106.328 371.426 109.438 375.286 112.497 379.116C118.716 386.837 124.956 394.639 131.176 402.359C135.159 401.956 139.193 401.584 143.226 401.211C143.87 401.178 144.544 401.094 145.136 401.03C145.81 400.946 146.454 400.913 147.127 400.829C149.333 400.616 151.458 400.425 153.663 400.212C154.337 400.128 154.981 400.095 155.655 400.011C156.329 399.926 157.054 399.873 157.697 399.84C166.224 399.021 174.772 398.285 183.187 397.538C187.333 397.094 191.304 396.129 195.252 394.735C196.487 394.291 197.752 393.796 199.017 393.301C199.598 393.023 200.179 392.745 200.76 392.467C201.342 392.189 201.974 391.941 202.504 391.633C202.504 391.633 202.616 391.561 202.667 391.591C210.661 387.475 218.219 381.297 225.421 373.037C225.451 372.985 225.512 372.883 225.543 372.832C225.543 372.832 225.543 372.832 225.573 372.781C228.726 369.112 231.869 365.228 234.917 360.803L239.98 351.478L245.073 342.101L246.109 340.361L246.991 338.529L248.026 336.788L247.975 336.758L258.101 318.107L271.129 294.112L272.043 292.577L272.854 290.98L274.802 287.356L275.716 285.82L276.527 284.224L276.619 284.07C278.232 281.01 279.16 277.819 279.74 274.629C280.561 269.988 280.36 265.433 278.873 261.291C277.717 258.107 275.858 255.407 273.552 253.342C272.722 252.64 271.861 251.99 270.94 251.441C270.172 250.984 269.374 250.579 268.545 250.224C239.804 238.185 210.531 226.106 181.361 214.088C180.87 213.865 180.297 213.663 179.806 213.44C179.028 213.116 178.302 212.823 177.524 212.499C176.798 212.205 176.02 211.881 175.294 211.587C168.837 208.925 162.381 206.262 155.925 203.599C153.848 202.779 151.814 202.47 149.863 202.488C138.718 202.58 129.201 214.732 124.072 222.77C109.721 245.493 94.6006 302.829 92.768 309.987L92.5768 310.775C85.8838 335.072 88.6034 349.375 103.198 367.484L103.218 367.566ZM189.886 135.915C189.255 136.51 188.675 137.135 188.085 137.894C188.085 137.894 188.085 137.894 188.055 137.945C187.039 139.42 186.158 141.599 185.33 144.156C184.946 145.383 184.583 146.692 184.241 148.083C183.476 153.796 184.439 159.984 188.195 164.506C194.403 172.012 201.61 170.616 206.311 168.075C206.309 167.728 206.359 167.411 206.327 167.115C206.372 165.408 206.498 163.681 206.676 161.985C206.775 161.004 206.873 160.023 207.104 159.051C207.285 158.05 208.848 158.217 208.719 159.25C208.32 161.785 208.268 164.318 208.268 166.883C208.45 177.527 211.84 188.139 217.074 197.283C218.072 198.985 219.12 200.718 220.199 202.4C220.702 203.185 221.288 203.948 221.842 204.764C223.896 207.719 226.175 210.53 228.596 213.218C234.627 219.856 241.657 225.633 249.508 229.679C256.898 233.452 265.243 235.853 273.588 235.689C274.63 235.685 275.713 235.497 276.764 235.36C277.489 235.306 278.215 235.253 278.889 235.168C281.696 234.76 284.514 234.218 287.228 233.268C290.513 232.173 296.776 229.453 301.833 226.778C308.263 222.494 313.697 216.855 317.81 210.291C318.928 208.53 319.942 206.708 320.906 204.855C321.119 204.497 321.332 204.138 321.546 203.78C321.759 203.422 321.87 203.002 322.083 202.644C322.397 201.999 322.66 201.324 322.975 200.679C317.023 196.237 309.666 193.108 303.907 191.137C302.577 190.692 301.299 190.278 300.174 189.956C298.946 189.572 297.821 189.249 296.901 189.048C296.349 188.928 295.879 188.786 295.511 188.706C294.474 190.099 293.13 191.31 291.589 191.918C287.938 193.628 283.995 193.499 280.397 193.022C279.947 192.963 279.629 192.566 279.689 192.116C279.697 191.636 280.176 191.297 280.574 191.326C284.038 191.446 287.613 191.146 290.498 189.675C293.353 188.254 295.171 185.316 294.67 182.314C294.25 179.292 291.636 177.044 288.657 177.974C287.789 178.151 286.912 178.461 286.085 178.801C284.872 179.327 283.669 180.067 282.569 180.868C281.692 181.525 280.867 182.212 280.145 182.961C280.145 182.961 280.217 183.073 280.186 183.124C280.137 183.441 279.912 183.585 279.709 183.81C279.302 184.261 278.802 184.518 278.168 184.419C275.725 183.866 273.302 183.395 270.849 182.975C268.253 182.678 265.626 182.432 263.081 182.166C256.132 181.497 249.224 180.992 242.267 180.803C240.744 180.798 239.171 180.763 237.7 180.789L235.371 180.859C234.411 180.842 233.491 180.642 232.641 180.205C231.792 179.769 231.033 179.18 230.448 178.416L229.102 176.367C228.27 174.971 227.519 173.554 226.961 172.044C224.518 166.015 224.391 159.355 225.594 153.139C226.827 146.872 229.257 141.04 232.332 135.522C233.124 134.191 233.946 132.809 234.738 131.478C235.367 130.189 236.986 128.865 238.435 128.41C238.598 128.368 238.741 128.245 238.874 128.255C241.996 127.201 245.192 126.954 248.349 126.892C253.722 126.831 259.016 127.485 264.21 128.426C266.479 128.806 268.687 129.288 270.947 129.801C275.21 130.674 279.403 131.782 283.535 132.992C285.498 133.537 287.38 134.102 289.313 134.697C289.599 134.799 289.713 135.074 289.693 135.34C289.592 135.626 289.338 135.821 289.051 135.72C287.609 135.347 286.219 135.005 284.777 134.633C284.777 134.633 284.777 134.633 284.726 134.602C282.783 134.139 280.819 133.595 278.846 133.184C270.257 131.193 261.609 129.652 252.864 129.439C249.85 129.379 246.796 129.502 243.896 130.065C240.874 130.485 239.102 132.065 237.488 134.778C234.186 139.745 231.438 145.18 229.866 150.968C229.866 150.968 229.805 151.07 229.775 151.121C228.151 156.879 227.858 163.081 229.554 168.734C229.958 170.153 230.474 171.499 231.122 172.856C231.504 173.845 232.038 174.579 232.633 175.21C232.93 175.525 233.176 175.811 233.504 176.075C234.57 176.847 235.869 177.343 237.197 177.44L241.785 177.536C254.146 177.612 266.614 178.792 278.831 181.208C278.984 181.3 279.087 181.361 279.24 181.452C279.271 181.401 279.301 181.35 279.362 181.247C280.897 179.25 282.832 177.628 285.076 176.537C285.963 176.094 286.952 175.713 287.881 175.433C289.799 174.773 292.395 175.069 294.137 176.452C294.239 176.513 294.311 176.625 294.465 176.717C296.104 178.039 297.031 179.976 297.263 181.916C297.545 183.54 297.162 185.114 296.545 186.618C296.698 186.71 296.913 186.699 297.097 186.739C297.465 186.819 297.884 186.93 298.355 187.071C303.908 188.573 315.077 192.168 323.774 198.521C323.876 198.582 323.978 198.642 324.081 198.703C324.613 199.09 325.116 199.527 325.648 199.913C326.027 200.208 326.376 200.554 326.704 200.818C327.083 201.113 327.38 201.429 327.729 201.775C330.21 204.013 331.952 202.832 333.739 199.944C338.401 192.459 343.323 181.04 341.029 163.109C340.872 161.976 340.337 160.895 339.567 160.091C338.849 159.317 337.568 158.209 336.082 156.978C335.878 156.856 335.703 156.683 335.478 156.48C335.099 156.185 334.873 155.981 334.443 155.656C333.91 155.27 333.224 154.792 332.671 154.324C332.719 153.66 332.768 152.996 332.786 152.383C332.785 152.035 332.835 151.719 332.833 151.371C332.843 151.238 332.802 151.075 332.811 150.942C332.82 150.462 332.777 149.951 332.785 149.471C332.935 143.045 332.707 136.671 332.295 130.257C309.545 135.991 274.548 122.933 253.316 97.339C252.459 103.206 249.656 113.044 240.001 120.885C225.324 132.739 216.048 152.173 216.608 156.942L211.871 163.273C211.848 162.844 211.745 162.436 211.672 161.977C211.377 159.791 210.95 157.597 210.258 155.382C209.637 153.28 208.822 151.271 207.977 149.312C203.444 138.991 195.885 130.959 189.967 135.547C189.906 135.65 189.763 135.773 189.651 135.845L189.886 135.915ZM240.58 76.1068C238.191 73.7149 234.695 70.3873 227.042 75.677C219.441 80.9971 217.21 85.5617 217.21 85.5617C217.21 85.5617 225.105 76.6036 236.613 78.1136C236.613 78.1136 231.403 78.133 228.12 82.4869C228.12 82.4869 235.782 77.0645 244.027 80.0986C244.232 80.2204 244.498 80.2398 244.784 80.3409C244.784 80.3409 244.435 79.9949 243.964 79.5063C242.969 78.4986 241.328 76.8293 240.58 76.1068ZM279.733 66.6851C272.134 64.3126 267.806 65.4116 267.806 65.4116C276.294 67.6888 281.836 74.4515 281.836 74.4515C268.978 67.287 259.351 71.8178 259.351 71.8178C259.351 71.8178 265.103 72.0518 277.89 76.54C290.676 81.0283 302.599 86.7355 302.599 86.7355L292.501 77.2621L314.208 87.6118C295.423 69.0887 279.651 66.7058 279.651 66.7058L279.733 66.6851ZM336.381 226.261C336.017 227.223 335.755 228.245 335.984 229.491C336.96 236.24 340.203 243.021 343.453 243.499C345.487 243.809 346.629 243.171 347.311 242.606C346.706 241.761 346.273 240.741 346.075 239.792C345.803 238.035 346.174 236.246 347.058 234.762C346.28 234.438 345.522 233.848 345.05 233.359C344.281 232.555 343.685 231.577 343.415 230.515C343.011 229.097 343.354 227.706 343.952 226.468C344.134 226.161 344.317 225.853 344.5 225.546C344.398 225.485 344.295 225.424 344.193 225.363C343.937 225.211 343.691 224.926 343.496 224.671C343.157 224.193 342.899 223.693 342.673 223.142C342.538 222.785 342.403 222.081 342.38 221.304C342.216 221.346 342.023 221.438 341.829 221.531C340.044 222.202 337.505 223.672 336.463 226.24L336.381 226.261ZM378.643 212.312C374.331 201.152 361.237 204.521 354.71 207.569C350.06 209.793 346.914 212.635 345.258 215.184C345.075 215.492 344.944 215.829 344.864 216.197C344.762 216.484 344.682 216.852 344.581 217.138C344.298 218.079 344.179 218.979 344.111 219.909C344.043 220.838 344.138 221.727 344.366 222.625C344.532 223.278 344.78 223.911 345.088 224.441C345.088 224.441 345.119 224.39 345.149 224.338C345.302 224.082 345.607 223.918 345.811 223.692C347.551 221.816 349.721 220.266 351.923 219.011C354.543 217.52 357.368 216.151 360.307 215.404C361.205 215.176 361.639 216.544 360.741 216.772C358.077 217.405 355.722 218.568 353.398 220.027C351.268 221.394 349.179 222.924 347.47 224.749C346.279 226.05 345.193 227.76 345.567 229.578C345.744 230.445 346.227 231.148 346.822 231.779C347.191 232.207 347.693 232.645 348.114 233.103C350.088 230.95 353.116 229.355 355.716 228.13C358.786 226.699 361.981 226.104 365.301 226C366.077 225.977 366.051 227.07 365.377 227.154C362.406 227.605 359.621 228.79 356.96 230.117C354.686 231.26 352.26 232.658 350.448 234.422C349.186 235.612 348.579 237.33 348.718 239.077C348.74 239.506 348.895 239.944 349.029 240.302C349.432 241.373 350.058 242.3 350.685 243.227C350.868 242.92 351.132 242.592 351.366 242.316C353.604 239.835 356.919 238.341 360.113 237.4C363.328 236.54 366.727 235.72 369.949 236.944C370.522 237.147 370.198 237.924 369.769 237.946C368.207 238.126 366.594 238.622 365.053 238.883C363.378 239.135 361.776 239.498 360.164 239.995C357.704 240.749 354.838 241.955 353.058 244.015C352.448 244.692 351.96 245.511 351.627 246.421C351.212 247.7 351.29 249.201 352.315 250.158C353.309 251.166 354.74 251.324 356.098 251.022C357.343 250.793 358.547 250.4 359.721 250.059C361.282 249.532 362.864 249.087 364.487 248.805C365.865 248.585 367.285 248.529 368.665 248.657C370.044 248.784 371.781 248.778 372.989 249.427C373.603 249.793 373.679 250.947 372.842 251.072C371.841 251.24 370.87 251.008 369.868 250.828C368.917 250.678 368.018 250.559 367.109 250.573C365.137 250.509 363.115 250.761 361.237 251.238C361.237 251.238 361.074 251.28 360.992 251.3C360.064 251.58 359.023 251.931 358.033 252.313C357.881 252.569 357.577 253.08 357.12 253.848C356.541 254.821 355.616 256.142 354.153 258.252C345.922 269.99 336.449 261.097 336.449 261.097C336.449 261.097 336.596 262.016 336.897 263.373C337.001 263.781 337.053 264.159 337.178 264.649C336.84 264.518 336.451 264.356 336.093 264.142C316.592 256.144 296.301 239.221 287.199 236.578C285.788 236.154 284.541 236.036 283.684 236.428C283.633 236.397 283.582 236.367 283.531 236.336C283.204 236.419 282.826 236.472 282.5 236.555C282.613 236.83 282.696 237.157 282.81 237.432C283.46 239.136 284.11 240.839 284.708 242.512C285.607 245.196 286.373 247.87 287.16 250.625C287.222 250.87 287.079 250.993 286.885 251.086C286.61 251.199 286.263 251.2 286.18 250.874C285.436 248.629 284.61 246.405 283.703 244.202C283.146 242.692 282.425 241.224 281.786 239.734C281.488 239.071 281.219 238.357 280.921 237.694C280.807 237.419 280.694 237.144 280.55 236.919C280.009 237.013 279.489 237.189 278.978 237.232C278.304 237.316 277.609 237.319 276.935 237.403C274.914 237.655 272.871 237.827 270.869 237.814C270.307 237.826 269.755 237.705 269.223 237.666C252.242 236.851 237.249 227.1 226.139 214.667C223.574 211.755 221.152 208.72 219.036 205.52C219.036 205.52 218.933 205.459 218.964 205.408C218.964 205.408 218.964 205.408 218.913 205.377C218.913 205.377 209.024 205.455 197.388 208.236C193.418 209.201 189.316 210.503 185.266 212.184C214.907 224.343 244.384 236.543 273.258 248.593C278.886 250.901 283.214 255.625 285.618 261.838C286 262.827 286.248 263.807 286.548 264.817L287.5 270.79C287.575 271.597 287.598 272.373 287.591 273.2C287.595 274.242 287.547 275.254 287.5 276.266C287.277 279.321 286.645 282.48 285.696 285.589C285.524 286.111 285.322 286.684 285.15 287.205C284.979 287.727 284.776 288.3 284.605 288.821C284.149 289.937 283.694 291.052 283.187 292.137C283.187 292.137 283.156 292.188 283.126 292.239L282.273 293.672L281.462 295.269L267.591 320.564L258.682 336.82L258.316 337.434L257.85 338.335L257.697 338.591L256.683 340.413L247.834 356.567L240.163 370.509C238.761 372.517 237.216 374.648 235.569 376.717C235.569 376.717 235.569 376.717 235.538 376.769L235.477 376.871C235.416 376.973 235.325 377.127 235.264 377.229C238.601 379.076 245.93 382.951 255.213 387.504C256.349 388.041 257.536 388.609 258.723 389.176C258.826 389.237 258.877 389.268 258.979 389.329C259.491 389.633 260.064 389.835 260.606 390.089C261.118 390.393 261.691 390.595 262.182 390.818C269.049 394.072 276.632 397.405 284.131 400.411C284.704 400.613 285.246 400.867 285.87 401.099C286.361 401.322 286.832 401.464 287.354 401.635C287.394 401.451 287.352 401.288 287.392 401.104C287.422 400.705 287.451 400.307 287.51 399.857C287.727 397.629 287.964 395.483 288.15 393.306C288.149 392.959 288.413 392.631 288.791 392.579C289.25 392.506 289.63 392.8 289.733 393.209C290.818 399.191 290.473 405.363 289.637 411.311C288.852 417.291 287.618 423.21 286.281 429.069C285.738 431.38 285.113 433.711 284.519 435.992C282.05 445.267 279.03 454.421 275.723 463.474C275.662 463.577 275.601 463.679 275.54 463.782C275.114 464.498 274.277 464.624 273.52 464.382C273.417 464.321 273.305 464.393 273.203 464.332C271.309 463.205 269.272 462.201 267.371 461.902C266.604 461.792 265.94 461.743 265.236 461.879C262.99 462.275 261.569 464.896 260.905 467.759L260.845 467.861C260.755 468.362 260.664 468.863 260.574 469.364C260.454 469.916 260.384 470.499 260.234 471.102C260.053 472.104 259.894 473.187 259.765 474.22C259.696 474.802 259.606 475.303 259.536 475.886C259.467 476.468 259.377 476.969 259.307 477.552C258.972 480.679 258.687 483.837 258.382 486.913C257.803 493.361 257.378 499.901 257.065 506.369C256.964 509.567 256.782 512.785 257.651 515.52C258.397 518.459 260.125 518.933 262.388 517.576C272.269 507.027 280.898 495.319 288.893 483.163C289.319 482.446 289.879 481.739 290.305 481.022C290.64 480.459 290.975 479.896 291.31 479.333C291.645 478.77 291.98 478.207 292.315 477.643C292.711 476.978 293.077 476.364 293.524 475.729C293.859 475.165 294.224 474.551 294.611 474.018C294.946 473.455 295.281 472.892 295.585 472.38C296.377 471.049 297.241 469.83 298.033 468.499C308.705 451.144 318.64 433.28 328.063 415.112L334.868 401.694L334.99 401.489C335.82 399.626 336.774 397.907 337.463 396.167C337.655 395.727 337.848 395.287 337.958 394.868C337.958 394.868 337.989 394.817 338.019 394.766C338.311 393.692 338.471 392.608 338.467 391.566C338.473 390.392 338.346 389.207 338.056 388.064C337.778 387.483 337.448 386.871 337.17 386.29C333.432 378.243 327.6 370.337 320.784 364.203C310.482 354.955 297.893 348.504 284.506 344.56C278.492 342.784 272.419 341.458 266.276 340.715L266.174 340.654L266.144 340.705C265.377 340.595 264.864 339.944 264.759 339.188C264.789 339.137 264.687 339.076 264.697 338.943C264.697 338.943 264.625 338.831 264.655 338.78C264.715 338.33 264.928 337.972 265.264 337.756C265.58 337.458 266.049 337.252 266.55 337.342C268.298 337.551 270.036 337.891 271.753 338.151C275.555 338.749 279.338 339.614 283.061 340.581C283.296 340.651 283.531 340.722 283.766 340.793C283.827 340.69 283.755 340.578 283.786 340.527C284.989 337.223 286.418 334.122 287.263 330.605C288.159 327.118 288.902 323.539 289.563 319.982C291.036 312.263 292.039 304.404 292.51 296.505C292.51 296.505 292.54 296.454 292.571 296.403C292.611 296.219 292.569 296.055 292.61 295.871C292.608 295.524 292.637 295.125 292.636 294.778C292.675 294.247 292.693 293.634 292.681 293.072C292.681 293.072 292.681 293.072 292.711 293.021C292.759 292.009 292.755 290.967 292.802 289.956C292.81 289.475 292.849 288.944 292.858 288.464C292.888 288.413 292.868 288.331 292.847 288.249C292.834 287.687 292.904 287.105 292.892 286.543C292.929 285.664 292.936 284.837 292.923 283.928C292.942 283.662 292.88 283.417 292.899 283.151C292.889 280.373 292.797 277.615 292.654 274.826C292.589 273.887 292.555 272.896 292.49 271.956C292.264 268.841 291.956 265.747 291.618 262.704C291.556 262.459 291.575 262.193 291.513 261.948C291.038 257.854 290.4 253.8 289.619 249.87C289.453 249.217 290.412 248.886 290.578 249.54C293.667 261.705 295.368 273.876 295.436 286.809C295.406 286.861 295.396 286.994 295.417 287.075C295.429 287.637 295.36 288.22 295.372 288.781C295.394 289.21 295.334 289.66 295.357 290.089C295.357 290.089 295.296 290.191 295.347 290.222C295.316 290.273 295.358 290.436 295.327 290.488C295.327 290.488 295.297 290.539 295.266 290.59C295.266 290.59 295.369 290.651 295.42 290.681C295.42 290.681 295.471 290.712 295.522 290.742C295.625 290.803 295.809 290.843 295.942 290.853C297.568 291.266 299.643 291.738 301.852 292.22C302.506 292.402 303.14 292.502 303.825 292.632C304.51 292.762 305.164 292.944 305.849 293.074C308.109 293.587 310.215 294.008 311.738 294.36C334.432 298.157 349.489 297.897 359.015 296.564C361.87 297.708 365.029 298.34 368.645 298.204C371.279 295.058 377.747 289.895 382.533 280.336C388.952 267.45 392.194 246.505 378.692 211.648L378.643 212.312Z" fill="#221E1F"/>
</svg>
